<?xml version="1.0" encoding="utf-8"?>
<!-- Generator: Adobe Illustrator 19.2.1, SVG Export Plug-In . SVG Version: 6.00 Build 0)  -->
<svg version="1.1" id="Layer_4" xmlns="http://www.w3.org/2000/svg" xmlns:xlink="http://www.w3.org/1999/xlink" x="0px" y="0px"
	 viewBox="0 0 63.9 60.6" style="enable-background:new 0 0 63.9 60.6;" xml:space="preserve">
<style type="text/css">
	.st0{fill:none;stroke:#010101;stroke-width:9.000000e-02;stroke-linecap:round;stroke-linejoin:round;}
	.st1{fill:none;stroke:#010101;stroke-width:0.13;stroke-linecap:round;stroke-linejoin:round;}
	.st2{fill:none;stroke:#010101;stroke-width:6.000000e-02;stroke-linecap:round;stroke-linejoin:round;}
	.st3{fill:none;stroke:#010101;stroke-width:3.000000e-02;stroke-linecap:round;stroke-linejoin:round;}
	.st4{fill:none;stroke:#010101;stroke-width:0.19;stroke-linecap:round;stroke-linejoin:round;}
	.st5{fill:none;stroke:#010101;stroke-width:0.25;stroke-linecap:round;stroke-linejoin:round;}
	.st6{font-family:'GillSans';}
	.st7{font-size:1.5px;}
</style>
<title>ex_07</title>
<path class="st0" d="M32.6,50.1c-1.5-2.3-2.9-4.7-4.1-7.2l-1.4-4.2c0.4,1.3,0.9,2.7,1.3,4.1"/>
<path class="st1" d="M27.4,39.9l-0.4-1.2l0.1,2.9c0.2,2.7,0.3,5.5,0.2,8.2"/>
<path class="st0" d="M24.8,38.2c-0.7-1.6-1.3-3.2-1.9-4.8"/>
<path class="st2" d="M29.8,49.8c-0.6-3.3-1.5-6.6-2.5-9.9"/>
<path class="st2" d="M27.1,39.3c0.6,3.5,1,7,1,10.6"/>
<path class="st0" d="M31.5,5.7c0.3-0.5,0.6-1,0.8-1.6"/>
<path class="st1" d="M39.8,38.3c0.4,1.6,0.7,3.2,0.9,4.9"/>
<path class="st1" d="M40.7,43.2c-1.5-1-2.9-2.1-4.3-3.3"/>
<line class="st0" x1="7.2" y1="35.2" x2="7.2" y2="35.2"/>
<path class="st2" d="M34,25.5c-1-0.4-2.6-1-3.6-1.5"/>
<path class="st2" d="M22,26.8c-0.9-0.5-1.9-0.9-2.8-1.4"/>
<path class="st2" d="M11.2,16.1c-0.3,0.4-0.7,0.8-0.9,1.2"/>
<line class="st1" x1="8.3" y1="9.4" x2="8" y2="9.7"/>
<path class="st2" d="M21.8,17.8c-0.7-0.6-1.4-1.2-2-1.8"/>
<line class="st2" x1="10.9" y1="33.8" x2="10.9" y2="33.8"/>
<path class="st2" d="M10.9,34.6c0-0.2,0-0.5-0.1-0.7"/>
<path class="st0" d="M36,7.4c0.7,0.3,1.4,0.6,2.1,1"/>
<path class="st2" d="M16.2,40.3c0,0.6-0.1,1.2-0.1,1.8"/>
<line class="st1" x1="14.9" y1="32.7" x2="14.8" y2="30.7"/>
<line class="st1" x1="7.5" y1="10.3" x2="8.3" y2="9.4"/>
<path class="st2" d="M18.7,42.3c-0.5-1.4-1.1-2.8-1.6-4.2"/>
<path class="st2" d="M20.6,47l-0.8-2"/>
<line class="st1" x1="14.8" y1="30.7" x2="14.9" y2="34.3"/>
<path class="st2" d="M28.7,48.2l-0.7-1.6"/>
<path class="st1" d="M13.6,34.2h0.1"/>
<path class="st1" d="M11.3,31.6l0.1,0.2"/>
<path class="st0" d="M9.4,29L9.4,29"/>
<path class="st0" d="M7.9,25.8L8,26"/>
<path class="st1" d="M57.7,24.1l-7.3-3.8"/>
<path class="st1" d="M50.4,20.3c1.2,1.3,2.3,2.6,3.4,4"/>
<path class="st1" d="M53.8,24.3c-1.3,0-2.7-0.1-4-0.2"/>
<path class="st1" d="M49.8,24.1l7.2,4.5"/>
<path class="st1" d="M48.8,27.4c0.9,1.5,1.8,3,2.7,4.5"/>
<path class="st1" d="M51.4,32c-1.5-0.3-2.9-0.7-4.3-1.1"/>
<path class="st1" d="M45.1,33.7c0.7,1.6,1.3,3.2,1.8,4.8"/>
<path class="st1" d="M46.9,38.5c-1.5-0.7-3-1.4-4.4-2.2"/>
<path class="st1" d="M57.1,15.3L49.8,13"/>
<path class="st1" d="M49.8,13c1.3,1,2.7,2.1,4,3.2"/>
<path class="st1" d="M53.8,16.2c-1.1,0.2-2.3,0.4-3.4,0.5"/>
<path class="st1" d="M50.4,16.7l7.3,3"/>
<path class="st1" d="M6.9,22.6L6.9,22.6"/>
<path class="st0" d="M7,22.7l0.5-1.5"/>
<line class="st1" x1="57.7" y1="19.7" x2="57.1" y2="15.3"/>
<path class="st0" d="M43.6,15.3l-0.2-1.5"/>
<path class="st0" d="M50.3,14.9c-2.3-0.2-4.6-0.6-6.9-1.1"/>
<path class="st2" d="M57.7,19.7c-2.3-0.2-4.6-0.6-6.9-1.1"/>
<path class="st0" d="M50.4,16.7c-2.3-0.4-4.5-0.8-6.8-1.4"/>
<path class="st0" d="M42.9,10.9l-0.2-1.5"/>
<path class="st0" d="M50.3,14.9c-2.4-1.4-4.9-2.8-7.3-4"/>
<path class="st3" d="M53.8,16.2l-3.5-1.3"/>
<path class="st0" d="M57.1,15.3c-2.4-1.4-4.9-2.8-7.3-4"/>
<path class="st0" d="M49.8,13c-2.3-1.3-4.7-2.5-7.1-3.6"/>
<line class="st0" x1="25.5" y1="26.5" x2="25.5" y2="27.6"/>
<path class="st0" d="M27.1,30.7c-0.5-0.4-1.1-0.7-1.6-1.1"/>
<path class="st2" d="M29.1,33c-0.7-0.7-1.3-1.5-2-2.3"/>
<path class="st0" d="M32.7,29.7c-0.8,0.3-1.5,0.7-2.3,1"/>
<path class="st0" d="M33.9,27.6c-0.5-0.4-1.1-0.7-1.7-1"/>
<path class="st0" d="M33,29.9c-0.2-1.1-0.4-2.3-0.7-3.4"/>
<path class="st0" d="M34.9,31.6c-0.3-1.4-0.6-2.7-1-4.1"/>
<path class="st0" d="M25.5,27.6c0.8-0.4,1.5-0.7,2.3-1.1"/>
<path class="st0" d="M30.8,30.5c-1-1.3-2.1-2.7-3.1-4"/>
<line class="st3" x1="25.5" y1="27.6" x2="26.7" y2="30.4"/>
<path class="st0" d="M29.1,33c-1.2-1.8-2.4-3.6-3.6-5.4"/>
<line class="st0" x1="32.1" y1="30.7" x2="30.4" y2="30.7"/>
<line class="st0" x1="25.5" y1="30.7" x2="27.1" y2="30.7"/>
<path class="st0" d="M26.4,33.4c-0.3-0.3-0.6-0.5-0.9-0.7"/>
<path class="st2" d="M26.8,34.1l-0.4-0.7"/>
<path class="st0" d="M29.7,32.8c-0.6,0.2-1.1,0.4-1.6,0.7"/>
<path class="st0" d="M31.3,31.4c-0.3-0.3-0.6-0.5-0.9-0.7"/>
<path class="st0" d="M30.9,33.3c-0.2-0.9-0.3-1.7-0.5-2.5"/>
<path class="st1" d="M36.4,45.9L36.3,45"/>
<path class="st1" d="M31.7,33c-0.1-0.5-0.2-1.1-0.4-1.6"/>
<path class="st0" d="M25.5,31.4c0.5-0.2,1.1-0.5,1.6-0.7"/>
<path class="st0" d="M28.6,33.2l-1.5-2.5"/>
<line class="st3" x1="25.5" y1="31.4" x2="26.2" y2="33.3"/>
<path class="st0" d="M27.2,34.6l-1.7-3.2"/>
<path class="st0" d="M7,12.4c0.2-0.8,0.5-1.6,0.7-2.4"/>
<path class="st0" d="M6.4,15.8c0.1,0.2,0.2,0.4,0.3,0.6"/>
<line class="st0" x1="4.5" y1="16.9" x2="4.3" y2="18"/>
<path class="st0" d="M4.3,18c0.8-0.7,1.5-1.5,2.1-2.3"/>
<path class="st0" d="M6.9,12.4c-0.9,1.5-1.7,3-2.4,4.5"/>
<path class="st0" d="M7.9,25.8c-0.1-1-0.1-2-0.2-3"/>
<path class="st0" d="M9.5,29c0.3-0.1,0.7-0.3,1-0.5"/>
<line class="st0" x1="6.7" y1="34.2" x2="7.2" y2="35.2"/>
<path class="st0" d="M7.2,35.2c0.8-2,1.5-4.1,2.2-6.2"/>
<path class="st0" d="M8,26c-0.5,2.7-0.9,5.5-1.2,8.2"/>
<line class="st0" x1="6.8" y1="16.4" x2="7.4" y2="15.3"/>
<path class="st0" d="M6.4,19.4c0.1-1,0.2-2,0.3-3"/>
<line class="st0" x1="7.7" y1="22.8" x2="8.3" y2="21.2"/>
<path class="st0" d="M7,22.7c0.2,0.1,0.5,0.1,0.8,0.1l1.2-0.3c0.6,1,1.2,2,1.8,3"/>
<path class="st0" d="M7.5,21.2c0.2,0,0.5,0,0.7,0"/>
<line class="st0" x1="4.3" y1="25.8" x2="4.5" y2="26.9"/>
<path class="st0" d="M4.5,26.9c0.9-1.4,1.7-2.8,2.5-4.3"/>
<path class="st0" d="M6.4,19.3c-0.8,2.1-1.5,4.3-2.1,6.5"/>
<line class="st0" x1="10.5" y1="28.5" x2="10.8" y2="26.5"/>
<path class="st4" d="M11.3,31.6c-0.3-1-0.6-2.1-0.8-3.1"/>
<path class="st1" d="M13.8,34.2c0.4-0.3,0.8-0.7,1.1-1.1"/>
<line class="st0" x1="11.5" y1="41.5" x2="12.3" y2="42.2"/>
<path class="st0" d="M12.3,42.2c0.6-2.7,1-5.3,1.3-8"/>
<path class="st0" d="M11.4,31.9c0,3.2,0,6.4,0.1,9.6"/>
<line class="st0" x1="35.7" y1="22.5" x2="36.1" y2="21.2"/>
<line class="st0" x1="25.5" y1="26.5" x2="27.8" y2="26.5"/>
<path class="st2" d="M38.4,25.2c0.2,0.8,0.4,1.5,0.6,2.3"/>
<line class="st0" x1="39.2" y1="26.2" x2="35.7" y2="22.5"/>
<line class="st1" x1="35.7" y1="22.5" x2="35.7" y2="22.5"/>
<path class="st2" d="M31.9,30c-1.7-1.6-3.4-3.3-5-5"/>
<line class="st3" x1="25.5" y1="22.5" x2="26.8" y2="25.1"/>
<path class="st0" d="M35.3,25.4c-0.6-1.4-1.2-2.9-1.9-4.2"/>
<path class="st0" d="M37.4,26.7c-0.5-1.4-1-2.8-1.6-4.1"/>
<path class="st0" d="M33.5,21.2c0.8,0.4,1.5,0.9,2.3,1.3"/>
<path class="st0" d="M32.3,26.5c0.9-0.5,1.8-0.9,2.7-1.3"/>
<path class="st0" d="M32.4,26.5c-1.4-1.8-2.8-3.5-4.2-5.3"/>
<path class="st0" d="M32.3,29.8c-2.4-2.4-4.6-4.8-6.8-7.3"/>
<path class="st0" d="M28.1,21.2c-0.9,0.4-1.8,0.9-2.7,1.3"/>
<path class="st2" d="M31.6,30.2c-1.3-1.1-2.6-2.4-3.8-3.7"/>
<path class="st0" d="M25.5,25.2c0.8,0.4,1.5,0.9,2.3,1.3"/>
<line class="st0" x1="25.5" y1="25.2" x2="25.5" y2="26.5"/>
<line class="st0" x1="32.3" y1="26.5" x2="34.5" y2="26.5"/>
<line class="st0" x1="36.5" y1="16.8" x2="36.7" y2="15.3"/>
<line class="st1" x1="36.1" y1="21.2" x2="36.1" y2="21.2"/>
<line class="st0" x1="25.5" y1="21.2" x2="28.1" y2="21.2"/>
<line class="st0" x1="33.5" y1="21.2" x2="36.1" y2="21.2"/>
<line class="st0" x1="36.1" y1="21.2" x2="36.3" y2="19.7"/>
<line class="st1" x1="25.5" y1="15.3" x2="25.5" y2="16.8"/>
<path class="st1" d="M39,27h-0.1"/>
<line class="st1" x1="38.9" y1="26.9" x2="38.8" y2="26.8"/>
<path class="st1" d="M39,27l-0.2-0.2"/>
<line class="st0" x1="39.3" y1="18.6" x2="36.5" y2="16.8"/>
<line class="st1" x1="36.3" y1="19.7" x2="36.3" y2="19.7"/>
<path class="st2" d="M35,24.5c-2.8-1.9-5.5-3.8-8.1-5.9"/>
<line class="st3" x1="25.5" y1="16.8" x2="26.8" y2="18.6"/>
<path class="st0" d="M36.5,19.8c-0.7-1.6-1.6-3.1-2.6-4.5"/>
<path class="st0" d="M38.6,20.9c-0.6-1.4-1.3-2.8-2.1-4.1"/>
<path class="st0" d="M33.9,15.3l2.7,1.5"/>
<path class="st0" d="M33.5,21.2l2.8-1.5"/>
<path class="st0" d="M34.2,20.8l-5.9-5.5"/>
<path class="st0" d="M34.8,24c-3.2-2.3-6.3-4.7-9.3-7.3"/>
<path class="st0" d="M28.3,15.3l-2.8,1.5"/>
<path class="st2" d="M35.2,25.2c-2.5-1.1-4.9-2.4-7.1-4"/>
<path class="st0" d="M25.5,19.7l2.7,1.5"/>
<path class="st2" d="M35.1,24.9c-1.5-0.6-3-1.3-4.5-2.1"/>
<line class="st0" x1="25.5" y1="19.7" x2="25.5" y2="21.2"/>
<line class="st0" x1="36.7" y1="15.3" x2="38.4" y2="15.3"/>
<path class="st0" d="M37.8,9.4l-1.5,1.5"/>
<line class="st0" x1="41.9" y1="15.3" x2="43.6" y2="15.3"/>
<path class="st0" d="M41.9,15.3l1.5,1.5"/>
<path class="st0" d="M41.1,9.4l1.9,1.5"/>
<path class="st0" d="M43.3,13.9l-7-3"/>
<path class="st0" d="M41.9,15.3l1.5-1.5"/>
<path class="st0" d="M36.5,13.8l1.9,1.5"/>
<path class="st0" d="M38.4,15.3l-1.9,1.5"/>
<path class="st0" d="M36.3,19.7l1.5,1.5"/>
<path class="st0" d="M43.1,16.5c-1.6-0.3-3.1-0.7-4.7-1.2"/>
<path class="st2" d="M49.3,14.8c-2-1.5-4.2-2.8-6.4-3.9"/>
<line class="st0" x1="36.5" y1="13.8" x2="36.7" y2="15.3"/>
<path class="st0" d="M41.9,15.3c-1.8-0.4-3.6-0.9-5.3-1.5"/>
<path class="st0" d="M41.1,21.2l1.9-1.5"/>
<path class="st0" d="M48.3,14.7c-3.4-1.9-6.9-3.6-10.5-5.2"/>
<path class="st2" d="M40.7,10.3c2.8,1.4,5.5,2.9,8.2,4.4"/>
<path class="st1" d="M43.4,13.9L43.4,13.9"/>
<line class="st0" x1="43.4" y1="16.8" x2="43.6" y2="15.3"/>
<line class="st1" x1="42.7" y1="21.2" x2="42.9" y2="19.7"/>
<line class="st1" x1="42.9" y1="10.9" x2="42.9" y2="10.9"/>
<line class="st1" x1="43.6" y1="15.3" x2="43.6" y2="15.3"/>
<line class="st1" x1="43.4" y1="13.8" x2="43.4" y2="13.8"/>
<line class="st0" x1="34.5" y1="4.1" x2="36" y2="4.1"/>
<line class="st0" x1="36.1" y1="9.4" x2="37.8" y2="9.4"/>
<line class="st0" x1="42.7" y1="9.4" x2="41.1" y2="9.4"/>
<path class="st0" d="M38.7,4.1c0.7,0.5,1.3,0.9,2,1.3"/>
<path class="st0" d="M41.1,9.4c0.3-0.4,0.7-0.9,1-1.3"/>
<path class="st1" d="M42.1,8.1L42.1,8.1"/>
<path class="st2" d="M48.7,8.7l0.3-0.3"/>
<path class="st0" d="M47.5,8.6C43.3,7.5,39.1,6.4,35,5.4"/>
<path class="st1" d="M36,4.1c-0.3,0.5-0.7,0.9-1,1.3"/>
<path class="st0" d="M49.8,8.8c-2.9-1.4-5.9-2.5-9-3.3"/>
<line class="st3" x1="37.8" y1="9.4" x2="40.7" y2="10.3"/>
<path class="st0" d="M46.4,7.3C42.9,6.1,39.5,5,36,4.1"/>
<line class="st0" x1="36" y1="4.1" x2="38.6" y2="4.4"/>
<path class="st0" d="M41.4,9.7c-1.2-0.1-2.4-0.1-3.6-0.3"/>
<path class="st0" d="M35.7,8.1c0.7,0.5,1.3,0.9,2,1.3"/>
<path class="st0" d="M41.7,8.6c-2-0.1-4-0.3-5.9-0.5"/>
<path class="st2" d="M42.2,10.4h-1.6"/>
<path class="st2" d="M48,7.2c0.7,0.4,1.3,0.7,2,1.1"/>
<path class="st0" d="M50.6,8.8c-1.2-0.7-2.5-1.3-3.8-1.9"/>
<path class="st2" d="M50.6,8.8L50,8.4"/>
<path class="st1" d="M38.6,4.4l1,0.3"/>
<line class="st0" x1="40.8" y1="5.4" x2="40.1" y2="4.1"/>
<line class="st1" x1="40.8" y1="5.4" x2="40.8" y2="5.4"/>
<line class="st0" x1="40.1" y1="4.1" x2="38.7" y2="4.1"/>
<line class="st1" x1="40.2" y1="4.1" x2="40.1" y2="4.1"/>
<line class="st0" x1="42.7" y1="9.4" x2="42.1" y2="8.1"/>
<line class="st1" x1="42.7" y1="9.4" x2="42.7" y2="9.4"/>
<line class="st1" x1="42.1" y1="8.1" x2="42.1" y2="8.1"/>
<line class="st0" x1="35" y1="5.4" x2="34.5" y2="4.1"/>
<line class="st0" x1="34.5" y1="4.1" x2="32.3" y2="4.1"/>
<line class="st0" x1="25.5" y1="5.4" x2="25.5" y2="4.1"/>
<line class="st0" x1="23.2" y1="26.5" x2="25.5" y2="26.5"/>
<line class="st0" x1="16.4" y1="26.5" x2="18.7" y2="26.5"/>
<line class="st0" x1="22.8" y1="21.2" x2="25.5" y2="21.2"/>
<line class="st0" x1="14.8" y1="21.2" x2="17.5" y2="21.2"/>
<path class="st0" d="M18.3,29.7c0.8,0.3,1.5,0.7,2.3,1"/>
<path class="st0" d="M23.8,30.7c0.5-0.4,1.1-0.7,1.6-1"/>
<path class="st0" d="M16,25.2c0.9,0.4,1.8,0.9,2.7,1.3"/>
<path class="st0" d="M23.2,26.5c0.7-0.5,1.5-0.9,2.3-1.3"/>
<line class="st1" x1="22.7" y1="15.3" x2="22.7" y2="15.3"/>
<path class="st0" d="M22.8,21.2l2.7-1.5"/>
<line class="st3" x1="14.4" y1="18" x2="14.4" y2="18"/>
<path class="st0" d="M14.7,19.7l2.8,1.5"/>
<path class="st0" d="M23.2,33.1c-2-3.9-4-7.9-5.7-11.9"/>
<path class="st2" d="M22.8,33.4l0.4-0.2"/>
<path class="st0" d="M17.5,21.2c-0.8,0.4-1.5,0.9-2.3,1.3"/>
<path class="st0" d="M25.7,29.8c-0.1-0.7-0.1-1.5-0.2-2.2"/>
<path class="st0" d="M23.2,26.5c0.8,0.3,1.5,0.7,2.3,1"/>
<path class="st0" d="M22.5,24.9c0.5-3.2,0.5-6.4,0.2-9.6"/>
<path class="st3" d="M22.9,25.1l-0.4-0.2"/>
<path class="st0" d="M25.4,19.8c0.1-1,0.2-2,0.1-3"/>
<path class="st0" d="M22.7,15.3l2.8,1.5"/>
<path class="st0" d="M22.5,26.4c0.4-1,0.6-2.1,0.5-3.1"/>
<path class="st0" d="M23.4,34.5c0.3-2,0.4-4.1,0.1-6.2"/>
<path class="st2" d="M23.2,33.1c0.2-4,0.1-8-0.4-11.9"/>
<path class="st2" d="M23.5,33.3l-0.4-0.2"/>
<path class="st0" d="M25.5,25.2c0-0.9,0-1.8-0.1-2.7"/>
<path class="st0" d="M22.8,21.2c0.9,0.4,1.8,0.9,2.7,1.3"/>
<path class="st1" d="M24.4,34.1c-0.2-1.1-0.3-2.1-0.5-3.2"/>
<path class="st0" d="M16.7,25.5c-0.5-1-1-2-1.5-3"/>
<line class="st2" x1="17.2" y1="29.7" x2="17.3" y2="30.4"/>
<path class="st0" d="M18,29.9c-0.3-0.8-0.7-1.5-1-2.3"/>
<path class="st0" d="M18.7,26.5c-0.6,0.3-1.1,0.7-1.6,1"/>
<path class="st0" d="M22.3,33.2c-1.5-2.1-2.7-4.3-3.6-6.7"/>
<path class="st1" d="M23.4,34.5l-0.1-0.1"/>
<line class="st1" x1="23.5" y1="35" x2="23.4" y2="34.5"/>
<path class="st0" d="M22.5,26.4c-2.1-1.3-3.8-3.1-5-5.2"/>
<line class="st3" x1="22.8" y1="27.1" x2="22.5" y2="26.4"/>
<path class="st0" d="M22.5,24.9c-2-3.1-3.7-6.3-5.4-9.6"/>
<path class="st3" d="M21.3,25.5l1.1-0.6"/>
<path class="st0" d="M17.2,21.1c-1-1.4-2-2.8-2.8-4.3"/>
<path class="st0" d="M17.1,15.3l-2.7,1.5"/>
<path class="st0" d="M24.1,34.1c-0.2-2.5-0.5-5.1-0.9-7.6"/>
<path class="st0" d="M24.4,37.2c-0.1-0.9-0.1-1.9-0.2-2.8"/>
<path class="st0" d="M20.3,30.6c-0.6-1.3-1.1-2.7-1.6-4.1"/>
<path class="st2" d="M26.8,25.9c0-0.3,0-0.6,0.1-0.8"/>
<path class="st0" d="M22.8,27.1c-1.4-0.6-2.6-1.4-3.8-2.3"/>
<path class="st0" d="M23.6,35.3l0.1-0.2l0.1-0.2l0.1-0.3l0.1-0.4c0-0.1,0.1-0.3,0.1-0.4"/>
<path class="st0" d="M23.6,35.4l0.5-0.3"/>
<line class="st0" x1="25.5" y1="30.7" x2="25.5" y2="29.7"/>
<line class="st0" x1="25.5" y1="22.5" x2="25.5" y2="21.2"/>
<line class="st1" x1="25.5" y1="26.5" x2="25.5" y2="26.5"/>
<line class="st1" x1="25.5" y1="25.2" x2="25.5" y2="25.2"/>
<line class="st1" x1="25.5" y1="16.8" x2="25.5" y2="15.3"/>
<path class="st2" d="M26.8,18.6L26.8,18.6l-0.2,1.6"/>
<line class="st1" x1="25.5" y1="21.2" x2="25.5" y2="21.2"/>
<line class="st0" x1="15.2" y1="8.1" x2="14.8" y2="9.4"/>
<line class="st0" x1="16.4" y1="4.1" x2="18.7" y2="4.1"/>
<path class="st2" d="M24.4,7.5c0.6-0.5,1.3-1.1,1.9-1.7"/>
<path class="st0" d="M21.3,5.7c0.7-0.5,1.3-1,2-1.6"/>
<path class="st0" d="M25.5,5.4C24.7,5,24,4.6,23.2,4.1"/>
<path class="st0" d="M23.7,7.2c0.6-0.5,1.2-1.1,1.8-1.7"/>
<line class="st0" x1="25.5" y1="8" x2="23.7" y2="7.2"/>
<path class="st2" d="M21.3,9.1l1.3,0.6"/>
<path class="st1" d="M24.4,7.5L24.4,7.5"/>
<path class="st2" d="M23.7,7.2l-2.4,0.2"/>
<path class="st0" d="M20.8,8.6c0.7,0.3,1.3,0.6,2,0.8"/>
<path class="st0" d="M25.5,8.1c-0.9,0.5-1.8,0.9-2.7,1.3"/>
<path class="st0" d="M21.3,5.7c-0.9-0.5-1.7-1-2.6-1.6"/>
<path class="st2" d="M18.2,7.2c-0.7-0.5-1.3-0.8-2-1.4"/>
<path class="st2" d="M21.3,7.3c0-0.5,0-1.1,0-1.6"/>
<path class="st0" d="M16,5.4c0.9-0.4,1.8-0.9,2.7-1.3"/>
<path class="st0" d="M18.4,7.2C17.6,6.6,16.8,6,16,5.4"/>
<line class="st3" x1="21.3" y1="9.1" x2="20.8" y2="8.6"/>
<path class="st2" d="M21.3,9.1c-1,0.3-2.1,0.6-3.1,0.8"/>
<path class="st2" d="M20.8,8.6l0.4-1.2"/>
<path class="st0" d="M20.8,8.6c-1.1,0.3-2.2,0.6-3.3,0.8"/>
<path class="st0" d="M15.2,8.1C16,8.6,16.7,9,17.5,9.4"/>
<path class="st1" d="M18.4,7.2c-1,0.3-2.1,0.6-3.1,0.9"/>
<path class="st2" d="M21.3,7.3l-2.9-0.2"/>
<path class="st2" d="M13.2,13.4c0.5-0.6,1-1.2,1.5-1.8"/>
<path class="st0" d="M11.1,11.6c0.7-0.7,1.4-1.5,2.1-2.2"/>
<path class="st0" d="M14.7,10.9l-1.5-1.5"/>
<path class="st0" d="M12.7,13.2c0.7-0.8,1.3-1.5,2-2.3"/>
<path class="st2" d="M10.4,15.8c0.5,0.2,1,0.3,1.5,0.5"/>
<path class="st3" d="M12.7,13.2l-2,0.4"/>
<path class="st0" d="M10.7,14.8c0.6,0.2,1.2,0.4,1.9,0.5"/>
<path class="st0" d="M14.4,13.8l-1.9,1.5"/>
<path class="st1" d="M12.7,13.2c0.6,0.2,1.1,0.4,1.7,0.6"/>
<path class="st2" d="M8.4,13.5c-0.2-0.5-0.5-1-0.7-1.5"/>
<path class="st3" d="M10.8,13.6l0.3-2"/>
<path class="st0" d="M11.1,11.6c-0.4-0.7-0.8-1.5-1.2-2.2"/>
<path class="st0" d="M8,10.9l1.9-1.5"/>
<path class="st0" d="M9.1,13.2c-0.4-0.8-0.7-1.5-1-2.3"/>
<line class="st3" x1="10.4" y1="15.8" x2="10.7" y2="14.8"/>
<path class="st2" d="M10.4,15.8l-0.8,0.3"/>
<path class="st3" d="M10.7,14.8c0-0.4,0-0.8,0.1-1.2"/>
<path class="st0" d="M10.7,14.8c-0.5,0.2-1.1,0.4-1.6,0.5"/>
<path class="st0" d="M7.6,13.8l1.5,1.5"/>
<path class="st0" d="M9.1,13.2c-0.5,0.2-1,0.4-1.5,0.6"/>
<path class="st3" d="M10.8,13.6l-1.7-0.4"/>
<path class="st3" d="M10,16.8c0.1-0.3,0.3-0.7,0.4-1"/>
<path class="st1" d="M8,10.9l0.3-1.5"/>
<path class="st0" d="M7.6,13.8l-0.2,1.5"/>
<path class="st1" d="M7.2,13.2c0.3-0.8,0.5-1.5,0.8-2.3"/>
<path class="st1" d="M7.2,13.2c0.1,0.2,0.2,0.4,0.3,0.6"/>
<line class="st0" x1="25.5" y1="9.4" x2="22.8" y2="9.4"/>
<line class="st0" x1="14.4" y1="13.8" x2="14.3" y2="15.3"/>
<line class="st0" x1="14.8" y1="9.4" x2="17.5" y2="9.4"/>
<line class="st0" x1="14.7" y1="10.9" x2="14.8" y2="9.4"/>
<path class="st2" d="M24.6,13.6c0.6-0.6,1.2-1.3,1.8-2"/>
<path class="st0" d="M20.5,11.6c0.8-0.7,1.5-1.4,2.3-2.2"/>
<path class="st0" d="M25.5,10.9l-2.7-1.5"/>
<path class="st0" d="M23.4,13.2c0.7-0.8,1.4-1.5,2.1-2.3"/>
<path class="st2" d="M20.8,15.8c0.6,0.2,1.3,0.3,1.9,0.5"/>
<path class="st2" d="M23.4,13.2l-2.7,0.4"/>
<path class="st0" d="M20.4,14.8c0.8,0.2,1.5,0.4,2.3,0.5"/>
<path class="st0" d="M25.5,13.8l-2.8,1.5"/>
<path class="st0" d="M23.4,13.2c0.7,0.2,1.4,0.4,2.1,0.6"/>
<line class="st3" x1="14.7" y1="10.9" x2="14.7" y2="11.6"/>
<path class="st2" d="M16.8,13.4c-0.7-0.6-1.4-1.2-2.1-1.7"/>
<path class="st2" d="M20.7,13.6c0-0.7-0.1-1.3-0.1-2"/>
<path class="st0" d="M20.5,11.6c-1-0.7-2-1.5-3-2.2"/>
<path class="st0" d="M14.7,10.9l2.8-1.5"/>
<path class="st0" d="M17.5,13.2c-1-0.8-1.9-1.5-2.8-2.3"/>
<line class="st3" x1="20.8" y1="15.8" x2="20.4" y2="14.8"/>
<path class="st2" d="M20.8,15.8c-1.1,0.2-2.1,0.4-3.2,0.6"/>
<path class="st2" d="M20.4,14.8c0.1-0.4,0.2-0.8,0.3-1.2"/>
<path class="st0" d="M20.4,14.8c-1.1,0.2-2.2,0.4-3.3,0.5"/>
<path class="st0" d="M14.4,13.8l2.7,1.5"/>
<path class="st0" d="M17.5,13.2c-1,0.2-2.1,0.4-3.1,0.6"/>
<path class="st2" d="M20.7,13.6l-3.2-0.4"/>
<line class="st0" x1="17.1" y1="15.3" x2="14.3" y2="15.3"/>
<path class="st3" d="M22,17.9l-0.1-0.1"/>
<path class="st3" d="M22,17.9c-0.7-0.6-1.3-1.3-1.9-1.9"/>
<path class="st2" d="M22.7,18c-0.2,0-0.5,0-0.7-0.1"/>
<path class="st3" d="M22.7,18c-0.7-0.7-1.3-1.4-1.8-2.2"/>
<path class="st2" d="M22.9,18h-0.2"/>
<line class="st1" x1="36.3" y1="10.9" x2="36.1" y2="9.4"/>
<line class="st0" x1="28.3" y1="15.3" x2="25.5" y2="15.3"/>
<line class="st0" x1="25.5" y1="13.8" x2="25.5" y2="15.3"/>
<line class="st0" x1="36.7" y1="15.3" x2="33.9" y2="15.3"/>
<line class="st1" x1="25.5" y1="10.9" x2="25.5" y2="9.4"/>
<path class="st2" d="M36.9,14c0.4-0.7,0.8-1.5,1.1-2.3"/>
<path class="st0" d="M32.2,11.6c0.5-0.7,0.9-1.4,1.2-2.2"/>
<path class="st0" d="M36.3,10.9l-2.8-1.5"/>
<path class="st0" d="M35.3,13.2c0.4-0.7,0.7-1.5,1-2.3"/>
<path class="st2" d="M33.7,15.8l0.6,0.2"/>
<path class="st2" d="M35.3,13.2L33,13.6"/>
<path class="st0" d="M32.4,14.8c0.5,0.2,1,0.4,1.5,0.5"/>
<path class="st0" d="M36.5,13.8l-2.7,1.5"/>
<path class="st0" d="M35.3,13.2l1.3,0.6"/>
<line class="st3" x1="25.5" y1="10.9" x2="26.4" y2="11.6"/>
<path class="st0" d="M32.2,11.6l-4.1-2.2"/>
<path class="st2" d="M29.1,13.3l-2.7-1.6"/>
<path class="st0" d="M25.5,10.9l2.7-1.5"/>
<path class="st0" d="M29.4,13.2c-1.3-0.8-2.6-1.5-3.9-2.3"/>
<line class="st3" x1="33.7" y1="15.8" x2="32.4" y2="14.8"/>
<path class="st2" d="M33.7,15.8c-1.4,0.2-2.9,0.4-4.3,0.6"/>
<path class="st0" d="M25.5,13.8l2.8,1.5l4.1-0.5"/>
<path class="st1" d="M29.4,13.2c-1.3,0.2-2.6,0.4-3.9,0.6"/>
<path class="st0" d="M8.9,22.5l-0.6-1.3"/>
<path class="st0" d="M10.2,25.2l0.6,1.3"/>
<path class="st0" d="M9.1,25.7c-0.1-1-0.2-2.1-0.2-3.1"/>
<path class="st0" d="M9.1,25.7c0.4-0.1,0.7-0.3,1.1-0.5"/>
<line class="st1" x1="15.2" y1="22.5" x2="14.8" y2="21.2"/>
<line class="st0" x1="16" y1="25.2" x2="16.4" y2="26.5"/>
<polyline class="st2" points="15.2,22.5 15.3,24.3 15.2,25.4 "/>
<path class="st0" d="M11.9,24.2c0.4-1,0.9-2,1.3-3"/>
<path class="st0" d="M15.2,22.5c-0.7-0.5-1.3-0.9-2-1.3"/>
<path class="st0" d="M14.1,25.7c0.4-1,0.8-2.1,1.2-3.1"/>
<path class="st2" d="M13.8,28.8l0.8-0.2"/>
<path class="st2" d="M14.1,25.7c-0.6,0.3-1.1,0.6-1.7,0.9"/>
<path class="st0" d="M13,27.1c0.7-0.1,1.3-0.3,2-0.6"/>
<path class="st0" d="M16,25.2c-0.3,0.4-0.7,0.9-1,1.3"/>
<path class="st0" d="M14.1,25.7c0.7-0.1,1.3-0.3,2-0.5"/>
<path class="st0" d="M9.3,25.6l-0.2-0.3"/>
<path class="st2" d="M12.3,26.6c-0.2-0.8-0.3-1.6-0.5-2.3"/>
<path class="st0" d="M11.9,24.2c-0.7-1-1.3-2-1.9-3"/>
<path class="st0" d="M8.9,22.5c0.3-0.5,0.7-0.9,1-1.3"/>
<line class="st2" x1="12.9" y1="27.6" x2="13" y2="27.1"/>
<path class="st2" d="M13,27.1L12.8,27"/>
<path class="st0" d="M13,27.1c-0.3-0.1-0.5-0.3-0.8-0.6"/>
<path class="st2" d="M10.2,25.2c0.7,0.4,1.3,0.9,2,1.3"/>
<path class="st1" d="M12.3,26.6l-0.1-0.1"/>
<path class="st2" d="M11.3,35.1c-0.1-0.1-0.2-0.2-0.3-0.4"/>
<path class="st1" d="M11.3,35.1c0-0.8,0.1-1.6,0.1-2.5"/>
<path class="st1" d="M11.4,35.1l-0.1-0.1"/>
<path class="st2" d="M10.9,33.8c-0.2-1.7-0.3-3.5-0.4-5.2"/>
<path class="st2" d="M11,34.7c0-0.3-0.1-0.6-0.1-1"/>
<path class="st2" d="M11,34.7c0,0,0-0.1,0-0.1"/>
<path class="st0" d="M7.6,16.8l-0.2-1.5"/>
<path class="st0" d="M8,19.7l0.3,1.5"/>
<path class="st0" d="M7.2,19.6c0.1-0.9,0.2-1.9,0.3-2.8"/>
<path class="st1" d="M7.2,19.6c0.3,0.1,0.5,0.1,0.8,0.1"/>
<line class="st0" x1="14.3" y1="15.3" x2="12.6" y2="15.3"/>
<line class="st0" x1="14.4" y1="16.8" x2="14.3" y2="15.3"/>
<line class="st0" x1="9.9" y1="21.2" x2="8.3" y2="21.2"/>
<line class="st0" x1="14.8" y1="21.2" x2="13.2" y2="21.2"/>
<line class="st0" x1="14.7" y1="19.7" x2="14.8" y2="21.2"/>
<line class="st0" x1="7.4" y1="15.3" x2="9.1" y2="15.3"/>
<line class="st3" x1="14.4" y1="16.8" x2="14.4" y2="18"/>
<path class="st2" d="M13.4,19.7l1-1.7"/>
<path class="st0" d="M10.7,18c0.6-0.9,1.2-1.8,1.9-2.7"/>
<path class="st0" d="M14.4,16.8l-1.9-1.5"/>
<path class="st0" d="M12.7,19.6c0.6-0.9,1.1-1.9,1.7-2.8"/>
<line class="st3" x1="10.8" y1="22.6" x2="11.1" y2="21.2"/>
<path class="st2" d="M10.8,22.7c0.6,0.1,1.1,0.1,1.7,0.1"/>
<path class="st2" d="M12.7,19.6l-2,0.7"/>
<path class="st0" d="M11.1,21.2c0.7,0,1.4,0,2.1,0"/>
<path class="st0" d="M14.7,19.7l-1.5,1.5"/>
<path class="st0" d="M12.7,19.6c0.7,0.1,1.3,0.1,2,0.1"/>
<path class="st2" d="M10.8,20.3c0-0.8,0-1.5-0.1-2.3"/>
<path class="st0" d="M10.7,18c-0.5-0.9-1.1-1.8-1.6-2.7"/>
<path class="st0" d="M7.6,16.8l1.5-1.5"/>
<path class="st0" d="M9.1,19.6c-0.5-0.9-1-1.9-1.5-2.8"/>
<path class="st2" d="M11.1,21.2c-0.1-0.3-0.2-0.6-0.3-0.9"/>
<path class="st0" d="M11.1,21.2c-0.4,0-0.8,0-1.2,0"/>
<path class="st0" d="M8,19.7l1.9,1.5"/>
<path class="st0" d="M9.1,19.6c-0.3,0.1-0.7,0.1-1,0.1"/>
<path class="st2" d="M10.8,20.3l-1.7-0.7"/>
<path class="st1" d="M6.4,15.7L6.4,15.7"/>
<path class="st2" d="M11.4,23.6l0.4-0.9"/>
<path class="st2" d="M37.7,8.3c-0.6-0.3-1.2-0.5-1.8-0.8"/>
<line class="st0" x1="28.1" y1="9.4" x2="25.5" y2="9.4"/>
<line class="st0" x1="25.5" y1="8.1" x2="25.5" y2="9.4"/>
<line class="st0" x1="36.1" y1="9.4" x2="33.5" y2="9.4"/>
<line class="st0" x1="35.7" y1="8.1" x2="36.1" y2="9.4"/>
<path class="st0" d="M35.9,7.5c0.3-0.5,0.5-1.1,0.7-1.7"/>
<path class="st1" d="M25.9,49.6L25.9,49.6"/>
<path class="st0" d="M35,5.4C34,5,33.2,4.6,32.3,4.1"/>
<path class="st0" d="M34.4,7.2C34.7,6.6,34.8,6,35,5.4"/>
<line class="st0" x1="35.9" y1="7.5" x2="34.4" y2="7.2"/>
<path class="st0" d="M35.9,7.5l1,0.7"/>
<path class="st2" d="M34.4,7.2l-2,0.2"/>
<path class="st0" d="M31.9,8.6c0.5,0.3,1,0.6,1.5,0.8"/>
<path class="st0" d="M35.7,8.1C35,8.6,34.2,9,33.5,9.4"/>
<path class="st0" d="M34.4,7.2l1.3,0.9"/>
<path class="st0" d="M31.6,5.5l-2.8-1.2"/>
<path class="st2" d="M32.4,7.3c-0.3-0.5-0.6-1.1-0.9-1.6"/>
<path class="st0" d="M31.5,5.7l-3.8-1.6"/>
<path class="st0" d="M25.5,5.4C26.3,5,27,4.6,27.8,4.1"/>
<path class="st0" d="M29.1,7.2c-1.2-0.6-2.4-1.1-3.6-1.7"/>
<path class="st2" d="M33,9.2c-1.2,0.3-2.5,0.6-3.7,0.9"/>
<path class="st2" d="M32,8.6c0.1-0.4,0.2-0.8,0.3-1.2"/>
<path class="st0" d="M31.9,8.6c-1.3,0.3-2.5,0.6-3.8,0.8"/>
<path class="st0" d="M25.5,8.1c0.9,0.5,1.8,0.9,2.7,1.3"/>
<path class="st0" d="M29.1,7.2c-1.2,0.3-2.4,0.7-3.6,0.9"/>
<path class="st2" d="M32.4,7.3l-3.3-0.2"/>
<line class="st0" x1="25.5" y1="15.3" x2="22.7" y2="15.3"/>
<line class="st0" x1="16.4" y1="26.5" x2="15" y2="26.5"/>
<line class="st0" x1="17" y1="27.6" x2="16.4" y2="26.5"/>
<line class="st0" x1="18.3" y1="29.7" x2="18.9" y2="30.7"/>
<line class="st0" x1="10.8" y1="26.5" x2="12.2" y2="26.5"/>
<line class="st3" x1="17" y1="27.6" x2="17.2" y2="29.7"/>
<path class="st2" d="M17.1,30.5l0.1-0.9"/>
<path class="st0" d="M14.4,29.7c0.2-1.1,0.4-2.1,0.6-3.2"/>
<path class="st0" d="M17,27.6c-0.7-0.4-1.3-0.7-2-1"/>
<path class="st0" d="M16.6,30.8c0.1-1.1,0.3-2.2,0.4-3.3"/>
<path class="st0" d="M16.8,34c0.5-0.3,1-0.6,1.4-0.9"/>
<path class="st2" d="M16.6,30.8l-0.5,0.5"/>
<path class="st0" d="M16.2,31.9c0.6-0.3,1.1-0.8,1.7-1.2"/>
<path class="st1" d="M18.3,29.7c-0.2,0.3-0.3,0.7-0.4,1"/>
<path class="st0" d="M16.6,30.8c0.6-0.3,1.2-0.7,1.7-1.1"/>
<path class="st1" d="M14.6,30l-0.1-0.4"/>
<path class="st1" d="M14.4,29.7c-0.7-1.1-1.5-2.1-2.2-3.2"/>
<path class="st0" d="M11.8,27.6c0.1-0.4,0.2-0.7,0.4-1"/>
<path class="st0" d="M13.8,29.7c0.7,0.3,1.3,0.7,2,1"/>
<path class="st1" d="M14.9,31.9L14.9,31.9"/>
<path class="st2" d="M15.4,42.1c-0.1-0.1-0.3-0.2-0.4-0.3"/>
<path class="st1" d="M14.6,33.4l0.2,0.1"/>
<path class="st3" d="M15.4,42.1c-0.1-2-0.2-4.1-0.2-6.1"/>
<path class="st2" d="M15.9,42.2c-0.1,0-0.3,0-0.4-0.1"/>
<path class="st3" d="M15.9,42.2c0.1-0.9,0.1-1.8,0.2-2.7"/>
<path class="st2" d="M16.1,42.1c0,0.1-0.1,0.1-0.2,0.1"/>
<path class="st2" d="M15.1,41.8c-0.4-2.6-0.8-5.2-1.1-7.8"/>
<path class="st0" d="M14.8,30.7l-1-1l-1,0.3l-1-2.4"/>
<line class="st0" x1="23.2" y1="4.1" x2="25.5" y2="4.1"/>
<line class="st2" x1="27.8" y1="4.1" x2="28.8" y2="4.3"/>
<line class="st0" x1="25.5" y1="4.1" x2="27.8" y2="4.1"/>
<line class="st1" x1="25.5" y1="19.7" x2="25.5" y2="19.8"/>
<path class="st0" d="M22.8,27.1L22.8,27.1l0.1-0.1l0.1-0.2c0.1-0.1,0.1-0.2,0.2-0.3"/>
<path class="st2" d="M22.8,27.1l0.4-0.2"/>
<path class="st2" d="M42.9,9.5l6.8,1.7"/>
<path class="st2" d="M48.8,21.8c-0.6-0.6-4.2-4-4.8-4.6"/>
<path class="st2" d="M52.3,27.1l0.1-0.1"/>
<path class="st2" d="M52.3,27.1l-0.4-0.1l-0.3-0.1l-0.6-0.2l-0.5-0.2L50,26.2"/>
<line class="st1" x1="43.4" y1="16.8" x2="43.4" y2="16.8"/>
<path class="st0" d="M42.6,23.4c-1.6-0.7-3.2-1.4-4.8-2.2"/>
<path class="st1" d="M43.3,24.6c-0.9-0.3-1.8-0.6-2.6-1"/>
<path class="st1" d="M40.7,23.6L40.7,23.6"/>
<line class="st1" x1="42.9" y1="19.7" x2="42.9" y2="19.7"/>
<path class="st0" d="M46.4,21c-2.6-2-5.3-3.9-7.9-5.7"/>
<path class="st2" d="M41.4,17c1.9,1.4,3.8,2.8,5.7,4.3"/>
<line class="st1" x1="41.4" y1="17" x2="41.4" y2="17"/>
<path class="st3" d="M38.4,15.3l3,1.6c0,0,1.7,0.1,2.5,0.3"/>
<path class="st0" d="M41.9,22.4c-1.9-0.8-3.8-1.7-5.6-2.6"/>
<path class="st2" d="M40.3,21.7c-0.2-1.1-0.6-2.1-1-3.1l3,1.5"/>
<path class="st2" d="M11.4,9.6l-0.5-0.7"/>
<path class="st2" d="M10.9,8.9l1.1-0.7"/>
<path class="st2" d="M12.4,8.9l-1.1,0.7"/>
<path class="st2" d="M12.4,8.9l-0.5-0.7"/>
<path class="st0" d="M11.9,8.2c0-1.4,0.1-2.7,0.3-4.1"/>
<path class="st0" d="M11.9,8.2C13,6.9,14.1,5.5,15,4.1"/>
<path class="st0" d="M10.9,8.9c-0.5-1.1-0.7-2.3-0.7-3.4"/>
<path class="st0" d="M10.9,8.9c-0.6,0-1.2-0.2-1.7-0.5"/>
<line class="st1" x1="8.9" y1="8.1" x2="8.9" y2="8.1"/>
<path class="st0" d="M12.4,8.9c0.9,0,1.8-0.2,2.6-0.6"/>
<path class="st0" d="M12.4,8.9c1.3-1,2.5-2.2,3.6-3.4"/>
<path class="st0" d="M11.4,9.6c0.6,0.3,1.3,0.2,1.8-0.1"/>
<path class="st2" d="M12.4,10.3c-0.4-0.1-0.8-0.3-1.1-0.5"/>
<line class="st1" x1="13.2" y1="9.4" x2="13.2" y2="9.4"/>
<path class="st0" d="M11.4,9.6C11,9.7,10.2,10,10,9.5"/>
<line class="st3" x1="11.3" y1="9.8" x2="11.4" y2="9.6"/>
<path class="st0" d="M12.2,4.1c-0.7,0.5-1.3,0.9-2,1.3"/>
<path class="st0" d="M13.2,9.4c0.7-0.4,1.3-0.9,2-1.3"/>
<line class="st0" x1="13.2" y1="9.4" x2="14.8" y2="9.4"/>
<path class="st0" d="M8.9,8.1c0.3,0.5,0.7,0.9,1,1.3"/>
<line class="st1" x1="8.9" y1="8.1" x2="8.3" y2="9.4"/>
<line class="st1" x1="15.2" y1="8.1" x2="15.2" y2="8.1"/>
<line class="st0" x1="10.8" y1="4.1" x2="12.2" y2="4.1"/>
<line class="st3" x1="16.1" y1="5.7" x2="16" y2="5.4"/>
<line class="st3" x1="16.2" y1="5.9" x2="16.1" y2="5.7"/>
<line class="st0" x1="16" y1="5.4" x2="16.4" y2="4.1"/>
<line class="st0" x1="16.4" y1="4.1" x2="15" y2="4.1"/>
<path class="st0" d="M15,4.1c0.3,0.5,0.7,0.9,1,1.3"/>
<line class="st1" x1="8.3" y1="9.4" x2="8.3" y2="9.4"/>
<line class="st0" x1="8.3" y1="9.4" x2="9.9" y2="9.4"/>
<path class="st2" d="M11.3,9.8c-0.3,0.2-0.7,0.3-1,0.4"/>
<path class="st2" d="M12.6,8.9c1.3-0.9,2.5-1.9,3.6-3"/>
<path class="st2" d="M10.6,8.9C10.1,8,9.8,7,9.6,6"/>
<line class="st1" x1="10.2" y1="5.4" x2="10.2" y2="5.5"/>
<line class="st1" x1="6.9" y1="9.6" x2="6.9" y2="9.6"/>
<path class="st1" d="M6.9,9.6L6.9,9.6"/>
<line class="st1" x1="6.6" y1="9.8" x2="6.9" y2="9.6"/>
<line class="st1" x1="6.6" y1="9.8" x2="6.6" y2="9.8"/>
<path class="st0" d="M10.8,4.1L10.8,4.1"/>
<path class="st0" d="M7.5,8.2c0.6-0.1,1,0.2,1.4-0.1"/>
<line class="st0" x1="8.3" y1="9.4" x2="8.9" y2="8.1"/>
<path class="st0" d="M10.8,4.1l-0.6,1.3"/>
<path class="st1" d="M6.6,9.8L6.6,9.8"/>
<path class="st0" d="M6.7,9.8c0,0.4,0.4,0.6,0.7,0.6c0,0,0,0,0.1,0"/>
<line class="st1" x1="7.7" y1="10.1" x2="7.7" y2="10"/>
<line class="st1" x1="7.5" y1="10.3" x2="7.5" y2="10.3"/>
<line class="st1" x1="7.7" y1="10" x2="8.3" y2="9.4"/>
<path class="st0" d="M6.9,9.6c0.4,0.3,1,0.2,1.4-0.1"/>
<path class="st1" d="M45,46l-5.2-7.7"/>
<path class="st0" d="M39.8,38.3c-1.1-2.6-2.3-5.1-3.6-7.6"/>
<path class="st1" d="M36.4,39.9l4.8,8.1"/>
<path class="st0" d="M36.4,39.9c-1.8-2.1-3.6-4.3-5.3-6.5"/>
<path class="st3" d="M40.7,43.2l-2.3-3.7"/>
<line class="st1" x1="41.2" y1="48" x2="45" y2="46"/>
<path class="st1" d="M55.8,32.7l-7-5.3"/>
<path class="st0" d="M48.8,27.4c-1.9-2.2-3.9-4.2-6-6.2"/>
<path class="st1" d="M47.1,30.8l6.7,5.9"/>
<path class="st0" d="M47.1,30.8c-2.4-1.3-4.7-2.8-7-4.3"/>
<path class="st3" d="M51.4,32l-3.3-2.7"/>
<line class="st1" x1="53.8" y1="36.7" x2="55.8" y2="32.7"/>
<path class="st1" d="M51.4,40.3l-6.3-6.6"/>
<line class="st0" x1="40.2" y1="26.5" x2="46.5" y2="32.6"/>
<path class="st0" d="M45.1,33.7c-1.6-2.4-3.2-4.8-5-7.2"/>
<path class="st1" d="M42.5,36.3l5.9,7.1"/>
<line class="st0" x1="36.1" y1="30.7" x2="41.5" y2="37.9"/>
<path class="st0" d="M42.5,36.3c-2.2-1.8-4.3-3.7-6.4-5.6"/>
<path class="st3" d="M46.9,38.5L44,35.2"/>
<line class="st1" x1="48.4" y1="43.4" x2="51.4" y2="40.3"/>
<line class="st2" x1="43.6" y1="15.3" x2="50.8" y2="18.6"/>
<path class="st0" d="M50.4,20.3c-2.2-1.7-4.5-3.4-6.8-5"/>
<line class="st2" x1="42.7" y1="21.2" x2="49.7" y2="26"/>
<path class="st0" d="M49.8,24.1c-2.4-0.9-4.8-1.8-7.1-2.9"/>
<path class="st3" d="M53.8,24.3l-3.5-2"/>
<line class="st1" x1="57.1" y1="28.5" x2="57.7" y2="24.1"/>
<path class="st1" d="M38.3,39.6c-1-2.8-2.2-5.5-3.5-8.2"/>
<path class="st1" d="M45,46c-1-2.8-2.2-5.5-3.5-8.2"/>
<path class="st0" d="M38.3,39.6c-2.1-2.2-4.1-4.5-6-6.8"/>
<path class="st1" d="M41.2,48c-2.1-2.2-4.1-4.5-6-6.8"/>
<line class="st0" x1="31.1" y1="33.4" x2="32.3" y2="32.8"/>
<path class="st0" d="M36.6,36.8c-1.1-2-2.3-4.1-3.5-6.1"/>
<path class="st0" d="M32.1,32.9l-0.8-1.5"/>
<path class="st1" d="M37,38.1c-0.6-2.3-1.3-4.5-2.1-6.7"/>
<path class="st2" d="M39.2,48c-1.2-1.7-2.4-3.4-3.6-5.1"/>
<path class="st2" d="M39.2,48c-1.1-1.1-2.1-2.2-3.1-3.3"/>
<path class="st0" d="M29.7,33.7l-0.2-0.3"/>
<path class="st0" d="M30.3,33.5l-0.6-0.8"/>
<line class="st0" x1="29" y1="33.4" x2="29.7" y2="32.8"/>
<path class="st0" d="M29.5,33.4c0.1-0.2,0.2-0.4,0.2-0.7"/>
<path class="st0" d="M31.3,31.4c0.6-0.2,1.2-0.5,1.8-0.7"/>
<line class="st0" x1="32.1" y1="30.7" x2="31.3" y2="31.4"/>
<path class="st1" d="M34.9,31.4c0.1-0.2,0.2-0.4,0.2-0.7"/>
<path class="st0" d="M32.3,32.8c-0.6,0.2-1.2,0.4-1.8,0.7"/>
<path class="st2" d="M39.2,48l1.4-0.6"/>
<path class="st2" d="M41.7,33.1l-0.4-0.5"/>
<path class="st0" d="M41.5,33.3c-1.8-2.3-3.7-4.6-5.6-6.8"/>
<path class="st0" d="M35.9,30.3l-2-2.7"/>
<path class="st1" d="M41.9,33.6c-0.8-2.1-1.7-4.1-2.7-6"/>
<path class="st2" d="M45,43.4L42.9,41"/>
<line class="st2" x1="33.1" y1="30.7" x2="36.3" y2="35.7"/>
<path class="st2" d="M45,43.4l-1.5-1"/>
<path class="st0" d="M35.4,32.8c-0.8-0.7-1.5-1.4-2.3-2.1"/>
<path class="st0" d="M35,31.7c-0.8-0.7-1.5-1.3-2.3-2"/>
<line class="st0" x1="32.1" y1="30.7" x2="33.1" y2="30.7"/>
<line class="st0" x1="32.1" y1="30.7" x2="32.7" y2="29.7"/>
<path class="st1" d="M33.1,30.7c-0.1-0.4-0.2-0.7-0.4-1"/>
<path class="st0" d="M33.9,27.6c0.7-0.4,1.3-0.7,2-1"/>
<line class="st1" x1="34.5" y1="26.5" x2="33.9" y2="27.6"/>
<path class="st1" d="M39.1,27.6c-0.1-0.4-0.2-0.7-0.4-1"/>
<line class="st0" x1="36.1" y1="30.7" x2="35.1" y2="30.7"/>
<path class="st0" d="M37.1,29.7c-0.7,0.3-1.3,0.7-2,1"/>
<path class="st2" d="M45,43.4c0.7-0.4,1.3-0.7,2-1"/>
<path class="st2" d="M44.6,26.9l-1-0.9"/>
<path class="st2" d="M45,27.6c-1.1-2.2-2.4-4.4-3.9-6.4"/>
<path class="st0" d="M45.5,27.9c-1-1.9-2.2-3.6-3.4-5.4"/>
<path class="st2" d="M49.5,36.7l-0.5-0.5"/>
<line class="st2" x1="36" y1="26.5" x2="41.3" y2="32.6"/>
<path class="st2" d="M49.5,36.7l-0.3-0.2"/>
<path class="st0" d="M39.8,28.9c-1.3-0.7-2.6-1.5-3.9-2.4"/>
<path class="st0" d="M39.2,27.7c-1.5-0.8-2.9-1.6-4.3-2.5"/>
<line class="st0" x1="34.5" y1="26.5" x2="36" y2="26.5"/>
<path class="st0" d="M36,26.5c-0.3-0.5-0.7-0.9-1-1.3"/>
<path class="st1" d="M42.1,22.5c-0.3-0.5-0.7-0.9-1-1.3"/>
<line class="st0" x1="38.8" y1="26.5" x2="40.2" y2="26.5"/>
<path class="st0" d="M40.8,25.2c-0.7,0.4-1.3,0.9-2,1.3"/>
<line class="st0" x1="34.5" y1="26.5" x2="34.9" y2="25.2"/>
<path class="st2" d="M37.8,21.2l5.8,4.8"/>
<line class="st0" x1="36.1" y1="21.2" x2="37.8" y2="21.2"/>
<line class="st0" x1="42.7" y1="21.2" x2="41.1" y2="21.2"/>
<line class="st1" x1="42.7" y1="21.2" x2="42.7" y2="21.2"/>
<path class="st2" d="M49.5,36.7l1.9-1.3"/>
<path class="st0" d="M45,27.6c-2.4-2.2-4.8-4.3-7.2-6.4"/>
<path class="st0" d="M35.7,22.5c0.7-0.5,1.3-0.9,2-1.3"/>
<path class="st0" d="M48.1,29.3c-1.9-2.3-3.9-4.6-6-6.8"/>
<path class="st1" d="M55.8,32.7c-1.9-2.3-3.9-4.6-6-6.8"/>
<path class="st0" d="M48.1,29.3c-2.5-1.3-4.9-2.6-7.3-4.1"/>
<path class="st0" d="M53.8,36.7c-2.5-1.3-5-2.6-7.3-4.1"/>
<path class="st0" d="M40.2,26.5l0.6-1.3"/>
<path class="st0" d="M44,35.2c-1.5-2.6-3.1-5.2-4.9-7.7"/>
<path class="st1" d="M51.4,40.3c-1.5-2.6-3.2-5.2-4.9-7.7"/>
<path class="st1" d="M44,35.2c-2.4-1.8-4.7-3.6-6.9-5.6"/>
<path class="st2" d="M48.4,43.4c-2.4-1.8-4.7-3.6-6.9-5.6"/>
<path class="st0" d="M36.1,30.7l1-1"/>
<path class="st0" d="M50.3,22.3c-2.2-1.9-4.5-3.7-6.9-5.5"/>
<path class="st0" d="M57.7,24.1c-2.2-1.9-4.5-3.7-6.9-5.5"/>
<path class="st0" d="M50.3,22.3c-2.5-0.7-4.9-1.6-7.3-2.5"/>
<path class="st1" d="M57.1,28.5c-2.5-0.7-4.9-1.6-7.3-2.5"/>
<path class="st0" d="M42.7,21.2l0.2-1.5"/>
<path class="st2" d="M21.5,46.4v1"/>
<path class="st2" d="M21.2,39.2c0.1,1.4,0.2,5.8,0.3,7.2"/>
<path class="st2" d="M20.6,46.9L20.6,46.9"/>
<path class="st1" d="M15.9,30.9l-0.1-0.2"/>
<path class="st1" d="M18.8,40.8c-1-3.1-1.9-6.2-2.6-9.4"/>
<path class="st3" d="M20.4,45.6l-0.5-1.3"/>
<path class="st0" d="M18.7,42.2c-0.6-1.6-1.2-3.3-1.7-4.9"/>
<path class="st2" d="M20.6,47c-0.3-0.7-0.5-1.3-0.8-2"/>
<path class="st2" d="M20.4,45.6c0.1,0.5,0.2,0.9,0.2,1.4l1,0.4c0.4-1.9,0.6-3.8,0.7-5.7"/>
<path class="st0" d="M18.7,36.5c-0.3-1.9-0.6-3.8-0.9-5.8"/>
<path class="st2" d="M20.3,45.5c-0.1-0.6-0.2-1.2-0.3-1.7"/>
<path class="st1" d="M19.9,33.2l-0.2-1.8"/>
<path class="st0" d="M21.6,34.5c0-0.3,0-0.7-0.1-1"/>
<path class="st2" d="M21.5,45.1c0.1-1.6,0.2-3.1,0.2-4.7"/>
<line class="st1" x1="18.9" y1="30.7" x2="17.9" y2="30.7"/>
<path class="st0" d="M17.9,30.7c0.6,0.2,1.2,0.4,1.8,0.7"/>
<path class="st2" d="M20.4,45.5L20.4,45.5"/>
<path class="st1" d="M18.6,32.8c0.6,0.2,1.2,0.4,1.8,0.7"/>
<path class="st1" d="M21.5,33.4c-0.1-0.2-0.2-0.4-0.2-0.7"/>
<path class="st1" d="M15.9,30.7c0,0.2,0.1,0.5,0.3,0.7"/>
<line class="st0" x1="15.9" y1="30.7" x2="14.8" y2="30.7"/>
<path class="st1" d="M21.3,33.8c0-0.3,0-0.7-0.1-1"/>
<path class="st3" d="M21.4,43.5c0.1-1.2,0.1-2.4,0.1-3.5"/>
<line class="st0" x1="20.5" y1="30.7" x2="18.9" y2="30.7"/>
<path class="st1" d="M17.9,45.3l0.1,0.2"/>
<path class="st1" d="M19.4,47.4L18,46.7"/>
<path class="st0" d="M18.7,47l-0.4-0.2"/>
<line class="st1" x1="10.8" y1="4.1" x2="10.8" y2="4.1"/>
<path class="st0" d="M17.9,45.3l0.1,1.3"/>
<path class="st1" d="M18,46.6L18,46.6"/>
<path class="st1" d="M18,46.7L18,46.7"/>
<path class="st0" d="M14.9,34.3c0.8,4.2,1.9,8.3,3.1,12.3"/>
<path class="st0" d="M17.9,45.3c-1.3-4.8-2.3-9.7-3.1-14.6"/>
<path class="st1" d="M19.3,46v0.1"/>
<path class="st0" d="M19.3,46c0,0.4,0.1,0.9,0.1,1.3"/>
<path class="st0" d="M19.3,46c0.5-4.2,0.7-8.4,0.6-12.6"/>
<line class="st0" x1="19.2" y1="46.2" x2="18" y2="45.5"/>
<path class="st1" d="M27.4,49.9L26,49.6"/>
<path class="st1" d="M26.7,49.8l-0.5-0.1"/>
<line class="st4" x1="27.5" y1="48.5" x2="25.7" y2="48.4"/>
<path class="st0" d="M20.5,37.3c1.4,3.5,3.7,8.9,5.4,12.3"/>
<line class="st3" x1="19.9" y1="33.4" x2="20.5" y2="37.3"/>
<path class="st0" d="M25.5,48.2c-2.2-4.8-4-9.7-5.6-14.8"/>
<line class="st1" x1="10.2" y1="5.4" x2="10.2" y2="5.4"/>
<path class="st1" d="M26.7,49.8l0.6,0.1"/>
<path class="st1" d="M33.2,40.6l4,8.8"/>
<line class="st1" x1="37.2" y1="49.4" x2="37.2" y2="49.4"/>
<line class="st3" x1="31.1" y1="33.4" x2="35.2" y2="41.2"/>
<path class="st1" d="M33.3,45.5c0-1.6,0-3.2,0-4.9"/>
<path class="st0" d="M33.2,40.6c-0.6-2.4-1.3-4.8-2.1-7.2"/>
<line class="st1" x1="37.2" y1="49.4" x2="33" y2="50.1"/>
<line class="st1" x1="33" y1="50.1" x2="33" y2="50.1"/>
<path class="st0" d="M26.9,34.1c1.5,2.6,3.1,5.2,4.8,7.7"/>
<path class="st4" d="M24.1,34.2c1,4.8,1,9.3,1.6,14.2"/>
<path class="st1" d="M27.4,49.9L27.4,49.9"/>
<path class="st1" d="M27.4,44.7c0,0.9,0.1,1.7,0.1,2.6"/>
<path class="st1" d="M27.4,44.3v0.2"/>
<path class="st2" d="M29.8,49.7v0.1"/>
<path class="st1" d="M28.3,42.8L28.3,42.8"/>
<path class="st2" d="M31.5,50.1c-1-2.5-2.1-4.9-3.2-7.3"/>
<path class="st2" d="M28.3,42.8c1,2.5,2,4.9,3.2,7.3"/>
<path class="st1" d="M33.3,45.5l-1.6-3.7"/>
<path class="st0" d="M33.1,45L32,42.5"/>
<path class="st1" d="M24.1,34.1h2.8"/>
<path class="st1" d="M28.5,42.9l0.1,0.2"/>
<path class="st2" d="M32.6,50.1c-1.3-2.3-2.7-4.6-4-7"/>
<path class="st0" d="M28.6,43.2c1.4,2.4,2.9,4.7,4.4,7"/>
<path class="st2" d="M25.8,32.9c-0.1-0.5-0.2-1-0.3-1.5"/>
<path class="st0" d="M20.5,33.5c-0.3-0.7-0.6-1.3-0.8-2"/>
<path class="st0" d="M24.5,34.1c-0.2-1.1-0.4-2.3-0.7-3.4"/>
<path class="st2" d="M24.8,34.1l-0.2-0.7"/>
<path class="st0" d="M20.5,30.7c-0.3,0.2-0.6,0.4-0.9,0.7"/>
<line class="st1" x1="19.7" y1="31.4" x2="18.9" y2="30.7"/>
<path class="st1" d="M21.2,32.8c0.6,0.2,1.1,0.4,1.6,0.7"/>
<line class="st0" x1="21.2" y1="32.8" x2="22" y2="33.4"/>
<path class="st0" d="M24.6,33.4c0.3-0.3,0.6-0.5,0.9-0.7"/>
<line class="st2" x1="25.5" y1="33.4" x2="25.5" y2="32.8"/>
<path class="st0" d="M21.3,32.8c-0.3-0.7-0.5-1.4-0.8-2.1"/>
<line class="st1" x1="25.5" y1="31.4" x2="25.5" y2="30.7"/>
<line class="st0" x1="25.5" y1="30.7" x2="23.8" y2="30.7"/>
<path class="st0" d="M23.8,30.7c0.6,0.2,1.1,0.4,1.6,0.7"/>
<path class="st0" d="M18.6,45.8c-1-4.8-1.8-9.6-2.5-14.4"/>
<line class="st1" x1="18.7" y1="47" x2="18.7" y2="47"/>
<path class="st0" d="M20.5,37.5v-0.1c0,0-0.8,10-1.2,10"/>
<path class="st0" d="M18.7,47l0.5,0.3"/>
<path class="st0" d="M14.8,30.7c0,1.2,0,2.4,0,3.6"/>
<path class="st0" d="M18.6,45.8c0.2-4.4,0.2-8.7,0-13.1"/>
<path class="st0" d="M14.8,30.7l1.3,0.7"/>
<path class="st0" d="M19.9,33.4l-1.3-0.7"/>
<path class="st0" d="M25.5,46.4c-1.6-4.2-3-8.5-4.3-12.8"/>
<line class="st1" x1="26.7" y1="49.8" x2="26.7" y2="49.8"/>
<path class="st1" d="M19.9,33.4l1.4,0.2"/>
<path class="st0" d="M25.3,44.3c-1.4-3.5-2.8-7-4-10.6"/>
<path class="st0" d="M20.4,33.4c0.3,0.1,0.6,0.2,0.9,0.2"/>
<line class="st1" x1="19.9" y1="33.4" x2="20.4" y2="33.4"/>
<path class="st1" d="M25.4,45.4c-0.5-1.2-1.1-2.4-1.6-3.7"/>
<path class="st2" d="M28.8,48.1l-0.9-2.2"/>
<path class="st2" d="M28.8,48.1c0.2,0.6,0.4,1.1,0.6,1.7"/>
<path class="st3" d="M25.6,34.1l-0.1-0.5"/>
<path class="st1" d="M22.9,33.4c-0.1,0.1-0.1,0.1,0,0.2c0,0,0,0,0,0"/>
<line class="st0" x1="22" y1="33.4" x2="22.9" y2="33.4"/>
<line class="st2" x1="24.6" y1="33.4" x2="25.5" y2="33.4"/>
<path class="st0" d="M24.6,33.4c0.3,0.1,0.6,0.1,0.9,0.2"/>
<path class="st2" d="M27.9,46.6l1.4,3.2l0.5,0.1l-0.1-0.5"/>
<path class="st0" d="M31.7,41.8c-0.6-2.8-1.2-5.5-2-8.2"/>
<path class="st1" d="M37.2,49.4c-0.6-2.8-1.2-5.5-2-8.2"/>
<path class="st3" d="M25.7,34.1l-0.2-0.5"/>
<path class="st1" d="M28.1,33.6v-0.2"/>
<path class="st0" d="M28.9,37.6c-0.3-1.3-0.6-2.6-0.9-3.9"/>
<path class="st0" d="M25.5,33.7c0.3-0.1,0.6-0.2,0.9-0.2"/>
<line class="st2" x1="25.5" y1="33.4" x2="26.4" y2="33.4"/>
<path class="st1" d="M28.1,33.5C28.1,33.5,28.1,33.5,28.1,33.5"/>
<path class="st1" d="M28.1,33.7c0,0,0.1-0.1,0-0.2"/>
<line class="st0" x1="29" y1="33.4" x2="28.1" y2="33.4"/>
<line class="st2" x1="25.5" y1="33.7" x2="25.5" y2="33.4"/>
<line class="st2" x1="25.6" y1="34.1" x2="25.5" y2="33.7"/>
<path class="st2" d="M24.8,34.1l-0.2-0.7"/>
<line class="st1" x1="29.5" y1="33.4" x2="29.8" y2="34.1"/>
<line class="st1" x1="22.9" y1="33.7" x2="22" y2="33.4"/>
<line class="st1" x1="21.5" y1="33.4" x2="22" y2="33.4"/>
<path class="st0" d="M21.5,33.4l1.4,0.2"/>
<line class="st0" x1="29" y1="33.4" x2="28.1" y2="33.7"/>
<line class="st1" x1="29" y1="33.4" x2="29.5" y2="33.4"/>
<path class="st0" d="M29.9,34.4l-0.4-0.9"/>
<path class="st0" d="M28.1,33.7l1.4-0.2"/>
<path class="st0" d="M29.9,39.1c-0.6-1.8-1.2-3.6-1.8-5.4"/>
<path class="st2" d="M31.2,41.2c-0.5-2.5-1-5-1.5-7.5"/>
<path class="st1" d="M29.7,33.7c0.3-0.1,0.6-0.1,0.9-0.2"/>
<line class="st1" x1="30.5" y1="33.4" x2="31.1" y2="33.4"/>
<path class="st2" d="M31.5,50.1c0.3-0.1,0.6-0.2,0.9-0.3"/>
<path class="st2" d="M32.6,50.1L33,50"/>
<path class="st2" d="M27.4,49.8l0.7,0.1"/>
<path class="st1" d="M25.9,49.6L25.9,49.6"/>
<path class="st1" d="M25.9,49.6L25.9,49.6"/>
<line class="st2" x1="14.4" y1="18" x2="15.8" y2="20.3"/>
<path class="st2" d="M29.4,13.2l3.6,0.4c-0.2-0.7-0.5-1.3-0.8-2"/>
<line class="st2" x1="33" y1="13.6" x2="32.4" y2="14.8"/>
<line class="st2" x1="43.9" y1="17.2" x2="41.4" y2="17"/>
<line class="st2" x1="15.3" y1="24.9" x2="15.5" y2="25.4"/>
<path class="st2" d="M27,38.9l0,0.9c0.5,3.4,0.7,6.7,0.8,10.1"/>
<line class="st1" x1="57.7" y1="19.7" x2="57" y2="15.3"/>
<path class="st1" d="M53.7,16.2c-1.1,0.2-2.3,0.4-3.4,0.5"/>
<path class="st1" d="M50.3,16.8l7.3,3"/>
<path class="st1" d="M49.8,13c1.3,1,2.7,2.1,4,3.2"/>
<path class="st1" d="M57,15.3L49.8,13"/>
<path class="st4" d="M7.9,25.8l0.5-1.7"/>
<path class="st1" d="M7.9,26v-0.2"/>
<path class="st4" d="M8.3,24.1c0.2,0.8,0.3,1.6,0.5,2.5"/>
<path class="st4" d="M9.8,27.1L9.4,29"/>
<path class="st1" d="M9.4,29L9.4,29"/>
<path class="st4" d="M8.8,26.6c0.3,0.2,0.6,0.4,1,0.5"/>
<line class="st1" x1="7.2" y1="35.2" x2="6.7" y2="34.2"/>
<path class="st1" d="M9.3,29c-0.7,2.1-1.3,4.2-2.2,6.2"/>
<path class="st1" d="M6.7,34.2C7,31.5,7.4,28.7,7.9,26"/>
<path class="st1" d="M11.2,31.7l0.2-2.2"/>
<path class="st1" d="M11.3,31.9l-0.1-0.2"/>
<path class="st4" d="M11.5,29.5c0.3,0.8,0.7,1.6,1.1,2.4"/>
<path class="st4" d="M13.8,31.9l-0.1,2.3"/>
<path class="st1" d="M13.7,34.2h-0.1"/>
<path class="st4" d="M12.5,31.9c0.4,0,0.8,0,1.2,0"/>
<line class="st1" x1="12.2" y1="42.3" x2="11.5" y2="41.5"/>
<path class="st1" d="M13.6,34.2c-0.4,2.7-0.8,5.4-1.3,8"/>
<path class="st1" d="M11.5,41.5c-0.1-3.2-0.2-6.4-0.1-9.6"/>
<path class="st1" d="M7.3,8.4L7.3,8.4"/>
<path class="st1" d="M7.5,8.2L7.3,8.4"/>
<path class="st1" d="M6.8,9.6L6.8,9.6"/>
<line class="st1" x1="7.2" y1="8.4" x2="6.6" y2="9.8"/>
<path class="st1" d="M7.4,8.2L7.4,8.2"/>
<line class="st1" x1="7.4" y1="8.2" x2="6.8" y2="9.6"/>
<path class="st1" d="M6.6,9.8l0.2-0.2"/>
<line class="st1" x1="6.6" y1="9.8" x2="6.6" y2="9.8"/>
<path class="st1" d="M44.9,46.1l-5.2-7.7"/>
<path class="st1" d="M39.7,38.4c0.4,1.6,0.7,3.2,0.9,4.9"/>
<path class="st1" d="M36.3,40l4.8,8.1"/>
<path class="st1" d="M40.6,43.2c-1.5-1-2.9-2.1-4.3-3.3"/>
<line class="st1" x1="41.1" y1="48.1" x2="44.9" y2="46.1"/>
<path class="st1" d="M51.3,40.3L45,33.7"/>
<path class="st1" d="M45,33.7c0.7,1.6,1.3,3.2,1.8,4.8"/>
<path class="st1" d="M42.4,36.4l5.9,7.1"/>
<path class="st1" d="M46.8,38.5c-1.5-0.7-3-1.4-4.4-2.2"/>
<line class="st1" x1="48.3" y1="43.5" x2="51.3" y2="40.3"/>
<path class="st1" d="M18,46.7L18,46.7"/>
<path class="st1" d="M18,46.7L18,46.7"/>
<path class="st1" d="M25.9,49.6L25.9,49.6"/>
<path class="st1" d="M18,46.7L18,46.7"/>
<path class="st1" d="M18,46.7L18,46.7"/>
<path class="st1" d="M17.9,45.5l-0.1-0.2"/>
<line class="st1" x1="18" y1="46.7" x2="19.3" y2="47.4"/>
<path class="st1" d="M17.8,45.4l0.2,1.3"/>
<path class="st1" d="M19.2,46.1v0.1"/>
<path class="st1" d="M19.3,47.4c0-0.4,0-0.8-0.1-1.2"/>
<line class="st1" x1="19.2" y1="46.2" x2="17.9" y2="45.5"/>
<line class="st1" x1="25.9" y1="49.7" x2="27.4" y2="49.9"/>
<path class="st1" d="M25.5,48.2l0.5,1.5"/>
<path class="st1" d="M37.1,49.5l-4-8.8"/>
<path class="st1" d="M33.1,40.7c0.1,1.6,0.1,3.2,0,4.9"/>
<path class="st1" d="M32.9,50.2L32.9,50.2"/>
<line class="st1" x1="32.9" y1="50.2" x2="37.1" y2="49.5"/>
<line class="st1" x1="32.9" y1="50.2" x2="32.9" y2="50.2"/>
<path class="st1" d="M31.6,41.9c-1.7-2.5-3.3-5.1-4.8-7.7"/>
<line class="st1" x1="27.4" y1="49.9" x2="27.4" y2="49.9"/>
<path class="st1" d="M33.2,45.5l-1.6-3.7"/>
<line class="st1" x1="26.8" y1="34.2" x2="24" y2="34.2"/>
<path class="st1" d="M32.9,50.2c-1.2-1.8-2.4-3.6-3.5-5.5"/>
<line class="st1" x1="37.1" y1="49.5" x2="37.1" y2="49.5"/>
<line class="st1" x1="4.2" y1="18.1" x2="4.4" y2="17"/>
<path class="st1" d="M4.4,17c0.8-1.5,1.6-3,2.5-4.5"/>
<path class="st1" d="M6.8,12.4v-0.1"/>
<path class="st1" d="M6.9,12.3l0.6-0.8"/>
<path class="st4" d="M7.4,11.6c-0.2,0.7-0.4,1.4-0.6,2.1"/>
<path class="st4" d="M6.9,13.7c0,0.4,0,0.8,0.1,1.2"/>
<path class="st4" d="M6.9,14.9l-0.6,1"/>
<path class="st1" d="M6.3,15.9L6.3,15.9"/>
<path class="st1" d="M6.3,15.8c-0.6,0.8-1.4,1.6-2.1,2.3"/>
<line class="st1" x1="4.4" y1="26.9" x2="4.2" y2="25.8"/>
<path class="st1" d="M4.2,25.8c0.7-2.2,1.4-4.3,2.1-6.5"/>
<path class="st1" d="M6.3,19.3v-0.2"/>
<path class="st5" d="M6.3,19.2l0.6-1.2"/>
<path class="st4" d="M6.9,17.9c0,0.8,0,1.6-0.1,2.4"/>
<path class="st5" d="M6.9,20.3c0.2,0.3,0.4,0.6,0.6,1"/>
<path class="st1" d="M7.4,21.2l-0.6,1.5"/>
<path class="st1" d="M6.9,22.7L6.9,22.7"/>
<path class="st1" d="M6.8,22.6c-0.7,1.5-1.6,2.9-2.4,4.3"/>
<path class="st1" d="M47,30.9l6.7,5.9"/>
<path class="st1" d="M51.4,32c-1.5-0.3-2.9-0.7-4.3-1.1"/>
<path class="st1" d="M48.7,27.5c0.9,1.5,1.8,3,2.7,4.5"/>
<path class="st1" d="M55.7,32.8l-7-5.3"/>
<line class="st1" x1="53.8" y1="36.7" x2="55.7" y2="32.8"/>
<path class="st1" d="M49.8,24.1l7.2,4.5"/>
<path class="st1" d="M53.7,24.3c-1.3,0-2.7-0.1-4-0.2"/>
<path class="st1" d="M50.3,20.3c1.2,1.3,2.3,2.6,3.4,4"/>
<path class="st1" d="M57.7,24.1l-7.3-3.8"/>
<line class="st1" x1="57" y1="28.5" x2="57.7" y2="24.1"/>
<path class="st1" d="M25.9,49.6L25.9,49.6"/>
<line class="st1" x1="53.3" y1="8.2" x2="53.3" y2="8.2"/>
<line class="st1" x1="54" y1="9.6" x2="53.3" y2="8.2"/>
<path class="st1" d="M53.3,8.2L53.3,8.2"/>
<path class="st1" d="M54.5,9.7L54,9.6"/>
<path class="st1" d="M54,9.6L54,9.6"/>
<path class="st1" d="M53.3,8.2l0.6,0.1"/>
<line class="st0" x1="10.8" y1="4.1" x2="7.3" y2="8.4"/>
<line class="st0" x1="10.2" y1="5.4" x2="7.6" y2="8.2"/>
<path class="st1" d="M26,49.6L26,49.6"/>
<path class="st1" d="M26,49.6L26,49.6"/>
<path class="st1" d="M18,46.7L18,46.7"/>
<path class="st1" d="M18,46.7L18,46.7"/>
<path class="st2" d="M10.8,4.1c0,0-3.8,4-4.2,5.7l0.2-0.2"/>
<path class="st0" d="M10.2,5.4c-1.1,1.1-2,2.3-3,3.4L6.9,9.6l0,0"/>
<path class="st3" d="M11.2,23.3l0.2-0.5"/>
<path class="st3" d="M10.2,17.2c0.3-0.4,0.5-0.8,0.7-1.3"/>
<path class="st1" d="M54.1,9.6L54.1,9.6"/>
<line class="st0" x1="43.1" y1="4.3" x2="40.2" y2="4.1"/>
<path class="st0" d="M53.4,8.2c-4.3-1.6-8.7-3-13.2-4.1"/>
<path class="st0" d="M43.3,4.4c3.8,1.1,7.5,2.5,11.1,4"/>
<line class="st1" x1="54.5" y1="8.4" x2="54.4" y2="8.4"/>
<path class="st0" d="M54.4,8.4L54,8.3"/>
<path class="st4" d="M53.4,8.2L54,8.3h0.5l0.7,1.5l-0.7-1.4"/>
<path class="st0" d="M53.7,8.9c-3.9-0.1-7.8-0.3-11.7-0.8"/>
<path class="st0" d="M54,9.6c-3.8,0.3-7.6,0.2-11.3-0.1"/>
<path class="st1" d="M46.2,10.3L46.2,10.3"/>
<path class="st0" d="M55.2,9.8c-2.9,0.5-5.9,0.7-8.9,0.6"/>
<path class="st1" d="M55.2,9.8l-0.5-0.1"/>
<path class="st0" d="M54.1,9.6l0.5,0.1"/>
<path class="st0" d="M53.7,8.9c-4.3-1.3-8.6-2.5-12.9-3.4"/>
<line class="st0" x1="53.4" y1="8.2" x2="54.1" y2="9.6"/>
<path class="st1" d="M43.1,4.3h0.3"/>
<path class="st1" d="M53.4,8.2L53.4,8.2"/>
<path class="st1" d="M53.4,8.2L53.4,8.2"/>
<path class="st1" d="M53.4,8.2L53.4,8.2"/>
<path class="st1" d="M54,9.6L54,9.6"/>
<path class="st1" d="M53.4,8.2L53.4,8.2"/>
<text transform="matrix(1 0 0 1 26.1699 54.4705)" class="st6 st7">Ver Section</text>
</svg>
