<svg id="Layer_4" data-name="Layer 4" xmlns="http://www.w3.org/2000/svg" viewBox="0 0 63.91 60.57"><defs><style>.cls-1,.cls-2,.cls-3,.cls-4,.cls-5,.cls-6{fill:none;stroke:#010101;stroke-linecap:round;stroke-linejoin:round;}.cls-1{stroke-width:0.09px;}.cls-2{stroke-width:0.13px;}.cls-3{stroke-width:0.06px;}.cls-4{stroke-width:0.03px;}.cls-5{stroke-width:0.19px;}.cls-6{stroke-width:0.25px;}.cls-7{fill:#231f20;}</style></defs><title>ex_07</title><path class="cls-1" d="M32.6,50.12q-2.24-3.51-4.15-7.2l-1.38-4.17q0.64,2,1.31,4.07"/><path class="cls-2" d="M27.43,39.94l-0.36-1.19,0.12,2.94a76.74,76.74,0,0,1,.25,8.18"/><path class="cls-1" d="M24.8,38.23q-1-2.39-1.9-4.8"/><path class="cls-3" d="M29.83,49.75a92.6,92.6,0,0,0-2.47-9.88"/><path class="cls-3" d="M27.09,39.29a66.34,66.34,0,0,1,1,10.59"/><path class="cls-1" d="M31.51,5.72a7.76,7.76,0,0,0,.77-1.6"/><path class="cls-2" d="M39.76,38.32q0.55,2.43.9,4.89"/><path class="cls-2" d="M40.66,43.21c-1.47-1-2.91-2.13-4.3-3.27"/><line class="cls-1" x1="7.22" y1="35.2" x2="7.23" y2="35.18"/><path class="cls-3" d="M34,25.5c-1-.4-2.61-1-3.59-1.47"/><path class="cls-3" d="M22.05,26.76c-0.93-.46-1.86-0.93-2.76-1.44"/><path class="cls-3" d="M11.18,16.06c-0.27.35-.68,0.83-0.94,1.18"/><line class="cls-2" x1="8.26" y1="9.43" x2="7.99" y2="9.73"/><path class="cls-3" d="M21.83,17.77c-0.68-.6-1.35-1.2-2-1.78"/><line class="cls-3" x1="10.87" y1="33.76" x2="10.87" y2="33.75"/><path class="cls-3" d="M10.95,34.57q0-.36-0.07-0.72"/><path class="cls-1" d="M36,7.39c0.71,0.31,1.41.63,2.11,1"/><path class="cls-3" d="M16.23,40.26q-0.07.92-.14,1.85"/><line class="cls-2" x1="14.85" y1="32.66" x2="14.84" y2="30.73"/><line class="cls-2" x1="7.46" y1="10.33" x2="8.26" y2="9.43"/><path class="cls-3" d="M18.73,42.3q-0.82-2.11-1.6-4.24"/><path class="cls-3" d="M20.59,46.95L19.81,45"/><line class="cls-2" x1="14.84" y1="30.73" x2="14.86" y2="34.3"/><path class="cls-3" d="M28.68,48.22l-0.74-1.62"/><path class="cls-2" d="M13.64,34.19h0.13"/><path class="cls-2" d="M11.32,31.65l0.09,0.21"/><path class="cls-1" d="M9.41,29l0.08,0"/><path class="cls-1" d="M7.93,25.8L8,26"/><path class="cls-2" d="M57.74,24.1l-7.35-3.79"/><path class="cls-2" d="M50.39,20.31q1.77,1.93,3.42,4"/><path class="cls-2" d="M53.81,24.28c-1.33,0-2.66-.08-4-0.22"/><path class="cls-2" d="M49.82,24.06l7.25,4.46"/><path class="cls-2" d="M48.77,27.44q1.41,2.22,2.66,4.52"/><path class="cls-2" d="M51.43,32c-1.46-.32-2.9-0.7-4.32-1.14"/><path class="cls-2" d="M45.1,33.67q1,2.38,1.8,4.83"/><path class="cls-2" d="M46.9,38.49c-1.5-.66-3-1.38-4.41-2.16"/><path class="cls-2" d="M57.08,15.27L49.82,13"/><path class="cls-2" d="M49.82,13q2,1.55,4,3.21"/><path class="cls-2" d="M53.81,16.19a31.1,31.1,0,0,1-3.42.55"/><path class="cls-2" d="M50.39,16.74l7.35,2.95"/><path class="cls-2" d="M6.92,22.6l0,0.07"/><path class="cls-1" d="M7,22.67L7.52,21.2"/><line class="cls-2" x1="57.74" y1="19.68" x2="57.08" y2="15.27"/><path class="cls-1" d="M43.61,15.31l-0.22-1.47"/><path class="cls-1" d="M50.29,14.92a68.69,68.69,0,0,1-6.9-1.08"/><path class="cls-3" d="M57.74,19.68a68.74,68.74,0,0,1-6.9-1.08"/><path class="cls-1" d="M50.39,16.74c-2.29-.36-4.55-0.84-6.79-1.42"/><path class="cls-1" d="M42.94,10.9L42.72,9.43"/><path class="cls-1" d="M50.29,14.92q-3.61-2.14-7.35-4"/><path class="cls-4" d="M53.81,16.19l-3.53-1.27"/><path class="cls-1" d="M57.08,15.27q-3.61-2.14-7.35-4"/><path class="cls-1" d="M49.82,13q-3.49-1.91-7.11-3.56"/><line class="cls-1" x1="25.49" y1="26.51" x2="25.48" y2="27.57"/><path class="cls-1" d="M27.13,30.73C26.6,30.35,26,30,25.48,29.67"/><path class="cls-3" d="M29.09,33q-1-1.11-2-2.27"/><path class="cls-1" d="M32.69,29.67c-0.76.33-1.52,0.68-2.26,1.05"/><path class="cls-1" d="M33.93,27.57c-0.53-.38-1.09-0.72-1.65-1.05"/><path class="cls-1" d="M33,29.92q-0.28-1.72-.68-3.41"/><path class="cls-1" d="M34.91,31.65c-0.28-1.38-.6-2.74-1-4.09"/><path class="cls-1" d="M25.48,27.57c0.75-.37,1.51-0.72,2.27-1.06"/><path class="cls-1" d="M30.83,30.53q-1.55-2-3.07-4"/><line class="cls-4" x1="25.48" y1="27.57" x2="26.7" y2="30.43"/><path class="cls-1" d="M29.1,33q-1.84-2.7-3.63-5.43"/><line class="cls-1" x1="32.07" y1="30.73" x2="30.42" y2="30.73"/><line class="cls-1" x1="25.48" y1="30.73" x2="27.13" y2="30.73"/><path class="cls-1" d="M26.35,33.43a4.92,4.92,0,0,0-.87-0.68"/><path class="cls-3" d="M26.75,34.13l-0.4-.7"/><path class="cls-1" d="M29.73,32.76c-0.56.2-1.11,0.43-1.65,0.68"/><path class="cls-1" d="M31.29,31.4a4.91,4.91,0,0,0-.87-0.68"/><path class="cls-1" d="M30.94,33.28Q30.7,32,30.42,30.73"/><path class="cls-2" d="M36.43,45.92L36.32,45"/><path class="cls-2" d="M31.66,33q-0.18-.8-0.37-1.6"/><path class="cls-1" d="M25.48,31.4c0.54-.25,1.09-0.47,1.65-0.68"/><path class="cls-1" d="M28.59,33.21l-1.45-2.48"/><line class="cls-4" x1="25.48" y1="31.4" x2="26.17" y2="33.26"/><path class="cls-1" d="M27.17,34.62L25.48,31.4"/><path class="cls-1" d="M7,12.38Q7.33,11.2,7.72,10"/><path class="cls-1" d="M6.42,15.81a3.21,3.21,0,0,0,.34.6"/><line class="cls-1" x1="4.47" y1="16.92" x2="4.3" y2="18.03"/><path class="cls-1" d="M4.3,18a20.86,20.86,0,0,0,2.12-2.3"/><path class="cls-1" d="M6.92,12.42q-1.29,2.22-2.45,4.51"/><path class="cls-1" d="M7.93,25.8q-0.12-1.51-.21-3"/><path class="cls-1" d="M9.49,29a5.56,5.56,0,0,0,1-.47"/><line class="cls-1" x1="6.74" y1="34.21" x2="7.22" y2="35.2"/><path class="cls-1" d="M7.22,35.2c0.83-2,1.54-4.13,2.19-6.24"/><path class="cls-1" d="M8,26q-0.73,4.1-1.23,8.22"/><line class="cls-1" x1="6.76" y1="16.41" x2="7.37" y2="15.31"/><path class="cls-1" d="M6.42,19.39q0.15-1.49.34-3"/><line class="cls-1" x1="7.72" y1="22.79" x2="8.26" y2="21.2"/><path class="cls-1" d="M7,22.67a2.7,2.7,0,0,0,.76.12l1.18-.26q0.86,1.49,1.75,3"/><path class="cls-1" d="M7.52,21.2a2.43,2.43,0,0,0,.74,0"/><line class="cls-1" x1="4.3" y1="25.75" x2="4.47" y2="26.86"/><path class="cls-1" d="M4.47,26.86A46.92,46.92,0,0,0,6.92,22.6"/><path class="cls-1" d="M6.42,19.28Q5.27,22.49,4.3,25.75"/><line class="cls-1" x1="10.51" y1="28.54" x2="10.83" y2="26.51"/><path class="cls-5" d="M11.32,31.65q-0.43-1.55-.81-3.11"/><path class="cls-2" d="M13.76,34.2a11,11,0,0,0,1.09-1.09"/><line class="cls-1" x1="11.54" y1="41.45" x2="12.29" y2="42.24"/><path class="cls-1" d="M12.29,42.24c0.57-2.67,1-5.35,1.34-8"/><path class="cls-1" d="M11.41,31.85q-0.07,4.8.13,9.6"/><line class="cls-1" x1="35.74" y1="22.53" x2="36.12" y2="21.2"/><line class="cls-1" x1="25.49" y1="26.51" x2="27.75" y2="26.51"/><path class="cls-3" d="M38.38,25.23q0.34,1.15.59,2.32"/><line class="cls-1" x1="39.23" y1="26.19" x2="35.74" y2="22.53"/><line class="cls-2" x1="35.74" y1="22.53" x2="35.72" y2="22.53"/><path class="cls-3" d="M31.87,30c-1.71-1.62-3.39-3.26-5-5"/><line class="cls-4" x1="25.49" y1="22.53" x2="26.84" y2="25.08"/><path class="cls-1" d="M35.35,25.44c-0.56-1.44-1.19-2.86-1.88-4.24"/><path class="cls-1" d="M37.36,26.66a34.4,34.4,0,0,0-1.64-4.13"/><path class="cls-1" d="M33.46,21.2q1.14,0.64,2.26,1.33"/><path class="cls-1" d="M32.28,26.51q1.32-.68,2.66-1.33"/><path class="cls-1" d="M32.36,26.47q-2.11-2.63-4.21-5.26"/><path class="cls-1" d="M32.3,29.84c-2.35-2.36-4.63-4.78-6.81-7.31"/><path class="cls-1" d="M28.15,21.2q-1.34.64-2.66,1.33"/><path class="cls-3" d="M31.59,30.17a47,47,0,0,1-3.83-3.66"/><path class="cls-1" d="M25.49,25.18q1.14,0.64,2.26,1.33"/><line class="cls-1" x1="25.49" y1="25.18" x2="25.49" y2="26.51"/><line class="cls-1" x1="32.28" y1="26.51" x2="34.54" y2="26.51"/><line class="cls-1" x1="36.53" y1="16.79" x2="36.67" y2="15.32"/><line class="cls-2" x1="36.14" y1="21.22" x2="36.12" y2="21.2"/><line class="cls-1" x1="25.49" y1="21.2" x2="28.15" y2="21.2"/><line class="cls-1" x1="33.46" y1="21.2" x2="36.12" y2="21.2"/><line class="cls-1" x1="36.12" y1="21.2" x2="36.26" y2="19.73"/><line class="cls-2" x1="25.49" y1="15.32" x2="25.49" y2="16.79"/><path class="cls-2" d="M39,27l-0.12,0"/><line class="cls-2" x1="38.93" y1="26.94" x2="38.81" y2="26.82"/><path class="cls-2" d="M39,27l-0.19-.21"/><line class="cls-1" x1="39.29" y1="18.62" x2="36.53" y2="16.79"/><line class="cls-2" x1="36.26" y1="19.73" x2="36.28" y2="19.74"/><path class="cls-3" d="M35,24.51c-2.76-1.89-5.48-3.83-8.13-5.89"/><line class="cls-4" x1="25.49" y1="16.79" x2="26.84" y2="18.62"/><path class="cls-1" d="M36.49,19.84a32.48,32.48,0,0,0-2.61-4.52"/><path class="cls-1" d="M38.64,20.9a21.2,21.2,0,0,0-2.11-4.11"/><path class="cls-1" d="M33.88,15.32l2.65,1.47"/><path class="cls-1" d="M33.46,21.2l2.79-1.47"/><path class="cls-1" d="M34.15,20.83l-5.87-5.52"/><path class="cls-1" d="M34.78,24.05c-3.19-2.31-6.3-4.7-9.29-7.27"/><path class="cls-1" d="M28.29,15.32l-2.79,1.47"/><path class="cls-3" d="M35.24,25.17a39.26,39.26,0,0,1-7.09-4"/><path class="cls-1" d="M25.49,19.73l2.66,1.47"/><path class="cls-3" d="M35.13,24.9c-1.54-.64-3.05-1.34-4.53-2.11"/><line class="cls-1" x1="25.49" y1="19.73" x2="25.49" y2="21.2"/><line class="cls-1" x1="36.69" y1="15.32" x2="38.42" y2="15.32"/><path class="cls-1" d="M37.78,9.43L36.28,10.9"/><line class="cls-1" x1="41.87" y1="15.32" x2="43.59" y2="15.32"/><path class="cls-1" d="M41.87,15.32l1.5,1.47"/><path class="cls-1" d="M41.07,9.43l1.86,1.47"/><path class="cls-1" d="M43.29,13.93l-7-3"/><path class="cls-1" d="M41.87,15.32l1.5-1.47"/><path class="cls-1" d="M36.55,13.84l1.87,1.47"/><path class="cls-1" d="M38.42,15.32l-1.86,1.47"/><path class="cls-1" d="M36.28,19.73l1.5,1.47"/><path class="cls-1" d="M43.08,16.5q-2.36-.51-4.67-1.19"/><path class="cls-3" d="M49.32,14.81a53.25,53.25,0,0,0-6.39-3.91"/><line class="cls-1" x1="36.55" y1="13.84" x2="36.69" y2="15.32"/><path class="cls-1" d="M41.88,15.3q-2.69-.66-5.33-1.46"/><path class="cls-1" d="M41.07,21.2l1.86-1.47"/><path class="cls-1" d="M48.26,14.68c-3.44-1.85-6.93-3.62-10.48-5.25"/><path class="cls-3" d="M40.67,10.34c2.78,1.4,5.52,2.89,8.23,4.43"/><path class="cls-2" d="M43.38,13.85h0"/><line class="cls-1" x1="43.37" y1="16.79" x2="43.59" y2="15.32"/><line class="cls-2" x1="42.71" y1="21.2" x2="42.93" y2="19.73"/><line class="cls-2" x1="42.94" y1="10.9" x2="42.93" y2="10.9"/><line class="cls-2" x1="43.6" y1="15.32" x2="43.59" y2="15.32"/><line class="cls-2" x1="43.37" y1="13.84" x2="43.38" y2="13.84"/><line class="cls-1" x1="34.55" y1="4.12" x2="35.95" y2="4.12"/><line class="cls-1" x1="36.14" y1="9.43" x2="37.78" y2="9.43"/><line class="cls-1" x1="42.71" y1="9.43" x2="41.07" y2="9.43"/><path class="cls-1" d="M38.74,4.12q1,0.68,2,1.33"/><path class="cls-1" d="M41.07,9.43q0.52-.65,1-1.33"/><path class="cls-2" d="M42.08,8.1h0"/><path class="cls-3" d="M48.65,8.69l0.26-.34"/><path class="cls-1" d="M47.46,8.61C43.3,7.5,39.14,6.43,34.95,5.45"/><path class="cls-2" d="M35.95,4.12q-0.48.68-1,1.33"/><path class="cls-1" d="M49.79,8.76a53.76,53.76,0,0,0-9-3.31"/><line class="cls-4" x1="37.78" y1="9.43" x2="40.67" y2="10.34"/><path class="cls-1" d="M46.36,7.28C42.93,6.1,39.47,5,35.95,4.12"/><line class="cls-1" x1="35.95" y1="4.12" x2="38.61" y2="4.36"/><path class="cls-1" d="M41.39,9.69q-1.81-.08-3.61-0.26"/><path class="cls-1" d="M35.74,8.1q1,0.68,2,1.33"/><path class="cls-1" d="M41.68,8.63c-2-.13-4-0.3-5.94-0.53"/><path class="cls-3" d="M42.24,10.36l-1.57,0"/><path class="cls-3" d="M48,7.24Q49,7.78,50,8.37"/><path class="cls-1" d="M50.59,8.8a34.59,34.59,0,0,0-3.79-1.88"/><path class="cls-3" d="M50.62,8.8L50,8.37"/><path class="cls-2" d="M38.61,4.36l0.95,0.3"/><line class="cls-1" x1="40.78" y1="5.45" x2="40.14" y2="4.12"/><line class="cls-2" x1="40.8" y1="5.45" x2="40.78" y2="5.45"/><line class="cls-1" x1="40.14" y1="4.12" x2="38.74" y2="4.12"/><line class="cls-2" x1="40.15" y1="4.12" x2="40.14" y2="4.12"/><line class="cls-1" x1="42.71" y1="9.43" x2="42.06" y2="8.1"/><line class="cls-2" x1="42.72" y1="9.43" x2="42.71" y2="9.43"/><line class="cls-2" x1="42.06" y1="8.1" x2="42.08" y2="8.1"/><line class="cls-1" x1="34.95" y1="5.45" x2="34.55" y2="4.12"/><line class="cls-1" x1="34.55" y1="4.12" x2="32.28" y2="4.12"/><line class="cls-1" x1="25.49" y1="5.44" x2="25.49" y2="4.12"/><line class="cls-1" x1="23.21" y1="26.51" x2="25.47" y2="26.51"/><line class="cls-1" x1="16.43" y1="26.51" x2="18.69" y2="26.51"/><line class="cls-1" x1="22.81" y1="21.2" x2="25.47" y2="21.2"/><line class="cls-1" x1="14.84" y1="21.2" x2="17.5" y2="21.2"/><path class="cls-1" d="M18.29,29.67c0.76,0.33,1.52.68,2.26,1.05"/><path class="cls-1" d="M23.84,30.73c0.53-.38,1.08-0.72,1.64-1.05"/><path class="cls-1" d="M16,25.18q1.34,0.64,2.66,1.33"/><path class="cls-1" d="M23.21,26.51q1.12-.69,2.26-1.33"/><line class="cls-2" x1="22.69" y1="15.32" x2="22.68" y2="15.32"/><path class="cls-1" d="M22.81,21.2l2.66-1.47"/><line class="cls-4" x1="14.41" y1="18" x2="14.41" y2="18"/><path class="cls-1" d="M14.71,19.73L17.5,21.2"/><path class="cls-1" d="M23.16,33.14c-2-3.91-4-7.85-5.66-11.94"/><path class="cls-3" d="M22.77,33.37l0.4-.23"/><path class="cls-1" d="M17.5,21.2q-1.14.64-2.26,1.33"/><path class="cls-1" d="M25.7,29.8q-0.09-1.12-.22-2.24"/><path class="cls-1" d="M23.21,26.51c0.76,0.33,1.52.68,2.27,1.05"/><path class="cls-1" d="M22.45,24.9a39.65,39.65,0,0,0,.23-9.58"/><path class="cls-4" d="M22.88,25.13l-0.44-.23"/><path class="cls-1" d="M25.37,19.79a17.82,17.82,0,0,0,.11-3"/><path class="cls-1" d="M22.68,15.32l2.79,1.47"/><path class="cls-1" d="M22.52,26.41a7.7,7.7,0,0,0,.5-3.13"/><path class="cls-1" d="M23.37,34.51a20.9,20.9,0,0,0,.1-6.19"/><path class="cls-3" d="M23.16,33.14a78.51,78.51,0,0,0-.35-11.94"/><path class="cls-3" d="M23.54,33.33l-0.38-.19"/><path class="cls-1" d="M25.55,25.22q0-1.35-.08-2.69"/><path class="cls-1" d="M22.81,21.2q1.34,0.64,2.66,1.33"/><path class="cls-2" d="M24.43,34.13c-0.16-1.07-.34-2.13-0.55-3.18"/><path class="cls-1" d="M16.73,25.52q-0.79-1.47-1.49-3"/><line class="cls-3" x1="17.25" y1="29.68" x2="17.32" y2="30.4"/><path class="cls-1" d="M18,29.88q-0.51-1.15-1-2.31"/><path class="cls-1" d="M18.69,26.51c-0.56.33-1.11,0.68-1.64,1.05"/><path class="cls-1" d="M22.33,33.18a30.53,30.53,0,0,1-3.64-6.67"/><path class="cls-2" d="M23.37,34.51l-0.1-.12"/><line class="cls-2" x1="23.52" y1="35.04" x2="23.37" y2="34.51"/><path class="cls-1" d="M22.52,26.41a15.6,15.6,0,0,1-5-5.21"/><line class="cls-4" x1="22.76" y1="27.07" x2="22.52" y2="26.41"/><path class="cls-1" d="M22.45,24.9a104.38,104.38,0,0,1-5.36-9.58"/><path class="cls-4" d="M21.3,25.53l1.15-.64"/><path class="cls-1" d="M17.25,21.07a38,38,0,0,1-2.82-4.28"/><path class="cls-1" d="M17.09,15.32l-2.66,1.47"/><path class="cls-1" d="M24.12,34.13c-0.24-2.55-.52-5.09-0.9-7.62"/><path class="cls-1" d="M24.37,37.18q-0.11-1.4-.23-2.8"/><path class="cls-1" d="M20.32,30.61q-0.84-2-1.62-4.1"/><path class="cls-3" d="M26.77,25.92q0-.42.07-0.84"/><path class="cls-1" d="M22.76,27.07A14.09,14.09,0,0,1,19,24.75"/><path class="cls-1" d="M23.64,35.35l0.08-.23,0.06-.18,0.1-.34,0.1-.4q0.05-.22.1-0.44"/><path class="cls-1" d="M23.65,35.38l0.54-.32"/><line class="cls-1" x1="25.48" y1="30.73" x2="25.48" y2="29.67"/><line class="cls-1" x1="25.47" y1="22.53" x2="25.47" y2="21.2"/><line class="cls-2" x1="25.49" y1="26.51" x2="25.47" y2="26.51"/><line class="cls-2" x1="25.47" y1="25.18" x2="25.49" y2="25.23"/><line class="cls-2" x1="25.47" y1="16.79" x2="25.49" y2="15.32"/><path class="cls-3" d="M26.81,18.57v0l-0.2,1.63"/><line class="cls-2" x1="25.49" y1="21.24" x2="25.47" y2="21.2"/><line class="cls-1" x1="15.24" y1="8.1" x2="14.84" y2="9.43"/><line class="cls-1" x1="16.42" y1="4.12" x2="18.69" y2="4.12"/><path class="cls-3" d="M24.42,7.54c0.65-.54,1.27-1.11,1.86-1.71"/><path class="cls-1" d="M21.27,5.72c0.67-.51,1.33-1,2-1.6"/><path class="cls-1" d="M25.49,5.44q-1.15-.64-2.26-1.33"/><path class="cls-1" d="M23.72,7.16a22.06,22.06,0,0,0,1.77-1.71"/><line class="cls-1" x1="25.49" y1="8.03" x2="23.72" y2="7.22"/><path class="cls-3" d="M21.31,9.09L22.6,9.66"/><path class="cls-2" d="M24.42,7.54l0,0"/><path class="cls-3" d="M23.72,7.16l-2.42.19"/><path class="cls-1" d="M20.84,8.59q1,0.44,2,.83"/><path class="cls-1" d="M25.49,8.1q-1.32.68-2.66,1.33"/><path class="cls-1" d="M21.29,5.7Q20,4.93,18.69,4.12"/><path class="cls-3" d="M18.18,7.22c-0.69-.49-1.31-0.85-2-1.37"/><path class="cls-3" d="M21.3,7.35q0-.82,0-1.63"/><path class="cls-1" d="M16,5.45q1.34-.64,2.67-1.33"/><path class="cls-1" d="M18.38,7.16C17.58,6.6,16.8,6,16,5.45"/><line class="cls-4" x1="21.31" y1="9.09" x2="20.84" y2="8.59"/><path class="cls-3" d="M21.31,9.09q-1.56.45-3.14,0.84"/><path class="cls-3" d="M20.84,8.59l0.41-1.21"/><path class="cls-1" d="M20.84,8.59Q19.18,9,17.5,9.43"/><path class="cls-1" d="M15.24,8.1q1.12,0.69,2.26,1.33"/><path class="cls-2" d="M18.38,7.16q-1.56.5-3.15,0.94"/><path class="cls-3" d="M21.3,7.35l-2.92-.19"/><path class="cls-3" d="M13.18,13.4q0.78-.88,1.53-1.77"/><path class="cls-1" d="M11.09,11.63q1.06-1.09,2.1-2.2"/><path class="cls-1" d="M14.7,10.9L13.19,9.43"/><path class="cls-1" d="M12.73,13.22q1-1.15,2-2.32"/><path class="cls-3" d="M10.4,15.79c0.5,0.18,1,.34,1.5.49"/><path class="cls-4" d="M12.73,13.22l-2,.43"/><path class="cls-1" d="M10.7,14.82c0.61,0.19,1.23.36,1.86,0.5"/><path class="cls-1" d="M14.43,13.84l-1.87,1.47"/><path class="cls-2" d="M12.73,13.22c0.56,0.23,1.12.44,1.7,0.62"/><path class="cls-3" d="M8.37,13.53Q8,12.78,7.65,12"/><path class="cls-4" d="M10.76,13.65l0.34-2"/><path class="cls-1" d="M11.09,11.63c-0.42-.72-0.81-1.46-1.19-2.2"/><path class="cls-1" d="M8,10.9L9.9,9.43"/><path class="cls-1" d="M9.07,13.22c-0.37-.76-0.72-1.54-1-2.32"/><line class="cls-4" x1="10.4" y1="15.79" x2="10.7" y2="14.82"/><path class="cls-3" d="M10.4,15.79l-0.84.32"/><path class="cls-4" d="M10.7,14.82q0-.58.05-1.17"/><path class="cls-1" d="M10.7,14.82c-0.53.19-1.06,0.36-1.6,0.5"/><path class="cls-1" d="M7.59,13.84L9.1,15.31"/><path class="cls-1" d="M9.07,13.22c-0.49.22-1,.43-1.48,0.62"/><path class="cls-4" d="M10.76,13.65l-1.69-.43"/><path class="cls-4" d="M10,16.8q0.22-.5.43-1"/><path class="cls-2" d="M8,10.9L8.26,9.43"/><path class="cls-1" d="M7.59,13.84L7.37,15.31"/><path class="cls-2" d="M7.24,13.22Q7.63,12.06,8,10.9"/><path class="cls-2" d="M7.24,13.22a3.25,3.25,0,0,0,.35.62"/><line class="cls-1" x1="25.49" y1="9.43" x2="22.83" y2="9.43"/><line class="cls-1" x1="14.43" y1="13.84" x2="14.3" y2="15.32"/><line class="cls-1" x1="14.84" y1="9.43" x2="17.5" y2="9.43"/><line class="cls-1" x1="14.7" y1="10.9" x2="14.84" y2="9.43"/><path class="cls-3" d="M24.58,13.59c0.62-.64,1.22-1.29,1.81-2"/><path class="cls-1" d="M20.55,11.63c0.78-.71,1.54-1.44,2.28-2.2"/><path class="cls-1" d="M25.49,10.9L22.83,9.43"/><path class="cls-1" d="M23.43,13.22c0.71-.75,1.4-1.52,2.06-2.32"/><path class="cls-3" d="M20.84,15.79c0.64,0.18,1.28.34,1.93,0.49"/><path class="cls-3" d="M23.43,13.22l-2.73.43"/><path class="cls-1" d="M20.4,14.82c0.76,0.19,1.52.36,2.29,0.5"/><path class="cls-1" d="M25.49,13.84l-2.8,1.47"/><path class="cls-1" d="M23.43,13.22c0.68,0.23,1.36.44,2.06,0.62"/><line class="cls-4" x1="14.7" y1="10.9" x2="14.7" y2="11.63"/><path class="cls-3" d="M16.84,13.37q-1.08-.86-2.14-1.74"/><path class="cls-3" d="M20.7,13.65q-0.07-1-.15-2"/><path class="cls-1" d="M20.55,11.63q-1.54-1.08-3-2.2"/><path class="cls-1" d="M14.7,10.9l2.8-1.47"/><path class="cls-1" d="M17.51,13.22q-1.43-1.14-2.81-2.32"/><line class="cls-4" x1="20.84" y1="15.79" x2="20.4" y2="14.82"/><path class="cls-3" d="M20.84,15.79c-1.07.21-2.15,0.41-3.23,0.57"/><path class="cls-3" d="M20.4,14.82c0.1-.39.2-0.78,0.3-1.17"/><path class="cls-1" d="M20.4,14.82c-1.1.2-2.2,0.37-3.31,0.5"/><path class="cls-1" d="M14.43,13.84l2.66,1.48"/><path class="cls-1" d="M17.51,13.22c-1,.23-2.05.44-3.09,0.62"/><path class="cls-3" d="M20.7,13.65l-3.19-.43"/><line class="cls-1" x1="17.09" y1="15.32" x2="14.3" y2="15.32"/><path class="cls-4" d="M22,17.87l-0.13-.09"/><path class="cls-4" d="M22,17.87a24.67,24.67,0,0,1-1.87-1.93"/><path class="cls-3" d="M22.68,18A1.36,1.36,0,0,1,22,17.87"/><path class="cls-4" d="M22.68,18a17.1,17.1,0,0,1-1.84-2.24"/><path class="cls-3" d="M22.85,18H22.68"/><line class="cls-2" x1="36.28" y1="10.9" x2="36.14" y2="9.43"/><line class="cls-1" x1="28.29" y1="15.32" x2="25.49" y2="15.32"/><line class="cls-1" x1="25.49" y1="13.84" x2="25.49" y2="15.32"/><line class="cls-1" x1="36.67" y1="15.32" x2="33.88" y2="15.32"/><line class="cls-2" x1="25.49" y1="10.9" x2="25.49" y2="9.43"/><path class="cls-3" d="M36.92,14a21.36,21.36,0,0,0,1.14-2.29"/><path class="cls-1" d="M32.23,11.63a19.91,19.91,0,0,0,1.24-2.2"/><path class="cls-1" d="M36.28,10.9l-2.8-1.47"/><path class="cls-1" d="M35.26,13.22a17.46,17.46,0,0,0,1-2.32"/><path class="cls-3" d="M33.74,15.79L34.35,16"/><path class="cls-3" d="M35.26,13.22L33,13.65"/><path class="cls-1" d="M32.38,14.82c0.5,0.18,1,.35,1.5.5"/><path class="cls-1" d="M36.55,13.84l-2.67,1.47"/><path class="cls-1" d="M35.26,13.22l1.29,0.62"/><line class="cls-4" x1="25.49" y1="10.9" x2="26.39" y2="11.63"/><path class="cls-1" d="M32.23,11.63l-4.08-2.2"/><path class="cls-3" d="M29.11,13.26l-2.72-1.64"/><path class="cls-1" d="M25.49,10.9l2.66-1.47"/><path class="cls-1" d="M29.35,13.22q-1.94-1.15-3.86-2.32"/><line class="cls-4" x1="33.74" y1="15.79" x2="32.38" y2="14.82"/><path class="cls-3" d="M33.74,15.79q-2.14.35-4.3,0.62"/><path class="cls-1" d="M25.49,13.84l2.8,1.47,4.09-.5"/><path class="cls-2" d="M29.35,13.22c-1.28.24-2.57,0.45-3.86,0.62"/><path class="cls-1" d="M8.9,22.53L8.26,21.2"/><path class="cls-1" d="M10.19,25.18l0.64,1.33"/><path class="cls-1" d="M9.12,25.66Q9,24.1,8.9,22.53"/><path class="cls-1" d="M9.12,25.66a5.57,5.57,0,0,0,1.07-.48"/><line class="cls-2" x1="15.24" y1="22.53" x2="14.84" y2="21.2"/><line class="cls-1" x1="16.04" y1="25.18" x2="16.43" y2="26.51"/><polyline class="cls-3" points="15.24 22.53 15.28 24.28 15.22 25.4"/><path class="cls-1" d="M11.85,24.23q0.66-1.52,1.34-3"/><path class="cls-1" d="M15.24,22.53q-1-.68-2-1.33"/><path class="cls-1" d="M14.06,25.66q0.58-1.57,1.17-3.13"/><path class="cls-3" d="M13.84,28.84l0.76-.18"/><path class="cls-3" d="M14.06,25.66q-0.86.47-1.73,0.91"/><path class="cls-1" d="M13,27.1a13.4,13.4,0,0,0,2-.59"/><path class="cls-1" d="M16,25.18q-0.52.65-1,1.33"/><path class="cls-1" d="M14.06,25.66a12.71,12.71,0,0,0,2-.48"/><path class="cls-1" d="M9.28,25.61L9.09,25.3"/><path class="cls-3" d="M12.33,26.57q-0.24-1.17-.48-2.34"/><path class="cls-1" d="M11.85,24.23q-1-1.5-1.95-3"/><path class="cls-1" d="M8.9,22.53q0.48-.68,1-1.33"/><line class="cls-3" x1="12.95" y1="27.56" x2="12.98" y2="27.1"/><path class="cls-3" d="M13,27.1L12.81,27"/><path class="cls-1" d="M13,27.1a2.64,2.64,0,0,1-.75-0.59"/><path class="cls-3" d="M10.19,25.18q1,0.65,2,1.33"/><path class="cls-2" d="M12.33,26.57l-0.1-.06"/><path class="cls-3" d="M11.29,35.06A0.71,0.71,0,0,1,11,34.7"/><path class="cls-2" d="M11.29,35.06q0.05-1.23.12-2.45"/><path class="cls-2" d="M11.4,35.12l-0.11-.06"/><path class="cls-3" d="M10.87,33.75q-0.29-2.6-.37-5.21"/><path class="cls-3" d="M11,34.7q-0.06-.47-0.11-0.95"/><path class="cls-3" d="M11,34.7a0.44,0.44,0,0,1,0-.13"/><path class="cls-1" d="M7.59,16.79L7.37,15.31"/><path class="cls-1" d="M8,19.73L8.26,21.2"/><path class="cls-1" d="M7.24,19.6q0.16-1.41.35-2.81"/><path class="cls-2" d="M7.24,19.6a2.72,2.72,0,0,0,.79.13"/><line class="cls-1" x1="14.3" y1="15.32" x2="12.56" y2="15.31"/><line class="cls-1" x1="14.43" y1="16.79" x2="14.3" y2="15.32"/><line class="cls-1" x1="9.9" y1="21.2" x2="8.26" y2="21.2"/><line class="cls-1" x1="14.84" y1="21.2" x2="13.19" y2="21.2"/><line class="cls-1" x1="14.71" y1="19.73" x2="14.84" y2="21.2"/><line class="cls-1" x1="7.37" y1="15.31" x2="9.1" y2="15.31"/><line class="cls-4" x1="14.43" y1="16.79" x2="14.41" y2="18"/><path class="cls-3" d="M13.38,19.67l1-1.66"/><path class="cls-1" d="M10.7,18q0.94-1.34,1.86-2.69"/><path class="cls-1" d="M14.43,16.79l-1.87-1.47"/><path class="cls-1" d="M12.73,19.6q0.86-1.4,1.7-2.81"/><line class="cls-4" x1="10.82" y1="22.64" x2="11.09" y2="21.19"/><path class="cls-3" d="M10.83,22.66c0.55,0.06,1.1.1,1.66,0.12"/><path class="cls-3" d="M12.73,19.6l-2,.67"/><path class="cls-1" d="M11.09,21.19a17.92,17.92,0,0,0,2.1,0"/><path class="cls-1" d="M14.71,19.73L13.19,21.2"/><path class="cls-1" d="M12.73,19.6a17.61,17.61,0,0,0,2,.13"/><path class="cls-3" d="M10.76,20.27q0-1.13-.05-2.27"/><path class="cls-1" d="M10.7,18q-0.82-1.33-1.6-2.69"/><path class="cls-1" d="M7.59,16.79L9.1,15.31"/><path class="cls-1" d="M9.07,19.6Q8.3,18.21,7.59,16.79"/><path class="cls-3" d="M11.09,21.19q-0.18-.46-0.34-0.92"/><path class="cls-1" d="M11.09,21.19a5.73,5.73,0,0,1-1.19,0"/><path class="cls-1" d="M8,19.73L9.9,21.2"/><path class="cls-1" d="M9.07,19.6a5.13,5.13,0,0,1-1,.13"/><path class="cls-3" d="M10.76,20.27L9.07,19.6"/><path class="cls-2" d="M6.42,15.73v0.08"/><path class="cls-3" d="M11.44,23.6l0.39-.86"/><path class="cls-3" d="M37.73,8.31c-0.6-.28-1.2-0.53-1.82-0.77"/><line class="cls-1" x1="28.15" y1="9.43" x2="25.49" y2="9.43"/><line class="cls-1" x1="25.49" y1="8.1" x2="25.49" y2="9.43"/><line class="cls-1" x1="36.14" y1="9.43" x2="33.47" y2="9.43"/><line class="cls-1" x1="35.74" y1="8.1" x2="36.14" y2="9.43"/><path class="cls-1" d="M35.91,7.54a8.66,8.66,0,0,0,.69-1.7"/><path class="cls-2" d="M25.94,49.6h0"/><path class="cls-1" d="M34.95,5.45Q33.6,4.8,32.28,4.12"/><path class="cls-1" d="M34.4,7.16a7,7,0,0,0,.55-1.71"/><line class="cls-1" x1="35.91" y1="7.54" x2="34.4" y2="7.16"/><path class="cls-1" d="M35.91,7.54l1,0.69"/><path class="cls-3" d="M34.4,7.16l-2,.19"/><path class="cls-1" d="M31.94,8.59Q32.7,9,33.47,9.43"/><path class="cls-1" d="M35.74,8.1q-1.12.69-2.27,1.33"/><path class="cls-1" d="M34.4,7.16L35.74,8.1"/><path class="cls-1" d="M31.64,5.49l-2.8-1.22"/><path class="cls-3" d="M32.39,7.35Q32,6.53,31.51,5.72"/><path class="cls-1" d="M31.51,5.72l-3.76-1.6"/><path class="cls-1" d="M25.49,5.44q1.15-.64,2.26-1.33"/><path class="cls-1" d="M29.06,7.16q-1.79-.84-3.57-1.71"/><path class="cls-3" d="M33,9.16q-1.84.47-3.7,0.87"/><path class="cls-3" d="M32.05,8.56q0.17-.6.33-1.2"/><path class="cls-1" d="M31.94,8.59q-1.89.46-3.79,0.83"/><path class="cls-1" d="M25.49,8.1q1.32,0.68,2.66,1.33"/><path class="cls-1" d="M29.06,7.16q-1.78.51-3.57,0.94"/><path class="cls-3" d="M32.39,7.35l-3.33-.19"/><line class="cls-1" x1="25.49" y1="15.32" x2="22.69" y2="15.32"/><line class="cls-1" x1="16.43" y1="26.51" x2="15.03" y2="26.51"/><line class="cls-1" x1="17.05" y1="27.57" x2="16.43" y2="26.51"/><line class="cls-1" x1="18.29" y1="29.67" x2="18.91" y2="30.73"/><line class="cls-1" x1="10.83" y1="26.51" x2="12.23" y2="26.51"/><line class="cls-4" x1="17.05" y1="27.57" x2="17.25" y2="29.68"/><path class="cls-3" d="M17.11,30.53l0.14-.85"/><path class="cls-1" d="M14.42,29.68q0.27-1.59.61-3.17"/><path class="cls-1" d="M17.05,27.57q-1-.55-2-1.05"/><path class="cls-1" d="M16.61,30.82q0.19-1.63.44-3.26"/><path class="cls-1" d="M16.76,34a10.76,10.76,0,0,0,1.39-.9"/><path class="cls-3" d="M16.61,30.82l-0.55.49"/><path class="cls-1" d="M16.23,31.93a10.08,10.08,0,0,0,1.66-1.21"/><path class="cls-2" d="M18.29,29.67a7.09,7.09,0,0,0-.4,1.05"/><path class="cls-1" d="M16.61,30.82a9.6,9.6,0,0,0,1.68-1.15"/><path class="cls-2" d="M14.56,30l-0.14-.36"/><path class="cls-2" d="M14.42,29.68q-1.1-1.58-2.19-3.17"/><path class="cls-1" d="M11.83,27.57a7.06,7.06,0,0,1,.4-1.05"/><path class="cls-1" d="M13.84,29.67q1,0.51,2,1.05"/><path class="cls-2" d="M14.85,31.92h0"/><path class="cls-3" d="M15.44,42.13a1,1,0,0,1-.35-0.28"/><path class="cls-2" d="M14.62,33.37l0.24,0.12"/><path class="cls-4" d="M15.44,42.13q-0.13-3.07-.23-6.14"/><path class="cls-3" d="M15.85,42.24a0.82,0.82,0,0,1-.4-0.12"/><path class="cls-4" d="M15.85,42.24q0.11-1.35.2-2.7"/><path class="cls-3" d="M16.07,42.13a0.19,0.19,0,0,1-.23.12"/><path class="cls-3" d="M15.09,41.85Q14.44,37.92,14,34"/><path class="cls-1" d="M14.84,30.73l-1-1.05-1,.26-1-2.37"/><line class="cls-1" x1="23.22" y1="4.12" x2="25.49" y2="4.12"/><line class="cls-3" x1="27.75" y1="4.12" x2="28.84" y2="4.28"/><line class="cls-1" x1="25.49" y1="4.12" x2="27.75" y2="4.12"/><line class="cls-2" x1="25.47" y1="19.73" x2="25.49" y2="19.77"/><path class="cls-1" d="M22.76,27.07L22.84,27l0.06-.08L23,26.75c0.07-.1.13-0.21,0.19-0.31"/><path class="cls-3" d="M22.76,27.07l0.44-.25"/><path class="cls-3" d="M42.93,9.52l6.8,1.72"/><path class="cls-3" d="M48.76,21.82c-0.59-.65-4.21-3.95-4.83-4.57"/><path class="cls-3" d="M52.26,27.07l0.13-.1"/><path class="cls-3" d="M52.26,27.07l-0.4-.14-0.27-.1-0.64-.24-0.47-.18L50,26.21"/><line class="cls-2" x1="43.42" y1="16.81" x2="43.37" y2="16.79"/><path class="cls-1" d="M42.56,23.39q-2.43-1-4.77-2.19"/><path class="cls-2" d="M43.29,24.58q-1.32-.47-2.62-1"/><path class="cls-2" d="M40.67,23.58h0"/><line class="cls-2" x1="42.93" y1="19.73" x2="42.94" y2="19.73"/><path class="cls-1" d="M46.36,21q-3.91-2.93-7.94-5.7"/><path class="cls-3" d="M41.38,17q2.9,2.11,5.73,4.31"/><line class="cls-2" x1="41.38" y1="16.95" x2="41.38" y2="16.96"/><path class="cls-4" d="M38.42,15.32l3,1.65s1.71,0.13,2.55.29"/><path class="cls-1" d="M41.89,22.38Q39,21.15,36.28,19.73"/><path class="cls-3" d="M40.29,21.67a16,16,0,0,0-1-3.06l3,1.51"/><path class="cls-3" d="M11.36,9.58l-0.52-.68"/><path class="cls-3" d="M10.85,8.89l1.05-.68"/><path class="cls-3" d="M12.41,8.89l-1.05.68"/><path class="cls-3" d="M12.41,8.89L11.9,8.21"/><path class="cls-1" d="M11.9,8.21a17.72,17.72,0,0,1,.33-4.09"/><path class="cls-1" d="M11.9,8.21A39.62,39.62,0,0,0,15,4.12"/><path class="cls-1" d="M10.85,8.89a7.44,7.44,0,0,1-.66-3.45"/><path class="cls-1" d="M10.85,8.89a3,3,0,0,1-1.74-.51"/><line class="cls-2" x1="8.9" y1="8.11" x2="8.9" y2="8.1"/><path class="cls-1" d="M12.41,8.89A5.85,5.85,0,0,0,15,8.25"/><path class="cls-1" d="M12.41,8.89A22.53,22.53,0,0,0,16,5.45"/><path class="cls-1" d="M11.36,9.58a1.78,1.78,0,0,0,1.83-.15"/><path class="cls-3" d="M12.36,10.31a2.91,2.91,0,0,1-1.09-.53"/><line class="cls-2" x1="13.19" y1="9.43" x2="13.19" y2="9.43"/><path class="cls-1" d="M11.36,9.58C11,9.69,10.25,10,10,9.54"/><line class="cls-4" x1="11.27" y1="9.78" x2="11.36" y2="9.58"/><path class="cls-1" d="M12.23,4.12q-1,.68-2,1.33"/><path class="cls-1" d="M13.19,9.43q1-.65,2-1.33"/><line class="cls-1" x1="13.19" y1="9.43" x2="14.83" y2="9.43"/><path class="cls-1" d="M8.9,8.1q0.48,0.68,1,1.33"/><line class="cls-2" x1="8.9" y1="8.1" x2="8.26" y2="9.43"/><line class="cls-2" x1="15.23" y1="8.1" x2="15.24" y2="8.1"/><line class="cls-1" x1="10.83" y1="4.12" x2="12.23" y2="4.12"/><line class="cls-4" x1="16.15" y1="5.72" x2="16.03" y2="5.45"/><line class="cls-4" x1="16.19" y1="5.86" x2="16.15" y2="5.72"/><line class="cls-1" x1="16.03" y1="5.45" x2="16.42" y2="4.12"/><line class="cls-1" x1="16.42" y1="4.12" x2="15.02" y2="4.12"/><path class="cls-1" d="M15,4.12q0.48,0.68,1,1.33"/><line class="cls-2" x1="8.26" y1="9.43" x2="8.26" y2="9.43"/><line class="cls-1" x1="8.26" y1="9.43" x2="9.9" y2="9.43"/><path class="cls-3" d="M11.27,9.78a7.71,7.71,0,0,1-1,.42"/><path class="cls-3" d="M12.62,8.88a28.62,28.62,0,0,0,3.57-3"/><path class="cls-3" d="M10.64,8.88A9,9,0,0,1,9.65,6"/><line class="cls-2" x1="10.19" y1="5.45" x2="10.18" y2="5.46"/><line class="cls-2" x1="6.86" y1="9.57" x2="6.86" y2="9.58"/><path class="cls-2" d="M6.86,9.58h0"/><line class="cls-2" x1="6.64" y1="9.78" x2="6.86" y2="9.58"/><line class="cls-2" x1="6.64" y1="9.78" x2="6.64" y2="9.78"/><path class="cls-1" d="M10.83,4.12s0,0,0,0"/><path class="cls-1" d="M7.47,8.21c0.6-.08,1,0.21,1.43-0.11"/><line class="cls-1" x1="8.26" y1="9.43" x2="8.9" y2="8.1"/><path class="cls-1" d="M10.83,4.12L10.19,5.45"/><path class="cls-2" d="M6.64,9.78h0"/><path class="cls-1" d="M6.65,9.77a0.66,0.66,0,0,0,.81.56"/><line class="cls-2" x1="7.66" y1="10.11" x2="7.72" y2="10.03"/><line class="cls-2" x1="7.46" y1="10.34" x2="7.46" y2="10.33"/><line class="cls-2" x1="7.72" y1="10.03" x2="8.26" y2="9.43"/><path class="cls-1" d="M6.86,9.58a1.2,1.2,0,0,0,1.39-.15"/><path class="cls-2" d="M45,46l-5.22-7.7"/><path class="cls-1" d="M39.76,38.32q-1.67-3.87-3.62-7.6"/><path class="cls-2" d="M36.36,39.94l4.83,8.12"/><path class="cls-1" d="M36.36,39.94q-2.76-3.16-5.27-6.5"/><path class="cls-4" d="M40.66,43.21l-2.31-3.65"/><line class="cls-2" x1="41.19" y1="48.05" x2="44.98" y2="46.02"/><path class="cls-2" d="M55.78,32.71l-7-5.27"/><path class="cls-1" d="M48.77,27.44q-2.91-3.23-6-6.24"/><path class="cls-2" d="M47.11,30.82l6.74,5.87"/><path class="cls-1" d="M47.11,30.82q-3.57-2-7-4.31"/><path class="cls-4" d="M51.43,32l-3.31-2.68"/><line class="cls-2" x1="53.85" y1="36.69" x2="55.78" y2="32.71"/><path class="cls-2" d="M51.38,40.27l-6.28-6.6"/><line class="cls-1" x1="40.15" y1="26.51" x2="46.51" y2="32.6"/><path class="cls-1" d="M45.1,33.67q-2.35-3.67-5-7.16"/><path class="cls-2" d="M42.49,36.33l5.88,7.09"/><line class="cls-1" x1="36.14" y1="30.73" x2="41.5" y2="37.87"/><path class="cls-1" d="M42.49,36.33q-3.29-2.68-6.36-5.61"/><path class="cls-4" d="M46.9,38.49L44,35.23"/><line class="cls-2" x1="48.38" y1="43.43" x2="51.38" y2="40.27"/><line class="cls-3" x1="43.61" y1="15.31" x2="50.84" y2="18.6"/><path class="cls-1" d="M50.39,20.31q-3.31-2.62-6.79-5"/><line class="cls-3" x1="42.72" y1="21.2" x2="49.73" y2="25.96"/><path class="cls-1" d="M49.82,24.06c-2.41-.85-4.78-1.8-7.1-2.86"/><path class="cls-4" d="M53.81,24.28l-3.53-2"/><line class="cls-2" x1="57.08" y1="28.51" x2="57.74" y2="24.1"/><path class="cls-2" d="M38.35,39.56q-1.57-4.15-3.47-8.16"/><path class="cls-2" d="M45,46q-1.57-4.15-3.47-8.16"/><path class="cls-1" d="M38.35,39.56q-3.13-3.29-6-6.8"/><path class="cls-2" d="M41.19,48.05q-3.13-3.29-6-6.8"/><line class="cls-1" x1="31.09" y1="33.43" x2="32.35" y2="32.76"/><path class="cls-1" d="M36.62,36.79q-1.72-3.06-3.54-6.06"/><path class="cls-1" d="M32.06,32.86L31.29,31.4"/><path class="cls-2" d="M37,38.11c-0.62-2.27-1.32-4.5-2.12-6.71"/><path class="cls-3" d="M39.23,48.05q-1.79-2.56-3.57-5.14"/><path class="cls-3" d="M39.23,48.05q-1.58-1.59-3.08-3.27"/><path class="cls-1" d="M29.7,33.74l-0.22-.31"/><path class="cls-1" d="M30.3,33.51l-0.57-.75"/><line class="cls-1" x1="28.95" y1="33.43" x2="29.73" y2="32.76"/><path class="cls-1" d="M29.48,33.43a2.27,2.27,0,0,0,.25-0.68"/><path class="cls-1" d="M31.29,31.4c0.59-.24,1.19-0.46,1.8-0.68"/><line class="cls-1" x1="32.07" y1="30.73" x2="31.29" y2="31.4"/><path class="cls-2" d="M34.87,31.4a2.26,2.26,0,0,0,.25-0.68"/><path class="cls-1" d="M32.35,32.76c-0.6.21-1.2,0.44-1.8,0.68"/><path class="cls-3" d="M39.23,48.05l1.44-.56"/><path class="cls-3" d="M41.67,33.08l-0.4-.48"/><path class="cls-1" d="M41.55,33.35q-2.76-3.46-5.61-6.84"/><path class="cls-1" d="M35.93,30.29l-2-2.72"/><path class="cls-2" d="M41.88,33.61c-0.82-2.06-1.72-4.07-2.73-6"/><path class="cls-3" d="M45,43.43L42.93,41"/><line class="cls-3" x1="33.09" y1="30.73" x2="36.3" y2="35.72"/><path class="cls-3" d="M45,43.43l-1.51-1"/><path class="cls-1" d="M35.38,32.83q-1.17-1-2.29-2.1"/><path class="cls-1" d="M35,31.72q-1.17-1-2.3-2.05"/><line class="cls-1" x1="32.07" y1="30.73" x2="33.09" y2="30.73"/><line class="cls-1" x1="32.07" y1="30.73" x2="32.69" y2="29.67"/><path class="cls-2" d="M33.09,30.73a7.06,7.06,0,0,0-.4-1.05"/><path class="cls-1" d="M33.93,27.57q1-.55,2-1.05"/><line class="cls-2" x1="34.54" y1="26.51" x2="33.93" y2="27.57"/><path class="cls-2" d="M39.14,27.57a7.05,7.05,0,0,0-.4-1.05"/><line class="cls-1" x1="36.14" y1="30.73" x2="35.12" y2="30.73"/><path class="cls-1" d="M37.14,29.67q-1,.51-2,1.05"/><path class="cls-3" d="M45,43.43q1-.53,2-1"/><path class="cls-3" d="M44.57,26.86l-1-.89"/><path class="cls-3" d="M45,27.62a48.93,48.93,0,0,0-3.9-6.42"/><path class="cls-1" d="M45.48,27.9a53.93,53.93,0,0,0-3.4-5.37"/><path class="cls-3" d="M49.47,36.69l-0.54-.47"/><line class="cls-3" x1="35.95" y1="26.51" x2="41.27" y2="32.6"/><path class="cls-3" d="M49.47,36.69l-0.34-.15"/><path class="cls-1" d="M39.8,28.89q-2-1.12-3.86-2.37"/><path class="cls-1" d="M39.2,27.67Q37,26.51,34.93,25.18"/><line class="cls-1" x1="34.54" y1="26.51" x2="35.95" y2="26.51"/><path class="cls-1" d="M35.95,26.51q-0.49-.68-1-1.33"/><path class="cls-2" d="M42.08,22.53q-0.48-.68-1-1.33"/><line class="cls-1" x1="38.75" y1="26.51" x2="40.15" y2="26.51"/><path class="cls-1" d="M40.79,25.18q-1,.65-2,1.33"/><line class="cls-1" x1="34.54" y1="26.51" x2="34.93" y2="25.18"/><path class="cls-3" d="M37.78,21.2L43.56,26"/><line class="cls-1" x1="36.14" y1="21.2" x2="37.78" y2="21.2"/><line class="cls-1" x1="42.71" y1="21.2" x2="41.07" y2="21.2"/><line class="cls-2" x1="42.72" y1="21.2" x2="42.71" y2="21.2"/><path class="cls-3" d="M49.47,36.69l1.94-1.27"/><path class="cls-1" d="M45,27.62q-3.56-3.25-7.18-6.42"/><path class="cls-1" d="M35.74,22.53q1-.68,2-1.33"/><path class="cls-1" d="M48.12,29.28q-2.9-3.49-6-6.75"/><path class="cls-2" d="M55.78,32.71q-2.9-3.49-6-6.75"/><path class="cls-1" d="M48.12,29.28q-3.76-1.89-7.33-4.1"/><path class="cls-1" d="M53.85,36.69q-3.76-1.89-7.34-4.1"/><path class="cls-1" d="M40.15,26.51l0.64-1.33"/><path class="cls-1" d="M44,35.23q-2.29-3.93-4.87-7.67"/><path class="cls-2" d="M51.38,40.27q-2.29-3.93-4.87-7.67"/><path class="cls-2" d="M44,35.23q-3.55-2.64-6.87-5.56"/><path class="cls-3" d="M48.38,43.43q-3.55-2.64-6.87-5.56"/><path class="cls-1" d="M36.14,30.73l1-1.05"/><path class="cls-1" d="M50.29,22.28q-3.36-2.87-6.9-5.5"/><path class="cls-1" d="M57.74,24.1q-3.35-2.87-6.9-5.5"/><path class="cls-1" d="M50.29,22.28c-2.49-.74-4.93-1.59-7.35-2.55"/><path class="cls-2" d="M57.08,28.51c-2.49-.74-4.93-1.59-7.35-2.55"/><path class="cls-1" d="M42.72,21.2l0.22-1.47"/><path class="cls-3" d="M21.55,46.4l0,1"/><path class="cls-3" d="M21.25,39.19c0.08,1.43.24,5.78,0.3,7.22"/><path class="cls-3" d="M20.58,46.92l0,0.1"/><path class="cls-2" d="M15.91,30.93l-0.05-.21"/><path class="cls-2" d="M18.75,40.76c-1-3.09-1.89-6.2-2.65-9.36"/><path class="cls-4" d="M20.38,45.58l-0.46-1.31"/><path class="cls-1" d="M18.73,42.19q-0.91-2.43-1.73-4.9"/><path class="cls-3" d="M20.63,47q-0.41-1-.82-2"/><path class="cls-3" d="M20.38,45.62q0.12,0.71.24,1.41l1,0.36a41.89,41.89,0,0,0,.71-5.67"/><path class="cls-1" d="M18.74,36.49q-0.46-2.88-.85-5.77"/><path class="cls-3" d="M20.34,45.46q-0.17-.86-0.34-1.73"/><path class="cls-2" d="M19.89,33.22l-0.2-1.82"/><path class="cls-1" d="M21.57,34.47q0-.52-0.08-1"/><path class="cls-3" d="M21.5,45.12c0.15-1.56.23-3.12,0.25-4.68"/><line class="cls-2" x1="18.91" y1="30.73" x2="17.89" y2="30.73"/><path class="cls-1" d="M17.89,30.73c0.6,0.21,1.2.44,1.8,0.68"/><path class="cls-3" d="M20.36,45.49h0"/><path class="cls-2" d="M18.63,32.75c0.6,0.21,1.2.44,1.8,0.68"/><path class="cls-2" d="M21.49,33.43a2.27,2.27,0,0,1-.25-0.68"/><path class="cls-2" d="M15.86,30.73a2.28,2.28,0,0,0,.25.68"/><line class="cls-1" x1="15.86" y1="30.73" x2="14.84" y2="30.73"/><path class="cls-2" d="M21.33,33.79q0-.52-0.08-1"/><path class="cls-4" d="M21.44,43.48q0.1-1.77.11-3.54"/><line class="cls-1" x1="20.55" y1="30.73" x2="18.91" y2="30.73"/><path class="cls-2" d="M17.92,45.33L18,45.49"/><path class="cls-2" d="M19.38,47.38L18,46.67"/><path class="cls-1" d="M18.71,47L18.3,46.8"/><line class="cls-2" x1="10.83" y1="4.12" x2="10.83" y2="4.12"/><path class="cls-1" d="M17.92,45.33L18,46.64"/><path class="cls-2" d="M18,46.64v0"/><path class="cls-2" d="M18,46.67v0"/><path class="cls-1" d="M14.86,34.3A125.13,125.13,0,0,0,18,46.64"/><path class="cls-1" d="M17.92,45.33a136.68,136.68,0,0,1-3.08-14.61"/><path class="cls-2" d="M19.27,46l0,0.12"/><path class="cls-1" d="M19.27,46q0.06,0.67.11,1.34"/><path class="cls-1" d="M19.27,46a83.06,83.06,0,0,0,.62-12.61"/><line class="cls-1" x1="19.24" y1="46.17" x2="17.97" y2="45.49"/><path class="cls-2" d="M27.44,49.88L26,49.63"/><path class="cls-2" d="M26.7,49.75l-0.55-.09"/><line class="cls-5" x1="27.46" y1="48.48" x2="25.7" y2="48.37"/><path class="cls-1" d="M20.54,37.34c1.4,3.55,3.68,8.86,5.4,12.26"/><line class="cls-4" x1="19.89" y1="33.43" x2="20.54" y2="37.34"/><path class="cls-1" d="M25.54,48.18a141.64,141.64,0,0,1-5.65-14.75"/><line class="cls-2" x1="10.19" y1="5.45" x2="10.19" y2="5.45"/><path class="cls-2" d="M26.7,49.75l0.56,0.09"/><path class="cls-2" d="M33.21,40.63l4,8.79"/><line class="cls-2" x1="37.2" y1="49.42" x2="37.2" y2="49.42"/><line class="cls-4" x1="31.09" y1="33.43" x2="35.19" y2="41.25"/><path class="cls-2" d="M33.27,45.5c0-1.63,0-3.25-.05-4.88"/><path class="cls-1" d="M33.21,40.63q-0.93-3.64-2.13-7.2"/><line class="cls-2" x1="37.2" y1="49.42" x2="33" y2="50.12"/><line class="cls-2" x1="33" y1="50.12" x2="33" y2="50.12"/><path class="cls-1" d="M26.89,34.13q2.26,3.94,4.81,7.7"/><path class="cls-5" d="M24.14,34.15c1,4.84,1,9.32,1.56,14.22"/><path class="cls-2" d="M27.44,49.86v0"/><path class="cls-2" d="M27.38,44.69q0.06,1.3.07,2.59"/><path class="cls-2" d="M27.36,44.26v0.25"/><path class="cls-3" d="M29.79,49.74l0,0.14"/><path class="cls-2" d="M28.33,42.78l0,0"/><path class="cls-3" d="M31.55,50.12c-1-2.46-2.08-4.88-3.17-7.3"/><path class="cls-3" d="M28.33,42.78c1,2.49,2,4.94,3.21,7.34"/><path class="cls-2" d="M33.27,45.5l-1.57-3.67"/><path class="cls-1" d="M33.07,45L32,42.52"/><path class="cls-2" d="M24.09,34.13h2.8"/><path class="cls-2" d="M28.45,42.92l0.15,0.23"/><path class="cls-3" d="M32.6,50.12q-2-3.46-4-7"/><path class="cls-1" d="M28.6,43.15q2.11,3.54,4.4,7"/><path class="cls-3" d="M25.76,32.94q-0.13-.77-0.27-1.53"/><path class="cls-1" d="M20.5,33.46q-0.42-1-.82-2.05"/><path class="cls-1" d="M24.51,34.13q-0.33-1.7-.67-3.4"/><path class="cls-3" d="M24.8,34.13l-0.18-.7"/><path class="cls-1" d="M20.55,30.73a4.92,4.92,0,0,0-.87.68"/><line class="cls-2" x1="19.69" y1="31.4" x2="18.91" y2="30.73"/><path class="cls-2" d="M21.25,32.75c0.56,0.2,1.11.43,1.65,0.68"/><line class="cls-1" x1="21.25" y1="32.75" x2="22.03" y2="33.43"/><path class="cls-1" d="M24.62,33.43a4.92,4.92,0,0,1,.87-0.68"/><line class="cls-3" x1="25.49" y1="33.43" x2="25.49" y2="32.75"/><path class="cls-1" d="M21.34,32.79q-0.4-1-.78-2.06"/><line class="cls-2" x1="25.48" y1="31.4" x2="25.48" y2="30.73"/><line class="cls-1" x1="25.48" y1="30.73" x2="23.84" y2="30.73"/><path class="cls-1" d="M23.84,30.73c0.56,0.21,1.11.43,1.65,0.68"/><path class="cls-1" d="M18.6,45.83q-1.5-7.17-2.5-14.42"/><line class="cls-2" x1="18.71" y1="47.03" x2="18.71" y2="47.03"/><path class="cls-1" d="M20.54,37.47V37.35s-0.75,10-1.16,10"/><path class="cls-1" d="M18.71,47l0.5,0.27"/><path class="cls-1" d="M14.84,30.73q0,1.79,0,3.57"/><path class="cls-1" d="M18.6,45.83c0.21-4.36.2-8.71,0-13.07"/><path class="cls-1" d="M14.84,30.73L16.1,31.4"/><path class="cls-1" d="M19.89,33.43l-1.26-.68"/><path class="cls-1" d="M25.55,46.42q-2.35-6.3-4.26-12.75"/><line class="cls-2" x1="26.7" y1="49.75" x2="26.7" y2="49.75"/><path class="cls-2" d="M19.89,33.43l1.4,0.23"/><path class="cls-1" d="M25.31,44.27c-1.43-3.5-2.79-7-4-10.6"/><path class="cls-1" d="M20.42,33.43c0.29,0.09.58,0.17,0.87,0.23"/><line class="cls-2" x1="19.89" y1="33.43" x2="20.42" y2="33.43"/><path class="cls-2" d="M25.43,45.38q-0.8-1.83-1.57-3.68"/><path class="cls-3" d="M28.8,48.07L27.89,45.9"/><path class="cls-3" d="M28.8,48.07q0.28,0.84.57,1.68"/><path class="cls-4" d="M25.61,34.13l-0.12-.47"/><path class="cls-2" d="M22.89,33.43a0.15,0.15,0,0,0,0,.23"/><line class="cls-1" x1="22.03" y1="33.43" x2="22.89" y2="33.43"/><line class="cls-3" x1="24.62" y1="33.43" x2="25.49" y2="33.43"/><path class="cls-1" d="M24.62,33.43a6.79,6.79,0,0,1,.87.23"/><path class="cls-3" d="M27.94,46.6l1.43,3.16,0.46,0.12-0.09-.47"/><path class="cls-1" d="M31.69,41.83q-0.83-4.13-2-8.17"/><path class="cls-2" d="M37.2,49.42q-0.83-4.13-2-8.17"/><path class="cls-4" d="M25.68,34.13l-0.19-.47"/><path class="cls-2" d="M28.12,33.61l0-.18"/><path class="cls-1" d="M28.93,37.56q-0.41-2-.85-3.9"/><path class="cls-1" d="M25.49,33.66a6.73,6.73,0,0,1,.87-0.23"/><line class="cls-3" x1="25.49" y1="33.43" x2="26.35" y2="33.43"/><path class="cls-2" d="M28.13,33.52a0.19,0.19,0,0,0-.05-0.09"/><path class="cls-2" d="M28.08,33.66a0.14,0.14,0,0,0,.05-0.15"/><line class="cls-1" x1="28.95" y1="33.43" x2="28.08" y2="33.43"/><line class="cls-3" x1="25.49" y1="33.66" x2="25.49" y2="33.43"/><line class="cls-3" x1="25.65" y1="34.13" x2="25.49" y2="33.66"/><path class="cls-3" d="M24.81,34.13l-0.19-.7"/><line class="cls-2" x1="29.48" y1="33.43" x2="29.78" y2="34.06"/><line class="cls-2" x1="22.89" y1="33.67" x2="22.03" y2="33.43"/><line class="cls-2" x1="21.49" y1="33.43" x2="22.03" y2="33.43"/><path class="cls-1" d="M21.49,33.43l1.4,0.23"/><line class="cls-1" x1="28.95" y1="33.43" x2="28.08" y2="33.66"/><line class="cls-2" x1="28.95" y1="33.43" x2="29.48" y2="33.43"/><path class="cls-1" d="M29.85,34.36l-0.37-.92"/><path class="cls-1" d="M28.08,33.66l1.4-.23"/><path class="cls-1" d="M29.88,39.07q-0.84-2.72-1.8-5.41"/><path class="cls-3" d="M31.24,41.16c-0.45-2.51-1-5-1.55-7.49"/><path class="cls-2" d="M29.69,33.66c0.29-.07.58-0.14,0.86-0.23"/><line class="cls-2" x1="30.55" y1="33.43" x2="31.09" y2="33.43"/><path class="cls-3" d="M31.55,50.12a8.62,8.62,0,0,1,.89-0.26"/><path class="cls-3" d="M32.6,50.12L33,50.05"/><path class="cls-3" d="M27.44,49.77l0.66,0.11"/><path class="cls-2" d="M25.94,49.6l0,0"/><path class="cls-2" d="M25.94,49.6h0"/><line class="cls-3" x1="14.41" y1="18" x2="15.81" y2="20.31"/><path class="cls-3" d="M29.37,13.22L33,13.65q-0.37-1-.77-2"/><line class="cls-3" x1="32.99" y1="13.65" x2="32.38" y2="14.82"/><line class="cls-3" x1="43.94" y1="17.25" x2="41.38" y2="16.96"/><line class="cls-3" x1="15.27" y1="24.9" x2="15.47" y2="25.36"/><path class="cls-3" d="M27,38.87l0.05,0.87a89,89,0,0,1,.78,10.12"/><line class="cls-2" x1="57.67" y1="19.72" x2="57.01" y2="15.3"/><path class="cls-2" d="M53.74,16.22a31.13,31.13,0,0,1-3.42.55"/><path class="cls-2" d="M50.32,16.77l7.35,2.95"/><path class="cls-2" d="M49.75,13q2,1.55,4,3.21"/><path class="cls-2" d="M57,15.3L49.75,13"/><path class="cls-5" d="M7.86,25.84L8.34,24.1"/><path class="cls-2" d="M7.89,26l0-.18"/><path class="cls-5" d="M8.34,24.1q0.24,1.23.5,2.46"/><path class="cls-5" d="M9.8,27.11L9.41,29"/><path class="cls-2" d="M9.41,29L9.34,29"/><path class="cls-5" d="M8.84,26.56c0.31,0.19.63,0.38,1,.55"/><line class="cls-2" x1="7.15" y1="35.23" x2="6.67" y2="34.24"/><path class="cls-2" d="M9.34,29C8.69,31.1,8,33.19,7.15,35.23"/><path class="cls-2" d="M6.67,34.24Q7.17,30.11,7.89,26"/><path class="cls-2" d="M11.25,31.68l0.23-2.16"/><path class="cls-2" d="M11.34,31.89l-0.09-.21"/><path class="cls-5" d="M11.47,29.52q0.52,1.2,1.07,2.38"/><path class="cls-5" d="M13.78,31.91l-0.09,2.32"/><path class="cls-2" d="M13.69,34.23H13.56"/><path class="cls-5" d="M12.54,31.9c0.41,0,.83,0,1.24,0"/><line class="cls-2" x1="12.22" y1="42.28" x2="11.47" y2="41.49"/><path class="cls-2" d="M13.56,34.23c-0.35,2.7-.77,5.38-1.34,8"/><path class="cls-2" d="M11.47,41.49q-0.21-4.8-.13-9.6"/><path class="cls-2" d="M7.26,8.4h0"/><path class="cls-2" d="M7.47,8.21L7.26,8.4"/><path class="cls-2" d="M6.79,9.62v0"/><line class="cls-2" x1="7.25" y1="8.41" x2="6.57" y2="9.81"/><path class="cls-2" d="M7.44,8.25l0,0"/><line class="cls-2" x1="7.44" y1="8.25" x2="6.79" y2="9.6"/><path class="cls-2" d="M6.57,9.81l0.22-.2"/><line class="cls-2" x1="6.57" y1="9.82" x2="6.57" y2="9.81"/><path class="cls-2" d="M44.91,46.06l-5.22-7.7"/><path class="cls-2" d="M39.69,38.36q0.55,2.43.9,4.89"/><path class="cls-2" d="M36.29,40l4.83,8.11"/><path class="cls-2" d="M40.59,43.24c-1.47-1-2.91-2.13-4.3-3.27"/><line class="cls-2" x1="41.12" y1="48.09" x2="44.91" y2="46.06"/><path class="cls-2" d="M51.31,40.3L45,33.7"/><path class="cls-2" d="M45,33.7q1,2.38,1.8,4.83"/><path class="cls-2" d="M42.42,36.37l5.88,7.09"/><path class="cls-2" d="M46.83,38.53c-1.5-.66-3-1.38-4.41-2.16"/><line class="cls-2" x1="48.3" y1="43.46" x2="51.31" y2="40.3"/><path class="cls-2" d="M18,46.69h0"/><path class="cls-2" d="M18,46.67h0"/><path class="cls-2" d="M25.87,49.63l0,0"/><path class="cls-2" d="M18,46.69h0"/><path class="cls-2" d="M18,46.68h0"/><path class="cls-2" d="M17.9,45.52l-0.06-.16"/><line class="cls-2" x1="17.98" y1="46.7" x2="19.31" y2="47.42"/><path class="cls-2" d="M17.84,45.37L18,46.67"/><path class="cls-2" d="M19.2,46.08l0,0.12"/><path class="cls-2" d="M19.31,47.41c0-.41,0-0.83-0.07-1.24"/><line class="cls-2" x1="19.17" y1="46.2" x2="17.9" y2="45.52"/><line class="cls-2" x1="25.89" y1="49.66" x2="27.36" y2="49.91"/><path class="cls-2" d="M25.54,48.18L26,49.63"/><path class="cls-2" d="M37.12,49.45l-4-8.79"/><path class="cls-2" d="M33.14,40.66c0.09,1.63.1,3.25,0.05,4.88"/><path class="cls-2" d="M32.92,50.15h0"/><line class="cls-2" x1="32.93" y1="50.15" x2="37.12" y2="49.45"/><line class="cls-2" x1="32.93" y1="50.15" x2="32.93" y2="50.15"/><path class="cls-2" d="M31.62,41.87q-2.54-3.77-4.81-7.7"/><line class="cls-2" x1="27.37" y1="49.9" x2="27.37" y2="49.9"/><path class="cls-2" d="M33.19,45.54l-1.57-3.67"/><line class="cls-2" x1="26.81" y1="34.16" x2="24.02" y2="34.16"/><path class="cls-2" d="M32.92,50.15q-1.81-2.68-3.48-5.46"/><line class="cls-2" x1="37.12" y1="49.45" x2="37.12" y2="49.45"/><line class="cls-2" x1="4.23" y1="18.06" x2="4.4" y2="16.96"/><path class="cls-2" d="M4.4,17q1.17-2.29,2.45-4.51"/><path class="cls-2" d="M6.85,12.45l0-.15"/><path class="cls-2" d="M6.89,12.3l0.56-.75"/><path class="cls-5" d="M7.45,11.55q-0.28,1.06-.55,2.12"/><path class="cls-5" d="M6.9,13.67q0,0.61.05,1.21"/><path class="cls-5" d="M6.95,14.88l-0.59,1"/><path class="cls-2" d="M6.35,15.85V15.76"/><path class="cls-2" d="M6.35,15.76a20.84,20.84,0,0,1-2.12,2.3"/><line class="cls-2" x1="4.4" y1="26.89" x2="4.23" y2="25.79"/><path class="cls-2" d="M4.23,25.79q1-3.27,2.12-6.47"/><path class="cls-2" d="M6.35,19.32V19.16"/><path class="cls-6" d="M6.35,19.16l0.59-1.25"/><path class="cls-5" d="M6.95,17.91q0,1.19-.05,2.37"/><path class="cls-6" d="M6.9,20.28c0.18,0.32.36,0.64,0.55,1"/><path class="cls-2" d="M7.45,21.23L6.89,22.7"/><path class="cls-2" d="M6.89,22.7l0-.07"/><path class="cls-2" d="M6.85,22.63A46.94,46.94,0,0,1,4.4,26.89"/><path class="cls-2" d="M47,30.85l6.74,5.87"/><path class="cls-2" d="M51.36,32c-1.46-.32-2.9-0.7-4.32-1.14"/><path class="cls-2" d="M48.69,27.47Q50.1,29.69,51.36,32"/><path class="cls-2" d="M55.71,32.75l-7-5.27"/><line class="cls-2" x1="53.78" y1="36.73" x2="55.71" y2="32.75"/><path class="cls-2" d="M49.75,24.09L57,28.55"/><path class="cls-2" d="M53.74,24.31c-1.33,0-2.66-.08-4-0.22"/><path class="cls-2" d="M50.32,20.34q1.77,1.93,3.42,4"/><path class="cls-2" d="M57.67,24.13l-7.35-3.79"/><line class="cls-2" x1="57.01" y1="28.55" x2="57.67" y2="24.13"/><path class="cls-2" d="M25.87,49.63h0"/><line class="cls-2" x1="53.3" y1="8.23" x2="53.31" y2="8.23"/><line class="cls-2" x1="53.99" y1="9.61" x2="53.33" y2="8.25"/><path class="cls-2" d="M53.33,8.25h0"/><path class="cls-2" d="M54.54,9.71L54,9.61"/><path class="cls-2" d="M54,9.61h0"/><path class="cls-2" d="M53.31,8.23l0.57,0.1"/><line class="cls-1" x1="10.83" y1="4.12" x2="7.26" y2="8.4"/><line class="cls-1" x1="10.19" y1="5.45" x2="7.64" y2="8.18"/><path class="cls-2" d="M26,49.63l0,0"/><path class="cls-2" d="M26,49.63h0"/><path class="cls-2" d="M18,46.67h0"/><path class="cls-2" d="M18,46.67v0"/><path class="cls-3" d="M10.83,4.12S7,8.15,6.64,9.78l0.22-.2"/><path class="cls-1" d="M10.19,5.45c-1.05,1.1-2,2.26-3,3.45l-0.33.67v0"/><path class="cls-4" d="M11.22,23.26l0.18-.55"/><path class="cls-4" d="M10.24,17.25q0.38-.62.72-1.26"/><path class="cls-2" d="M54.06,9.58h0"/><line class="cls-1" x1="43.07" y1="4.34" x2="40.15" y2="4.12"/><path class="cls-1" d="M53.37,8.2A117.48,117.48,0,0,0,40.15,4.12"/><path class="cls-1" d="M43.33,4.36a109.73,109.73,0,0,1,11.13,4"/><line class="cls-2" x1="54.46" y1="8.37" x2="54.44" y2="8.37"/><path class="cls-1" d="M54.44,8.37L54,8.29"/><path class="cls-5" d="M53.4,8.21L54,8.29h0.51l0.68,1.49L54.46,8.37"/><path class="cls-1" d="M53.73,8.89A115.91,115.91,0,0,1,42.07,8.1"/><path class="cls-1" d="M54,9.58a64.36,64.36,0,0,1-11.33-.15"/><path class="cls-2" d="M46.22,10.33h0"/><path class="cls-1" d="M55.15,9.78a47.31,47.31,0,0,1-8.91.56"/><path class="cls-2" d="M55.15,9.78l-0.54-.1"/><path class="cls-1" d="M54.06,9.58l0.54,0.1"/><path class="cls-1" d="M53.73,8.89c-4.27-1.31-8.58-2.47-12.94-3.45"/><line class="cls-1" x1="53.4" y1="8.21" x2="54.06" y2="9.58"/><path class="cls-2" d="M43.07,4.34l0.26,0"/><path class="cls-2" d="M53.37,8.2h0"/><path class="cls-2" d="M53.39,8.2h0"/><path class="cls-2" d="M53.37,8.2h0"/><path class="cls-2" d="M54,9.58h0"/><path class="cls-2" d="M53.37,8.2h0"/><path class="cls-7" d="M28.3,54.91l-0.17-.1a0.76,0.76,0,0,1-.22-0.19,0.35,0.35,0,0,1-.07-0.21A0.38,0.38,0,0,1,28,54.11,0.47,0.47,0,0,1,28.3,54a0.62,0.62,0,0,1,.35.11v0.25a0.51,0.51,0,0,0-.36-0.16,0.29,0.29,0,0,0-.18,0,0.15,0.15,0,0,0-.07.13,0.2,0.2,0,0,0,.05.13,0.65,0.65,0,0,0,.16.13l0.17,0.1a0.49,0.49,0,0,1,.28.43,0.39,0.39,0,0,1-.12.3,0.45,0.45,0,0,1-.32.12,0.68,0.68,0,0,1-.41-0.14V55.15a0.52,0.52,0,0,0,.41.23,0.26,0.26,0,0,0,.17-0.06,0.18,0.18,0,0,0,.07-0.14A0.34,0.34,0,0,0,28.3,54.91Z"/><path class="cls-7" d="M29.78,55.06H29.07a0.33,0.33,0,0,0,.1.23,0.32,0.32,0,0,0,.23.08,0.6,0.6,0,0,0,.36-0.12v0.2a0.67,0.67,0,0,1-.18.09,0.77,0.77,0,0,1-.21,0,0.48,0.48,0,0,1-.27-0.07,0.5,0.5,0,0,1-.17-0.19A0.57,0.57,0,0,1,28.87,55,0.53,0.53,0,0,1,29,54.67a0.43,0.43,0,0,1,.34-0.14,0.4,0.4,0,0,1,.32.14,0.56,0.56,0,0,1,.12.38v0Zm-0.71-.12h0.51a0.28,0.28,0,0,0-.07-0.18,0.23,0.23,0,0,0-.17-0.07,0.25,0.25,0,0,0-.18.07A0.32,0.32,0,0,0,29.08,54.94Z"/><path class="cls-7" d="M30.76,55.31v0.2a0.85,0.85,0,0,1-.29.06,0.49,0.49,0,0,1-.52-0.52,0.54,0.54,0,0,1,.14-0.38,0.47,0.47,0,0,1,.36-0.15h0.14l0.15,0.06V54.8a0.53,0.53,0,0,0-.28-0.1,0.29,0.29,0,0,0-.22.09,0.35,0.35,0,0,0-.09.24,0.33,0.33,0,0,0,.09.25,0.34,0.34,0,0,0,.25.09A0.66,0.66,0,0,0,30.76,55.31Z"/><path class="cls-7" d="M30.85,54.7l0.38-.37v0.21h0.32v0.18H31.22v0.49a0.14,0.14,0,0,0,.14.17,0.45,0.45,0,0,0,.23-0.07V55.5a0.51,0.51,0,0,1-.25.06,0.33,0.33,0,0,1-.23-0.08l0-.05a0.26,0.26,0,0,1,0-.08,0.9,0.9,0,0,1,0-.19V54.72H30.85v0Z"/><path class="cls-7" d="M31.84,54.12a0.12,0.12,0,0,1,.08,0,0.11,0.11,0,0,1,0,.08,0.12,0.12,0,0,1-.12.12,0.11,0.11,0,0,1-.08,0,0.11,0.11,0,0,1,0-.17A0.11,0.11,0,0,1,31.84,54.12Zm-0.1.42h0.2v1h-0.2v-1Z"/><path class="cls-7" d="M32.71,54.54a0.53,0.53,0,0,1,.38.15,0.5,0.5,0,0,1,.15.37,0.48,0.48,0,0,1-.15.36,0.55,0.55,0,0,1-.39.14,0.53,0.53,0,0,1-.38-0.15,0.52,0.52,0,0,1,0-.74A0.54,0.54,0,0,1,32.71,54.54Zm0,0.18a0.32,0.32,0,0,0-.24.09,0.33,0.33,0,0,0-.09.24,0.32,0.32,0,0,0,.09.24,0.34,0.34,0,0,0,.24.09A0.33,0.33,0,0,0,33,55.29a0.34,0.34,0,0,0,0-.48A0.34,0.34,0,0,0,32.7,54.72Z"/><path class="cls-7" d="M33.67,54.54v0.13a0.4,0.4,0,0,1,.3-0.15,0.33,0.33,0,0,1,.18,0,0.32,0.32,0,0,1,.12.13,0.64,0.64,0,0,1,0,.27v0.58h-0.2V55a0.39,0.39,0,0,0,0-.22,0.18,0.18,0,0,0-.16-0.07,0.29,0.29,0,0,0-.24.14v0.72h-0.2v-1h0.2Z"/></svg>