<svg id="Layer_1" data-name="Layer 1" xmlns="http://www.w3.org/2000/svg" xmlns:xlink="http://www.w3.org/1999/xlink" viewBox="0 0 1002.06 517.82"><defs><style>.cls-1,.cls-5{fill:none;}.cls-2{clip-path:url(#clip-path);}.cls-3{clip-path:url(#clip-path-2);}.cls-4{fill:#010101;}.cls-5{stroke:#010101;stroke-miterlimit:10;}.cls-6{clip-path:url(#clip-path-5);}.cls-7{fill:#231f20;}</style><clipPath id="clip-path"><rect class="cls-1" x="-59.39" y="-140.11" width="1224" height="792"/></clipPath><clipPath id="clip-path-2"><rect class="cls-1" x="29.56" y="51.69" width="364.29" height="389.24"/></clipPath><clipPath id="clip-path-5"><rect class="cls-1" x="565.69" y="60.51" width="421.68" height="395.5"/></clipPath></defs><title>ex_08</title><g class="cls-2"><g class="cls-3"><g class="cls-3"><path class="cls-4" d="M30.23,230.22c-0.12-9.33-.36-17.81-0.67-27.14,2.71,0.56,6.24,1.24,9,1.58q1.3,8.77,2.44,17.57c-1.63,1.27-3.66,2.82-5.33,4s-3.62,2.64-5.43,3.94"/><path class="cls-4" d="M31,296.87c-0.34-3.24-.74-7-0.76-10.29a55.06,55.06,0,0,1,5.62,5.28c1.77,1.88,3.45,3.78,5.15,5.73q-1.12,5.7-2.44,11.36a38.19,38.19,0,0,0-6.9-1.79A88.48,88.48,0,0,0,31,296.87"/><path class="cls-4" d="M34.06,320.34l0.59-.14c3-.74,5.21-2,8-3.14q5.84,6.63,11.68,13.27c-0.39.79-1,2.36-1.3,3.18-0.42,1.08-.83,2.12-1.28,3.18a25.06,25.06,0,0,1-3.39,6c-4.8-7.43-9.61-14.84-14.32-22.33"/><path class="cls-4" d="M36.31,193.53l-1.65-4.21c4.6-5,9.16-10.14,13.71-15.23,0.11,2.77.24,5.53,0.35,8.29-4.17,3.67-8.31,7.4-12.41,11.15"/><path class="cls-4" d="M44.87,290.06c0.07-.76.13-1.52,0.2-2.29l0.75-8.06,0.88,0.65c3,2.27,5.6,4.29,8.53,6.68s5.55,4.61,8.37,6.87l2.85-.46q0-6.43.07-12.88l0-16.59-2.82-4a122.59,122.59,0,0,1-17.84-1.73q-0.68-10.78-1.31-21.57c6.34,2.81,12.58,5.56,19.39,7.09,1.64,4.25,3.3,8.5,5,12.78l5.69-1.33c1.17,9.25,2.46,18.55,3.91,27.75L77,284.6l1.74,2.64c-1.24,6.3-2.63,12.48-4.14,18.72L68.91,301c-1.7,1.6-3.35,3.22-5,4.86-4.33-3.81-8.76-7.58-13.24-11.21-1.92-1.57-3.86-3.11-5.81-4.64"/><path class="cls-4" d="M68.87,354.61L63.08,346a96,96,0,0,0,11-8.86q4.59,4.14,9.25,8.24l2.78-4.05c5.54,7.09,11.19,14.16,16.9,21.11,0,0.7,0,1.4-.06,2.12l5.88,1.94c6.36,6.82,12.81,13.55,19.27,20.28q-7.48-2.14-15-4.36c-1.7-1.61-3.41-3.19-5.14-4.77l-12.2-11.38L85.36,351.67l-3-1.89a27.61,27.61,0,0,1-6.56,2.93c-1.27.39-5.68,1.49-6.93,1.9"/><path class="cls-4" d="M63.09,186.94c2.74-2.35,5.47-4.72,8.29-7.28,2,3.95,3.81,7.75,5.62,11.78,0.88,2,1.73,3.92,2.58,5.89s1.65,3.78,2.52,5.64l6.18-6.14,3-5.9,1.28-2.41,0.28-13.63c-3.3-5.67-5.12-7.09-8.94-12.38q3.33-6.73,6.7-13.45c6.44,4.7,13.1,9.08,19.93,13.2q-0.53,7-1.12,14c3.1,0.36,6.2.75,9.3,1.15-4.49,9.07-8.85,18.28-13,27.5l-2.81-.14c0,1,0,2,0,2.89-5.74,3.91-11.39,8-16.91,12.26-0.92-2.56-1.84-5.12-2.78-7.67-0.58,0-1.16,0-1.74,0l-1.72.05c-1.36,0-2.49.11-3.84,0.18l-1.95.1q-5.18-12.91-10.94-25.63"/><path class="cls-4" d="M90.88,127.95l-6.83.54c3.29-7.6,6.7-15.44,10.19-23L98.42,108c-2.73,6.56-5.2,13.25-7.54,20"/><path class="cls-4" d="M94,391.83a21.53,21.53,0,0,1,5.35.89c2,0.53,4.15,1.25,6.09,1.9,5.56,1.86,8,2.79,13.61,4.54,1.58,3.31,2.6,5.08,4.31,8.33a33.37,33.37,0,0,1,1.77,3.72,5.59,5.59,0,0,1,.44,3.56c-1.32-.37-2.64-0.76-4-1.19-0.85-.27-1.7-0.56-2.54-0.85-2-.71-3.94-1.46-5.92-2.28-3.3-1.36-6.37-2.78-9.57-4.38-1.87-2.09-3.58-4-5.25-6.28A36.18,36.18,0,0,1,95.82,396c-0.31-.56-0.61-1.13-0.88-1.71a21.2,21.2,0,0,1-1-2.47"/><path class="cls-4" d="M106.46,102.15q0.22-2.9.46-5.83A103.61,103.61,0,0,1,118.3,95a61.66,61.66,0,0,0,11.3-1.88c-1.79,3.37-3.6,6.74-5.39,10.11a65.79,65.79,0,0,1-8.87-.69,49.7,49.7,0,0,0-8.88-.42"/><path class="cls-4" d="M147.15,148.81q-5-2.94-10.07-5.85,0.82-10.93,1.08-21.87,0.07-3.33.1-6.66l1.76-.07c6.34-.24,12.67-0.53,19-0.81,0.32,1,.65,2.05,1,3.08l4,19.92,2.25-.52,1.36-.95-4.75-20.41L162,112.56q10.83-12.4,21.86-24.66-7.63-6.73-15.32-13.4a354.89,354.89,0,0,1,38.08-22.81L211.7,57c1.69-1.77,3.37-3.55,5.06-5.33A354.94,354.94,0,0,1,254.84,74.5q-7.68,6.68-15.32,13.4,11,12.25,21.86,24.66c-0.27.71-.55,1.41-0.81,2.11l-4.75,20.41,1.36,0.95,2.25,0.52,4-19.92c0.32-1,.65-2,1-3.08,6.33,0.28,12.66.57,19,.81l1.77,0.07q0,3.33.1,6.66,0.25,11,1.08,21.87-5,2.91-10.07,5.85c1.19,3.49,2.37,7,3.57,10.47-8.7-.53-17.45-0.85-26.12-0.89-0.41-1-.81-2.05-1.22-3.07l-2.5,1.86c-7.84-5.32-15.9-10.46-24-15.39q4-3.39,8-6.74-7.19-6.81-14.39-13.51a175.79,175.79,0,0,0,7.44-33.64q-7.65-4-15.36-7.89-7.7,3.9-15.35,7.89a175.79,175.79,0,0,0,7.44,33.64q-7.19,6.69-14.39,13.51,4,3.36,8,6.74c-8.09,4.93-16.15,10.07-24,15.39l-2.5-1.86c-0.41,1-.81,2.05-1.22,3.07-8.67,0-17.42.36-26.12,0.89,0.6-1.75,1.19-3.49,1.79-5.23s1.18-3.49,1.78-5.24"/><path class="cls-4" d="M145.74,406.1c-0.88-4.16-2.39-10.07-4.86-13.66,9.75,3.53,19.48,7.08,29.25,10.52a46.87,46.87,0,0,1,2.59,6.86,64.53,64.53,0,0,1,7.38-3.62c9,2.69,18,5.35,26.94,8.1-4.85.71-10.66,4.28-14.57,7l-8.19-1.17-15.54-2.34-15-7.58-8-4.08"/><path class="cls-4" d="M196,437.79c-1.13-.35-2.24-0.74-3.33-1.19a9.57,9.57,0,0,1,3.67-2c1.47-.52,3.25-1,4.76-1.4,4-1.07,6.69-1.84,10.56-3.2,3.88,1.36,6.61,2.13,10.57,3.2,1.5,0.41,3.28.88,4.76,1.4a9.57,9.57,0,0,1,3.67,2c-1.09.45-2.2,0.84-3.33,1.19-0.57.18-1.13,0.35-1.7,0.5-1.68.47-3.32,0.84-5,1.18-3.09.62-5.82,1-8.94,1.46-3.12-.47-5.84-0.84-8.94-1.46-1.7-.34-3.35-0.71-5-1.18-0.57-.15-1.14-0.32-1.7-0.5"/><path class="cls-4" d="M230.94,421.27c-3.92-2.69-9.72-6.26-14.57-7,9-2.75,18-5.41,26.94-8.1a64.53,64.53,0,0,1,7.38,3.62,48,48,0,0,1,2.58-6.86c9.78-3.44,19.51-7,29.26-10.52-2.48,3.59-4,9.5-4.86,13.66l-8,4.08-15,7.58-15.54,2.34-8.19,1.17"/><path class="cls-4" d="M299.2,103.26c-1.79-3.37-3.6-6.74-5.39-10.11A61.66,61.66,0,0,0,305.11,95a103.61,103.61,0,0,1,11.38,1.29q0.24,2.94.46,5.83a49.71,49.71,0,0,0-8.88.42,65.78,65.78,0,0,1-8.87.69"/><path class="cls-4" d="M297.89,414.77a5.59,5.59,0,0,1,.44-3.56,33.37,33.37,0,0,1,1.77-3.72c1.71-3.25,2.73-5,4.31-8.33,5.59-1.75,8-2.68,13.61-4.54,1.93-.65,4.11-1.37,6.09-1.9a21.53,21.53,0,0,1,5.34-.89,19.55,19.55,0,0,1-1,2.47c-0.27.58-.57,1.15-0.88,1.71a36.09,36.09,0,0,1-2.47,3.78c-1.67,2.27-3.38,4.19-5.25,6.28-3.2,1.6-6.27,3-9.57,4.38-2,.82-3.9,1.57-5.92,2.28-0.84.29-1.69,0.58-2.54,0.85-1.31.43-2.63,0.82-3.95,1.19"/><path class="cls-4" d="M310.29,382.4q-7.47,2.22-15,4.36c6.46-6.73,12.91-13.46,19.27-20.28l5.88-1.94c0-.72,0-1.42-0.06-2.12,5.71-7,11.36-14,16.9-21.11l2.78,4.05c3.11-2.74,6.18-5.48,9.25-8.24a95.12,95.12,0,0,0,11,8.86l-5.79,8.63c-1.25-.41-5.67-1.51-6.93-1.9a27.61,27.61,0,0,1-6.56-2.93l-3,1.89-10.43,14.58-12.2,11.38c-1.72,1.58-3.43,3.16-5.13,4.77"/><path class="cls-4" d="M304.71,177.36c3.1-.4,6.2-0.79,9.3-1.15q-0.59-7-1.13-14c6.84-4.12,13.5-8.5,19.94-13.2q3.36,6.72,6.7,13.45c-3.82,5.29-5.64,6.71-8.94,12.38l0.28,13.63,1.28,2.41,3,5.9,6.18,6.14c0.87-1.86,1.69-3.75,2.51-5.64s1.71-3.93,2.59-5.89c1.81-4,3.63-7.83,5.62-11.78,2.82,2.56,5.55,4.93,8.29,7.28q-5.77,12.71-10.95,25.63l-1.94-.1c-1.36-.07-2.48-0.13-3.84-0.18l-1.72-.05c-0.58,0-1.16,0-1.74,0-0.94,2.55-1.86,5.11-2.78,7.67-5.52-4.22-11.17-8.35-16.91-12.26,0-.92,0-1.85,0-2.89l-2.8.14c-4.11-9.22-8.47-18.43-13-27.5"/><path class="cls-4" d="M325,108l4.18-2.46c3.49,7.51,6.9,15.35,10.19,23l-6.83-.54c-2.34-6.7-4.81-13.39-7.54-20"/><path class="cls-4" d="M344.67,287.24l1.74-2.64L344.93,283c1.45-9.2,2.74-18.5,3.91-27.75l5.69,1.33c1.69-4.28,3.35-8.53,5-12.78,6.82-1.53,13.06-4.28,19.4-7.09q-0.65,10.78-1.31,21.57A122.73,122.73,0,0,1,359.76,260l-2.82,4,0,16.59c0,4.29,0,8.59.07,12.88l2.85,0.46c2.81-2.26,5.57-4.59,8.37-6.87s5.51-4.41,8.53-6.68l0.88-.65c0.25,2.69.5,5.37,0.74,8.06l0.21,2.29c-2,1.53-3.89,3.07-5.81,4.64-4.48,3.63-8.91,7.4-13.24,11.21-1.64-1.64-3.29-3.26-5-4.86L348.81,306c-1.51-6.24-2.9-12.42-4.14-18.72"/><path class="cls-4" d="M369.06,330.33q5.85-6.63,11.68-13.27c2.81,1.13,5.06,2.4,8,3.14l0.59,0.14c-4.71,7.49-9.53,14.9-14.32,22.33a25.06,25.06,0,0,1-3.39-6c-0.45-1.06-.86-2.1-1.28-3.18-0.32-.82-0.91-2.39-1.3-3.18"/><path class="cls-4" d="M374.69,182.38c0.11-2.76.24-5.52,0.35-8.29,4.55,5.09,9.11,10.19,13.71,15.23-0.55,1.41-1.1,2.81-1.66,4.21-4.09-3.75-8.23-7.48-12.4-11.15"/><path class="cls-4" d="M384.83,308.95q-1.31-5.66-2.44-11.36c1.7-2,3.38-3.85,5.15-5.73a56,56,0,0,1,5.61-5.28c0,3.26-.41,7-0.75,10.29a88.48,88.48,0,0,0-.67,10.29,38.18,38.18,0,0,0-6.9,1.79"/><path class="cls-4" d="M382.42,222.23q1.13-8.81,2.44-17.57c2.75-.34,6.28-1,9-1.58-0.31,9.33-.55,17.81-0.67,27.14-1.81-1.3-3.67-2.63-5.44-3.94s-3.69-2.78-5.32-4"/></g></g><path class="cls-5" d="M293.81,93.15c1.79,3.37,3.6,6.74,5.39,10.11"/><path class="cls-5" d="M299.2,103.26a65.78,65.78,0,0,0,8.87-.69,49.71,49.71,0,0,1,8.88-.42"/><line class="cls-5" x1="330.86" y1="188.52" x2="330.58" y2="174.89"/><path class="cls-5" d="M346.41,284.6l-1.74,2.64"/><path class="cls-5" d="M344.67,287.24c1.24,6.3,2.63,12.48,4.14,18.72"/><path class="cls-5" d="M359.81,293.91l-2.85-.46"/><line class="cls-5" x1="356.94" y1="263.98" x2="359.76" y2="259.99"/><path class="cls-5" d="M377.6,258.26q0.68-10.78,1.31-21.57"/><path class="cls-5" d="M378.54,290.06l-0.21-2.29c-0.24-2.69-.49-5.37-0.74-8.06"/><path class="cls-5" d="M357,293.45c0-4.29,0-8.59-.07-12.88"/><line class="cls-5" x1="356.89" y1="280.57" x2="356.94" y2="263.98"/><path class="cls-5" d="M339.52,162.51q-3.33-6.73-6.7-13.45"/><path class="cls-5" d="M330.58,174.89c3.3-5.67,5.12-7.09,8.94-12.38"/><path class="cls-5" d="M360.32,186.94c-2.74-2.35-5.47-4.72-8.29-7.28"/><path class="cls-5" d="M253.71,158.39c8.67,0,17.42.36,26.12,0.89"/><path class="cls-5" d="M252.49,155.32c0.41,1,.81,2.05,1.22,3.07"/><path class="cls-5" d="M234,135q-4,3.36-8,6.74"/><path class="cls-5" d="M226,141.79c8.09,4.93,16.15,10.07,24,15.39"/><path class="cls-5" d="M216.76,51.69c-1.69,1.78-3.37,3.56-5.06,5.33"/><path class="cls-5" d="M211.7,80q7.71,3.9,15.36,7.89"/><path class="cls-5" d="M219.62,121.54Q226.81,128.23,234,135"/><path class="cls-5" d="M250,157.18l2.5-1.86"/><path class="cls-5" d="M317,102.15q-0.22-2.9-.46-5.83"/><path class="cls-5" d="M254.84,74.5a354.94,354.94,0,0,0-38.08-22.81"/><path class="cls-5" d="M239.52,87.9q7.63-6.73,15.32-13.4"/><path class="cls-5" d="M316.49,96.32A103.61,103.61,0,0,0,305.11,95a61.66,61.66,0,0,1-11.3-1.88"/><path class="cls-5" d="M286.33,143q-0.82-10.93-1.08-21.87-0.07-3.33-.1-6.66"/><path class="cls-5" d="M227.06,87.9a175.79,175.79,0,0,1-7.44,33.64"/><line class="cls-5" x1="263.42" y1="116.63" x2="259.43" y2="136.55"/><path class="cls-5" d="M264.39,113.55c-0.32,1-.65,2.05-1,3.08"/><path class="cls-5" d="M285.15,114.43l-1.77-.07c-6.33-.24-12.66-0.53-19-0.81"/><path class="cls-5" d="M276.26,148.81q5-2.94,10.07-5.85"/><line class="cls-5" x1="259.43" y1="136.55" x2="257.18" y2="136.03"/><line class="cls-5" x1="257.18" y1="136.03" x2="255.82" y2="135.08"/><line class="cls-5" x1="255.82" y1="135.08" x2="260.57" y2="114.67"/><path class="cls-5" d="M279.83,159.28c-1.2-3.5-2.38-7-3.57-10.47"/><path class="cls-5" d="M261.38,112.56q-10.83-12.4-21.86-24.66"/><path class="cls-5" d="M260.57,114.67c0.26-.7.54-1.4,0.81-2.11"/><path class="cls-5" d="M382.42,222.23c1.63,1.27,3.66,2.82,5.32,4s3.63,2.64,5.44,3.94"/><path class="cls-5" d="M393.15,286.58a56,56,0,0,0-5.61,5.28c-1.77,1.88-3.45,3.78-5.15,5.73"/><path class="cls-5" d="M382.39,297.59q1.13,5.7,2.44,11.36"/><path class="cls-5" d="M393.85,203.08c-2.71.56-6.24,1.24-9,1.58"/><path class="cls-5" d="M384.86,204.66q-1.3,8.77-2.44,17.57"/><path class="cls-5" d="M304.71,177.36c4.49,9.07,8.85,18.28,13,27.5"/><path class="cls-5" d="M378.91,236.69c-6.34,2.81-12.58,5.56-19.4,7.09"/><path class="cls-5" d="M359.49,305.91c4.33-3.81,8.76-7.58,13.24-11.21,1.92-1.57,3.86-3.11,5.81-4.64"/><path class="cls-5" d="M349.35,337.12c-3.07,2.76-6.14,5.5-9.25,8.24"/><path class="cls-5" d="M360.33,346a95.12,95.12,0,0,1-11-8.86"/><path class="cls-5" d="M354.5,301c1.7,1.6,3.35,3.22,5,4.86"/><path class="cls-5" d="M359.51,243.78c-1.63,4.25-3.29,8.5-5,12.78"/><path class="cls-5" d="M374.69,182.38c4.17,3.67,8.31,7.4,12.4,11.15"/><path class="cls-5" d="M349.37,212.57q5.19-12.91,10.95-25.63"/><path class="cls-5" d="M348.84,255.23c-1.17,9.25-2.46,18.55-3.91,27.75"/><path class="cls-5" d="M320.44,207.61c5.74,3.91,11.39,8,16.91,12.26"/><path class="cls-5" d="M354.53,256.56l-5.69-1.33"/><path class="cls-5" d="M337.32,341.31c-5.54,7.09-11.19,14.16-16.9,21.11"/><path class="cls-5" d="M340.1,345.36l-2.78-4.05"/><path class="cls-5" d="M344.93,283l1.48,1.62"/><path class="cls-5" d="M348.81,306L354.5,301"/><path class="cls-5" d="M377.59,279.71l-0.88.65c-3,2.27-5.6,4.29-8.53,6.68s-5.56,4.61-8.37,6.87"/><path class="cls-5" d="M375,174.09c-0.11,2.77-.24,5.53-0.35,8.29"/><path class="cls-5" d="M329.17,105.54L325,108"/><path class="cls-5" d="M332.82,149.06c-6.44,4.7-13.1,9.08-19.94,13.2"/><path class="cls-5" d="M325,108c2.73,6.56,5.2,13.25,7.54,20"/><path class="cls-5" d="M332.53,127.95l6.83,0.54"/><path class="cls-5" d="M295.33,386.76q7.48-2.14,15-4.36"/><path class="cls-5" d="M387.09,193.53c0.56-1.4,1.11-2.8,1.66-4.21"/><path class="cls-5" d="M312.88,162.26q0.54,7,1.13,14"/><path class="cls-5" d="M314,176.21c-3.1.36-6.2,0.75-9.3,1.15"/><path class="cls-5" d="M317.67,204.86l2.8-.14"/><path class="cls-5" d="M320.47,204.72c0,1,0,2,0,2.89"/><path class="cls-5" d="M339.36,128.49c-3.29-7.6-6.7-15.44-10.19-22.95"/><path class="cls-5" d="M388.75,189.32c-4.6-5-9.16-10.14-13.71-15.23"/><line class="cls-5" x1="332.14" y1="190.93" x2="330.86" y2="188.52"/><path class="cls-5" d="M352,179.66c-2,3.95-3.81,7.75-5.62,11.78-0.88,2-1.73,3.92-2.59,5.89s-1.64,3.78-2.51,5.64"/><path class="cls-5" d="M384.83,308.95a38.18,38.18,0,0,1,6.9-1.79"/><path class="cls-5" d="M391.73,307.16a88.48,88.48,0,0,1,.67-10.29c0.34-3.24.74-7,.75-10.29"/><path class="cls-5" d="M393.18,230.22c0.12-9.33.36-17.81,0.67-27.14"/><path class="cls-5" d="M375,342.67c4.79-7.43,9.61-14.84,14.32-22.33"/><path class="cls-5" d="M319.87,406.07c1.87-2.09,3.58-4,5.25-6.28a36.09,36.09,0,0,0,2.47-3.78c0.31-.56.61-1.13,0.88-1.71a19.55,19.55,0,0,0,1-2.47"/><path class="cls-5" d="M297.89,414.77c1.32-.37,2.64-0.76,3.95-1.19,0.85-.27,1.7-0.56,2.54-0.85,2-.71,3.94-1.46,5.92-2.28,3.3-1.36,6.37-2.78,9.57-4.38"/><path class="cls-5" d="M359.76,260a122.73,122.73,0,0,0,17.84-1.73"/><path class="cls-5" d="M320.42,362.42c0,0.7,0,1.4.06,2.12"/><path class="cls-5" d="M320.48,364.54l-5.88,1.94"/><path class="cls-5" d="M329.45,391.83a21.53,21.53,0,0,0-5.34.89c-2,.53-4.16,1.25-6.09,1.9-5.56,1.86-8,2.79-13.61,4.54"/><path class="cls-5" d="M354.54,354.61l5.79-8.63"/><line class="cls-5" x1="338.05" y1="351.67" x2="341.05" y2="349.78"/><line class="cls-5" x1="327.62" y1="366.25" x2="338.05" y2="351.67"/><line class="cls-5" x1="315.42" y1="377.63" x2="327.62" y2="366.25"/><path class="cls-5" d="M310.29,382.4c1.7-1.61,3.41-3.19,5.13-4.77"/><path class="cls-5" d="M341.05,349.78a27.61,27.61,0,0,0,6.56,2.93c1.26,0.39,5.68,1.49,6.93,1.9"/><path class="cls-5" d="M304.41,399.16c-1.58,3.31-2.6,5.08-4.31,8.33a33.37,33.37,0,0,0-1.77,3.72,5.59,5.59,0,0,0-.44,3.56"/><line class="cls-5" x1="254.67" y1="417.76" x2="269.66" y2="410.18"/><path class="cls-5" d="M269.66,410.18l8-4.08"/><line class="cls-5" x1="239.13" y1="420.1" x2="254.67" y2="417.76"/><path class="cls-5" d="M230.94,421.27l8.19-1.17"/><path class="cls-5" d="M230.7,436.6a9.57,9.57,0,0,0-3.67-2c-1.48-.52-3.26-1-4.76-1.4-4-1.07-6.69-1.84-10.57-3.2"/><path class="cls-5" d="M211.7,440.93c3.12-.47,5.85-0.84,8.94-1.46,1.71-.34,3.35-0.71,5-1.18,0.57-.15,1.13-0.32,1.7-0.5,1.13-.35,2.24-0.74,3.33-1.19"/><path class="cls-5" d="M389.35,320.34l-0.59-.14c-3-.74-5.21-2-8-3.14"/><path class="cls-5" d="M380.74,317.06q-5.84,6.63-11.68,13.27"/><path class="cls-5" d="M369.06,330.33c0.39,0.79,1,2.36,1.3,3.18,0.42,1.08.83,2.12,1.28,3.18a25.06,25.06,0,0,0,3.39,6"/><path class="cls-5" d="M277.67,406.1c0.88-4.16,2.38-10.07,4.86-13.66"/><path class="cls-5" d="M253.27,403a48,48,0,0,0-2.58,6.86"/><path class="cls-5" d="M282.53,392.44c-9.75,3.53-19.48,7.08-29.26,10.52"/><path class="cls-5" d="M216.37,414.3c4.85,0.71,10.65,4.28,14.57,7"/><path class="cls-5" d="M250.69,409.82a64.53,64.53,0,0,0-7.38-3.62"/><path class="cls-5" d="M243.31,406.2c-9,2.69-18,5.35-26.94,8.1"/><path class="cls-5" d="M314.6,366.48c-6.36,6.82-12.81,13.55-19.27,20.28"/><line class="cls-5" x1="341.31" y1="202.97" x2="335.13" y2="196.83"/><line class="cls-5" x1="335.13" y1="196.83" x2="332.14" y2="190.93"/><path class="cls-5" d="M340.13,212.2c0.58,0,1.16,0,1.74,0l1.72,0.05c1.36,0,2.48.11,3.84,0.18l1.94,0.1"/><path class="cls-5" d="M337.35,219.87c0.92-2.56,1.84-5.12,2.78-7.67"/><path class="cls-5" d="M124.21,103.26c1.79-3.37,3.6-6.74,5.39-10.11"/><path class="cls-5" d="M106.46,102.15a49.7,49.7,0,0,1,8.88.42,65.79,65.79,0,0,0,8.87.69"/><line class="cls-5" x1="92.83" y1="174.89" x2="92.55" y2="188.52"/><path class="cls-5" d="M78.74,287.24L77,284.6"/><path class="cls-5" d="M74.6,306c1.51-6.24,2.9-12.42,4.14-18.72"/><path class="cls-5" d="M66.45,293.45l-2.85.46"/><line class="cls-5" x1="63.65" y1="259.99" x2="66.47" y2="263.98"/><path class="cls-5" d="M44.5,236.69q0.65,10.78,1.31,21.57"/><path class="cls-5" d="M45.82,279.71l-0.75,8.06c-0.07.77-.13,1.53-0.2,2.29"/><path class="cls-5" d="M66.52,280.57q-0.06,6.43-.07,12.88"/><line class="cls-5" x1="66.47" y1="263.98" x2="66.52" y2="280.57"/><path class="cls-5" d="M90.59,149.06q-3.36,6.72-6.7,13.45"/><path class="cls-5" d="M83.89,162.51c3.82,5.29,5.64,6.71,8.94,12.38"/><path class="cls-5" d="M71.38,179.66c-2.82,2.56-5.55,4.93-8.29,7.28"/><path class="cls-5" d="M143.58,159.28c8.7-.53,17.45-0.85,26.12-0.89"/><path class="cls-5" d="M169.7,158.39c0.41-1,.81-2.05,1.22-3.07"/><path class="cls-5" d="M197.41,141.79q-4-3.39-8-6.74"/><path class="cls-5" d="M173.42,157.18c7.84-5.32,15.9-10.46,24-15.39"/><path class="cls-5" d="M211.7,57l-5.05-5.33"/><path class="cls-5" d="M196.35,87.9q7.65-4,15.35-7.89"/><path class="cls-5" d="M189.4,135q7.19-6.81,14.39-13.51"/><path class="cls-5" d="M170.92,155.32l2.5,1.86"/><path class="cls-5" d="M106.92,96.32q-0.24,2.94-.46,5.83"/><path class="cls-5" d="M206.65,51.69A354.89,354.89,0,0,0,168.57,74.5"/><path class="cls-5" d="M168.57,74.5q7.68,6.68,15.32,13.4"/><path class="cls-5" d="M129.6,93.15A61.66,61.66,0,0,1,118.3,95a103.61,103.61,0,0,0-11.38,1.29"/><path class="cls-5" d="M138.26,114.43q0,3.33-.1,6.66-0.25,11-1.08,21.87"/><path class="cls-5" d="M203.79,121.54a175.78,175.78,0,0,1-7.44-33.64"/><line class="cls-5" x1="163.98" y1="136.55" x2="159.99" y2="116.63"/><path class="cls-5" d="M160,116.63c-0.32-1-.65-2-1-3.08"/><path class="cls-5" d="M159,113.55c-6.33.28-12.66,0.57-19,.81l-1.76.07"/><path class="cls-5" d="M137.08,143q5,2.91,10.07,5.85"/><line class="cls-5" x1="166.23" y1="136.03" x2="163.98" y2="136.55"/><line class="cls-5" x1="167.59" y1="135.08" x2="166.23" y2="136.03"/><line class="cls-5" x1="162.84" y1="114.67" x2="167.59" y2="135.08"/><path class="cls-5" d="M147.15,148.81c-0.6,1.75-1.19,3.49-1.78,5.24s-1.19,3.48-1.79,5.23"/><path class="cls-5" d="M183.89,87.9q-11,12.25-21.86,24.66"/><path class="cls-5" d="M162,112.56l0.81,2.11"/><path class="cls-5" d="M30.23,230.22c1.81-1.3,3.66-2.63,5.43-3.94s3.7-2.78,5.33-4"/><path class="cls-5" d="M41,297.59c-1.7-2-3.38-3.85-5.15-5.73a55.06,55.06,0,0,0-5.62-5.28"/><path class="cls-5" d="M38.58,308.95q1.31-5.66,2.44-11.36"/><path class="cls-5" d="M38.55,204.66c-2.75-.34-6.28-1-9-1.58"/><path class="cls-5" d="M41,222.23q-1.12-8.81-2.44-17.57"/><path class="cls-5" d="M105.74,204.86c4.11-9.22,8.47-18.43,13-27.5"/><path class="cls-5" d="M63.89,243.78c-6.81-1.53-13.05-4.28-19.39-7.09"/><path class="cls-5" d="M44.87,290.06c2,1.53,3.89,3.07,5.81,4.64,4.48,3.63,8.91,7.4,13.24,11.21"/><path class="cls-5" d="M83.31,345.36q-4.66-4.11-9.25-8.24"/><path class="cls-5" d="M74.06,337.12a96,96,0,0,1-11,8.86"/><path class="cls-5" d="M63.92,305.91c1.64-1.64,3.29-3.26,5-4.86"/><path class="cls-5" d="M68.88,256.56c-1.69-4.28-3.35-8.53-5-12.78"/><path class="cls-5" d="M36.31,193.53c4.1-3.75,8.24-7.48,12.41-11.15"/><path class="cls-5" d="M63.09,186.94Q68.87,199.64,74,212.57"/><path class="cls-5" d="M78.48,283c-1.45-9.2-2.74-18.5-3.91-27.75"/><path class="cls-5" d="M86.06,219.87c5.52-4.22,11.17-8.35,16.91-12.26"/><path class="cls-5" d="M74.57,255.23l-5.69,1.33"/><path class="cls-5" d="M103,362.42c-5.71-7-11.36-14-16.9-21.11"/><path class="cls-5" d="M86.09,341.31l-2.78,4.05"/><path class="cls-5" d="M77,284.6L78.48,283"/><path class="cls-5" d="M68.91,301L74.6,306"/><path class="cls-5" d="M63.6,293.91c-2.82-2.26-5.57-4.59-8.37-6.87s-5.51-4.41-8.53-6.68l-0.88-.65"/><path class="cls-5" d="M48.72,182.38c-0.11-2.76-.24-5.52-0.35-8.29"/><path class="cls-5" d="M98.42,108l-4.18-2.46"/><path class="cls-5" d="M110.52,162.26c-6.83-4.12-13.49-8.5-19.93-13.2"/><path class="cls-5" d="M90.88,127.95c2.34-6.7,4.81-13.39,7.54-20"/><path class="cls-5" d="M84.05,128.49l6.83-.54"/><path class="cls-5" d="M113.12,382.4q7.47,2.22,15,4.36"/><path class="cls-5" d="M34.66,189.32l1.65,4.21"/><path class="cls-5" d="M109.4,176.21q0.59-7,1.12-14"/><path class="cls-5" d="M118.7,177.36c-3.1-.4-6.2-0.79-9.3-1.15"/><path class="cls-5" d="M102.93,204.72l2.81,0.14"/><path class="cls-5" d="M103,207.61c0-.92,0-1.85,0-2.89"/><path class="cls-5" d="M94.24,105.54c-3.49,7.51-6.9,15.35-10.19,23"/><path class="cls-5" d="M48.37,174.09c-4.55,5.09-9.11,10.19-13.71,15.23"/><line class="cls-5" x1="92.55" y1="188.52" x2="91.27" y2="190.93"/><path class="cls-5" d="M82.1,203c-0.87-1.86-1.7-3.75-2.52-5.64s-1.7-3.93-2.58-5.89c-1.81-4-3.63-7.83-5.62-11.78"/><path class="cls-5" d="M31.68,307.16a38.19,38.19,0,0,1,6.9,1.79"/><path class="cls-5" d="M30.25,286.58c0,3.26.42,7,.76,10.29a88.48,88.48,0,0,1,.67,10.29"/><path class="cls-5" d="M29.56,203.08c0.31,9.33.55,17.81,0.67,27.14"/><path class="cls-5" d="M34.06,320.34c4.71,7.49,9.52,14.9,14.32,22.33"/><path class="cls-5" d="M94,391.83a21.2,21.2,0,0,0,1,2.47c0.27,0.58.57,1.15,0.88,1.71a36.18,36.18,0,0,0,2.47,3.78c1.67,2.27,3.38,4.19,5.25,6.28"/><path class="cls-5" d="M103.54,406.07c3.2,1.6,6.27,3,9.57,4.38,2,0.82,3.9,1.57,5.92,2.28,0.84,0.29,1.69.58,2.54,0.85,1.31,0.43,2.63.82,3.95,1.19"/><path class="cls-5" d="M45.81,258.26A122.59,122.59,0,0,0,63.65,260"/><path class="cls-5" d="M102.93,364.54c0-.72,0-1.42.06-2.12"/><path class="cls-5" d="M108.81,366.48l-5.88-1.94"/><path class="cls-5" d="M119,399.16c-5.59-1.75-8-2.68-13.61-4.54-1.94-.65-4.11-1.37-6.09-1.9a21.53,21.53,0,0,0-5.35-.89"/><path class="cls-5" d="M63.08,346l5.79,8.63"/><line class="cls-5" x1="82.36" y1="349.78" x2="85.36" y2="351.67"/><line class="cls-5" x1="85.36" y1="351.67" x2="95.78" y2="366.25"/><line class="cls-5" x1="95.78" y1="366.25" x2="107.98" y2="377.63"/><path class="cls-5" d="M108,377.63c1.73,1.58,3.44,3.16,5.14,4.77"/><path class="cls-5" d="M68.87,354.61c1.25-.41,5.66-1.51,6.93-1.9a27.61,27.61,0,0,0,6.56-2.93"/><path class="cls-5" d="M125.52,414.77a5.59,5.59,0,0,0-.44-3.56,33.37,33.37,0,0,0-1.77-3.72c-1.71-3.25-2.73-5-4.31-8.33"/><line class="cls-5" x1="153.75" y1="410.18" x2="168.74" y2="417.76"/><path class="cls-5" d="M145.74,406.1l8,4.08"/><line class="cls-5" x1="168.74" y1="417.76" x2="184.28" y2="420.1"/><path class="cls-5" d="M184.28,420.1l8.19,1.17"/><path class="cls-5" d="M211.7,430c-3.87,1.36-6.6,2.13-10.56,3.2-1.51.41-3.29,0.88-4.76,1.4a9.57,9.57,0,0,0-3.67,2"/><path class="cls-5" d="M192.71,436.6c1.09,0.45,2.2.84,3.33,1.19,0.56,0.18,1.13.35,1.7,0.5,1.67,0.47,3.32.84,5,1.18,3.1,0.62,5.82,1,8.94,1.46"/><path class="cls-5" d="M42.67,317.06c-2.81,1.13-5.06,2.4-8,3.14l-0.59.14"/><path class="cls-5" d="M54.35,330.33q-5.85-6.63-11.68-13.27"/><path class="cls-5" d="M48.38,342.67a25.06,25.06,0,0,0,3.39-6c0.45-1.06.86-2.1,1.28-3.18,0.32-.82.91-2.39,1.3-3.18"/><path class="cls-5" d="M140.88,392.44c2.47,3.59,4,9.5,4.86,13.66"/><path class="cls-5" d="M172.72,409.82a46.87,46.87,0,0,0-2.59-6.86"/><path class="cls-5" d="M170.13,403c-9.77-3.44-19.5-7-29.25-10.52"/><path class="cls-5" d="M192.47,421.27c3.91-2.69,9.72-6.26,14.57-7"/><path class="cls-5" d="M180.1,406.2a64.53,64.53,0,0,0-7.38,3.62"/><path class="cls-5" d="M207,414.3c-9-2.75-18-5.41-26.94-8.1"/><path class="cls-5" d="M128.08,386.76c-6.46-6.73-12.91-13.46-19.27-20.28"/><line class="cls-5" x1="88.28" y1="196.83" x2="82.1" y2="202.97"/><line class="cls-5" x1="91.27" y1="190.93" x2="88.28" y2="196.83"/><path class="cls-5" d="M74,212.57l1.95-.1c1.35-.07,2.48-0.13,3.84-0.18l1.72-.05c0.58,0,1.16,0,1.74,0"/><path class="cls-5" d="M83.28,212.2c0.94,2.55,1.86,5.11,2.78,7.67"/><line class="cls-5" x1="145.37" y1="154.05" x2="144.77" y2="154.05"/></g><g class="cls-2"><g class="cls-6"><g class="cls-6"><path class="cls-4" d="M569.82,251.22c-0.6.06,0.29-.51,0.5-0.74l1.49-1.72c1-1.16,2-2.3,3-3.46,0.61-.69,1.37-0.56,2.11-0.72l2.24-.49c1.49-.34,3-0.69,4.46-1.07a183,183,0,0,0,17.57-5.39q-2.56,3.8-5.11,7.65l-2.53,3.82a1.17,1.17,0,0,1-.76.78l-1.16.18c-0.76.12-1.5,0.22-2.26,0.32-6.12.73-12.26,0.31-18.38,0.76l-1.18.1"/><path class="cls-4" d="M565.69,244.63c4.9-12.32,10.11-24.49,15.83-36.47,0.33-.71.67-1.41,1-2.13a1,1,0,0,1,.89-0.46l1.07-.24c1.6-.39,3.18-0.83,4.77-1.29,3.33-1,6.63-2,9.93-3.12,6.31-2.06,12.59-4.17,19-6l2.24-.63,0.54-.15,0.27-.07c0.1,0,.39-0.21.27-0.07-0.27.33-.55,0.65-0.82,1l-3.27,3.87-6.54,7.72L598,221.69a16.44,16.44,0,0,1-3.7,3.72c-1.35.87-2.7,1.73-4,2.61q-4.08,2.71-8.12,5.48c-5.48,3.76-10.77,7.73-16.48,11.14"/><path class="cls-4" d="M592.94,160.1c-2.9,1.07-8.89,3.28-12.26,3,5.45-6.68,11.87-12.23,18.21-18l2.38-2.15a6.91,6.91,0,0,0,2-2.33c0.83-2,1.68-3.94,2.52-5.9q2.54-5.89,5.15-11.76a0.76,0.76,0,0,1,.44-0.61l0.77-.23,1.52-.46,3.06-.93,6.12-1.88Q628.94,117,635,115l1.52-.48,0.77-.24c0.28-.1-0.18.23-0.31,0.34l-2.43,2-4.94,4c-3.33,2.72-6.67,5.4-10,8.09l-2.49,2a21,21,0,0,0-2.38,2l-2.55,5.89c-0.41,1-.84,2-1.27,3-0.21.49-.43,1-0.63,1.46a2.11,2.11,0,0,0,.12,1.52l0.84,3.1c0.15,0.51.28,1,.43,1.55s0,1,.66,1.33l11.93,5,3,1.27,0.74,0.3,0.38,0.16c0.1,0,.51.06,0.31,0.16-0.44.21-.88,0.4-1.33,0.6-1.93.85-3.88,1.68-5.83,2.49q-6.15,2.54-12.37,4.84-2.83,1.06-5.68,2c-0.71.24-.56-0.55-0.67-1s-0.28-1-.43-1.52c-0.27-1-.55-2-0.82-3.06l-0.8-3.1c-0.12-.52-0.26-1-0.39-1.56s-0.43,0-.65.13l-0.7.27q-3,1.21-6.11,2.37"/><path class="cls-4" d="M595.39,303c-0.22.3,0-.37,0-0.55,1.29-8.83,2.29-17.68,3.54-26.51,0.3-2.17.62-4.33,1-6.5,0.17-1.11.34-2.22,0.52-3.33,0.1-.57.18-1.15,0.28-1.71a2.7,2.7,0,0,1,.85-1.4q4.59-4.87,9.16-9.74-3.35,13-6.24,26-1.46,6.51-2.81,13.07a7.51,7.51,0,0,1-.94,3.17l-1.94,2.72L596.86,301c-0.33.45-.66,0.9-1,1.35l-0.49.68"/><path class="cls-4" d="M604.5,311.47c-0.38.17,0.11-.39,0.21-0.57l0.41-.74,0.81-1.5c1.08-2,2.16-4,3.24-6,7.78-4.85,15.29-10,22.61-15.55q5.49-4.15,10.79-8.51l1.32-1.09,0.33-.28c0.12-.1,0,0.17,0,0.24-0.09.27-.18,0.54-0.27,0.82-0.38,1.08-.74,2.16-1.11,3.24-0.72,2.17-1.45,4.34-2.17,6.51-0.35,1.09-.72,2.16-1.07,3.24-0.18.54-.35,1.07-0.54,1.62a2.28,2.28,0,0,1-.88,1.37c-1.93,1.26-3.89,2.46-5.87,3.63-4,2.33-8,4.46-12.1,6.48s-8.29,3.89-12.49,5.72l-3.21,1.38"/><path class="cls-4" d="M614.31,91.88c-0.3-.07-1.29,0-0.8-0.37l1-.66c1.4-.89,2.82-1.74,4.24-2.59a44.7,44.7,0,0,0,4.17-2.59c4-5.26,8-10.44,12.2-15.52q3.13-3.81,6.37-7.53l1.65-1.87c0.24-.27,2.15-0.06,2.38,0L650.46,61q-6.39,7.54-12.63,15.18-3.13,3.82-6.2,7.7l-1.54,1.93a2.43,2.43,0,0,0-.32,1.18c-0.07.4-.16,0.81-0.24,1.21s-0.78,2-.23,2.31l2.16,1.15c3,1.55,5.92,3.06,8.92,4.51l2.23,1.07,1.12,0.52c0.18,0.1.37,0.18,0.56,0.27l0.28,0.12c0.07,0,.41.06,0.24,0.13l-4.54,1.62q-9.29,3.33-18.65,6.49L617,108c-0.29.08-1,.6-0.85,0l0.26-1.23c0.16-.81.33-1.62,0.49-2.44q1-4.87,2-9.72l0.26-1.21c0.06-.24.5-1,0-1-0.82,0-1.63-.07-2.45-0.16a18.58,18.58,0,0,1-2.48-.38"/><path class="cls-4" d="M639.91,294.3l7.76-11.72,1.94-2.94c0.16-.24.32-0.49,0.49-0.73,0-.07.18-0.35,0.18-0.18s0,0.29,0,.44c0,0.58,0,1.17-.06,1.76q-0.13,3.51-.2,7-0.29,14,.15,28.1c0,1.17.07,2.34,0.12,3.51a15.12,15.12,0,0,1-1.32,3.21l-3,6.34-1.33,2.78c-0.07.16-.27,0.71-0.3,0.39s-0.08-.73-0.13-1.1l-0.26-2.06c-0.28-2.29-.57-4.6-0.88-6.89-1.22-9.29-2.32-18.59-3.1-27.93"/><path class="cls-4" d="M667.43,336.1c-0.38.4,0.1-.55,0.17-0.82,0.16-.65.33-1.29,0.5-1.94q1-3.88,2-7.76c0.34-1.29.67-2.58,1-3.88,0.16-.65.33-1.29,0.5-1.94a4.36,4.36,0,0,1,.55-1.92c3.35-4.16,6.62-8.37,9.84-12.63,1.61-2.12,3.19-4.27,4.77-6.42l0.59-.8,0.29-.4c0.1-.13.07-0.58,0.29-0.37l1.41,1.4,2.83,2.82a5.93,5.93,0,0,0,1.46,1.35l1.8,0.93,3.61,1.83a23.48,23.48,0,0,0,3.76,1.34l1.91,0.6c0.49,0.16.2,1.52,0.18,1.82-0.35,10.68-.43,21.36-0.29,32.05s0.52,21.34,1.08,32q0.22,4,.46,8c0.09,1.33.17,2.66,0.27,4,0,0.66.09,1.33,0.13,2a2.29,2.29,0,0,1-.94,1.67c-0.83,1-1.68,2.09-2.55,3.11l-1.31,1.54-0.33.38c-0.17.2-.09-0.24-0.1-0.38,0-.33-0.09-0.66-0.12-1-0.32-2.63-.62-5.28-0.91-7.93q-1.75-15.93-2.87-31.93c-0.18-2.66-.35-5.33-0.51-8q-0.11-2-.22-4a6.09,6.09,0,0,0-.21-2c-0.24-.62-0.47-1.24-0.72-1.87L690,322l-1.24-1.56c-0.37-.46-1.41.48-1.69,0.62L683.51,323l-7.07,3.76a10.82,10.82,0,0,0-2.87,2.76c-0.9,1-1.79,2-2.71,3s-1.82,2-2.73,2.91l-0.7.73"/><path class="cls-4" d="M711.72,420.32c-0.37,0-.09-0.37,0-0.57s0.09-.46.14-0.68c0.17-.93.35-1.85,0.52-2.77s0.35-1.87.54-2.8c0.08-.46.18-0.93,0.27-1.4,0-.23.08-0.46,0.13-0.69s0.23,0,.35,0l0.35,0a66.92,66.92,0,0,0,11.38-.41c-0.38,3.78-.74,7.57-1.1,11.35,0,0.4-.4.1-0.62,0.07l-0.73-.07-1.43-.21c-0.91-.13-1.82-0.32-2.73-0.5-1.85-.38-3.71-0.8-5.59-1.12l-1.45-.22"/><path class="cls-4" d="M744.5,370.77c-0.31-.06-0.06-0.3,0-0.48,0.45-1.57.9-3.15,1.34-4.72q5.14-18.31,9.24-36.89c0.34-1.55.68-3.1,1-4.65,0.12-.55.55-0.2,0.88-0.1l1.13,0.35a7.57,7.57,0,0,0,2.32.5h4.18c0.38,0,.1.37,0.1,0.57l0.07,5.38q0.18,10,.65,20c1.29,26,4.87,51.55,8.94,77.16a98.51,98.51,0,0,1,1.56,10.37q0.24,4.72.47,9.44c0,0.79.07,1.57,0.11,2.37,0,0.2,0,.39,0,0.58s0,0.2,0,.31v0l1.58,0.34c-0.12.54-.23,1.06-0.34,1.6-0.16.79-.32,1.6-0.49,2.39l-0.11.6c0,0.17-.19,0-0.28,0H776c-0.33,0-.16-0.32-0.2-0.5q-0.48-2.38-1-4.76-1-4.76-2.08-9.5c-2.85-12.65-6-25.23-8.62-37.93s-4.84-25.29-6.62-38.08a61.81,61.81,0,0,0-1.62-9.63l-0.18-.58c0-.07,0-0.33-0.1-0.19s-0.08.18-.13,0.27c-0.18.37-.37,0.73-0.54,1.1a12.62,12.62,0,0,0-.89,2.27q-0.66,2.34-1.35,4.68c-0.45,1.55-.91,3.11-1.39,4.67-0.23.77-.46,1.55-0.71,2.33-0.11.37,0,.83-0.6,0.9-0.4,0-.82.08-1.23,0.11a14.66,14.66,0,0,1-2.44-.06c-0.4,0-.8-0.08-1.21-0.16a4.88,4.88,0,0,1-.6-0.11"/><path class="cls-4" d="M776.55,451v0a2.05,2.05,0,0,1,0-.28c0-.39,0-0.79,0-1.18,0.09-1.57.16-3.15,0.23-4.72a88.77,88.77,0,0,1,.74-9.71c2-12.73,4.07-25.45,5.78-38.23,1.63-12.17,2.93-24.36,3.74-36.6,0.45-6.57.76-13.16,1-19.75,0.11-3.57.19-7.13,0.24-10.71,0-.94,0-1.87,0-2.79,0-.47,0-1,0-1.41v-0.71c0-.39.38-0.06,0.57-0.06a39.47,39.47,0,0,0,4.94-.16l2.34-.73,0.57-.18c0.32-.1.18,0.28,0.22,0.45l0.26,1.2c0.34,1.59.69,3.17,1,4.74q1.06,4.76,2.18,9.48,2.25,9.46,4.77,18.84,1.26,4.7,2.6,9.39c0.22,0.78.44,1.56,0.67,2.34,0.06,0.19.11,0.39,0.17,0.59s-0.19,0-.29.06l-0.3,0c-0.39.07-.79,0.14-1.2,0.17a16.1,16.1,0,0,1-2.41.09c-0.41,0-.83,0-1.23-0.1-0.2,0-.45.13-0.55-0.17s-0.11-.39-0.17-0.58c-1-3.09-1.88-6.17-2.77-9.28a27.1,27.1,0,0,0-1.5-4.59c-0.18-.37-0.37-0.73-0.54-1.1-0.1-.17-0.18-0.35-0.27-0.54s-0.14.34-.18,0.51c-0.24.77-.48,1.55-0.71,2.32-3.77,29.81-7.8,47.17-14.6,76.36-1.34,5.79-2.66,11.59-3.88,17.39Z"/><path class="cls-4" d="M827.74,411.15c0-.38.37-0.08,0.56-0.06l0.71,0.07,1.43,0.13c0.94,0.07,1.89.12,2.84,0.16,1.9,0.07,3.79.06,5.69,0l0.71,0c0.39,0,.21.35,0.24,0.57,0.08,0.46.18,0.93,0.27,1.39,0.18,0.94.35,1.87,0.54,2.81s0.35,1.84.54,2.77c0,0.23.09,0.46,0.13,0.7s0,0.22.06,0.34,0.28,0.3.06,0.34c-0.49.06-1,.13-1.46,0.22-3.74.61-7.4,1.66-11.22,2-0.35-3.78-.72-7.57-1.1-11.35"/><path class="cls-4" d="M846.49,387.6c0.1-1.33.18-2.66,0.27-4,0.17-2.66.34-5.32,0.49-8q0.9-16,1.17-32.05t-0.18-32c0-.66,0-1.33-0.06-2,0-.33,0-0.66,0-1,0-.16,0-0.33,0-0.49s-0.32-.4,0-0.5l3.81-1.2a49.22,49.22,0,0,0,7.29-3.45,12.32,12.32,0,0,0,2.91-2.7l2.83-2.82c0.33-.34.46,0.15,0.62,0.38l0.59,0.81,1.18,1.61,2.38,3.21q4.79,6.42,9.78,12.68c0.43,0.51.84,1,1.26,1.56a4.24,4.24,0,0,1,.65,1.87c0.34,1.29.67,2.59,1,3.88,0.67,2.58,1.33,5.17,2,7.76,0.34,1.29.67,2.59,1,3.88l0.26,1c0.12,0.45-.38-0.29-0.55-0.46l-1.37-1.46q-2.75-2.91-5.41-5.88a5.49,5.49,0,0,0-1.46-1.34l-1.77-.94L871.58,324l-7.07-3.77-1.24,1.57a5.87,5.87,0,0,0-.79,1.83c-0.49,1.24-1,2.49-1.45,3.74q-1.46,3.73-2.9,7.46c-0.49,1.24-1,2.5-1.45,3.74a12,12,0,0,0-.4,3.94c-0.15,2.66-.31,5.33-0.49,8q-1,16-2.77,31.93c-0.28,2.65-.57,5.31-0.89,8-0.07.66-.16,1.32-0.23,2,0,0.33-.09.66-0.12,1,0,0.17,0,.33-0.06.5s-0.16,0-.23,0q-1.32-1.52-2.6-3.07l-1.27-1.56a7.31,7.31,0,0,1-1.11-1.62"/><path class="cls-4" d="M902.75,61.19c-0.4-.49.61-0.18,0.93-0.21l2.45-.16,2.46-.17,0.61,0c0.2,0,.39-0.23.6,0l0.83,0.94c1.09,1.24,2.17,2.49,3.24,3.74,4.28,5,8.39,10.15,12.42,15.35,1,1.3,2,2.62,3,3.94A6,6,0,0,0,931,86.35l2.12,1.22c1.44,0.84,2.87,1.69,4.27,2.56,0.7,0.43,1.39.87,2.07,1.31l0.26,0.17c0.13,0.08-.13.07-0.21,0.08l-0.59.16c-0.39.1-.81,0.17-1.21,0.24-0.83.13-1.67,0.21-2.5,0.27l-1.22.06c-0.56,0-.23.52-0.16,0.85,0.35,1.61.7,3.21,1,4.82q1,4.83,2,9.66c0,0.17.35,0.6,0,.5l-0.56-.18-1.11-.37-2.27-.77c-1.56-.51-3.11-1-4.67-1.57q-4.76-1.63-9.5-3.29l-9.33-3.32-1.11-.4c-0.28-.11.24-0.18,0.38-0.24l0.56-.27,2.23-1c1.5-.72,3-1.45,4.48-2.21s3-1.49,4.41-2.26l2.18-1.15,1.07-.57c0.49-.26.23-0.63,0.16-1-0.16-.81-0.32-1.61-0.49-2.41A2.25,2.25,0,0,0,923.1,86l-0.77-1-3.06-3.87Q913,73.46,906.72,65.88q-1.57-1.88-3.17-3.76c-0.26-.32-0.52-0.63-0.79-0.94"/><path class="cls-4" d="M902.81,278.63l7.76,11.72,1.71,2.59,0.87,1.3a1.36,1.36,0,0,1,0,1c0,0.35-.06.71-0.1,1.06-0.21,2.41-.43,4.82-0.66,7.23-0.91,9.32-2.29,18.59-3.44,27.88,0,0.29.07,1.4-.18,0.87-0.13-.26-0.26-0.51-0.38-0.77-0.24-.52-0.49-1-0.74-1.55l-1.48-3.11c-1-2.06-2-4.13-3-6.2-0.56-1.18-.28-2.28-0.24-3.44s0.07-2.34.11-3.51q0.09-3.51.15-7,0.2-14-.35-28.1"/><path class="cls-4" d="M913.14,290.17q-2.14-6.51-4.37-13c7,5.87,14.29,11.43,21.81,16.68q5.64,3.93,11.43,7.61l1.45,0.92a3,3,0,0,1,1,1.32c0.55,1,1.09,2,1.63,3s1.07,2,1.62,3c0.27,0.5.54,1,.82,1.51,0,0.09.29,0.37,0.11,0.29l-0.42-.18-0.8-.34a244.64,244.64,0,0,1-24.7-12q-3-1.7-5.87-3.52c-0.49-.3-1-0.62-1.46-0.94a2.2,2.2,0,0,1-1.2-1.15c-0.35-1.08-.71-2.17-1.07-3.26"/><path class="cls-4" d="M915.6,114.28c-0.2-.16.24,0.07,0.37,0.11l3.06,1,6.12,1.91L937.39,121l3.06,0.93,0.77,0.23c0.26,0.08.57-.1,0.73,0.27s0.44,1,.65,1.46c0.87,2,1.72,3.9,2.57,5.85q2.56,5.87,5.07,11.76c6.34,5.7,12.73,11.33,18.61,17.54,0.76,0.79,1.49,1.58,2.21,2.4,0.34,0.39.68,0.78,1,1.18,0.11,0.13.41,0.4,0.12,0.41s-0.5,0-.74,0a23.15,23.15,0,0,1-6.38-1.29c-4.07-1.27-8-2.87-12-4.43-0.73-.29-0.55.57-0.66,1l-0.4,1.54-0.8,3.1-0.84,3.09c-0.13.51-.28,1-0.43,1.54-0.06.21-.21,0-0.3-0.07l-0.34-.12-0.67-.23q-6.13-2.16-12.16-4.56c-4-1.57-7.93-3.19-11.83-5-0.61-.27.49-0.46,0.82-0.61l1.48-.62,3-1.24,5.9-2.5,2.94-1.24,1.48-.62,0.74-.3a0.73,0.73,0,0,0,.28-0.72l1.68-6.17a1,1,0,0,0-.26-0.74c-0.1-.24-0.21-0.49-0.32-0.73-0.21-.49-0.42-1-0.63-1.46-0.42-1-.84-2-1.27-2.94s-0.84-2-1.27-2.94a5.89,5.89,0,0,0-1.56-2.7q-10-8-19.89-16.1c-0.41-.33-0.82-0.67-1.22-1-0.21-.17-0.4-0.34-0.61-0.5l-0.3-.26"/><path class="cls-4" d="M931.66,194c-0.07-.08.11,0,0.16,0l0.54,0.15c5.6,1.52,32.33,10.38,38.05,11.57,5.78,11.94,11,24.09,16,36.39,0.26,0.65.53,1.29,0.78,1.94,0.06,0.17.12,0.33,0.19,0.49s-0.19-.06-0.29-0.11l-0.83-.52c-1.45-.91-2.87-1.87-4.29-2.83-3-2-5.89-4-8.84-6.09-2.69-1.87-5.42-3.72-8.15-5.54q-2.08-1.41-4.21-2.78a16.24,16.24,0,0,1-4-2.94L944,208.55l-6.45-7.63q-1.63-1.9-3.23-3.82l-1.62-1.9-0.8-1-0.2-.24"/><path class="cls-4" d="M942.4,253.43c-0.1-.38.3,0.23,0.44,0.38,0.77,0.8,1.52,1.62,2.29,2.44l4.59,4.87c0.76,0.8,1.52,1.62,2.29,2.43a13.13,13.13,0,0,1,.76,3.28c0.35,2.18.68,4.37,1,6.54,0.65,4.41,1.23,8.83,1.8,13.26s1.12,8.84,1.73,13.27c0.16,1.09.32,2.17,0.48,3.27,0,0.27-.16-0.22-0.24-0.33l-0.24-.34-0.49-.68-1-1.37L951.94,295q-2.65-13.12-5.72-26.14-1.54-6.51-3.2-13c-0.13-.54-0.28-1.07-0.42-1.61-0.07-.27-0.13-0.54-0.21-0.81"/><path class="cls-4" d="M952.06,237.86c0-.07-0.34-0.29-0.16-0.23l0.27,0.1,1.08,0.39,2.18,0.74a181.15,181.15,0,0,0,17.67,5c1.49,0.35,3,.67,4.5,1,0.91,0.18,1.13.94,1.63,1.51l1.5,1.74,1.5,1.73c0.24,0.28.49,0.57,0.74,0.85l0.38,0.44c0.18,0.22-.28,0-0.43,0-1.54-.13-3.06-0.22-4.6-0.26-6.12-.15-12.22,0-18.33-1.12q-2.53-3.84-5.07-7.67l-2.56-3.82-0.32-.48"/></g></g></g><path class="cls-7" d="M211.48,479h1.76v12.28h-1.76V486h-6.9v5.34h-1.76V479h1.76v5.31h6.9V479Z"/><path class="cls-7" d="M219.6,483.21a4.22,4.22,0,0,1,3.07,1.19,4,4,0,0,1,1.22,3,3.8,3.8,0,0,1-1.24,2.9,4.39,4.39,0,0,1-3.12,1.16,4.21,4.21,0,0,1-3-1.17,4.14,4.14,0,0,1,0-5.89A4.31,4.31,0,0,1,219.6,483.21Zm-0.09,1.44a2.53,2.53,0,0,0-1.89.76,2.64,2.64,0,0,0-.74,1.92,2.52,2.52,0,0,0,.76,1.89,2.67,2.67,0,0,0,1.94.73,2.63,2.63,0,0,0,1.93-.74,2.75,2.75,0,0,0,0-3.81A2.72,2.72,0,0,0,219.51,484.65Z"/><path class="cls-7" d="M227.37,483.23v1.85l0.09-.14q1.16-1.87,2.32-1.87a2.86,2.86,0,0,1,1.89.91l-0.84,1.41a2.37,2.37,0,0,0-1.55-.79,1.66,1.66,0,0,0-1.34.74,2.79,2.79,0,0,0-.57,1.75v4.23h-1.61v-8.09h1.61Z"/><path class="cls-7" d="M248.59,488.46v1.93a9.18,9.18,0,0,1-4.46,1.05,6.88,6.88,0,0,1-3.49-.83,6.08,6.08,0,0,1-2.27-2.28,6.18,6.18,0,0,1-.83-3.14,6,6,0,0,1,1.91-4.51,6.56,6.56,0,0,1,4.72-1.83,11.06,11.06,0,0,1,4.3,1v1.89a8.46,8.46,0,0,0-4.21-1.23,4.87,4.87,0,0,0-3.5,1.33,4.42,4.42,0,0,0-1.39,3.34,4.38,4.38,0,0,0,1.37,3.32,4.89,4.89,0,0,0,3.51,1.3A8,8,0,0,0,248.59,488.46Z"/><path class="cls-7" d="M255.68,491.31v-1a3.73,3.73,0,0,1-1.16.87,3,3,0,0,1-1.31.31,2.71,2.71,0,0,1-1.41-.38,2.47,2.47,0,0,1-1-1,5.19,5.19,0,0,1-.33-2.17v-4.63h1.6v4.61a3.17,3.17,0,0,0,.36,1.78,1.47,1.47,0,0,0,1.28.5,2.34,2.34,0,0,0,1.94-1.12v-5.77h1.6v8.09h-1.6Z"/><path class="cls-7" d="M258.4,484.51l3-3v1.67H264v1.44h-2.56v4a1.13,1.13,0,0,0,1.15,1.39,3.57,3.57,0,0,0,1.82-.57v1.49a4,4,0,0,1-2,.52,2.67,2.67,0,0,1-1.83-.64,1.83,1.83,0,0,1-.38-0.43,2.31,2.31,0,0,1-.25-0.63,7.11,7.11,0,0,1-.1-1.49v-3.59H258.4v-0.16Z"/><path class="cls-7" d="M758.47,479h1.75L755,491.37h-0.4L749.34,479h1.77l3.69,8.62Z"/><path class="cls-7" d="M766.43,487.41h-5.69a2.64,2.64,0,0,0,.78,1.85,2.57,2.57,0,0,0,1.85.69,4.81,4.81,0,0,0,2.92-1v1.56a5.34,5.34,0,0,1-1.46.7,6.11,6.11,0,0,1-1.7.21,3.82,3.82,0,0,1-2.16-.55,4,4,0,0,1-1.32-1.49,4.56,4.56,0,0,1-.5-2.17,4.3,4.3,0,0,1,1-3,3.49,3.49,0,0,1,2.72-1.16,3.2,3.2,0,0,1,2.57,1.13,4.49,4.49,0,0,1,1,3v0.2Zm-5.65-1h4.07a2.23,2.23,0,0,0-.57-1.48,1.84,1.84,0,0,0-1.37-.52,2,2,0,0,0-1.41.52A2.57,2.57,0,0,0,760.78,486.45Z"/><path class="cls-7" d="M769.88,483.23v1.85l0.09-.14q1.16-1.87,2.32-1.87a2.86,2.86,0,0,1,1.89.91l-0.84,1.41a2.37,2.37,0,0,0-1.55-.79,1.66,1.66,0,0,0-1.34.74,2.79,2.79,0,0,0-.57,1.75v4.23h-1.61v-8.09h1.61Z"/><path class="cls-7" d="M791.1,488.46v1.93a9.18,9.18,0,0,1-4.46,1.05,6.88,6.88,0,0,1-3.49-.83,6.08,6.08,0,0,1-2.27-2.28,6.18,6.18,0,0,1-.83-3.14A6,6,0,0,1,782,480.7a6.56,6.56,0,0,1,4.72-1.83,11.06,11.06,0,0,1,4.3,1v1.89a8.46,8.46,0,0,0-4.21-1.23,4.87,4.87,0,0,0-3.5,1.33,4.42,4.42,0,0,0-1.39,3.34,4.38,4.38,0,0,0,1.37,3.32,4.89,4.89,0,0,0,3.51,1.3A8,8,0,0,0,791.1,488.46Z"/><path class="cls-7" d="M798.19,491.31v-1a3.74,3.74,0,0,1-1.17.87,3,3,0,0,1-1.3.31,2.71,2.71,0,0,1-1.41-.38,2.47,2.47,0,0,1-1-1,5.19,5.19,0,0,1-.33-2.17v-4.63h1.6v4.61a3.17,3.17,0,0,0,.36,1.78,1.47,1.47,0,0,0,1.28.5,2.34,2.34,0,0,0,1.94-1.12v-5.77h1.6v8.09h-1.6Z"/><path class="cls-7" d="M800.9,484.51l3-3v1.67h2.56v1.44h-2.56v4a1.13,1.13,0,0,0,1.15,1.39,3.57,3.57,0,0,0,1.82-.57v1.49a4,4,0,0,1-2,.52,2.67,2.67,0,0,1-1.83-.64,1.83,1.83,0,0,1-.38-0.43,2.31,2.31,0,0,1-.25-0.63,7.12,7.12,0,0,1-.1-1.49v-3.59H800.9v-0.16Z"/></svg>