<svg id="Layer_1" data-name="Layer 1" xmlns="http://www.w3.org/2000/svg" xmlns:xlink="http://www.w3.org/1999/xlink" viewBox="0 0 916.93 607.26"><defs><style>.cls-1,.cls-4,.cls-5,.cls-6,.cls-7{fill:none;}.cls-2{clip-path:url(#clip-path);}.cls-3{fill:#fff;}.cls-4,.cls-5,.cls-6,.cls-7{stroke:#010101;stroke-linecap:round;stroke-linejoin:round;}.cls-4{stroke-width:0.5px;}.cls-5{stroke-width:0.25px;}.cls-6{stroke-width:0.1px;}.cls-7{stroke-width:0.75px;}.cls-8{fill:#231f20;}</style><clipPath id="clip-path"><rect class="cls-1" x="-541.86" y="-38.9" width="1478.79" height="956.86"/></clipPath></defs><title>ex_11</title><g class="cls-2"><path class="cls-3" d="M276,573.56a0.2,0.2,0,0,1-.18.06"/></g><polygon class="cls-4" points="192.93 55.3 195.96 60.69 207.45 58.38 204.37 53.02 192.93 55.3"/><polygon class="cls-4" points="164.06 49.18 166.98 54.52 178.45 52.24 175.49 46.91 164.06 49.18"/><polygon class="cls-4" points="180.97 34.15 183.92 39.39 195.26 37.15 192.27 31.94 180.97 34.15"/><polygon class="cls-4" points="209.62 40.16 212.69 45.43 224.03 43.18 220.92 37.92 209.62 40.16"/><polygon class="cls-4" points="186.9 44.66 189.91 49.96 201.31 47.69 198.28 42.4 186.9 44.66"/><polygon class="cls-5" points="188.11 35.64 171.25 50.71 200.18 56.84 216.81 41.66 188.11 35.64"/><polygon class="cls-5" points="278.24 36.16 261.8 51.45 291.19 57.68 307.39 42.27 278.24 36.16"/><polygon class="cls-4" points="300.08 40.73 303.37 46.09 314.71 43.8 311.39 38.46 300.08 40.73"/><polygon class="cls-4" points="270.99 34.64 274.17 39.95 285.5 37.68 282.3 32.39 270.99 34.64"/><polygon class="cls-4" points="254.5 49.89 257.65 55.32 269.13 53 265.94 47.6 254.5 49.89"/><polygon class="cls-4" points="283.82 56.12 287.09 61.59 298.57 59.26 295.27 53.8 283.82 56.12"/><line class="cls-4" x1="277.36" y1="45.3" x2="288.74" y2="43.02"/><line class="cls-4" x1="291.99" y1="48.39" x2="288.74" y2="43.02"/><polygon class="cls-5" points="281.71 65.2 265.46 80.64 294.58 86.93 310.61 71.37 281.71 65.2"/><line class="cls-5" x1="273.62" y1="72.87" x2="288.1" y2="75.99"/><line class="cls-5" x1="288.1" y1="75.99" x2="279.99" y2="83.79"/><polygon class="cls-4" points="280.85 74.42 284.05 79.87 295.36 77.55 292.12 72.11 280.85 74.42"/><line class="cls-4" x1="291.99" y1="48.39" x2="280.57" y2="50.68"/><line class="cls-4" x1="277.36" y1="45.3" x2="280.57" y2="50.68"/><polygon class="cls-4" points="279.11 59.94 282.32 65.35 293.68 63.04 290.44 57.64 279.11 59.94"/><line class="cls-5" x1="288.1" y1="75.99" x2="284.66" y2="46.85"/><line class="cls-4" x1="114.63" y1="44.55" x2="126" y2="42.32"/><line class="cls-4" x1="128.86" y1="47.55" x2="126" y2="42.32"/><line class="cls-4" x1="128.86" y1="47.55" x2="117.46" y2="49.79"/><line class="cls-4" x1="114.63" y1="44.55" x2="117.46" y2="49.79"/><line class="cls-5" x1="121.74" y1="46.04" x2="113.15" y2="53.54"/><line class="cls-5" x1="107.54" y1="43.05" x2="121.74" y2="46.04"/><polygon class="cls-5" points="116.09 35.65 98.89 50.52 127.47 56.58 144.44 41.6 116.09 35.65"/><polyline class="cls-4" points="704.16 55.23 709.22 61.49 720.97 58.81 715.88 52.58"/><line class="cls-4" x1="682.47" y1="45.49" x2="670.75" y2="48.11"/><polyline class="cls-4" points="670.75 48.11 675.66 54.31 687.42 51.66"/><polyline class="cls-4" points="700.82 34.16 695.87 28.12 684.31 30.69"/><line class="cls-4" x1="684.31" y1="30.69" x2="689.21" y2="36.75"/><polyline class="cls-4" points="722.45 43.76 734.06 41.15 728.96 35.05 717.4 37.64"/><line class="cls-6" x1="702.42" y1="75.22" x2="712.9" y2="61.15"/><line class="cls-6" x1="669.58" y1="68.13" x2="702.42" y2="75.22"/><line class="cls-6" x1="702.42" y1="75.22" x2="689.08" y2="93.14"/><polygon class="cls-6" points="718.96 78.78 708.98 66.42 685.96 71.67 695.79 84.13 718.96 78.78"/><line class="cls-6" x1="702.42" y1="75.22" x2="735.57" y2="82.37"/><line class="cls-6" x1="680.11" y1="54.43" x2="655.92" y2="85.89"/><line class="cls-7" x1="682.5" y1="51.33" x2="680.87" y2="53.47"/><polyline class="cls-6" points="655.92 85.89 722.54 100.45 748.29 64.7 715.85 57.79"/><line class="cls-7" x1="704.15" y1="55.88" x2="705.76" y2="55.6"/><polyline class="cls-7" points="699.13 56.74 694.17 50.56 705.78 47.95"/><line class="cls-7" x1="710.79" y1="54.1" x2="704.16" y2="55.6"/><line class="cls-7" x1="705.78" y1="47.95" x2="710.52" y2="53.78"/><line class="cls-6" x1="702.46" y1="55.74" x2="702.48" y2="44.62"/><polygon class="cls-5" points="679.07 49.88 712.56 57.02 725.72 39.39 692.56 32.43 679.07 49.88"/><line class="cls-7" x1="715.88" y1="52.58" x2="715.82" y2="60.3"/><line class="cls-7" x1="715.82" y1="60.3" x2="712.53" y2="60.89"/><line class="cls-7" x1="712.53" y1="60.89" x2="704.14" y2="62.96"/><line class="cls-7" x1="699.12" y1="64.42" x2="710.76" y2="61.77"/><line class="cls-7" x1="710.76" y1="61.77" x2="715.82" y2="60.3"/><line class="cls-7" x1="699.12" y1="64.42" x2="704.14" y2="62.96"/><line class="cls-7" x1="699.13" y1="56.74" x2="704.16" y2="55.23"/><line class="cls-7" x1="715.88" y1="52.58" x2="704.16" y2="55.23"/><line class="cls-7" x1="710.79" y1="54.1" x2="715.88" y2="52.58"/><line class="cls-7" x1="722.45" y1="43.76" x2="722.4" y2="51.46"/><line class="cls-4" x1="710.76" y1="61.34" x2="710.79" y2="54.1"/><line class="cls-7" x1="705.76" y1="55.37" x2="705.76" y2="55.6"/><line class="cls-7" x1="722.4" y1="51.46" x2="725.69" y2="43.25"/><line class="cls-7" x1="725.69" y1="43.25" x2="722.45" y2="44.05"/><line class="cls-7" x1="705.76" y1="55.6" x2="706.31" y2="55.11"/><line class="cls-7" x1="715.85" y1="57.26" x2="722.4" y2="51.46"/><line class="cls-4" x1="702.68" y1="55.67" x2="705.78" y2="47.95"/><line class="cls-7" x1="705.78" y1="47.95" x2="717.4" y2="37.64"/><line class="cls-7" x1="722.45" y1="43.76" x2="717.4" y2="37.64"/><line class="cls-7" x1="711.34" y1="53.6" x2="722.45" y2="43.76"/><line class="cls-7" x1="705.67" y1="55.38" x2="704.16" y2="55.76"/><line class="cls-7" x1="682.47" y1="45.49" x2="682.51" y2="53.19"/><line class="cls-7" x1="687.44" y1="59.39" x2="687.42" y2="51.66"/><line class="cls-7" x1="699.13" y1="56.74" x2="699.12" y2="64.42"/><line class="cls-7" x1="679.1" y1="53.75" x2="687.44" y2="59.39"/><line class="cls-7" x1="699.12" y1="64.42" x2="687.44" y2="59.39"/><line class="cls-7" x1="687.43" y1="55.32" x2="682.51" y2="53.19"/><line class="cls-7" x1="682.51" y1="53.19" x2="679.1" y2="53.75"/><line class="cls-7" x1="699.13" y1="56.74" x2="687.42" y2="51.66"/><line class="cls-7" x1="682.47" y1="45.49" x2="687.42" y2="51.66"/><line class="cls-7" x1="694.17" y1="50.56" x2="682.47" y2="45.49"/><line class="cls-7" x1="689.21" y1="36.75" x2="689.24" y2="44.44"/><line class="cls-7" x1="705.76" y1="55.6" x2="705.76" y2="55.24"/><line class="cls-7" x1="690.93" y1="49.16" x2="689.24" y2="44.44"/><line class="cls-7" x1="705.78" y1="47.95" x2="700.82" y2="34.16"/><line class="cls-7" x1="689.21" y1="36.75" x2="700.82" y2="34.16"/><line class="cls-7" x1="694.17" y1="50.56" x2="689.21" y2="36.75"/><line class="cls-4" x1="701.99" y1="55.88" x2="694.16" y2="50.56"/><line class="cls-7" x1="578.12" y1="55.5" x2="578.67" y2="55.62"/><line class="cls-6" x1="554.77" y1="59.36" x2="532.24" y2="86.11"/><polyline class="cls-6" points="532.24 86.11 597.06 100.27 624.64 65.49 597.93 59.81"/><line class="cls-6" x1="578.76" y1="75.73" x2="611" y2="82.69"/><polyline class="cls-6" points="573.84 69.81 562.73 72.27 571.67 84.4 594.84 79.21"/><line class="cls-6" x1="594.84" y1="79.21" x2="588.73" y2="71.12"/><line class="cls-6" x1="578.76" y1="75.73" x2="564.51" y2="93.16"/><line class="cls-6" x1="546.77" y1="68.83" x2="578.76" y2="75.73"/><line class="cls-6" x1="578.76" y1="75.73" x2="582.14" y2="71.59"/><line class="cls-7" x1="590.36" y1="53.12" x2="590.29" y2="53.14"/><line class="cls-7" x1="587.43" y1="72.73" x2="555" y2="65.75"/><line class="cls-7" x1="587.01" y1="57.4" x2="554.43" y2="50.47"/><line class="cls-7" x1="601.44" y1="55.5" x2="587.43" y2="72.73"/><line class="cls-7" x1="587.01" y1="57.4" x2="587.43" y2="72.73"/><line class="cls-7" x1="601.09" y1="40.26" x2="587.01" y2="57.4"/><line class="cls-7" x1="601.29" y1="49.03" x2="601.43" y2="55.5"/><line class="cls-7" x1="601.09" y1="40.26" x2="601.17" y2="43.73"/><line class="cls-7" x1="568.82" y1="33.48" x2="601.09" y2="40.25"/><line class="cls-7" x1="554.66" y1="56.41" x2="555" y2="65.75"/><line class="cls-7" x1="554.43" y1="50.47" x2="554.57" y2="53.94"/><line class="cls-7" x1="554.43" y1="50.47" x2="568.82" y2="33.48"/><line class="cls-5" x1="546.33" y1="48.74" x2="558.06" y2="46.18"/><line class="cls-7" x1="562.55" y1="52.19" x2="550.78" y2="54.77"/><line class="cls-5" x1="558.06" y1="46.18" x2="562.55" y2="52.19"/><line class="cls-5" x1="554.51" y1="52.2" x2="546.33" y2="48.74"/><line class="cls-5" x1="550.78" y1="54.77" x2="546.33" y2="48.74"/><line class="cls-5" x1="560.7" y1="58.96" x2="550.78" y2="54.77"/><line class="cls-5" x1="595.2" y1="59.15" x2="590.56" y2="53.08"/><line class="cls-5" x1="590.56" y1="53.07" x2="578.84" y2="55.65"/><line class="cls-5" x1="583.44" y1="61.75" x2="595.2" y2="59.15"/><line class="cls-5" x1="574.75" y1="64.92" x2="583.44" y2="61.75"/><line class="cls-5" x1="578.84" y1="55.65" x2="583.44" y2="61.75"/><line class="cls-5" x1="609.22" y1="41.96" x2="597.6" y2="44.51"/><line class="cls-5" x1="593" y1="38.56" x2="604.57" y2="36.03"/><line class="cls-5" x1="597.6" y1="44.51" x2="593" y2="38.56"/><line class="cls-5" x1="595.46" y1="54.24" x2="609.22" y2="41.96"/><line class="cls-5" x1="604.57" y1="36.03" x2="609.22" y2="41.96"/><line class="cls-5" x1="600.07" y1="40.05" x2="604.57" y2="36.03"/><line class="cls-5" x1="565.26" y1="37.69" x2="576.86" y2="35.17"/><line class="cls-5" x1="560.79" y1="31.79" x2="565.26" y2="37.69"/><line class="cls-5" x1="576.86" y1="35.17" x2="572.36" y2="29.3"/><line class="cls-5" x1="563.55" y1="39.7" x2="560.79" y2="31.79"/><line class="cls-5" x1="572.36" y1="29.3" x2="560.79" y2="31.79"/><line class="cls-5" x1="574.23" y1="34.62" x2="572.36" y2="29.3"/><line class="cls-6" x1="451.66" y1="57.93" x2="426.35" y2="85.81"/><polyline class="cls-6" points="426.35 85.81 489.64 99.67 518.83 65.67 487.51 58.99"/><line class="cls-7" x1="468.27" y1="64.72" x2="467.88" y2="58.16"/><line class="cls-6" x1="472.9" y1="75.68" x2="504.4" y2="82.48"/><line class="cls-6" x1="472.9" y1="75.68" x2="457.86" y2="92.71"/><line class="cls-6" x1="441.67" y1="68.93" x2="472.9" y2="75.68"/><line class="cls-6" x1="472.9" y1="75.68" x2="487.6" y2="59.03"/><line class="cls-7" x1="471.71" y1="55.52" x2="471.7" y2="55.52"/><line class="cls-7" x1="471.55" y1="55.56" x2="471.72" y2="55.8"/><line class="cls-7" x1="468.58" y1="64.79" x2="468.48" y2="64.81"/><line class="cls-6" x1="471.73" y1="55.52" x2="471.16" y2="45.48"/><polygon class="cls-6" points="465.06 73.98 469.17 79.9 480.75 77.38 476.6 71.48 465.06 73.98"/><polyline class="cls-6" points="464.71 63.96 449.71 80.73 481.2 87.57 495.94 70.65 468.58 64.79"/><polyline class="cls-5" points="471.71 55.59 479.52 57.25 494.43 40.5 462.91 33.88"/><polyline class="cls-5" points="462.91 33.88 447.73 50.47 471.55 55.56"/><line class="cls-4" x1="439.82" y1="48.79" x2="451.56" y2="46.29"/><line class="cls-4" x1="455.65" y1="52.16" x2="443.88" y2="54.68"/><line class="cls-4" x1="467.84" y1="57.28" x2="455.64" y2="52.16"/><line class="cls-4" x1="451.56" y1="46.29" x2="455.65" y2="52.16"/><line class="cls-4" x1="463.7" y1="51.4" x2="451.56" y2="46.29"/><line class="cls-4" x1="450.52" y1="53.26" x2="439.82" y2="48.79"/><line class="cls-4" x1="443.88" y1="54.68" x2="439.82" y2="48.79"/><line class="cls-4" x1="468.28" y1="64.85" x2="443.88" y2="54.68"/><line class="cls-4" x1="487.52" y1="58.96" x2="483.28" y2="53.03"/><line class="cls-4" x1="483.28" y1="53.03" x2="471.55" y2="55.56"/><line class="cls-4" x1="479.92" y1="62.34" x2="487.52" y2="58.96"/><line class="cls-4" x1="475.75" y1="61.5" x2="487.52" y2="58.96"/><line class="cls-4" x1="468.28" y1="64.85" x2="479.92" y2="62.34"/><line class="cls-4" x1="468.28" y1="64.85" x2="475.75" y2="61.5"/><line class="cls-4" x1="471.55" y1="55.56" x2="475.75" y2="61.5"/><line class="cls-7" x1="467.84" y1="57.28" x2="471.55" y2="55.56"/><line class="cls-4" x1="468.28" y1="64.85" x2="467.84" y2="57.28"/><line class="cls-4" x1="502.35" y1="42.17" x2="490.74" y2="44.65"/><line class="cls-4" x1="486.52" y1="38.84" x2="498.11" y2="36.38"/><line class="cls-4" x1="472.5" y1="55.35" x2="475.34" y2="48.92"/><line class="cls-4" x1="475.34" y1="48.92" x2="486.52" y2="38.84"/><line class="cls-7" x1="490.74" y1="44.65" x2="486.52" y2="38.84"/><line class="cls-4" x1="480.83" y1="53.55" x2="490.74" y2="44.65"/><line class="cls-4" x1="486.02" y1="56.85" x2="502.35" y2="42.17"/><line class="cls-4" x1="498.1" y1="36.38" x2="502.35" y2="42.17"/><line class="cls-4" x1="490.01" y1="43.65" x2="498.1" y2="36.38"/><line class="cls-4" x1="459.14" y1="37.99" x2="470.76" y2="35.53"/><line class="cls-4" x1="470.53" y1="56.02" x2="463.7" y2="51.4"/><line class="cls-4" x1="463.7" y1="51.4" x2="459.14" y2="37.99"/><line class="cls-4" x1="455.07" y1="32.22" x2="459.14" y2="37.99"/><line class="cls-4" x1="470.76" y1="35.53" x2="466.65" y2="29.78"/><line class="cls-4" x1="475.34" y1="48.92" x2="470.76" y2="35.53"/><line class="cls-4" x1="461.24" y1="50.36" x2="455.07" y2="32.22"/><line class="cls-4" x1="466.65" y1="29.78" x2="455.07" y2="32.22"/><line class="cls-4" x1="468.76" y1="35.95" x2="466.65" y2="29.78"/><polygon class="cls-5" points="366.15 35.5 350.95 51.2 381.12 57.59 396.07 41.77 366.15 35.5"/><polygon class="cls-4" points="388.56 40.2 392.37 45.7 403.6 43.35 399.77 37.86 388.56 40.2"/><polygon class="cls-4" points="358.72 33.95 362.39 39.4 373.61 37.07 369.91 31.64 358.72 33.95"/><polygon class="cls-4" points="343.45 49.6 347.1 55.17 358.47 52.78 354.78 47.25 343.45 49.6"/><line class="cls-4" x1="366.08" y1="44.88" x2="377.34" y2="42.53"/><line class="cls-4" x1="381.1" y1="48.05" x2="377.34" y2="42.53"/><polygon class="cls-5" points="368.46 64.51 353.43 80.36 383.32 86.82 398.12 70.84 368.46 64.51"/><line class="cls-5" x1="360.99" y1="72.39" x2="375.84" y2="75.58"/><line class="cls-5" x1="375.84" y1="75.59" x2="368.34" y2="83.58"/><polygon class="cls-4" points="368.41 73.99 372.11 79.57 383.3 77.19 379.56 71.61 368.41 73.99"/><line class="cls-4" x1="381.1" y1="48.05" x2="369.8" y2="50.41"/><line class="cls-4" x1="366.08" y1="44.88" x2="369.8" y2="50.41"/><line class="cls-4" x1="388.7" y1="59.21" x2="377.33" y2="61.61"/><line class="cls-4" x1="382.2" y1="62.69" x2="388.7" y2="59.2"/><line class="cls-4" x1="370.96" y1="65.06" x2="382.2" y2="62.69"/><line class="cls-4" x1="384.88" y1="53.62" x2="388.7" y2="59.21"/><line class="cls-4" x1="378.45" y1="57.15" x2="384.88" y2="53.61"/><line class="cls-4" x1="380.96" y1="60.84" x2="378.45" y2="57.15"/><line class="cls-4" x1="373.56" y1="55.98" x2="384.88" y2="53.62"/><line class="cls-4" x1="367.24" y1="59.5" x2="373.56" y2="55.98"/><line class="cls-4" x1="378.45" y1="57.15" x2="374.84" y2="57.9"/><line class="cls-4" x1="367.24" y1="59.5" x2="370.96" y2="65.06"/><line class="cls-4" x1="377.33" y1="61.61" x2="373.56" y2="55.99"/><line class="cls-4" x1="370.96" y1="65.06" x2="377.33" y2="61.61"/><polygon class="cls-6" points="258.9 264.98 247.38 249.66 226.22 256.16 237.59 271.6 258.9 264.98"/><line class="cls-6" x1="242.52" y1="260.56" x2="275.34" y2="269.42"/><line class="cls-6" x1="238.73" y1="257.01" x2="234.35" y2="258.36"/><polyline class="cls-6" points="247.27 258.19 244.95 255.09 240.66 256.42"/><polyline class="cls-6" points="234.36 258.36 240.06 266.07 250.69 262.76 248.31 259.58"/><line class="cls-6" x1="242.52" y1="260.56" x2="232.62" y2="282.76"/><line class="cls-6" x1="209.99" y1="251.79" x2="242.52" y2="260.56"/><g class="cls-2"><path class="cls-6" d="M237.82,262.88c2.1,1.95,4.09,2.16,6.55,1.77"/><path class="cls-6" d="M246.3,264c4-2,1.16-6.65-2.45-7.45s-9.73-1-7.07,4.88"/><line class="cls-7" x1="241.34" y1="248.08" x2="247.79" y2="246.73"/><line class="cls-7" x1="241.98" y1="239.01" x2="248.45" y2="237.6"/><line class="cls-7" x1="252.69" y1="235.75" x2="259.22" y2="234.31"/><line class="cls-7" x1="259" y1="237.22" x2="263.36" y2="232.49"/><line class="cls-4" x1="244.13" y1="238.1" x2="246.89" y2="228.12"/><line class="cls-7" x1="246.89" y1="228.12" x2="258.21" y2="215.8"/><line class="cls-7" x1="252.69" y1="235.75" x2="264.06" y2="223.39"/><line class="cls-7" x1="252.69" y1="235.75" x2="246.47" y2="237.46"/><line class="cls-4" x1="241.98" y1="239.01" x2="241.34" y2="248.08"/><line class="cls-7" x1="241.34" y1="248.08" x2="231.23" y2="242.3"/><line class="cls-7" x1="244.09" y1="238.09" x2="241.98" y2="239.01"/><line class="cls-7" x1="241.98" y1="239.01" x2="231.85" y2="233.18"/><line class="cls-7" x1="236.22" y1="231.36" x2="226.1" y2="225.51"/><line class="cls-7" x1="232.1" y1="228.98" x2="230.51" y2="223.77"/><line class="cls-7" x1="246.89" y1="228.12" x2="241.79" y2="211.49"/><line class="cls-7" x1="236.22" y1="231.36" x2="231.11" y2="214.7"/><line class="cls-4" x1="244.09" y1="238.09" x2="236.22" y2="231.36"/><line class="cls-7" x1="258.21" y1="215.8" x2="264.06" y2="223.39"/><line class="cls-7" x1="231.85" y1="233.18" x2="226.1" y2="225.51"/><line class="cls-7" x1="248.45" y1="237.6" x2="259.22" y2="234.31"/><line class="cls-7" x1="231.23" y1="242.3" x2="231.85" y2="233.18"/><line class="cls-7" x1="223.28" y1="235.54" x2="231.23" y2="242.3"/><line class="cls-7" x1="231.85" y1="233.18" x2="223.57" y2="230.98"/><line class="cls-7" x1="247.79" y1="246.73" x2="256.44" y2="244.39"/><line class="cls-7" x1="248.45" y1="237.6" x2="247.79" y2="246.73"/><line class="cls-7" x1="256.78" y1="239.82" x2="248.45" y2="237.6"/><line class="cls-7" x1="223.57" y1="230.98" x2="226.1" y2="225.51"/><line class="cls-7" x1="223.28" y1="235.54" x2="223.57" y2="230.98"/><line class="cls-7" x1="259.22" y1="234.31" x2="256.78" y2="239.82"/><line class="cls-7" x1="258.54" y1="243.42" x2="259.22" y2="234.31"/><line class="cls-7" x1="256.44" y1="244.39" x2="258.54" y2="243.42"/><line class="cls-7" x1="256.78" y1="239.82" x2="256.44" y2="244.39"/><line class="cls-7" x1="266.46" y1="217.97" x2="264.06" y2="223.39"/><line class="cls-7" x1="263.36" y1="232.49" x2="266.11" y2="222.52"/><line class="cls-7" x1="264.06" y1="223.39" x2="263.36" y2="232.49"/><line class="cls-7" x1="258.21" y1="215.8" x2="266.46" y2="217.97"/><line class="cls-7" x1="266.46" y1="217.97" x2="266.11" y2="222.52"/><line class="cls-7" x1="230.51" y1="223.77" x2="231.11" y2="214.7"/><line class="cls-7" x1="233.6" y1="209.34" x2="231.11" y2="214.7"/><line class="cls-7" x1="241.79" y1="211.49" x2="233.6" y2="209.34"/><line class="cls-7" x1="231.11" y1="214.7" x2="241.79" y2="211.49"/><line class="cls-6" x1="849.92" y1="53.27" x2="850.4" y2="40.14"/><line class="cls-6" x1="826.96" y1="47.32" x2="802.63" y2="87.38"/><polyline class="cls-6" points="802.63 87.38 871.54 104.38 895.04 62.69 864.42 55.34"/><line class="cls-6" x1="849.15" y1="74.95" x2="883.42" y2="83.29"/><polygon class="cls-6" points="866.25 79.11 855.16 64.68 832.14 70.81 843.07 85.33 866.25 79.11"/><line class="cls-6" x1="849.15" y1="74.95" x2="836.92" y2="95.84"/><line class="cls-6" x1="815.2" y1="66.68" x2="849.15" y2="74.95"/><line class="cls-6" x1="849.15" y1="74.95" x2="857.95" y2="59.91"/><line class="cls-5" x1="865.05" y1="32" x2="847.9" y2="27.93"/><line class="cls-7" x1="864.66" y1="49.4" x2="870.67" y2="39.12"/><line class="cls-5" x1="835.62" y1="48.33" x2="852.92" y2="52.5"/><line class="cls-5" x1="836.29" y1="30.95" x2="830.1" y2="41.13"/><line class="cls-4" x1="836.29" y1="30.95" x2="839.36" y2="25.9"/><line class="cls-4" x1="839.36" y1="25.9" x2="847.9" y2="27.93"/><line class="cls-7" x1="873.47" y1="38.42" x2="873.65" y2="34.04"/><line class="cls-7" x1="861.45" y1="58.96" x2="861.63" y2="54.59"/><line class="cls-7" x1="826.98" y1="46.27" x2="826.86" y2="50.67"/><line class="cls-7" x1="861.63" y1="54.59" x2="852.94" y2="52.5"/><line class="cls-7" x1="864.66" y1="49.4" x2="861.63" y2="54.59"/><line class="cls-7" x1="826.98" y1="46.27" x2="835.62" y2="48.33"/><line class="cls-7" x1="830.1" y1="41.13" x2="826.98" y2="46.27"/><line class="cls-4" x1="873.65" y1="34.04" x2="865.05" y2="32"/><line class="cls-7" x1="870.67" y1="39.12" x2="873.65" y2="34.04"/><line class="cls-7" x1="836.29" y1="30.95" x2="836.01" y2="39.7"/><line class="cls-7" x1="837.73" y1="44.95" x2="836.01" y2="39.7"/><line class="cls-7" x1="853.11" y1="43.78" x2="847.9" y2="27.93"/><line class="cls-7" x1="836.29" y1="30.95" x2="847.9" y2="27.93"/><line class="cls-7" x1="841.5" y1="46.85" x2="836.29" y2="30.95"/><line class="cls-4" x1="849.9" y1="53.27" x2="841.5" y2="46.85"/><line class="cls-4" x1="835.33" y1="57.13" x2="835.62" y2="48.33"/><line class="cls-7" x1="826.86" y1="50.67" x2="835.33" y2="57.13"/><line class="cls-7" x1="846.72" y1="62.79" x2="835.33" y2="57.13"/><line class="cls-7" x1="847.03" y1="54.05" x2="835.62" y2="48.33"/><line class="cls-7" x1="830.1" y1="41.13" x2="835.62" y2="48.33"/><line class="cls-7" x1="841.5" y1="46.85" x2="830.1" y2="41.13"/><line class="cls-7" x1="870.67" y1="39.12" x2="870.3" y2="47.9"/><line class="cls-7" x1="870.3" y1="47.9" x2="873.47" y2="38.42"/><line class="cls-7" x1="864.49" y1="53.64" x2="870.3" y2="47.9"/><line class="cls-4" x1="849.95" y1="53.27" x2="853.11" y2="43.78"/><line class="cls-7" x1="853.11" y1="43.78" x2="865.05" y2="32"/><line class="cls-7" x1="870.67" y1="39.12" x2="865.05" y2="32"/><line class="cls-7" x1="858.69" y1="50.96" x2="870.67" y2="39.12"/><line class="cls-7" x1="864.66" y1="49.4" x2="864.31" y2="58.21"/><line class="cls-7" x1="864.31" y1="58.21" x2="861.45" y2="58.99"/><line class="cls-7" x1="861.45" y1="58.99" x2="852.61" y2="61.3"/><line class="cls-7" x1="852.61" y1="61.3" x2="852.94" y2="52.5"/><line class="cls-4" x1="846.72" y1="62.79" x2="847.03" y2="54.05"/><line class="cls-7" x1="846.72" y1="62.79" x2="852.61" y2="61.3"/><line class="cls-7" x1="847.03" y1="54.05" x2="852.81" y2="52.53"/><line class="cls-7" x1="864.66" y1="49.4" x2="852.94" y2="52.5"/><path class="cls-7" d="M380.33,258.91c-0.13-1.1-.29-2.17-0.46-3.25"/><path class="cls-7" d="M385.43,258.14c-0.34.59-.69,1.18-1,1.8"/><path class="cls-7" d="M380.33,258.91a1.44,1.44,0,0,0,.38.81"/><path class="cls-7" d="M383.66,260.54a1.24,1.24,0,0,0,.77-0.6"/><polyline class="cls-6" points="378.87 249.87 365.81 254.49 379.66 270.73 399.13 263.76"/><line class="cls-6" x1="399.13" y1="263.76" x2="389.02" y2="252.07"/><line class="cls-6" x1="384.51" y1="259.69" x2="415.91" y2="268.44"/><polyline class="cls-6" points="368.75 231.04 355.1 227.29 343.3 273.02"/><polyline class="cls-6" points="343.3 273.02 410.71 292.04 420.99 245.4 402.96 240.45"/><line class="cls-6" x1="379.71" y1="254.81" x2="374.11" y2="256.79"/><polyline class="cls-6" points="374.11 256.79 381.04 264.9 390.77 261.43 386.45 256.42"/><line class="cls-6" x1="382.09" y1="260.55" x2="376.84" y2="282.49"/><line class="cls-6" x1="349.27" y1="249.88" x2="380.35" y2="258.54"/><line class="cls-7" x1="379.86" y1="255.66" x2="377.75" y2="243.31"/><line class="cls-5" x1="382.09" y1="260.55" x2="384.05" y2="247.38"/><path class="cls-7" d="M380.71,259.72a2.66,2.66,0,0,0,1.38.83"/><path class="cls-7" d="M382.09,260.55a2.48,2.48,0,0,0,1.57,0"/><line class="cls-7" x1="385.43" y1="258.14" x2="392.19" y2="246.71"/><line class="cls-7" x1="384.05" y1="247.38" x2="392.64" y2="246.67"/><line class="cls-7" x1="385.57" y1="238.54" x2="394.2" y2="237.77"/><line class="cls-7" x1="395.37" y1="235.09" x2="404.05" y2="234.3"/><line class="cls-7" x1="402.57" y1="234.44" x2="405.13" y2="231.65"/><line class="cls-4" x1="386.21" y1="237.23" x2="388.33" y2="227.06"/><line class="cls-7" x1="388.33" y1="227.06" x2="399.6" y2="214.81"/><line class="cls-7" x1="395.37" y1="235.09" x2="406.7" y2="222.79"/><line class="cls-4" x1="395.37" y1="235.09" x2="386.21" y2="236.89"/><line class="cls-4" x1="385.57" y1="238.54" x2="384.05" y2="247.38"/><line class="cls-7" x1="384.05" y1="247.38" x2="375.74" y2="242"/><line class="cls-7" x1="386.19" y1="237.23" x2="385.57" y2="238.54"/><line class="cls-7" x1="385.57" y1="238.54" x2="377.24" y2="233.12"/><line class="cls-7" x1="378.56" y1="230.49" x2="370.23" y2="225.04"/><line class="cls-7" x1="373.03" y1="226.87" x2="371.61" y2="222.49"/><line class="cls-7" x1="388.33" y1="227.06" x2="382.84" y2="210.26"/><line class="cls-7" x1="378.56" y1="230.49" x2="373.08" y2="213.64"/><line class="cls-4" x1="386.17" y1="237.22" x2="378.56" y2="230.49"/><line class="cls-7" x1="399.6" y1="214.81" x2="406.7" y2="222.79"/><line class="cls-7" x1="377.24" y1="233.12" x2="370.23" y2="225.04"/><line class="cls-7" x1="394.2" y1="237.77" x2="404.05" y2="234.3"/><line class="cls-7" x1="375.74" y1="242" x2="377.24" y2="233.12"/><line class="cls-7" x1="368.05" y1="235.24" x2="375.74" y2="242"/><line class="cls-7" x1="377.24" y1="233.12" x2="368.79" y2="230.79"/><line class="cls-7" x1="392.64" y1="246.67" x2="401.92" y2="244.57"/><line class="cls-7" x1="394.2" y1="237.77" x2="392.64" y2="246.67"/><line class="cls-7" x1="402.71" y1="240.11" x2="394.2" y2="237.77"/><line class="cls-7" x1="368.79" y1="230.79" x2="370.23" y2="225.04"/><line class="cls-7" x1="368.05" y1="235.24" x2="368.79" y2="230.79"/><line class="cls-7" x1="404.05" y1="234.3" x2="402.71" y2="240.11"/><line class="cls-7" x1="402.47" y1="243.2" x2="404.05" y2="234.3"/><line class="cls-7" x1="401.92" y1="244.57" x2="402.47" y2="243.2"/><line class="cls-7" x1="402.71" y1="240.11" x2="401.92" y2="244.57"/><line class="cls-7" x1="408.02" y1="217.09" x2="406.7" y2="222.79"/><line class="cls-7" x1="405.13" y1="231.65" x2="407.22" y2="221.53"/><line class="cls-7" x1="406.7" y1="222.79" x2="405.13" y2="231.65"/><line class="cls-7" x1="399.6" y1="214.81" x2="408.02" y2="217.09"/><line class="cls-7" x1="408.02" y1="217.09" x2="407.22" y2="221.52"/><line class="cls-7" x1="371.61" y1="222.49" x2="373.08" y2="213.64"/><line class="cls-7" x1="374.49" y1="208" x2="373.08" y2="213.64"/><line class="cls-7" x1="382.84" y1="210.26" x2="374.49" y2="208"/><line class="cls-7" x1="373.08" y1="213.64" x2="382.84" y2="210.26"/><line class="cls-5" x1="383.66" y1="260.54" x2="388.46" y2="247.01"/><line class="cls-5" x1="380.71" y1="259.72" x2="380.57" y2="245.13"/><line class="cls-6" x1="122.77" y1="239.32" x2="123.22" y2="226.98"/><line class="cls-6" x1="101.2" y1="233.72" x2="78.35" y2="271.35"/><polyline class="cls-6" points="78.35 271.35 143.07 287.32 165.14 248.16 136.38 241.26"/><line class="cls-6" x1="122.05" y1="259.68" x2="154.23" y2="267.51"/><polygon class="cls-6" points="138.1 263.58 127.69 250.03 106.07 255.79 116.34 269.42 138.1 263.58"/><line class="cls-6" x1="122.05" y1="259.68" x2="110.56" y2="279.29"/><line class="cls-6" x1="90.15" y1="251.91" x2="122.05" y2="259.68"/><line class="cls-6" x1="122.05" y1="259.68" x2="130.31" y2="245.55"/><line class="cls-5" x1="136.98" y1="219.33" x2="120.87" y2="215.52"/><line class="cls-7" x1="136.61" y1="235.68" x2="142.26" y2="226.03"/><line class="cls-5" x1="109.33" y1="234.68" x2="125.59" y2="238.59"/><line class="cls-5" x1="109.97" y1="218.35" x2="104.15" y2="227.91"/><line class="cls-4" x1="109.97" y1="218.35" x2="112.85" y2="213.61"/><line class="cls-4" x1="112.85" y1="213.61" x2="120.87" y2="215.52"/><line class="cls-7" x1="144.88" y1="225.36" x2="145.05" y2="221.25"/><line class="cls-7" x1="133.6" y1="244.66" x2="133.76" y2="240.55"/><line class="cls-7" x1="101.22" y1="232.74" x2="101.11" y2="236.87"/><line class="cls-7" x1="133.76" y1="240.55" x2="125.6" y2="238.59"/><line class="cls-7" x1="136.61" y1="235.68" x2="133.76" y2="240.55"/><line class="cls-7" x1="101.22" y1="232.74" x2="109.33" y2="234.67"/><line class="cls-7" x1="104.15" y1="227.91" x2="101.22" y2="232.74"/><line class="cls-4" x1="145.05" y1="221.25" x2="136.98" y2="219.33"/><line class="cls-7" x1="142.26" y1="226.03" x2="145.05" y2="221.25"/><line class="cls-7" x1="109.97" y1="218.35" x2="109.7" y2="226.57"/><line class="cls-7" x1="111.32" y1="231.5" x2="109.7" y2="226.57"/><line class="cls-7" x1="125.77" y1="230.4" x2="120.87" y2="215.52"/><line class="cls-7" x1="109.97" y1="218.35" x2="120.87" y2="215.52"/><line class="cls-7" x1="114.86" y1="233.28" x2="109.97" y2="218.35"/><line class="cls-4" x1="122.74" y1="239.32" x2="114.86" y2="233.28"/><line class="cls-4" x1="109.07" y1="242.94" x2="109.33" y2="234.68"/><line class="cls-7" x1="101.11" y1="236.87" x2="109.07" y2="242.94"/><line class="cls-7" x1="119.76" y1="248.25" x2="109.07" y2="242.94"/><line class="cls-7" x1="120.05" y1="240.04" x2="109.33" y2="234.68"/><line class="cls-7" x1="104.15" y1="227.91" x2="109.33" y2="234.68"/><line class="cls-7" x1="114.86" y1="233.28" x2="104.15" y2="227.91"/><line class="cls-7" x1="142.26" y1="226.03" x2="141.91" y2="234.27"/><line class="cls-7" x1="141.91" y1="234.27" x2="144.88" y2="225.36"/><line class="cls-7" x1="136.45" y1="239.66" x2="141.91" y2="234.27"/><line class="cls-4" x1="122.79" y1="239.32" x2="125.77" y2="230.4"/><line class="cls-7" x1="125.77" y1="230.4" x2="136.98" y2="219.33"/><line class="cls-7" x1="142.26" y1="226.03" x2="136.98" y2="219.33"/><line class="cls-7" x1="131.01" y1="237.15" x2="142.26" y2="226.03"/><line class="cls-7" x1="136.61" y1="235.68" x2="136.28" y2="243.95"/><line class="cls-7" x1="136.28" y1="243.95" x2="133.6" y2="244.68"/><line class="cls-7" x1="133.6" y1="244.68" x2="125.3" y2="246.86"/><line class="cls-7" x1="125.3" y1="246.86" x2="125.6" y2="238.59"/><line class="cls-4" x1="119.76" y1="248.25" x2="120.05" y2="240.04"/><line class="cls-7" x1="119.76" y1="248.25" x2="125.3" y2="246.86"/><line class="cls-7" x1="120.05" y1="240.04" x2="125.48" y2="238.62"/><line class="cls-7" x1="136.61" y1="235.68" x2="125.6" y2="238.59"/><line class="cls-6" x1="123.57" y1="447.34" x2="124.03" y2="434.62"/><line class="cls-6" x1="101.35" y1="441.57" x2="77.81" y2="480.34"/><polyline class="cls-6" points="77.81 480.34 144.48 496.78 167.22 456.44 137.59 449.33"/><line class="cls-6" x1="122.82" y1="468.31" x2="155.98" y2="476.38"/><polygon class="cls-6" points="139.36 472.33 128.64 458.37 106.36 464.31 116.94 478.35 139.36 472.33"/><line class="cls-6" x1="122.82" y1="468.31" x2="110.99" y2="488.52"/><line class="cls-6" x1="89.97" y1="460.31" x2="122.82" y2="468.31"/><line class="cls-6" x1="122.82" y1="468.31" x2="131.34" y2="453.76"/><line class="cls-5" x1="138.2" y1="426.75" x2="121.61" y2="422.82"/><line class="cls-7" x1="137.82" y1="443.59" x2="143.65" y2="433.65"/><line class="cls-5" x1="109.73" y1="442.55" x2="126.47" y2="446.59"/><line class="cls-5" x1="110.38" y1="425.74" x2="104.39" y2="435.59"/><line class="cls-4" x1="110.38" y1="425.74" x2="113.35" y2="420.85"/><line class="cls-4" x1="113.35" y1="420.85" x2="121.61" y2="422.82"/><line class="cls-7" x1="146.35" y1="432.96" x2="146.53" y2="428.73"/><line class="cls-7" x1="134.73" y1="452.84" x2="134.89" y2="448.6"/><line class="cls-7" x1="101.37" y1="440.56" x2="101.25" y2="444.81"/><line class="cls-7" x1="134.89" y1="448.6" x2="126.49" y2="446.59"/><line class="cls-7" x1="137.82" y1="443.59" x2="134.89" y2="448.6"/><line class="cls-7" x1="101.37" y1="440.56" x2="109.73" y2="442.55"/><line class="cls-7" x1="104.39" y1="435.59" x2="101.37" y2="440.56"/><line class="cls-4" x1="146.53" y1="428.73" x2="138.2" y2="426.75"/><line class="cls-7" x1="143.64" y1="433.65" x2="146.53" y2="428.73"/><line class="cls-7" x1="110.38" y1="425.74" x2="110.11" y2="434.2"/><line class="cls-7" x1="111.77" y1="439.28" x2="110.11" y2="434.2"/><line class="cls-7" x1="126.65" y1="438.15" x2="121.61" y2="422.82"/><line class="cls-7" x1="110.38" y1="425.74" x2="121.61" y2="422.82"/><line class="cls-7" x1="115.42" y1="441.12" x2="110.38" y2="425.74"/><line class="cls-4" x1="123.54" y1="447.34" x2="115.42" y2="441.12"/><line class="cls-4" x1="109.45" y1="451.07" x2="109.73" y2="442.55"/><line class="cls-7" x1="101.25" y1="444.81" x2="109.45" y2="451.07"/><line class="cls-7" x1="120.47" y1="456.54" x2="109.45" y2="451.07"/><line class="cls-7" x1="120.77" y1="448.08" x2="109.73" y2="442.55"/><line class="cls-7" x1="104.39" y1="435.59" x2="109.73" y2="442.55"/><line class="cls-7" x1="115.42" y1="441.12" x2="104.39" y2="435.59"/><line class="cls-7" x1="143.64" y1="433.65" x2="143.29" y2="442.14"/><line class="cls-7" x1="143.29" y1="442.14" x2="146.35" y2="432.96"/><line class="cls-7" x1="137.67" y1="447.69" x2="143.29" y2="442.14"/><line class="cls-4" x1="123.59" y1="447.34" x2="126.65" y2="438.15"/><line class="cls-7" x1="126.65" y1="438.15" x2="138.21" y2="426.75"/><line class="cls-7" x1="143.64" y1="433.65" x2="138.21" y2="426.75"/><line class="cls-7" x1="132.05" y1="445.1" x2="143.65" y2="433.65"/><line class="cls-7" x1="137.82" y1="443.59" x2="137.49" y2="452.11"/><line class="cls-7" x1="137.49" y1="452.11" x2="134.73" y2="452.86"/><line class="cls-7" x1="134.73" y1="452.86" x2="126.17" y2="455.1"/><line class="cls-7" x1="126.17" y1="455.1" x2="126.49" y2="446.59"/><line class="cls-4" x1="120.47" y1="456.54" x2="120.77" y2="448.08"/><line class="cls-7" x1="120.47" y1="456.54" x2="126.17" y2="455.1"/><line class="cls-7" x1="120.77" y1="448.08" x2="126.36" y2="446.62"/><line class="cls-7" x1="137.82" y1="443.59" x2="126.49" y2="446.59"/><line class="cls-6" x1="258.51" y1="462.5" x2="277.04" y2="441.85"/><line class="cls-6" x1="219.91" y1="456.06" x2="255.65" y2="465.65"/><polygon class="cls-6" points="246.87 463.09 250.44 471.5 264.83 467.9 261.19 459.52 246.87 463.09"/><line class="cls-6" x1="260.33" y1="466.7" x2="291.94" y2="475.18"/><line class="cls-6" x1="255.83" y1="465.49" x2="258.51" y2="462.5"/><line class="cls-6" x1="255.83" y1="465.49" x2="234.06" y2="489.77"/><line class="cls-6" x1="260.33" y1="466.7" x2="255.83" y2="465.49"/><polygon class="cls-6" points="253.93 467.6 259 466.34 257.72 463.38 252.66 464.64 253.93 467.6"/><line class="cls-7" x1="237.78" y1="422.15" x2="243.23" y2="416.29"/><line class="cls-7" x1="243.23" y1="416.29" x2="252.22" y2="418.64"/><line class="cls-7" x1="279.63" y1="430.76" x2="279" y2="426.64"/><line class="cls-7" x1="258.41" y1="453.81" x2="257.74" y2="449.67"/><line class="cls-7" x1="221.23" y1="439.97" x2="221.96" y2="444.1"/><line class="cls-7" x1="257.74" y1="449.67" x2="248.57" y2="447.24"/><line class="cls-7" x1="263.19" y1="443.62" x2="257.74" y2="449.67"/><line class="cls-7" x1="221.23" y1="439.97" x2="230.32" y2="442.39"/><line class="cls-7" x1="226.79" y1="433.99" x2="221.23" y2="439.97"/><line class="cls-7" x1="279.36" y1="425.74" x2="270.29" y2="423.36"/><line class="cls-7" x1="274.01" y1="431.66" x2="279.37" y2="425.74"/><line class="cls-7" x1="237.78" y1="422.15" x2="239.18" y2="430.38"/><line class="cls-7" x1="241.56" y1="438.33" x2="239.18" y2="430.38"/><line class="cls-7" x1="257.19" y1="435.12" x2="252.22" y2="418.64"/><line class="cls-7" x1="237.78" y1="422.15" x2="252.22" y2="418.64"/><line class="cls-7" x1="242.73" y1="438.67" x2="237.78" y2="422.15"/><line class="cls-4" x1="252.42" y1="445.17" x2="242.73" y2="438.67"/><line class="cls-7" x1="231.76" y1="450.63" x2="230.32" y2="442.39"/><line class="cls-7" x1="221.96" y1="444.1" x2="231.76" y2="450.64"/><line class="cls-7" x1="247.7" y1="455.24" x2="231.76" y2="450.64"/><line class="cls-7" x1="246.33" y1="447.04" x2="230.32" y2="442.39"/><line class="cls-7" x1="226.79" y1="433.99" x2="230.32" y2="442.39"/><line class="cls-7" x1="242.73" y1="438.67" x2="226.79" y2="433.99"/><line class="cls-7" x1="274.01" y1="431.66" x2="275.31" y2="439.89"/><line class="cls-7" x1="275.31" y1="439.9" x2="280" y2="429.85"/><line class="cls-7" x1="264.2" y1="449.84" x2="275.31" y2="439.9"/><line class="cls-4" x1="252.47" y1="445.17" x2="257.19" y2="435.12"/><line class="cls-7" x1="257.19" y1="435.12" x2="270.29" y2="423.36"/><line class="cls-7" x1="274.01" y1="431.66" x2="270.29" y2="423.36"/><line class="cls-7" x1="260.84" y1="443.46" x2="274.01" y2="431.66"/><line class="cls-4" x1="260.84" y1="443.46" x2="252.47" y2="445.19"/><line class="cls-7" x1="263.19" y1="443.62" x2="264.53" y2="451.87"/><line class="cls-7" x1="264.53" y1="451.87" x2="258.41" y2="453.81"/><line class="cls-7" x1="258.41" y1="453.81" x2="249.95" y2="455.5"/><line class="cls-7" x1="249.95" y1="455.5" x2="248.57" y2="447.24"/><line class="cls-4" x1="247.7" y1="455.24" x2="246.33" y2="447.04"/><line class="cls-7" x1="247.7" y1="455.24" x2="249.95" y2="455.5"/><line class="cls-4" x1="246.33" y1="447.04" x2="252.47" y2="445.17"/><line class="cls-7" x1="246.33" y1="447.04" x2="248.58" y2="447.24"/><line class="cls-4" x1="263.19" y1="443.62" x2="248.58" y2="447.24"/><line class="cls-4" x1="260.84" y1="443.46" x2="263.19" y2="443.62"/><line class="cls-6" x1="389.55" y1="462.78" x2="408" y2="440.74"/><line class="cls-6" x1="350.49" y1="455.76" x2="386.88" y2="465.98"/><polygon class="cls-6" points="377.74 463.42 381.51 472.4 396.05 468.55 392.22 459.6 377.74 463.42"/><line class="cls-6" x1="391.46" y1="465.47" x2="423.7" y2="474.51"/><line class="cls-6" x1="386.88" y1="465.98" x2="389.55" y2="462.78"/><line class="cls-6" x1="386.88" y1="465.98" x2="365.18" y2="491.91"/><line class="cls-6" x1="391.46" y1="467.27" x2="386.88" y2="465.98"/><polygon class="cls-4" points="384.99 468.25 390.12 466.89 388.77 463.72 383.65 465.06 384.99 468.25"/><polygon class="cls-4" points="384.58 465.7 389.72 464.35 388.38 461.19 383.24 462.53 384.58 465.7"/><line class="cls-5" x1="368.74" y1="422.54" x2="374.17" y2="416.28"/><line class="cls-5" x1="374.17" y1="416.28" x2="383.34" y2="418.79"/><line class="cls-5" x1="411.61" y1="428.61" x2="411" y2="424.56"/><line class="cls-5" x1="390.11" y1="456.02" x2="389.46" y2="451.96"/><line class="cls-5" x1="352.23" y1="441.59" x2="352.94" y2="445.63"/><line class="cls-5" x1="389.46" y1="451.95" x2="380.12" y2="449.35"/><line class="cls-5" x1="394.9" y1="445.5" x2="389.46" y2="451.95"/><line class="cls-5" x1="352.23" y1="441.59" x2="361.51" y2="444.17"/><line class="cls-5" x1="357.77" y1="435.19" x2="352.23" y2="441.59"/><line class="cls-5" x1="411" y1="426.36" x2="401.75" y2="423.83"/><line class="cls-5" x1="405.68" y1="432.7" x2="411" y2="426.36"/><line class="cls-5" x1="368.74" y1="422.54" x2="370.07" y2="430.61"/><line class="cls-5" x1="372.64" y1="439.15" x2="370.07" y2="430.61"/><line class="cls-5" x1="388.44" y1="435.67" x2="383.34" y2="418.79"/><line class="cls-5" x1="368.74" y1="422.54" x2="383.34" y2="418.79"/><line class="cls-5" x1="373.81" y1="439.47" x2="368.74" y2="422.54"/><line class="cls-5" x1="383.65" y1="446.06" x2="373.81" y2="439.47"/><line class="cls-5" x1="405.68" y1="432.7" x2="406.89" y2="440.78"/><line class="cls-5" x1="406.89" y1="440.78" x2="411.61" y2="430.41"/><line class="cls-5" x1="395.72" y1="450.7" x2="406.89" y2="440.78"/><line class="cls-5" x1="383.7" y1="446.05" x2="388.44" y2="435.67"/><line class="cls-5" x1="388.44" y1="435.67" x2="401.75" y2="423.83"/><line class="cls-5" x1="405.68" y1="432.7" x2="401.75" y2="423.83"/><line class="cls-5" x1="392.28" y1="444.59" x2="405.68" y2="432.7"/><line class="cls-5" x1="387.98" y1="445.32" x2="383.69" y2="446.07"/><line class="cls-5" x1="362.87" y1="452.26" x2="361.51" y2="444.17"/><line class="cls-5" x1="352.93" y1="445.63" x2="362.87" y2="452.26"/><line class="cls-5" x1="378.92" y1="456.46" x2="362.87" y2="452.26"/><line class="cls-5" x1="377.61" y1="448.42" x2="361.51" y2="444.17"/><line class="cls-5" x1="357.77" y1="435.19" x2="361.51" y2="444.17"/><line class="cls-5" x1="373.81" y1="439.47" x2="357.77" y2="435.19"/><line class="cls-5" x1="394.9" y1="445.5" x2="396.17" y2="453.59"/><line class="cls-5" x1="396.17" y1="453.59" x2="390.11" y2="456.02"/><line class="cls-5" x1="390.11" y1="456.02" x2="381.43" y2="457.46"/><line class="cls-5" x1="381.43" y1="457.46" x2="380.12" y2="449.35"/><line class="cls-6" x1="378.92" y1="456.46" x2="377.61" y2="448.42"/><line class="cls-5" x1="378.92" y1="456.46" x2="381.43" y2="457.46"/><line class="cls-5" x1="377.61" y1="448.42" x2="383.68" y2="446.05"/><line class="cls-5" x1="377.61" y1="448.42" x2="380.12" y2="449.35"/><line class="cls-5" x1="394.9" y1="445.5" x2="380.12" y2="449.35"/><line class="cls-5" x1="392.28" y1="444.59" x2="394.9" y2="445.5"/><line class="cls-5" x1="387.98" y1="445.32" x2="392.28" y2="444.59"/><line class="cls-5" x1="511.27" y1="456.84" x2="510.23" y2="448.58"/><line class="cls-4" x1="507.91" y1="455.6" x2="511.01" y2="454.76"/><line class="cls-5" x1="526.04" y1="451.15" x2="531.99" y2="443.49"/><line class="cls-4" x1="518.26" y1="463.49" x2="526.24" y2="452.8"/><line class="cls-6" x1="512.97" y1="464.51" x2="515.2" y2="465.14"/><line class="cls-6" x1="477.19" y1="454.47" x2="512.77" y2="464.45"/><line class="cls-6" x1="512.04" y1="460.74" x2="505.65" y2="462.46"/><polyline class="cls-6" points="505.65 462.46 510 471.84 524.76 467.83 520.36 458.49 512.31 460.66"/><line class="cls-6" x1="519.97" y1="466.48" x2="553.63" y2="475.93"/><line class="cls-6" x1="515.2" y1="465.14" x2="517.77" y2="461.81"/><line class="cls-6" x1="515.2" y1="465.14" x2="494.19" y2="492.22"/><line class="cls-6" x1="519.97" y1="466.48" x2="515.2" y2="465.14"/><polyline class="cls-6" points="512.67 463.96 511.82 464.19 513.36 467.5"/><polyline class="cls-5" points="513.36 467.5 518.58 466.09 517.02 462.78 512.86 463.91"/><polyline class="cls-6" points="512.16 461.42 511.5 461.61 512.72 464.25"/><polyline class="cls-5" points="513.03 464.91 518.25 463.49 516.7 460.2 512.42 461.35"/><line class="cls-5" x1="497.09" y1="420.57" x2="502.35" y2="414.04"/><line class="cls-5" x1="502.35" y1="414.04" x2="511.92" y2="416.66"/><line class="cls-5" x1="541.28" y1="428.69" x2="540.81" y2="424.58"/><line class="cls-5" x1="526.24" y1="452.8" x2="525.25" y2="444.55"/><line class="cls-5" x1="520.49" y1="455.43" x2="526.24" y2="452.8"/><line class="cls-5" x1="520.49" y1="455.43" x2="519.98" y2="451.29"/><line class="cls-5" x1="511.27" y1="456.84" x2="520.49" y2="455.43"/><line class="cls-5" x1="481.1" y1="440.46" x2="481.67" y2="444.6"/><line class="cls-5" x1="510.23" y1="448.58" x2="525.25" y2="444.55"/><line class="cls-5" x1="519.98" y1="451.29" x2="510.23" y2="448.58"/><line class="cls-5" x1="525.25" y1="444.55" x2="519.98" y2="451.29"/><line class="cls-5" x1="481.1" y1="440.46" x2="490.77" y2="443.16"/><line class="cls-5" x1="486.47" y1="433.79" x2="481.1" y2="440.46"/><line class="cls-5" x1="540.81" y1="424.58" x2="531.15" y2="421.93"/><line class="cls-5" x1="535.66" y1="431.18" x2="540.81" y2="424.58"/><line class="cls-5" x1="497.09" y1="420.57" x2="498.16" y2="428.81"/><line class="cls-5" x1="500.9" y1="437.63" x2="498.16" y2="428.81"/><line class="cls-5" x1="517.34" y1="434.1" x2="511.92" y2="416.66"/><line class="cls-5" x1="497.09" y1="420.57" x2="511.92" y2="416.66"/><line class="cls-5" x1="502.5" y1="438.05" x2="497.09" y2="420.57"/><line class="cls-5" x1="512.6" y1="444.83" x2="502.5" y2="438.05"/><line class="cls-5" x1="535.66" y1="431.18" x2="536.62" y2="439.42"/><line class="cls-4" x1="522.02" y1="445.41" x2="521.77" y2="443.41"/><line class="cls-5" x1="536.62" y1="439.42" x2="541.28" y2="428.69"/><line class="cls-5" x1="525.78" y1="448.95" x2="536.62" y2="439.42"/><line class="cls-5" x1="512.65" y1="444.83" x2="517.34" y2="434.1"/><line class="cls-5" x1="517.34" y1="434.1" x2="531.15" y2="421.93"/><line class="cls-5" x1="535.66" y1="431.18" x2="531.15" y2="421.93"/><line class="cls-5" x1="521.77" y1="443.41" x2="535.66" y2="431.18"/><line class="cls-4" x1="521.77" y1="443.41" x2="512.65" y2="444.85"/><line class="cls-5" x1="491.88" y1="451.41" x2="490.77" y2="443.16"/><line class="cls-4" x1="506.86" y1="447.41" x2="507.91" y2="455.6"/><line class="cls-5" x1="481.67" y1="444.6" x2="491.88" y2="451.41"/><line class="cls-5" x1="507.91" y1="455.6" x2="491.88" y2="451.41"/><line class="cls-4" x1="512.64" y1="444.82" x2="506.86" y2="447.41"/><line class="cls-5" x1="506.86" y1="447.41" x2="490.77" y2="443.16"/><line class="cls-5" x1="486.47" y1="433.79" x2="490.77" y2="443.16"/><line class="cls-5" x1="502.5" y1="438.05" x2="486.47" y2="433.79"/><line class="cls-6" x1="513.03" y1="464.91" x2="513.36" y2="467.51"/><line class="cls-6" x1="511.63" y1="456.79" x2="513.03" y2="464.91"/><line class="cls-4" x1="513.36" y1="467.51" x2="511.27" y2="456.84"/><polyline class="cls-6" points="624.98 462.85 629.32 471.37 642.35 467.73 639.52 462.26"/><line class="cls-5" x1="636.3" y1="463.41" x2="639.36" y2="457.27"/><line class="cls-5" x1="631.46" y1="464.68" x2="631.9" y2="464.8"/><line class="cls-6" x1="599.1" y1="455.58" x2="626.97" y2="463.41"/><line class="cls-5" x1="631.69" y1="460.98" x2="630.14" y2="461.42"/><line class="cls-5" x1="635.33" y1="459.97" x2="631.87" y2="460.93"/><line class="cls-6" x1="638" y1="466.51" x2="668.6" y2="475.1"/><line class="cls-6" x1="633.66" y1="465.29" x2="616.12" y2="489.92"/><line class="cls-6" x1="638" y1="466.51" x2="633.66" y2="465.29"/><line class="cls-5" x1="631.86" y1="464.07" x2="631.09" y2="464.28"/><polyline class="cls-4" points="632.12 467.43 636.72 466.15 635.18 463.14 632 464.04"/><polyline class="cls-4" points="631.73 461.75 630.38 462.13 631.92 465.15"/><polyline class="cls-4" points="632.04 465.11 636.53 463.86 634.98 460.86 631.9 461.71"/><line class="cls-5" x1="617.98" y1="425.52" x2="631.08" y2="421.95"/><line class="cls-5" x1="617.98" y1="425.52" x2="622.37" y2="419.57"/><line class="cls-5" x1="622.37" y1="419.57" x2="631.09" y2="421.95"/><line class="cls-5" x1="657.63" y1="432.8" x2="657.36" y2="429.16"/><line class="cls-5" x1="653.64" y1="442.47" x2="657.63" y2="432.81"/><line class="cls-5" x1="640.34" y1="457.13" x2="645" y2="454.64"/><line class="cls-5" x1="640.33" y1="457.13" x2="640.01" y2="453.46"/><line class="cls-5" x1="631.78" y1="458.31" x2="640.33" y2="457.13"/><line class="cls-5" x1="604.99" y1="447.27" x2="614.14" y2="453.37"/><line class="cls-5" x1="604.64" y1="443.61" x2="604.99" y2="447.27"/><line class="cls-5" x1="631.13" y1="450.99" x2="644.39" y2="447.32"/><line class="cls-5" x1="640.01" y1="453.46" x2="631.13" y2="450.99"/><line class="cls-5" x1="644.39" y1="447.32" x2="640.01" y2="453.46"/><line class="cls-5" x1="613.44" y1="446.06" x2="609.11" y2="437.53"/><line class="cls-5" x1="604.64" y1="443.61" x2="613.44" y2="446.06"/><line class="cls-5" x1="609.11" y1="437.53" x2="604.64" y2="443.61"/><line class="cls-5" x1="648.57" y1="426.74" x2="653.06" y2="435.17"/><line class="cls-5" x1="657.36" y1="429.16" x2="648.56" y2="426.74"/><line class="cls-5" x1="653.06" y1="435.17" x2="657.36" y2="429.16"/><line class="cls-5" x1="631.13" y1="450.99" x2="631.92" y2="465.15"/><line class="cls-5" x1="631.78" y1="458.31" x2="631.13" y2="450.99"/><line class="cls-5" x1="632.12" y1="467.43" x2="631.78" y2="458.31"/><line class="cls-5" x1="614.14" y1="453.37" x2="613.44" y2="446.06"/><line class="cls-5" x1="632.12" y1="467.43" x2="614.14" y2="453.37"/><line class="cls-5" x1="631.92" y1="465.15" x2="632.12" y2="467.43"/><line class="cls-5" x1="613.44" y1="446.06" x2="631.92" y2="465.15"/><line class="cls-5" x1="645" y1="454.62" x2="644.39" y2="447.32"/><line class="cls-5" x1="636.72" y1="466.15" x2="645" y2="454.64"/><line class="cls-5" x1="609.11" y1="437.53" x2="630.38" y2="462.14"/><line class="cls-5" x1="636.24" y1="457.7" x2="634.98" y2="460.85"/><line class="cls-5" x1="648.57" y1="426.74" x2="639.87" y2="448.57"/><line class="cls-4" x1="634.98" y1="460.85" x2="635.18" y2="463.14"/><line class="cls-5" x1="634.68" y1="457.91" x2="634.98" y2="460.85"/><line class="cls-5" x1="631.09" y1="421.95" x2="633.91" y2="450.22"/><line class="cls-5" x1="653.64" y1="442.47" x2="653.06" y2="435.17"/><line class="cls-5" x1="644.96" y1="454.61" x2="653.64" y2="442.47"/><line class="cls-4" x1="636.53" y1="463.85" x2="636.72" y2="466.15"/><line class="cls-5" x1="653.06" y1="435.17" x2="644.6" y2="449.85"/><line class="cls-5" x1="618.67" y1="432.8" x2="617.98" y2="425.52"/><line class="cls-5" x1="629.21" y1="460.78" x2="618.67" y2="432.8"/><line class="cls-5" x1="630.38" y1="462.14" x2="630.52" y2="463.7"/><line class="cls-5" x1="617.98" y1="425.52" x2="630.38" y2="462.13"/><polyline class="cls-6" points="739.06 462.99 744.42 472.74 758.95 468.57 755.8 462.93"/><line class="cls-7" x1="746.99" y1="465.22" x2="747.26" y2="465.29"/><line class="cls-6" x1="709.45" y1="454.67" x2="741.94" y2="463.8"/><line class="cls-6" x1="753.97" y1="467.18" x2="788.99" y2="477.02"/><line class="cls-6" x1="747.38" y1="468.23" x2="730.51" y2="493.97"/><line class="cls-6" x1="753.97" y1="467.18" x2="752.48" y2="466.76"/><line class="cls-7" x1="747.33" y1="464.26" x2="746.58" y2="464.47"/><polyline class="cls-7" points="747.38 468.23 752.51 466.77 752.52 466.74"/><line class="cls-7" x1="731.86" y1="421.01" x2="736.49" y2="414.22"/><line class="cls-7" x1="736.49" y1="414.22" x2="746.46" y2="416.94"/><line class="cls-7" x1="776.69" y1="429.27" x2="776.53" y2="425.18"/><line class="cls-7" x1="772.36" y1="440.23" x2="774.54" y2="434.74"/><line class="cls-7" x1="758.49" y1="457.1" x2="758.3" y2="453.02"/><line class="cls-7" x1="750.18" y1="458.16" x2="758.49" y2="457.12"/><line class="cls-7" x1="723.2" y1="449.27" x2="728.36" y2="452.71"/><line class="cls-7" x1="717.93" y1="441.62" x2="718.2" y2="445.7"/><line class="cls-7" x1="758.3" y1="453.02" x2="748.12" y2="450.18"/><line class="cls-7" x1="762.9" y1="445.98" x2="758.3" y2="453.01"/><line class="cls-7" x1="717.78" y1="441.73" x2="727.87" y2="444.54"/><line class="cls-7" x1="722.51" y1="434.57" x2="717.78" y2="441.53"/><line class="cls-7" x1="776.53" y1="425.18" x2="766.47" y2="422.43"/><line class="cls-7" x1="772.02" y1="432.06" x2="776.53" y2="425.18"/><line class="cls-7" x1="748.55" y1="458.37" x2="748.12" y2="450.18"/><line class="cls-7" x1="747.7" y1="465.55" x2="748.54" y2="458.42"/><line class="cls-7" x1="728.36" y1="452.72" x2="727.87" y2="444.54"/><line class="cls-7" x1="747.38" y1="468.23" x2="728.36" y2="452.72"/><line class="cls-7" x1="747.24" y1="465.68" x2="747.38" y2="468.23"/><line class="cls-7" x1="763.28" y1="454.16" x2="762.9" y2="445.98"/><line class="cls-7" x1="757.86" y1="460.5" x2="763.28" y2="454.17"/><line class="cls-7" x1="772.36" y1="440.23" x2="772.02" y2="432.06"/><line class="cls-7" x1="763.21" y1="452.47" x2="772.36" y2="440.23"/><line class="cls-7" x1="732.35" y1="429.18" x2="731.86" y2="421.01"/><line class="cls-7" x1="743.9" y1="460.48" x2="732.35" y2="429.18"/><line class="cls-7" x1="755.79" y1="448" x2="766.47" y2="422.43"/><line class="cls-7" x1="772.02" y1="432.06" x2="762.94" y2="446.91"/><line class="cls-7" x1="766.47" y1="422.43" x2="772.02" y2="432.06"/><line class="cls-7" x1="745.34" y1="462.22" x2="722.51" y2="434.77"/><line class="cls-7" x1="747.24" y1="465.68" x2="745.35" y2="462.22"/><line class="cls-7" x1="727.87" y1="444.54" x2="747.24" y2="465.68"/><line class="cls-7" x1="722.51" y1="434.77" x2="727.87" y2="444.54"/><line class="cls-7" x1="749.47" y1="449.85" x2="746.46" y2="416.94"/><line class="cls-7" x1="745.34" y1="462.22" x2="747.47" y2="461.61"/><line class="cls-7" x1="731.86" y1="421.01" x2="745.34" y2="462.22"/><line class="cls-7" x1="746.46" y1="416.94" x2="731.86" y2="421.01"/><line class="cls-4" x1="748.12" y1="450.18" x2="747.24" y2="465.67"/><line class="cls-7" x1="762.9" y1="445.98" x2="748.12" y2="450.18"/><path class="cls-7" d="M747.67,465.54c-0.09.91-.19,1.8-0.29,2.7"/><path class="cls-7" d="M750.17,458.14l-1.62.28"/><path class="cls-7" d="M763.31,454.2l-4.82,2.9"/><path class="cls-7" d="M752.51,466.74c1.8-2.07,3.58-4.15,5.35-6.24"/><path class="cls-7" d="M718.06,445.81c1.71,1.15,3.44,2.27,5.17,3.4"/><path class="cls-7" d="M776.69,429.27c-0.71,1.82-1.48,3.63-2.21,5.46"/></g><path class="cls-8" d="M28,49.18h1.17v8.19H28V49.18Z"/><path class="cls-8" d="M28,250.61h1.17v8.19H28v-8.19Z"/><path class="cls-8" d="M34,250.61h1.17v8.19H34v-8.19Z"/><path class="cls-8" d="M28,458.13h1.17v8.19H28v-8.19Z"/><path class="cls-8" d="M34,458.13h1.17v8.19H34v-8.19Z"/><path class="cls-8" d="M40,458.13h1.17v8.19H40v-8.19Z"/><path class="cls-8" d="M345.45,551.17h1.64v12.28h-1.77V553.9l-3.77,4.75h-0.33l-3.82-4.75v9.55h-1.76V551.17h1.66l4.08,5Z"/><path class="cls-8" d="M353.39,555.35a4.22,4.22,0,0,1,3.07,1.19,4,4,0,0,1,1.22,3,3.8,3.8,0,0,1-1.24,2.9,4.39,4.39,0,0,1-3.12,1.16,4.21,4.21,0,0,1-3-1.17,4.14,4.14,0,0,1,0-5.89A4.31,4.31,0,0,1,353.39,555.35Zm-0.09,1.44a2.53,2.53,0,0,0-1.89.76,2.64,2.64,0,0,0-.74,1.92,2.52,2.52,0,0,0,.76,1.89,2.67,2.67,0,0,0,1.94.73,2.63,2.63,0,0,0,1.93-.74,2.75,2.75,0,0,0,0-3.81A2.72,2.72,0,0,0,353.3,556.79Z"/><path class="cls-8" d="M364.85,551.17h1.61v12.28H363a3.74,3.74,0,0,1-2.86-1.13,4.25,4.25,0,0,1-1.07-3,4,4,0,0,1,1.12-2.94,3.82,3.82,0,0,1,2.86-1.15,5.2,5.2,0,0,1,1.76.34v-4.36Zm0,10.91V557a3.32,3.32,0,0,0-1.51-.38,2.44,2.44,0,0,0-1.9.78,3,3,0,0,0-.71,2.11,2.76,2.76,0,0,0,.62,1.92,1.91,1.91,0,0,0,.78.54,5.28,5.28,0,0,0,1.49.14h1.24Z"/><path class="cls-8" d="M373.78,563.45v-1a3.73,3.73,0,0,1-1.16.87,3,3,0,0,1-1.31.31,2.71,2.71,0,0,1-1.41-.38,2.47,2.47,0,0,1-1-1,5.19,5.19,0,0,1-.33-2.17v-4.63h1.6V560a3.17,3.17,0,0,0,.36,1.78,1.47,1.47,0,0,0,1.28.5,2.34,2.34,0,0,0,1.94-1.12v-5.77h1.6v8.09h-1.6Z"/><path class="cls-8" d="M377.66,551.17h1.6v12.28h-1.6V551.17Z"/><path class="cls-8" d="M388.46,559.55h-5.69a2.64,2.64,0,0,0,.78,1.85,2.57,2.57,0,0,0,1.85.69,4.81,4.81,0,0,0,2.92-1v1.56a5.34,5.34,0,0,1-1.46.7,6.12,6.12,0,0,1-1.7.21A3.82,3.82,0,0,1,383,563a4,4,0,0,1-1.32-1.49,4.56,4.56,0,0,1-.5-2.17,4.3,4.3,0,0,1,1-3,3.49,3.49,0,0,1,2.72-1.16,3.2,3.2,0,0,1,2.57,1.13,4.49,4.49,0,0,1,1,3v0.2Zm-5.65-1h4.07a2.23,2.23,0,0,0-.57-1.48,1.84,1.84,0,0,0-1.37-.52,2,2,0,0,0-1.41.52A2.57,2.57,0,0,0,382.81,558.59Z"/><path class="cls-8" d="M406,560.6v1.93a9.18,9.18,0,0,1-4.46,1.05,6.88,6.88,0,0,1-3.49-.83,6.08,6.08,0,0,1-2.27-2.28,6.18,6.18,0,0,1-.83-3.14,6,6,0,0,1,1.91-4.51,6.56,6.56,0,0,1,4.72-1.83,11.06,11.06,0,0,1,4.3,1v1.89a8.46,8.46,0,0,0-4.21-1.23,4.87,4.87,0,0,0-3.5,1.33,4.42,4.42,0,0,0-1.39,3.34,4.38,4.38,0,0,0,1.37,3.32,4.89,4.89,0,0,0,3.51,1.3A8,8,0,0,0,406,560.6Z"/><path class="cls-8" d="M411.81,555.35a4.22,4.22,0,0,1,3.07,1.19,4,4,0,0,1,1.22,3,3.8,3.8,0,0,1-1.24,2.9,4.39,4.39,0,0,1-3.12,1.16,4.21,4.21,0,0,1-3-1.17,4.14,4.14,0,0,1,0-5.89A4.31,4.31,0,0,1,411.81,555.35Zm-0.09,1.44a2.53,2.53,0,0,0-1.89.76,2.64,2.64,0,0,0-.74,1.92,2.52,2.52,0,0,0,.76,1.89,2.67,2.67,0,0,0,1.94.73,2.63,2.63,0,0,0,1.93-.74,2.75,2.75,0,0,0,0-3.81A2.72,2.72,0,0,0,411.72,556.79Z"/><path class="cls-8" d="M419.47,555.36v1a3.22,3.22,0,0,1,2.43-1.19,2.69,2.69,0,0,1,1.41.39,2.56,2.56,0,0,1,1,1.07,5.13,5.13,0,0,1,.34,2.16v4.62H423v-4.61a3.15,3.15,0,0,0-.38-1.77,1.45,1.45,0,0,0-1.27-.53,2.3,2.3,0,0,0-1.92,1.13v5.77h-1.63v-8.09h1.63Z"/><path class="cls-8" d="M426.48,562.87v-1.72a7.29,7.29,0,0,0,1.38.77,3.23,3.23,0,0,0,1.19.29,1.49,1.49,0,0,0,.86-0.25,0.71,0.71,0,0,0,.36-0.59,0.79,0.79,0,0,0-.23-0.58,5.4,5.4,0,0,0-1-.67,7.13,7.13,0,0,1-2-1.47,2.11,2.11,0,0,1-.48-1.33,1.87,1.87,0,0,1,.73-1.52,2.87,2.87,0,0,1,1.87-.59,5.14,5.14,0,0,1,2.43.67v1.58a4.87,4.87,0,0,0-2.33-.86,1.3,1.3,0,0,0-.75.2,0.61,0.61,0,0,0-.29.52,0.76,0.76,0,0,0,.26.54,4.43,4.43,0,0,0,.91.62l0.57,0.32q2,1.14,2,2.53a2,2,0,0,1-.78,1.63,3.05,3.05,0,0,1-2,.64,4.87,4.87,0,0,1-1.28-.15A8.54,8.54,0,0,1,426.48,562.87Z"/><path class="cls-8" d="M432.66,556.65l3-3v1.67h2.56v1.44h-2.56v4a1.13,1.13,0,0,0,1.15,1.39,3.57,3.57,0,0,0,1.82-.57v1.49a4,4,0,0,1-2,.52,2.67,2.67,0,0,1-1.83-.64,1.83,1.83,0,0,1-.38-0.43,2.31,2.31,0,0,1-.25-0.63,7.11,7.11,0,0,1-.1-1.49v-3.59h-1.41v-0.16Z"/><path class="cls-8" d="M441.5,555.36v1.85l0.09-.14q1.16-1.87,2.32-1.87a2.86,2.86,0,0,1,1.89.91L445,557.53a2.37,2.37,0,0,0-1.55-.79,1.66,1.66,0,0,0-1.34.74,2.79,2.79,0,0,0-.57,1.75v4.23H439.9v-8.09h1.61Z"/><path class="cls-8" d="M452.07,563.45v-1a3.73,3.73,0,0,1-1.16.87,3,3,0,0,1-1.31.31,2.71,2.71,0,0,1-1.41-.38,2.47,2.47,0,0,1-1-1,5.19,5.19,0,0,1-.33-2.17v-4.63h1.6V560a3.17,3.17,0,0,0,.36,1.78,1.47,1.47,0,0,0,1.28.5,2.34,2.34,0,0,0,1.94-1.12v-5.77h1.6v8.09h-1.6Z"/><path class="cls-8" d="M462,561.56v1.58a6.73,6.73,0,0,1-2.36.45,3.88,3.88,0,0,1-4.16-4.14,4.31,4.31,0,0,1,1.1-3.08,3.78,3.78,0,0,1,2.89-1.17,4.78,4.78,0,0,1,1.12.12,7.23,7.23,0,0,1,1.23.44v1.71a4.25,4.25,0,0,0-2.25-.77,2.3,2.3,0,0,0-1.78.76,2.77,2.77,0,0,0-.69,1.94,2.62,2.62,0,0,0,.75,2,2.78,2.78,0,0,0,2,.73A5.29,5.29,0,0,0,462,561.56Z"/><path class="cls-8" d="M462.67,556.65l3-3v1.67h2.56v1.44h-2.56v4a1.13,1.13,0,0,0,1.15,1.39,3.57,3.57,0,0,0,1.82-.57v1.49a4,4,0,0,1-2,.52,2.67,2.67,0,0,1-1.83-.64,1.83,1.83,0,0,1-.38-0.43,2.31,2.31,0,0,1-.25-0.63,7.11,7.11,0,0,1-.1-1.49v-3.59h-1.41v-0.16Z"/><path class="cls-8" d="M470.62,552a0.94,0.94,0,0,1,.68.27,0.89,0.89,0,0,1,.28.67,0.91,0.91,0,0,1-.28.67,0.92,0.92,0,0,1-.68.28,0.89,0.89,0,0,1-.65-0.29,0.92,0.92,0,0,1-.28-0.66,0.91,0.91,0,0,1,.28-0.65A0.89,0.89,0,0,1,470.62,552Zm-0.79,3.4h1.6v8.09h-1.6v-8.09Z"/><path class="cls-8" d="M477.61,555.35a4.22,4.22,0,0,1,3.07,1.19,4,4,0,0,1,1.22,3,3.8,3.8,0,0,1-1.24,2.9,4.39,4.39,0,0,1-3.12,1.16,4.21,4.21,0,0,1-3-1.17,4.14,4.14,0,0,1,0-5.89A4.31,4.31,0,0,1,477.61,555.35Zm-0.09,1.44a2.53,2.53,0,0,0-1.89.76,2.64,2.64,0,0,0-.74,1.92,2.52,2.52,0,0,0,.76,1.89,2.67,2.67,0,0,0,1.94.73,2.63,2.63,0,0,0,1.93-.74,2.75,2.75,0,0,0,0-3.81A2.72,2.72,0,0,0,477.52,556.79Z"/><path class="cls-8" d="M485.27,555.36v1a3.22,3.22,0,0,1,2.43-1.19,2.69,2.69,0,0,1,1.41.39,2.56,2.56,0,0,1,1,1.07,5.13,5.13,0,0,1,.34,2.16v4.62h-1.6v-4.61a3.15,3.15,0,0,0-.38-1.77,1.45,1.45,0,0,0-1.27-.53,2.3,2.3,0,0,0-1.92,1.13v5.77h-1.63v-8.09h1.63Z"/><path class="cls-8" d="M497.91,563.43V551.17h4.14a8.75,8.75,0,0,1,4,.75,5.68,5.68,0,0,1,2.32,2.21,6.15,6.15,0,0,1,.86,3.18,6.05,6.05,0,0,1-3.91,5.66,6.25,6.25,0,0,1-1.27.37,17.27,17.27,0,0,1-2.21.09h-3.88Zm4-10.7h-2.2v9.13h2.25a9,9,0,0,0,2-.18,4.88,4.88,0,0,0,1.22-.46,4.21,4.21,0,0,0,.89-0.68,4.55,4.55,0,0,0,1.3-3.33A4.21,4.21,0,0,0,506,554a4.28,4.28,0,0,0-1.13-.76,4.74,4.74,0,0,0-1.21-.4A12.27,12.27,0,0,0,501.87,552.74Z"/><path class="cls-8" d="M512,552a0.94,0.94,0,0,1,.68.27,0.89,0.89,0,0,1,.28.67,0.91,0.91,0,0,1-.28.67,0.92,0.92,0,0,1-.68.28,0.89,0.89,0,0,1-.65-0.29,0.92,0.92,0,0,1-.28-0.66,0.91,0.91,0,0,1,.28-0.65A0.89,0.89,0,0,1,512,552Zm-0.79,3.4h1.6v8.09h-1.6v-8.09Z"/><path class="cls-8" d="M520.2,558.59V562q0,0.41.28,0.41a1.94,1.94,0,0,0,.91-0.43v1a5.2,5.2,0,0,1-.87.48,1.91,1.91,0,0,1-.69.13,1.07,1.07,0,0,1-1.21-.81,3.48,3.48,0,0,1-2.17.79A1.91,1.91,0,0,1,515,563a1.89,1.89,0,0,1-.56-1.4,2,2,0,0,1,.55-1.37,3.71,3.71,0,0,1,1.56-1l2-.7v-0.43a1.29,1.29,0,0,0-1.46-1.46,3.51,3.51,0,0,0-2.55,1.35v-1.75a3.32,3.32,0,0,1,2.68-1.1,3.09,3.09,0,0,1,2.1.69,2.16,2.16,0,0,1,.47.58,2.12,2.12,0,0,1,.27.73A10.76,10.76,0,0,1,520.2,558.59Zm-1.57,3.26v-2.4l-1.07.41a3.64,3.64,0,0,0-1.16.65,1.19,1.19,0,0,0,0,1.64,1.13,1.13,0,0,0,.83.32A2,2,0,0,0,518.63,561.85Z"/><path class="cls-8" d="M522.39,558.16a2.47,2.47,0,0,1,.95-2,4,4,0,0,1,2.58-.75h3.33v1.25h-1.63a3.35,3.35,0,0,1,.66.88,2.12,2.12,0,0,1,.18.91,2.42,2.42,0,0,1-.36,1.24,2.54,2.54,0,0,1-.93.94,5.67,5.67,0,0,1-1.86.52q-0.91.13-.91,0.62a0.53,0.53,0,0,0,.34.46,5.34,5.34,0,0,0,1.23.37,13.27,13.27,0,0,1,1.91.51,2.47,2.47,0,0,1,.77.53,2,2,0,0,1,.58,1.46,2.11,2.11,0,0,1-1,1.84,5.84,5.84,0,0,1-5.5,0,2.12,2.12,0,0,1-1-1.85q0-1.64,2-2.12a1.39,1.39,0,0,1-.81-1,0.94,0.94,0,0,1,.35-0.7,2.15,2.15,0,0,1,.94-0.47A2.66,2.66,0,0,1,522.39,558.16Zm2.63,5.67a2.34,2.34,0,0,0-1.32.34,1,1,0,0,0-.51.88q0,1.25,2.25,1.25a3.56,3.56,0,0,0,1.65-.31,1,1,0,0,0,.58-0.88,1.06,1.06,0,0,0-.74-0.92A4.39,4.39,0,0,0,525,563.83Zm0.38-7.08a1.54,1.54,0,0,0-1.11.44,1.41,1.41,0,0,0-.46,1.05,1.34,1.34,0,0,0,.45,1,1.62,1.62,0,0,0,1.13.41,1.6,1.6,0,0,0,1.13-.42,1.36,1.36,0,0,0,.45-1,1.38,1.38,0,0,0-.46-1.05A1.62,1.62,0,0,0,525.4,556.75Z"/><path class="cls-8" d="M532.2,555.36v1.85l0.09-.14q1.16-1.87,2.32-1.87a2.86,2.86,0,0,1,1.89.91l-0.84,1.41a2.37,2.37,0,0,0-1.55-.79,1.66,1.66,0,0,0-1.34.74,2.79,2.79,0,0,0-.57,1.75v4.23h-1.61v-8.09h1.61Z"/><path class="cls-8" d="M542.69,558.59V562q0,0.41.28,0.41a1.94,1.94,0,0,0,.91-0.43v1a5.2,5.2,0,0,1-.87.48,1.91,1.91,0,0,1-.69.13,1.07,1.07,0,0,1-1.21-.81,3.48,3.48,0,0,1-2.17.79,1.91,1.91,0,0,1-1.41-.56,1.89,1.89,0,0,1-.56-1.4,2,2,0,0,1,.55-1.37,3.71,3.71,0,0,1,1.56-1l2-.7v-0.43a1.29,1.29,0,0,0-1.46-1.46,3.51,3.51,0,0,0-2.55,1.35v-1.75a3.32,3.32,0,0,1,2.68-1.1,3.09,3.09,0,0,1,2.1.69,2.16,2.16,0,0,1,.47.58,2.12,2.12,0,0,1,.27.73A10.76,10.76,0,0,1,542.69,558.59Zm-1.57,3.26v-2.4l-1.07.41a3.64,3.64,0,0,0-1.16.65,1.19,1.19,0,0,0,0,1.64,1.13,1.13,0,0,0,.83.32A2,2,0,0,0,541.12,561.85Z"/><path class="cls-8" d="M551.92,557.58v5.87h-1.61V559a3.54,3.54,0,0,0-.36-1.88,1.41,1.41,0,0,0-1.26-.53,1.88,1.88,0,0,0-.92.23,4,4,0,0,0-1,.81v5.87h-1.6v-8.09h1.6v1.06a3.48,3.48,0,0,1,2.39-1.22,2.63,2.63,0,0,1,2.38,1.46,3.61,3.61,0,0,1,2.68-1.48,2.47,2.47,0,0,1,1.94.86,3.89,3.89,0,0,1,.76,2.63v4.77h-1.6v-4.79a2.49,2.49,0,0,0-.41-1.55,1.41,1.41,0,0,0-1.19-.54A2.46,2.46,0,0,0,551.92,557.58Z"/></svg>