<svg id="Layer_1" data-name="Layer 1" xmlns="http://www.w3.org/2000/svg" xmlns:xlink="http://www.w3.org/1999/xlink" viewBox="0 0 1046.4 581.64"><defs><style>.cls-1,.cls-10,.cls-11,.cls-3,.cls-4,.cls-5,.cls-6,.cls-7,.cls-9{fill:none;}.cls-2{fill:#fff;}.cls-10,.cls-11,.cls-3,.cls-4,.cls-9{stroke:#010101;stroke-linecap:round;stroke-linejoin:round;}.cls-3,.cls-7{stroke-width:0.75px;}.cls-4{stroke-width:0.5px;}.cls-5,.cls-6,.cls-7{stroke:#231f20;stroke-miterlimit:10;}.cls-5{stroke-width:2px;}.cls-8{clip-path:url(#clip-path);}.cls-9{stroke-width:0.46px;}.cls-10{stroke-width:0.31px;}.cls-11{stroke-width:0.62px;}.cls-12{fill:#231f20;}</style><clipPath id="clip-path"><rect class="cls-1" x="473.74" y="-43.4" width="488.58" height="755.08"/></clipPath></defs><title>ex_10</title><path class="cls-2" d="M624.1,493.64a0.17,0.17,0,0,1-.15.05"/><rect class="cls-1" x="-366.68" y="7.8" width="1224" height="792"/><rect class="cls-1" x="-366.68" y="7.8" width="1224" height="792"/><line class="cls-3" x1="227.6" y1="133.58" x2="253.69" y2="133.58"/><line class="cls-3" x1="253.69" y1="133.58" x2="279.78" y2="107.48"/><line class="cls-3" x1="227.6" y1="133.58" x2="253.69" y2="107.48"/><line class="cls-3" x1="227.6" y1="107.48" x2="253.69" y2="81.37"/><line class="cls-3" x1="227.6" y1="107.48" x2="227.6" y2="133.58"/><line class="cls-3" x1="227.6" y1="133.58" x2="201.51" y2="107.48"/><line class="cls-3" x1="227.6" y1="133.58" x2="201.51" y2="133.58"/><line class="cls-3" x1="201.51" y1="133.58" x2="175.4" y2="107.48"/><line class="cls-3" x1="227.6" y1="107.48" x2="201.51" y2="81.37"/><line class="cls-3" x1="201.51" y1="107.48" x2="201.51" y2="81.37"/><line class="cls-3" x1="175.4" y1="94.42" x2="201.51" y2="107.48"/><line class="cls-3" x1="201.51" y1="81.37" x2="175.4" y2="81.37"/><line class="cls-3" x1="253.69" y1="107.48" x2="279.78" y2="94.42"/><line class="cls-3" x1="253.69" y1="81.37" x2="253.69" y2="107.48"/><line class="cls-3" x1="279.78" y1="81.37" x2="253.69" y2="81.37"/><line class="cls-3" x1="175.4" y1="94.42" x2="175.4" y2="81.37"/><line class="cls-3" x1="175.4" y1="107.48" x2="175.4" y2="94.42"/><line class="cls-3" x1="279.78" y1="94.42" x2="279.78" y2="107.48"/><line class="cls-3" x1="279.78" y1="81.37" x2="279.78" y2="94.42"/><line class="cls-3" x1="89.96" y1="76.37" x2="89.96" y2="96.31"/><line class="cls-3" x1="89.96" y1="76.37" x2="109.85" y2="56.48"/><line class="cls-3" x1="109.85" y1="96.28" x2="129.74" y2="76.37"/><line class="cls-3" x1="89.96" y1="76.37" x2="70.06" y2="56.48"/><line class="cls-3" x1="70.06" y1="96.28" x2="50.15" y2="76.37"/><line class="cls-3" x1="70.06" y1="96.28" x2="89.96" y2="96.31"/><line class="cls-3" x1="89.96" y1="116.18" x2="89.96" y2="96.31"/><line class="cls-3" x1="89.96" y1="116.18" x2="70.06" y2="136.08"/><line class="cls-3" x1="70.06" y1="96.28" x2="50.15" y2="116.18"/><line class="cls-3" x1="89.96" y1="116.18" x2="109.82" y2="136.08"/><line class="cls-3" x1="109.85" y1="96.28" x2="129.74" y2="116.18"/><line class="cls-3" x1="89.96" y1="96.31" x2="109.85" y2="96.28"/><line class="cls-3" x1="109.82" y1="136.08" x2="129.74" y2="116.18"/><line class="cls-3" x1="129.74" y1="76.37" x2="109.85" y2="56.48"/><line class="cls-3" x1="50.15" y1="76.37" x2="70.05" y2="56.48"/><line class="cls-3" x1="50.15" y1="116.18" x2="70.05" y2="136.08"/><line class="cls-3" x1="129.74" y1="136.08" x2="109.82" y2="136.08"/><line class="cls-3" x1="129.74" y1="136.08" x2="129.74" y2="116.18"/><line class="cls-3" x1="129.74" y1="56.48" x2="129.74" y2="76.37"/><line class="cls-3" x1="129.74" y1="56.48" x2="109.85" y2="56.48"/><line class="cls-3" x1="50.15" y1="56.48" x2="70.05" y2="56.48"/><line class="cls-3" x1="50.15" y1="56.48" x2="50.15" y2="76.37"/><line class="cls-3" x1="50.15" y1="136.08" x2="50.15" y2="116.18"/><line class="cls-3" x1="70.06" y1="136.08" x2="50.15" y2="136.08"/><line class="cls-4" x1="412.59" y1="109.93" x2="386.32" y2="117.03"/><line class="cls-3" x1="412.55" y1="114.57" x2="427.13" y2="101.97"/><line class="cls-3" x1="389.97" y1="92.58" x2="382.53" y2="112.03"/><line class="cls-3" x1="389.97" y1="92.58" x2="415.96" y2="70.08"/><line class="cls-3" x1="401.17" y1="108.98" x2="427.29" y2="86.4"/><line class="cls-3" x1="357.96" y1="97.59" x2="353.01" y2="83.27"/><line class="cls-3" x1="389.97" y1="92.58" x2="378.9" y2="60.82"/><line class="cls-3" x1="364" y1="99.57" x2="352.95" y2="67.7"/><line class="cls-3" x1="375.09" y1="131.54" x2="348.9" y2="123.1"/><line class="cls-3" x1="364" y1="99.57" x2="382.53" y2="112.03"/><line class="cls-3" x1="375.09" y1="116.02" x2="382.53" y2="112.03"/><line class="cls-3" x1="375.09" y1="116.02" x2="348.82" y2="107.49"/><line class="cls-3" x1="364" y1="99.57" x2="337.79" y2="90.98"/><line class="cls-4" x1="375.09" y1="131.54" x2="375.09" y2="116.02"/><line class="cls-3" x1="375.09" y1="131.54" x2="386.28" y2="132.64"/><line class="cls-3" x1="375.09" y1="116.02" x2="386.3" y2="117.01"/><line class="cls-3" x1="401.17" y1="108.98" x2="412.59" y2="109.93"/><line class="cls-3" x1="382.53" y1="112.03" x2="401.17" y2="108.98"/><line class="cls-4" x1="427.29" y1="86.4" x2="415.96" y2="70.08"/><line class="cls-4" x1="352.95" y1="67.71" x2="378.9" y2="60.82"/><line class="cls-4" x1="337.79" y1="90.98" x2="348.82" y2="107.49"/><line class="cls-3" x1="405.15" y1="121.81" x2="386.3" y2="117.01"/><line class="cls-3" x1="386.28" y1="132.64" x2="405.11" y2="129.65"/><line class="cls-4" x1="386.3" y1="117.01" x2="386.28" y2="132.64"/><line class="cls-4" x1="405.11" y1="129.65" x2="405.15" y2="121.81"/><line class="cls-3" x1="412.47" y1="125.54" x2="405.11" y2="129.65"/><line class="cls-3" x1="412.59" y1="109.93" x2="412.47" y2="125.54"/><line class="cls-3" x1="405.15" y1="121.81" x2="412.59" y2="109.93"/><line class="cls-3" x1="434.57" y1="74.75" x2="427.29" y2="86.4"/><line class="cls-3" x1="427.13" y1="101.97" x2="434.47" y2="82.56"/><line class="cls-3" x1="427.29" y1="86.4" x2="427.13" y2="101.97"/><line class="cls-3" x1="434.47" y1="82.56" x2="434.57" y2="74.75"/><line class="cls-3" x1="434.57" y1="74.75" x2="415.96" y2="70.08"/><line class="cls-3" x1="360.43" y1="56.2" x2="378.9" y2="60.82"/><line class="cls-3" x1="352.95" y1="67.71" x2="353.01" y2="83.27"/><line class="cls-3" x1="360.43" y1="56.2" x2="352.95" y2="67.71"/><line class="cls-3" x1="330.13" y1="102.72" x2="337.79" y2="90.98"/><line class="cls-3" x1="348.82" y1="107.49" x2="330.13" y2="102.72"/><line class="cls-4" x1="348.9" y1="123.1" x2="348.82" y2="107.49"/><line class="cls-3" x1="330.21" y1="110.55" x2="348.9" y2="123.1"/><line class="cls-3" x1="330.13" y1="102.72" x2="330.21" y2="110.55"/><line class="cls-3" x1="224.59" y1="310.53" x2="226.02" y2="310.53"/><line class="cls-3" x1="235.35" y1="310.53" x2="237.3" y2="310.53"/><line class="cls-3" x1="224.09" y1="310.53" x2="204.29" y2="257.73"/><line class="cls-3" x1="224.09" y1="310.53" x2="224.59" y2="310.53"/><line class="cls-3" x1="226.02" y1="310.53" x2="230.69" y2="310.53"/><line class="cls-4" x1="230.69" y1="310.53" x2="230.69" y2="257.73"/><line class="cls-3" x1="230.69" y1="310.53" x2="235.35" y2="310.53"/><line class="cls-3" x1="237.3" y1="310.53" x2="257.11" y2="257.73"/><line class="cls-3" x1="243.9" y1="257.73" x2="230.69" y2="257.73"/><line class="cls-3" x1="257.1" y1="257.73" x2="243.9" y2="257.73"/><line class="cls-3" x1="257.1" y1="257.73" x2="283.52" y2="231.32"/><line class="cls-3" x1="230.69" y1="257.73" x2="257.1" y2="231.32"/><line class="cls-3" x1="230.69" y1="231.32" x2="257.1" y2="204.9"/><line class="cls-3" x1="230.69" y1="231.32" x2="230.69" y2="257.73"/><line class="cls-3" x1="230.69" y1="257.73" x2="204.29" y2="231.32"/><line class="cls-3" x1="230.69" y1="257.73" x2="217.48" y2="257.73"/><line class="cls-3" x1="217.48" y1="257.73" x2="204.29" y2="257.73"/><line class="cls-3" x1="204.29" y1="257.73" x2="177.88" y2="231.32"/><line class="cls-3" x1="230.69" y1="231.32" x2="204.29" y2="204.9"/><line class="cls-3" x1="204.29" y1="231.32" x2="204.29" y2="204.9"/><line class="cls-3" x1="177.88" y1="218.1" x2="204.29" y2="231.32"/><line class="cls-3" x1="204.29" y1="204.9" x2="177.88" y2="204.9"/><line class="cls-3" x1="177.88" y1="218.1" x2="177.88" y2="204.9"/><line class="cls-3" x1="177.88" y1="231.32" x2="177.88" y2="218.1"/><line class="cls-3" x1="283.52" y1="218.1" x2="283.52" y2="231.32"/><line class="cls-3" x1="257.1" y1="204.9" x2="283.52" y2="204.9"/><line class="cls-3" x1="283.52" y1="204.9" x2="283.52" y2="218.1"/><line class="cls-3" x1="283.52" y1="218.1" x2="257.1" y2="231.32"/><line class="cls-3" x1="257.1" y1="231.32" x2="257.1" y2="204.9"/><path class="cls-3" d="M361.36,309.18c-0.1-3.12-.24-6.21-0.46-9.31"/><line class="cls-3" x1="371.56" y1="311.33" x2="372.54" y2="309.26"/><line class="cls-3" x1="375.99" y1="247.29" x2="379.15" y2="241.76"/><path class="cls-3" d="M361.36,309.15a2.8,2.8,0,0,0,.81,2"/><path class="cls-3" d="M371.67,311.11a2,2,0,0,0,.12-0.71"/><path class="cls-3" d="M369.37,313.07a3.1,3.1,0,0,0,2.19-1.74"/><line class="cls-4" x1="392.22" y1="265.97" x2="395.14" y2="250.5"/><line class="cls-3" x1="395.14" y1="250.5" x2="416.13" y2="255.91"/><line class="cls-3" x1="375.99" y1="247.29" x2="395.14" y2="250.5"/><line class="cls-3" x1="414.63" y1="263.65" x2="392.22" y2="265.97"/><line class="cls-3" x1="373.15" y1="262.65" x2="392.22" y2="265.97"/><line class="cls-3" x1="401.29" y1="239.37" x2="420.6" y2="242.52"/><line class="cls-3" x1="379.15" y1="241.76" x2="401.29" y2="239.37"/><line class="cls-3" x1="385.12" y1="220.95" x2="413.16" y2="197.73"/><line class="cls-3" x1="414.38" y1="241.51" x2="426.47" y2="231.49"/><line class="cls-3" x1="401.29" y1="239.37" x2="429.49" y2="216.05"/><line class="cls-3" x1="375.99" y1="247.29" x2="353.34" y2="239.78"/><line class="cls-4" x1="373.15" y1="262.65" x2="375.99" y2="247.29"/><line class="cls-3" x1="373.15" y1="262.65" x2="350.57" y2="255.23"/><line class="cls-3" x1="359.92" y1="228.77" x2="337.3" y2="221.21"/><line class="cls-3" x1="379.15" y1="241.76" x2="385.12" y2="220.95"/><line class="cls-3" x1="359.92" y1="228.77" x2="379.15" y2="241.76"/><line class="cls-3" x1="385.12" y1="220.95" x2="371.92" y2="187.29"/><line class="cls-3" x1="349.85" y1="225.41" x2="344.02" y2="210.47"/><line class="cls-3" x1="359.92" y1="228.77" x2="346.72" y2="195.06"/><line class="cls-4" x1="429.49" y1="216.05" x2="413.16" y2="197.73"/><line class="cls-4" x1="337.3" y1="221.21" x2="353.34" y2="239.78"/><line class="cls-4" x1="420.6" y1="242.52" x2="395.14" y2="250.5"/><line class="cls-4" x1="350.57" y1="255.23" x2="353.34" y2="239.78"/><line class="cls-3" x1="331.2" y1="242.18" x2="350.57" y2="255.23"/><line class="cls-3" x1="332.55" y1="234.43" x2="353.34" y2="239.78"/><line class="cls-3" x1="337.3" y1="221.21" x2="332.55" y2="234.43"/><line class="cls-3" x1="332.55" y1="234.43" x2="331.2" y2="242.18"/><line class="cls-3" x1="420.6" y1="242.52" x2="416.13" y2="255.91"/><line class="cls-3" x1="420.6" y1="242.52" x2="417.62" y2="257.99"/><line class="cls-3" x1="417.62" y1="257.99" x2="414.63" y2="263.65"/><line class="cls-4" x1="416.13" y1="255.91" x2="414.63" y2="263.64"/><line class="cls-3" x1="429.49" y1="216.05" x2="433.87" y2="202.96"/><line class="cls-3" x1="426.47" y1="231.49" x2="432.36" y2="210.69"/><line class="cls-3" x1="429.49" y1="216.05" x2="426.47" y2="231.49"/><line class="cls-3" x1="433.87" y1="202.96" x2="413.16" y2="197.73"/><line class="cls-3" x1="432.36" y1="210.69" x2="433.87" y2="202.96"/><line class="cls-3" x1="351.38" y1="182.12" x2="371.92" y2="187.29"/><line class="cls-3" x1="346.72" y1="195.06" x2="344.02" y2="210.47"/><line class="cls-3" x1="346.72" y1="195.06" x2="351.38" y2="182.12"/><line class="cls-4" x1="346.72" y1="195.06" x2="371.92" y2="187.29"/><line class="cls-3" x1="360.91" y1="299.86" x2="358.06" y2="257.69"/><line class="cls-4" x1="365.44" y1="313.09" x2="373.15" y2="262.65"/><path class="cls-3" d="M362.18,311.17a6.13,6.13,0,0,0,3.27,1.92"/><path class="cls-3" d="M365.44,313.09a6.78,6.78,0,0,0,3.93,0"/><line class="cls-3" x1="372.54" y1="309.26" x2="393.1" y2="265.89"/><line class="cls-4" x1="369.37" y1="313.07" x2="384" y2="264.55"/><line class="cls-4" x1="362.18" y1="311.17" x2="364.8" y2="259.89"/><line class="cls-4" x1="235.35" y1="310.53" x2="243.9" y2="257.73"/><line class="cls-4" x1="226.02" y1="310.53" x2="217.48" y2="257.73"/><line class="cls-3" x1="89.97" y1="237.78" x2="89.97" y2="257.71"/><line class="cls-3" x1="89.97" y1="237.78" x2="109.86" y2="217.89"/><line class="cls-3" x1="109.86" y1="257.68" x2="129.75" y2="237.78"/><line class="cls-3" x1="89.97" y1="237.78" x2="70.06" y2="217.89"/><line class="cls-3" x1="70.06" y1="257.68" x2="50.16" y2="237.78"/><line class="cls-3" x1="70.06" y1="257.68" x2="89.97" y2="257.71"/><line class="cls-3" x1="89.97" y1="277.59" x2="89.97" y2="257.71"/><line class="cls-3" x1="89.97" y1="277.59" x2="70.06" y2="297.48"/><line class="cls-3" x1="70.06" y1="257.68" x2="50.16" y2="277.59"/><line class="cls-3" x1="89.97" y1="277.59" x2="109.83" y2="297.48"/><line class="cls-3" x1="109.86" y1="257.68" x2="129.75" y2="277.59"/><line class="cls-3" x1="89.97" y1="257.71" x2="109.86" y2="257.68"/><line class="cls-3" x1="109.83" y1="297.48" x2="129.75" y2="277.59"/><line class="cls-3" x1="129.75" y1="237.78" x2="109.86" y2="217.89"/><line class="cls-3" x1="50.16" y1="237.78" x2="70.06" y2="217.89"/><line class="cls-3" x1="50.16" y1="277.59" x2="70.06" y2="297.48"/><line class="cls-3" x1="129.75" y1="297.48" x2="109.83" y2="297.48"/><line class="cls-3" x1="129.75" y1="297.48" x2="129.75" y2="277.59"/><line class="cls-3" x1="129.75" y1="217.89" x2="129.75" y2="237.78"/><line class="cls-3" x1="129.75" y1="217.89" x2="109.86" y2="217.89"/><line class="cls-3" x1="50.16" y1="217.89" x2="70.06" y2="217.89"/><line class="cls-3" x1="50.16" y1="217.89" x2="50.16" y2="237.78"/><line class="cls-3" x1="50.16" y1="297.48" x2="50.16" y2="277.59"/><line class="cls-3" x1="70.06" y1="297.48" x2="50.16" y2="297.48"/><rect class="cls-1" x="-366.68" y="7.8" width="1224" height="792"/><line class="cls-3" x1="287.61" y1="368.07" x2="287.61" y2="381.34"/><line class="cls-3" x1="234.34" y1="474.53" x2="224.95" y2="474.53"/><line class="cls-3" x1="279.94" y1="385.2" x2="287.61" y2="381.37"/><polyline class="cls-3" points="243.79 474.53 234.38 474.53 237.2 466.01"/><line class="cls-3" x1="207.75" y1="368.07" x2="181.15" y2="368.07"/><line class="cls-3" x1="234.38" y1="465.98" x2="207.75" y2="368.07"/><line class="cls-3" x1="207.73" y1="394.73" x2="207.75" y2="368.07"/><line class="cls-3" x1="260.99" y1="368.07" x2="234.38" y2="465.98"/><line class="cls-3" x1="234.34" y1="474.53" x2="234.38" y2="465.98"/><line class="cls-3" x1="181.15" y1="368.07" x2="181.15" y2="381.37"/><line class="cls-3" x1="260.99" y1="368.07" x2="260.99" y2="394.7"/><line class="cls-3" x1="287.61" y1="368.07" x2="260.99" y2="368.07"/><line class="cls-3" x1="287.63" y1="394.7" x2="243.79" y2="474.53"/><line class="cls-3" x1="287.59" y1="381.34" x2="287.63" y2="394.7"/><line class="cls-3" x1="260.99" y1="394.7" x2="279.94" y2="385.2"/><line class="cls-3" x1="237.2" y1="465.98" x2="260.99" y2="394.7"/><line class="cls-3" x1="181.08" y1="394.73" x2="224.92" y2="474.53"/><line class="cls-3" x1="181.15" y1="381.37" x2="181.08" y2="394.73"/><line class="cls-3" x1="207.73" y1="394.73" x2="181.15" y2="381.37"/><line class="cls-3" x1="234.34" y1="474.53" x2="207.73" y2="394.73"/><line class="cls-3" x1="73.41" y1="452.58" x2="52.31" y2="452.58"/><line class="cls-3" x1="102.03" y1="410.32" x2="94.57" y2="417.81"/><line class="cls-3" x1="94.57" y1="402.86" x2="102.02" y2="410.32"/><line class="cls-3" x1="94.54" y1="417.77" x2="87.08" y2="410.32"/><line class="cls-3" x1="94.57" y1="402.86" x2="115.69" y2="368.07"/><line class="cls-3" x1="136.82" y1="389.2" x2="102.03" y2="410.32"/><line class="cls-3" x1="102.03" y1="410.32" x2="136.82" y2="431.44"/><line class="cls-3" x1="52.31" y1="431.44" x2="87.08" y2="410.32"/><line class="cls-3" x1="94.57" y1="417.81" x2="73.43" y2="452.58"/><line class="cls-3" x1="115.69" y1="452.58" x2="94.57" y2="417.81"/><line class="cls-3" x1="115.69" y1="368.07" x2="136.82" y2="389.2"/><line class="cls-3" x1="73.43" y1="452.58" x2="52.32" y2="431.44"/><line class="cls-3" x1="136.82" y1="431.44" x2="115.69" y2="452.58"/><line class="cls-3" x1="136.82" y1="431.47" x2="136.82" y2="452.58"/><line class="cls-3" x1="52.31" y1="431.47" x2="52.31" y2="452.58"/><line class="cls-3" x1="136.82" y1="389.2" x2="136.82" y2="368.1"/><line class="cls-3" x1="136.8" y1="368.07" x2="115.69" y2="368.07"/><line class="cls-3" x1="52.31" y1="368.07" x2="73.43" y2="368.07"/><line class="cls-3" x1="52.31" y1="389.2" x2="52.31" y2="368.1"/><line class="cls-3" x1="136.8" y1="452.58" x2="115.69" y2="452.58"/><line class="cls-3" x1="94.57" y1="402.86" x2="73.43" y2="368.07"/><line class="cls-3" x1="87.08" y1="410.32" x2="94.57" y2="402.86"/><line class="cls-3" x1="52.31" y1="389.2" x2="87.08" y2="410.32"/><line class="cls-3" x1="73.43" y1="368.07" x2="52.32" y2="389.2"/><path class="cls-3" d="M406.32,449c-2.84,1-37.94,17.1-40.6,18.43"/><path class="cls-3" d="M342,434.56c-0.68-1-1.37-2-2.07-3"/><line class="cls-3" x1="365.72" y1="467.44" x2="380.84" y2="458.47"/><line class="cls-3" x1="354.19" y1="422.21" x2="331.6" y2="416.38"/><line class="cls-4" x1="369.49" y1="452.27" x2="373.62" y2="456.68"/><line class="cls-3" x1="369.49" y1="452.27" x2="413.01" y2="376.35"/><line class="cls-3" x1="432.24" y1="396.35" x2="396.1" y2="436.98"/><line class="cls-3" x1="367.05" y1="462.44" x2="354.19" y2="422.21"/><line class="cls-4" x1="349.99" y1="438.21" x2="354.19" y2="422.21"/><line class="cls-3" x1="399.57" y1="433.93" x2="367.05" y2="462.44"/><line class="cls-3" x1="365.71" y1="467.43" x2="367.05" y2="462.44"/><line class="cls-4" x1="413.01" y1="376.35" x2="432.24" y2="396.35"/><line class="cls-4" x1="354.19" y1="422.21" x2="335.25" y2="401.95"/><line class="cls-4" x1="425.69" y1="425.2" x2="399.57" y2="433.93"/><line class="cls-3" x1="425.69" y1="425.2" x2="422.35" y2="439.8"/><line class="cls-3" x1="335.25" y1="401.95" x2="331.6" y2="416.38"/><line class="cls-3" x1="331.6" y1="416.38" x2="329.55" y2="424.39"/><line class="cls-3" x1="432.24" y1="396.35" x2="435.49" y2="382.06"/><line class="cls-3" x1="432.24" y1="396.35" x2="427.86" y2="412.31"/><line class="cls-3" x1="435.49" y1="382.06" x2="413.01" y2="376.35"/><line class="cls-3" x1="346" y1="359.34" x2="368.27" y2="365"/><line class="cls-3" x1="342.44" y1="373.44" x2="338.33" y2="389.39"/><line class="cls-3" x1="342.44" y1="373.44" x2="346" y2="359.34"/><line class="cls-3" x1="422.35" y1="439.8" x2="420.13" y2="447.8"/><line class="cls-4" x1="399.57" y1="433.93" x2="395.24" y2="449.95"/><line class="cls-3" x1="422.35" y1="439.8" x2="399.57" y2="433.93"/><line class="cls-3" x1="395.24" y1="449.95" x2="420.13" y2="447.8"/><line class="cls-3" x1="380.84" y1="458.47" x2="395.24" y2="449.95"/><line class="cls-3" x1="345.09" y1="412.49" x2="338.33" y2="389.39"/><line class="cls-3" x1="409.07" y1="430.76" x2="427.86" y2="412.31"/><line class="cls-3" x1="342.05" y1="434.54" x2="359.08" y2="460.29"/><line class="cls-3" x1="349.99" y1="438.21" x2="329.55" y2="424.39"/><line class="cls-3" x1="365.71" y1="467.43" x2="349.99" y2="438.21"/><line class="cls-3" x1="359.08" y1="460.29" x2="365.71" y2="467.43"/><line class="cls-3" x1="369.49" y1="452.27" x2="368.27" y2="365"/><line class="cls-4" x1="364.35" y1="453.98" x2="369.49" y2="452.27"/><line class="cls-3" x1="342.44" y1="373.44" x2="352.83" y2="420.77"/><line class="cls-4" x1="368.27" y1="365" x2="342.44" y2="373.44"/><rect class="cls-1" x="-366.68" y="7.8" width="1224" height="792"/><ellipse class="cls-5" cx="863.24" cy="310.4" rx="148.5" ry="160.5" transform="translate(-52.9 263.23) rotate(-16.83)"/><circle class="cls-6" cx="819.56" cy="271.8" r="56.5" transform="translate(-43.59 248.94) rotate(-16.83)"/><line class="cls-7" x1="763.19" y1="267.76" x2="723.62" y2="246.9"/><line class="cls-7" x1="773.42" y1="239.18" x2="744.95" y2="207.44"/><line class="cls-7" x1="826.67" y1="215.73" x2="835.84" y2="152.44"/><line class="cls-7" x1="864.24" y1="237.2" x2="926.33" y2="168.81"/><line class="cls-7" x1="875.62" y1="264.74" x2="1000.25" y2="252.82"/><line class="cls-7" x1="862.63" y1="308.37" x2="1007.28" y2="359.9"/><line class="cls-7" x1="835.92" y1="325.88" x2="930.91" y2="457.61"/><line class="cls-7" x1="807.99" y1="327.11" x2="794.83" y2="448.97"/><line class="cls-7" x1="774.88" y1="306.39" x2="723.1" y2="360"/><line class="cls-7" x1="845.82" y1="221.77" x2="880.09" y2="152.78"/><line class="cls-7" x1="765.48" y1="288.15" x2="714.27" y2="289.26"/><line class="cls-7" x1="809.49" y1="216.08" x2="800.59" y2="162.45"/><line class="cls-7" x1="790.06" y1="223.59" x2="770.02" y2="181.44"/><g class="cls-8"><path class="cls-9" d="M537.16,111.88c0-.52.07-1,0.11-1.56"/><path class="cls-9" d="M539,140.63q-0.66-8.3-1.23-16.6"/><path class="cls-9" d="M537.27,110.31q0.42-5.79.95-11.56"/><path class="cls-10" d="M539.89,87.07q-1,5.82-1.67,11.68"/><path class="cls-9" d="M538.72,103.6q0.51-8.27,1.17-16.53"/><path class="cls-9" d="M538.72,103.6q-1,5.22-1.59,10.5"/><path class="cls-9" d="M552.17,111.7q0.39-5.33.9-10.66"/><path class="cls-9" d="M547.49,89.54q-4.46,7-8.77,14.06"/><line class="cls-9" x1="553.07" y1="101.04" x2="559.43" y2="97.25"/><path class="cls-9" d="M553.79,86.84a70.33,70.33,0,0,0,5.64,10.41"/><path class="cls-9" d="M547.49,89.54a84.65,84.65,0,0,0,5.59,11.5"/><path class="cls-9" d="M538.72,103.6a69,69,0,0,0,6.21,10.5"/><path class="cls-10" d="M556.35,52.66q-4.13,7.67-8.16,15.39"/><path class="cls-9" d="M539.89,87.07Q544.21,80,548.66,73"/><path class="cls-10" d="M539.89,87.07q4-9.58,8.3-19"/><path class="cls-9" d="M548.66,73q3.68-9.08,7.68-18"/><path class="cls-9" d="M558.39,63.5q2-4.41,4.07-8.78"/><path class="cls-9" d="M568.49,61.47q-3.5,6.71-6.93,13.45"/><path class="cls-9" d="M548.66,73q-0.66,8.26-1.17,16.53"/><line class="cls-9" x1="561.56" y1="74.93" x2="567.26" y2="73.14"/><path class="cls-9" d="M553.79,86.84q6.57-7,13.47-13.7"/><line class="cls-9" x1="553.79" y1="86.84" x2="547.49" y2="89.54"/><path class="cls-9" d="M547.49,89.54q6.86-7.48,14.07-14.61"/><path class="cls-9" d="M548.66,73q6.81-6.92,14-13.43"/><line class="cls-9" x1="555.51" y1="109.3" x2="559.43" y2="97.25"/><line class="cls-9" x1="562.46" y1="54.72" x2="559.54" y2="52.61"/><line class="cls-9" x1="559.54" y1="52.61" x2="556.35" y2="52.66"/><path class="cls-9" d="M556.34,55a22.44,22.44,0,0,1,0-2.33"/><line class="cls-9" x1="562.46" y1="54.72" x2="556.34" y2="54.99"/><line class="cls-9" x1="568.28" y1="58.95" x2="562.65" y2="59.57"/><path class="cls-9" d="M562.65,59.57q2.92,1,5.84,1.9"/><line class="cls-9" x1="568.49" y1="61.47" x2="571.19" y2="61.07"/><line class="cls-9" x1="568.28" y1="58.95" x2="571.19" y2="61.07"/><line class="cls-9" x1="571.19" y1="61.07" x2="567.26" y2="73.14"/><line class="cls-11" x1="552.17" y1="111.7" x2="555.51" y2="109.3"/><line class="cls-9" x1="548.19" y1="160.16" x2="548.29" y2="160.04"/><path class="cls-9" d="M548.31,160.32l-0.12-.16"/><path class="cls-10" d="M539.89,150.73q4,4.88,8.3,9.43"/><path class="cls-10" d="M548.66,164.8q-4.45-7-8.77-14.06"/><line class="cls-10" x1="559.71" y1="168.05" x2="556.33" y2="173.22"/><path class="cls-10" d="M548.66,164.8q3.65,4.39,7.68,8.42"/><path class="cls-9" d="M568.49,161.93q-3.54-4.27-6.93-8.65"/><path class="cls-9" d="M547.49,148.27q0.5,8.27,1.17,16.53"/><line class="cls-9" x1="561.56" y1="153.28" x2="567.26" y2="145.47"/><path class="cls-9" d="M553.79,141.37a83.89,83.89,0,0,0,13.47,4.1"/><path class="cls-9" d="M547.49,148.27a96,96,0,0,0,14.07,5"/><path class="cls-9" d="M548.66,164.8a83.89,83.89,0,0,0,14,3.83"/><path class="cls-9" d="M539.89,150.73q-0.66-8.26-1.17-16.53"/><path class="cls-9" d="M537.13,114.1a19,19,0,0,1,0-2.23"/><path class="cls-10" d="M539.89,150.73q-0.5-5-.9-10.1"/><line class="cls-11" x1="542.59" y1="110.64" x2="537.13" y2="114.1"/><path class="cls-10" d="M538.72,134.2q-1-10-1.59-20.1"/><path class="cls-9" d="M544.87,114.28c0-.09,0-0.19,0-0.28"/><path class="cls-9" d="M552.17,111.7q0.38,7.73.9,15.46"/><path class="cls-9" d="M538.72,134.2q4.32,7.07,8.77,14.06"/><path class="cls-11" d="M544.93,114.1q3.63-1.18,7.24-2.4"/><line class="cls-9" x1="553.07" y1="127.16" x2="559.43" y2="121.36"/><path class="cls-9" d="M553.79,141.37q2.5-10.1,5.64-20"/><line class="cls-9" x1="553.79" y1="141.37" x2="547.49" y2="148.27"/><path class="cls-9" d="M547.49,148.27q2.47-10.64,5.59-21.1"/><path class="cls-9" d="M538.72,134.2q2.76-10.16,6.21-20.1"/><line class="cls-9" x1="571.21" y1="157.55" x2="567.26" y2="145.47"/><line class="cls-9" x1="568.49" y1="161.93" x2="571.21" y2="157.55"/><path class="cls-9" d="M562.65,168.63q2.93-3.34,5.84-6.7"/><line class="cls-11" x1="555.51" y1="109.3" x2="559.43" y2="121.36"/><path class="cls-9" d="M542.76,295.46q-0.88-6.79-1.69-13.6"/><path class="cls-9" d="M546.35,269.6q-2.8,6.06-5.27,12.26"/><path class="cls-9" d="M555,287q-4.46-8.62-8.65-17.36"/><path class="cls-9" d="M555,287q-3.08,5.44-5.89,11"/><path class="cls-9" d="M554.36,288.15q-1.27,2.38-2.48,4.79"/><path class="cls-9" d="M573.68,295.46q-0.24-5.59-.45-11.19"/><path class="cls-9" d="M563.66,272.19q-4.47,7.3-8.66,14.77"/><line class="cls-9" x1="573.23" y1="284.27" x2="574.14" y2="280.28"/><path class="cls-10" d="M565.29,269.49q4.19,5.59,8.85,10.79"/><path class="cls-9" d="M563.66,272.19q4.55,6.24,9.57,12.08"/><path class="cls-9" d="M555,287a150,150,0,0,0,10.19,11"/><line class="cls-9" x1="557.15" y1="283.07" x2="555" y2="286.96"/><path class="cls-9" d="M557.15,283.07l0,0"/><path class="cls-9" d="M542.76,233.46q-0.88,8.08-1.69,16.16"/><path class="cls-9" d="M546.35,269.6q4.19-7.47,8.66-14.77"/><path class="cls-9" d="M546.35,269.6q-2.84-9.94-5.27-20"/><path class="cls-9" d="M555,254.83q-3.13-9.4-5.89-18.92"/><path class="cls-9" d="M556.82,252.21q-2.63-8.24-4.94-16.58"/><path class="cls-9" d="M573.68,242.72q-0.23,7.06-.45,14.12"/><path class="cls-9" d="M555,254.83q4.2,8.74,8.66,17.36"/><line class="cls-9" x1="573.23" y1="256.85" x2="574.14" y2="254.97"/><path class="cls-9" d="M563.66,272.19q4.65-7.76,9.57-15.35"/><path class="cls-9" d="M555,254.83q4.92-7.18,10.19-14.11"/><line class="cls-10" x1="574.14" y1="292.94" x2="574.14" y2="280.28"/><line class="cls-10" x1="551.88" y1="235.63" x2="544.46" y2="233.41"/><line class="cls-9" x1="544.46" y1="233.41" x2="542.76" y2="233.46"/><path class="cls-9" d="M549.11,235.91l-6.35-2.45"/><line class="cls-9" x1="551.88" y1="235.63" x2="549.11" y2="235.91"/><line class="cls-9" x1="566.71" y1="240.07" x2="565.19" y2="240.73"/><path class="cls-9" d="M565.19,240.73l8.49,2"/><line class="cls-9" x1="573.68" y1="242.72" x2="574.13" y2="242.3"/><line class="cls-10" x1="566.71" y1="240.07" x2="574.13" y2="242.3"/><line class="cls-10" x1="574.13" y1="242.3" x2="574.14" y2="254.97"/><line class="cls-9" x1="573.68" y1="295.46" x2="574.14" y2="292.94"/><line class="cls-10" x1="541.07" y1="346.34" x2="544.45" y2="337.58"/><path class="cls-9" d="M545.92,334.79q-0.75,1.39-1.47,2.79"/><path class="cls-9" d="M549.11,360.06q-3.21-1.2-6.35-2.59"/><path class="cls-9" d="M542.76,357.46q-0.89-5.55-1.69-11.12"/><path class="cls-10" d="M546.35,336.45q-2.73,4.9-5.27,9.9"/><path class="cls-9" d="M555,351.21q-4.47-7.3-8.65-14.77"/><path class="cls-9" d="M555,351.21q-3,4.39-5.89,8.84"/><path class="cls-9" d="M573.68,348.2q-0.24-4.54-.45-9.08"/><path class="cls-9" d="M563.66,333.85q-4.46,8.61-8.66,17.36"/><line class="cls-9" x1="573.23" y1="339.12" x2="574.14" y2="330.92"/><path class="cls-10" d="M566.44,327.36a42,42,0,0,0,7.7,3.56"/><path class="cls-10" d="M563.66,333.85a54.25,54.25,0,0,0,9.57,5.27"/><path class="cls-9" d="M555,351.21a47.69,47.69,0,0,0,10.19,4"/><path class="cls-9" d="M546.35,336.45q4.2-8.74,8.66-17.36"/><path class="cls-11" d="M549.11,298q-3.19-1.21-6.35-2.52"/><path class="cls-9" d="M546.35,336.45q-2.87-11.12-5.27-22.34"/><line class="cls-9" x1="551.88" y1="292.94" x2="549.11" y2="297.98"/><path class="cls-9" d="M555,319.09q-3.16-10.49-5.89-21.1"/><path class="cls-10" d="M557.15,312.9q-2.86-9.92-5.27-20"/><path class="cls-9" d="M573.68,295.46q-0.23,8.12-.45,16.23"/><path class="cls-9" d="M555,319.09q4.19,7.47,8.66,14.77"/><path class="cls-11" d="M565.19,298q4.26-1.22,8.49-2.52"/><line class="cls-9" x1="573.23" y1="311.69" x2="574.14" y2="305.6"/><path class="cls-9" d="M563.66,333.85q4.72-11.1,9.57-22.16"/><path class="cls-9" d="M555,319.09q5-10.6,10.19-21.1"/><line class="cls-9" x1="555" y1="319.09" x2="557.15" y2="312.9"/><path class="cls-10" d="M557.15,312.9q3.65-7.79,7.41-15.53"/><line class="cls-9" x1="574.13" y1="343.6" x2="574.14" y2="330.91"/><path class="cls-9" d="M542.76,295.46q-0.87,9.32-1.69,18.64"/><line class="cls-9" x1="573.68" y1="348.2" x2="574.13" y2="343.6"/><path class="cls-9" d="M565.19,355.24q4.29-3.47,8.49-7"/><line class="cls-10" x1="574.14" y1="292.94" x2="574.14" y2="305.6"/><path class="cls-11" d="M557.61,437.91q-2,.49-3.94,1.13"/><path class="cls-9" d="M553.66,439q-3.51,4.21-6.92,8.5"/><path class="cls-9" d="M543.56,456.42q1.39-4.52,3.19-8.88"/><path class="cls-9" d="M555.51,445.82q-6.06,5.21-12,10.6"/><path class="cls-9" d="M555.51,445.82c0.57-2.67,1.27-5.3,2.09-7.91"/><path class="cls-9" d="M575.19,450q-2.7,3.75-5.32,7.55"/><path class="cls-9" d="M556.38,461q-0.56-7.58-.86-15.17"/><line class="cls-9" x1="569.87" y1="457.56" x2="571.52" y2="463.94"/><path class="cls-10" d="M558.88,466.67a89.39,89.39,0,0,1,12.65-2.72"/><path class="cls-9" d="M556.38,461a105.8,105.8,0,0,1,13.5-3.43"/><path class="cls-9" d="M555.51,445.82a91.35,91.35,0,0,1,13.24-2.31"/><path class="cls-9" d="M531.81,488.37q1.72-7.66,3.54-15.29"/><path class="cls-9" d="M543.56,456.42q0.15,7.72.55,15.43"/><path class="cls-9" d="M543.56,456.42q-4.3,8.23-8.2,16.66"/><path class="cls-9" d="M544.11,471.85q-4.42,7.87-8.43,16"/><path class="cls-10" d="M545.85,479.86q-3.07,5.93-5.88,12"/><path class="cls-9" d="M556.66,494.34q1.74-6.9,3.55-13.77"/><path class="cls-9" d="M544.11,471.85q6.05-5.52,12.27-10.86"/><line class="cls-9" x1="560.21" y1="480.57" x2="562.66" y2="485.26"/><path class="cls-10" d="M558.88,466.67q1.69,9.34,3.78,18.59"/><line class="cls-9" x1="558.88" y1="466.67" x2="556.38" y2="460.99"/><path class="cls-9" d="M556.38,461q1.71,9.83,3.84,19.57"/><path class="cls-9" d="M544.11,471.85q2,9.57,4.45,19"/><line class="cls-10" x1="575.83" y1="453.6" x2="571.52" y2="463.94"/><line class="cls-9" x1="539.97" y1="491.85" x2="534.18" y2="490.43"/><line class="cls-9" x1="534.18" y1="490.43" x2="531.81" y2="488.37"/><path class="cls-9" d="M535.67,487.8q-1.94.24-3.86,0.57"/><line class="cls-9" x1="539.97" y1="491.85" x2="535.67" y2="487.8"/><line class="cls-9" x1="551.92" y1="494.75" x2="548.55" y2="490.86"/><path class="cls-9" d="M548.55,490.86q4.06,1.72,8.11,3.48"/><line class="cls-9" x1="556.66" y1="494.34" x2="558.09" y2="496.25"/><line class="cls-10" x1="551.92" y1="494.75" x2="558.09" y2="496.25"/><line class="cls-10" x1="558.09" y1="496.25" x2="562.66" y2="485.26"/><line class="cls-11" x1="575.19" y1="450.01" x2="575.83" y2="453.6"/><path class="cls-9" d="M589.61,416q-4.15.5-8.27,1.13"/><path class="cls-9" d="M577.14,417.55a36.58,36.58,0,0,1,4.2-.37"/><path class="cls-9" d="M590.1,415q-7.21,1.31-14.4,2.77"/><line class="cls-9" x1="594.25" y1="416.76" x2="594.3" y2="414.68"/><path class="cls-9" d="M590.1,415a20.82,20.82,0,0,1,4.2-.34"/><path class="cls-9" d="M581.15,424.8q2.5-.49,5-0.94"/><path class="cls-9" d="M606.66,428.43q-3.58.47-7.14,1.1"/><path class="cls-9" d="M586.1,424q1.89-4.53,4-9"/><line class="cls-9" x1="599.52" y1="429.52" x2="598.91" y2="437.55"/><path class="cls-10" d="M586.45,431.81a100.48,100.48,0,0,1,12.47,5.74"/><path class="cls-9" d="M586.1,424a116.27,116.27,0,0,1,13.42,5.54"/><path class="cls-9" d="M590.1,415a107.5,107.5,0,0,1,12.69,6"/><path class="cls-9" d="M576.72,425.81q2.2-.58,4.43-1"/><path class="cls-9" d="M575.7,417.79q-2.39,4.51-4.56,9.13"/><path class="cls-9" d="M575.7,417.79q-6.82,5.4-13.34,11.16"/><line class="cls-11" x1="559.89" y1="444.84" x2="557.61" y2="437.91"/><path class="cls-9" d="M571.14,426.92q-6.92,5.32-13.53,11"/><path class="cls-10" d="M569.55,437.07q-4.36,3.69-8.56,7.56"/><path class="cls-9" d="M581.15,424.8l0.08,0.1"/><path class="cls-9" d="M581,424.94l0.13-.14"/><path class="cls-9" d="M575.19,450q4-4.76,8-9.44"/><path class="cls-9" d="M571.14,426.92q7.47-1.55,15-2.94"/><path class="cls-11" d="M568.76,443.51q3.24,3.22,6.43,6.5"/><line class="cls-9" x1="583.2" y1="440.57" x2="583.8" y2="448.05"/><path class="cls-10" d="M586.45,431.81q-1.54,8.09-2.64,16.24"/><line class="cls-10" x1="586.45" y1="431.81" x2="586.1" y2="423.98"/><path class="cls-9" d="M586.1,424q-1.68,8.26-2.9,16.59"/><path class="cls-9" d="M571.14,426.92q-1.46,8.26-2.38,16.6"/><line class="cls-10" x1="606.1" y1="432.57" x2="598.91" y2="437.55"/><path class="cls-9" d="M553.66,439q4.3-5.09,8.7-10.1"/><line class="cls-9" x1="606.66" y1="428.43" x2="606.1" y2="432.57"/><path class="cls-9" d="M602.79,421q2,3.69,3.87,7.43"/><line class="cls-10" x1="575.83" y1="453.6" x2="583.8" y2="448.05"/></g><path class="cls-12" d="M228.61,529.38h1.64v12.28h-1.77v-9.55l-3.77,4.75h-0.33l-3.82-4.75v9.55h-1.76V529.38h1.66l4.08,5Z"/><path class="cls-12" d="M236.55,533.56a4.22,4.22,0,0,1,3.07,1.19,4,4,0,0,1,1.22,3,3.8,3.8,0,0,1-1.24,2.9,4.39,4.39,0,0,1-3.12,1.16,4.21,4.21,0,0,1-3-1.17,4.14,4.14,0,0,1,0-5.89A4.31,4.31,0,0,1,236.55,533.56ZM236.46,535a2.53,2.53,0,0,0-1.89.76,2.64,2.64,0,0,0-.74,1.92,2.52,2.52,0,0,0,.76,1.89,2.67,2.67,0,0,0,1.94.73,2.63,2.63,0,0,0,1.93-.74,2.75,2.75,0,0,0,0-3.81A2.72,2.72,0,0,0,236.46,535Z"/><path class="cls-12" d="M248,529.38h1.61v12.28H246.2a3.74,3.74,0,0,1-2.86-1.13,4.25,4.25,0,0,1-1.07-3,4,4,0,0,1,1.12-2.94,3.82,3.82,0,0,1,2.86-1.15,5.2,5.2,0,0,1,1.76.34v-4.36Zm0,10.91v-5.12a3.32,3.32,0,0,0-1.51-.38,2.44,2.44,0,0,0-1.9.78,3,3,0,0,0-.71,2.11,2.76,2.76,0,0,0,.62,1.92,1.91,1.91,0,0,0,.78.54,5.28,5.28,0,0,0,1.49.14H248Z"/><path class="cls-12" d="M256.94,541.66v-1a3.73,3.73,0,0,1-1.16.87,3,3,0,0,1-1.31.31,2.71,2.71,0,0,1-1.41-.38,2.47,2.47,0,0,1-1-1,5.19,5.19,0,0,1-.33-2.17v-4.63h1.6v4.61a3.17,3.17,0,0,0,.36,1.78,1.47,1.47,0,0,0,1.28.5,2.34,2.34,0,0,0,1.94-1.12v-5.77h1.6v8.09h-1.6Z"/><path class="cls-12" d="M260.82,529.38h1.6v12.28h-1.6V529.38Z"/><path class="cls-12" d="M271.62,537.76h-5.69a2.64,2.64,0,0,0,.78,1.85,2.57,2.57,0,0,0,1.85.69,4.81,4.81,0,0,0,2.92-1v1.56a5.34,5.34,0,0,1-1.46.7,6.12,6.12,0,0,1-1.7.21,3.82,3.82,0,0,1-2.16-.55,4,4,0,0,1-1.32-1.49,4.56,4.56,0,0,1-.5-2.17,4.3,4.3,0,0,1,1-3,3.49,3.49,0,0,1,2.72-1.16,3.2,3.2,0,0,1,2.57,1.13,4.49,4.49,0,0,1,1,3v0.2Zm-5.65-1H270a2.23,2.23,0,0,0-.57-1.48,1.84,1.84,0,0,0-1.37-.52,2,2,0,0,0-1.41.52A2.57,2.57,0,0,0,266,536.8Z"/><path class="cls-12" d="M273,541.08v-1.72a7.29,7.29,0,0,0,1.38.77,3.23,3.23,0,0,0,1.19.29,1.49,1.49,0,0,0,.86-0.25,0.71,0.71,0,0,0,.36-0.59,0.79,0.79,0,0,0-.23-0.58,5.4,5.4,0,0,0-1-.67,7.13,7.13,0,0,1-2-1.47,2.11,2.11,0,0,1-.48-1.33,1.87,1.87,0,0,1,.73-1.52,2.87,2.87,0,0,1,1.87-.59,5.14,5.14,0,0,1,2.43.67v1.58a4.87,4.87,0,0,0-2.33-.86,1.3,1.3,0,0,0-.75.2,0.61,0.61,0,0,0-.29.52,0.76,0.76,0,0,0,.26.54,4.43,4.43,0,0,0,.91.62l0.57,0.32q2,1.14,2,2.53a2,2,0,0,1-.78,1.63,3.05,3.05,0,0,1-2,.64,4.87,4.87,0,0,1-1.28-.15A8.54,8.54,0,0,1,273,541.08Z"/><path class="cls-12" d="M532.92,538.81v1.93a9.18,9.18,0,0,1-4.46,1.05A6.88,6.88,0,0,1,525,541a6.08,6.08,0,0,1-2.27-2.28,6.18,6.18,0,0,1-.83-3.14,6,6,0,0,1,1.91-4.51,6.56,6.56,0,0,1,4.72-1.83,11.06,11.06,0,0,1,4.3,1v1.89a8.46,8.46,0,0,0-4.21-1.23,4.87,4.87,0,0,0-3.5,1.33,4.42,4.42,0,0,0-1.39,3.34,4.38,4.38,0,0,0,1.37,3.32,4.89,4.89,0,0,0,3.51,1.3A8,8,0,0,0,532.92,538.81Z"/><path class="cls-12" d="M538.73,533.56a4.22,4.22,0,0,1,3.07,1.19,4,4,0,0,1,1.22,3,3.8,3.8,0,0,1-1.24,2.9,4.39,4.39,0,0,1-3.12,1.16,4.21,4.21,0,0,1-3-1.17,4.14,4.14,0,0,1,0-5.89A4.31,4.31,0,0,1,538.73,533.56ZM538.64,535a2.53,2.53,0,0,0-1.89.76,2.64,2.64,0,0,0-.74,1.92,2.52,2.52,0,0,0,.76,1.89,2.67,2.67,0,0,0,1.94.73,2.63,2.63,0,0,0,1.93-.74,2.75,2.75,0,0,0,0-3.81A2.72,2.72,0,0,0,538.64,535Z"/><path class="cls-12" d="M546.4,533.58v1a3.22,3.22,0,0,1,2.43-1.19,2.69,2.69,0,0,1,1.41.39,2.56,2.56,0,0,1,1,1.07,5.13,5.13,0,0,1,.34,2.16v4.62H550v-4.61a3.15,3.15,0,0,0-.38-1.77,1.45,1.45,0,0,0-1.27-.53,2.3,2.3,0,0,0-1.92,1.13v5.77h-1.63v-8.09h1.63Z"/><path class="cls-12" d="M555.4,533.58v1a3.22,3.22,0,0,1,2.43-1.19,2.69,2.69,0,0,1,1.41.39,2.56,2.56,0,0,1,1,1.07,5.13,5.13,0,0,1,.34,2.16v4.62H559v-4.61a3.15,3.15,0,0,0-.38-1.77,1.45,1.45,0,0,0-1.27-.53,2.3,2.3,0,0,0-1.92,1.13v5.77h-1.63v-8.09h1.63Z"/><path class="cls-12" d="M569.69,537.76H564a2.64,2.64,0,0,0,.78,1.85,2.57,2.57,0,0,0,1.85.69,4.81,4.81,0,0,0,2.92-1v1.56a5.34,5.34,0,0,1-1.46.7,6.11,6.11,0,0,1-1.7.21,3.82,3.82,0,0,1-2.16-.55,4,4,0,0,1-1.32-1.49,4.56,4.56,0,0,1-.5-2.17,4.3,4.3,0,0,1,1-3,3.49,3.49,0,0,1,2.72-1.16,3.2,3.2,0,0,1,2.57,1.13,4.49,4.49,0,0,1,1,3v0.2Zm-5.65-1h4.07a2.23,2.23,0,0,0-.57-1.48,1.84,1.84,0,0,0-1.37-.52,2,2,0,0,0-1.41.52A2.57,2.57,0,0,0,564,536.8Z"/><path class="cls-12" d="M577.48,539.77v1.58a6.73,6.73,0,0,1-2.36.45,3.88,3.88,0,0,1-4.16-4.14,4.31,4.31,0,0,1,1.1-3.08,3.78,3.78,0,0,1,2.89-1.17,4.78,4.78,0,0,1,1.12.12,7.23,7.23,0,0,1,1.23.44v1.71a4.25,4.25,0,0,0-2.25-.77,2.3,2.3,0,0,0-1.78.76,2.77,2.77,0,0,0-.69,1.94,2.62,2.62,0,0,0,.75,2,2.79,2.79,0,0,0,2,.73A5.29,5.29,0,0,0,577.48,539.77Z"/><path class="cls-12" d="M578.17,534.86l3-3v1.67h2.56V535h-2.56v4a1.13,1.13,0,0,0,1.15,1.39,3.57,3.57,0,0,0,1.82-.57v1.49a4,4,0,0,1-2,.52,2.67,2.67,0,0,1-1.83-.64,1.83,1.83,0,0,1-.38-0.43,2.31,2.31,0,0,1-.25-0.63,7.12,7.12,0,0,1-.1-1.49V535h-1.41v-0.16Z"/><path class="cls-12" d="M586.12,530.17a0.94,0.94,0,0,1,.68.27,0.89,0.89,0,0,1,.28.67,0.91,0.91,0,0,1-.28.67,0.92,0.92,0,0,1-.68.28,0.89,0.89,0,0,1-.65-0.29,0.92,0.92,0,0,1-.28-0.66,0.91,0.91,0,0,1,.28-0.65A0.89,0.89,0,0,1,586.12,530.17Zm-0.79,3.4h1.6v8.09h-1.6v-8.09Z"/><path class="cls-12" d="M593.11,533.56a4.22,4.22,0,0,1,3.07,1.19,4,4,0,0,1,1.22,3,3.8,3.8,0,0,1-1.24,2.9A4.39,4.39,0,0,1,593,541.8a4.21,4.21,0,0,1-3-1.17,4.14,4.14,0,0,1,0-5.89A4.31,4.31,0,0,1,593.11,533.56ZM593,535a2.53,2.53,0,0,0-1.89.76,2.64,2.64,0,0,0-.74,1.92,2.52,2.52,0,0,0,.76,1.89,2.67,2.67,0,0,0,1.94.73,2.63,2.63,0,0,0,1.93-.74,2.75,2.75,0,0,0,0-3.81A2.72,2.72,0,0,0,593,535Z"/><path class="cls-12" d="M600.77,533.58v1a3.22,3.22,0,0,1,2.43-1.19,2.69,2.69,0,0,1,1.41.39,2.56,2.56,0,0,1,1,1.07,5.13,5.13,0,0,1,.34,2.16v4.62h-1.6v-4.61a3.15,3.15,0,0,0-.38-1.77,1.45,1.45,0,0,0-1.27-.53,2.3,2.3,0,0,0-1.92,1.13v5.77h-1.63v-8.09h1.63Z"/><path class="cls-12" d="M858.56,529.21a6.6,6.6,0,0,1,4.74,1.8,6,6,0,0,1,1.89,4.52,5.88,5.88,0,0,1-1.91,4.5,6.8,6.8,0,0,1-4.82,1.78,6.41,6.41,0,0,1-4.62-1.78,5.94,5.94,0,0,1-1.85-4.46,6.07,6.07,0,0,1,1.86-4.55A6.5,6.5,0,0,1,858.56,529.21Zm0.07,1.67a4.77,4.77,0,0,0-3.46,1.32,4.49,4.49,0,0,0-1.36,3.37,4.41,4.41,0,0,0,1.36,3.3,5.05,5.05,0,0,0,6.84,0,4.5,4.5,0,0,0,1.37-3.35,4.39,4.39,0,0,0-1.37-3.28A4.67,4.67,0,0,0,858.63,530.88Z"/><path class="cls-12" d="M872.08,533.58h1.73l-3.57,8.23H869.7L866,533.58h1.75l2.18,5Z"/><path class="cls-12" d="M881.54,537.76h-5.69a2.64,2.64,0,0,0,.78,1.85,2.57,2.57,0,0,0,1.85.69,4.81,4.81,0,0,0,2.92-1v1.56a5.34,5.34,0,0,1-1.46.7,6.11,6.11,0,0,1-1.7.21,3.82,3.82,0,0,1-2.16-.55,4,4,0,0,1-1.32-1.49,4.56,4.56,0,0,1-.5-2.17,4.3,4.3,0,0,1,1-3,3.49,3.49,0,0,1,2.72-1.16,3.2,3.2,0,0,1,2.57,1.13,4.49,4.49,0,0,1,1,3v0.2Zm-5.65-1H880a2.23,2.23,0,0,0-.57-1.48,1.84,1.84,0,0,0-1.37-.52,2,2,0,0,0-1.41.52A2.57,2.57,0,0,0,875.89,536.8Z"/><path class="cls-12" d="M885,533.58v1.85l0.09-.14q1.16-1.87,2.32-1.87a2.86,2.86,0,0,1,1.89.91l-0.84,1.41a2.37,2.37,0,0,0-1.55-.79,1.66,1.66,0,0,0-1.34.74,2.79,2.79,0,0,0-.57,1.75v4.23h-1.61v-8.09H885Z"/><path class="cls-12" d="M895.48,536.8v3.44q0,0.41.28,0.41a1.94,1.94,0,0,0,.91-0.43v1a5.24,5.24,0,0,1-.87.48,1.91,1.91,0,0,1-.69.13,1.07,1.07,0,0,1-1.21-.81,3.48,3.48,0,0,1-2.17.79,1.91,1.91,0,0,1-1.41-.56,1.89,1.89,0,0,1-.56-1.4,2,2,0,0,1,.55-1.37,3.72,3.72,0,0,1,1.56-1l2-.7v-0.43a1.29,1.29,0,0,0-1.46-1.46,3.51,3.51,0,0,0-2.55,1.35v-1.75a3.32,3.32,0,0,1,2.68-1.1,3.09,3.09,0,0,1,2.1.69,2.16,2.16,0,0,1,.47.58,2.12,2.12,0,0,1,.27.73A10.76,10.76,0,0,1,895.48,536.8Zm-1.57,3.26v-2.4l-1.07.41a3.64,3.64,0,0,0-1.16.65,1.19,1.19,0,0,0,0,1.64,1.13,1.13,0,0,0,.83.32A2,2,0,0,0,893.91,540.06Z"/><path class="cls-12" d="M898.12,529.38h1.6v12.28h-1.6V529.38Z"/><path class="cls-12" d="M902.07,529.38h1.6v12.28h-1.6V529.38Z"/><path class="cls-12" d="M19.81,87.18h1.76V99.46H19.81V87.18Z"/><path class="cls-12" d="M17.81,248.59h1.76v12.28H17.81V248.59Z"/><path class="cls-12" d="M26.81,248.59h1.76v12.28H26.81V248.59Z"/><path class="cls-12" d="M15.81,404.23h1.76v12.28H15.81V404.23Z"/><path class="cls-12" d="M24.81,404.23h1.76v12.28H24.81V404.23Z"/><path class="cls-12" d="M33.81,404.23h1.76v12.28H33.81V404.23Z"/></svg>