<svg id="Layer_3" data-name="Layer 3" xmlns="http://www.w3.org/2000/svg" viewBox="0 0 463.3 295.17"><defs><style>.cls-1{opacity:0.68;}.cls-2{fill:none;stroke:#000;stroke-miterlimit:10;stroke-width:0.25px;}</style></defs><title>p_02</title><path class="cls-1" d="M119.4,171.29a0.28,0.28,0,0,1,0,.27,1.92,1.92,0,0,0-.09.45l-0.2.22s-0.72.78-1,1.12a3.18,3.18,0,0,0-.37.89l-0.14-.11s0.11-.61.11-0.72a1.67,1.67,0,0,1,.32-0.67,2.51,2.51,0,0,1,.6-0.72c0.38-.33.75-0.72,0.75-0.72h0Zm-6.34,31c0.06,0.39-.09,4.79.6,4.34,1.12-.78,1.21-0.16,1.49.17s-0.17,4.06,0,5.62c0.23,3.39.46,6.73,0.66,10.13,0,0.11.06,4.51,0.06,4.62,0.77,7.12.66,0.72,0.66,8.46,0,1.33.31,6.62,1.14,7.12,0.58,0.39,1-.22-0.14,2.12-0.08.16,0.06,0.78-1.32,1.45s-4.44-.5-5.79,1.11c-0.43.5-1.52,0.78,2.75,1.73,1.55,0.39,4.44,1.11,6-.06a5.27,5.27,0,0,1,2.9-.95c0.37,0-.17.34,0.4,0.56,0.77,0.27-2.12,3.39-2.41,3.61-2.35,1.73-1.46.56-1.89,2.06-0.37,1.28,3.13,1.33,3.9,1.17,1-.17,4.79-0.17,4.59-1.78-0.14-1.06-.54-1.06,1.23-0.56a1.73,1.73,0,0,0,1.52-.83c0.38-1.06-.2-5.17.46-5.45,1.78-.83.12-1.89-0.23-2.78s1.15-6.74,1.24-7.79c0.46-5.4.51-11.8,0.6-17.47,0.31-4.23.63-8.45,0.95-12.63,0.46-.61,2.61,1.11,2.9.72,0.43-.55-0.29-2.62-0.26-3.61,0-.34.52-1.56,0.64-2.51s0.08-1.12.11-1.84c0.06-1.05.11-2.28,0.14-2.83,0-1,.2-2.95.29-3.51s0.43-1.56.46-2.12,0.23-2.11.32-3.34,0.06-3.4.09-4.12a13.08,13.08,0,0,0,0-1.67,11.33,11.33,0,0,0,.34-1.45,1.32,1.32,0,0,0-.2-0.95,2.3,2.3,0,0,1-.4-1.17c0-.5-0.23-1.11-0.26-1.61a12.87,12.87,0,0,0-.49-2.23c-0.15-.33-0.26-0.78-0.46-1.17A11.22,11.22,0,0,1,135,171a2.85,2.85,0,0,0-.34-1c-0.11-.11-0.4-0.72-0.54-0.89s-0.8-1.34-.92-1.56-0.09-.5-0.26-0.78a1.79,1.79,0,0,0-.57-0.61,1.24,1.24,0,0,1-.55-0.22,1.66,1.66,0,0,1-.34-0.39,2.43,2.43,0,0,1-.17-0.72l0.06-.17s-0.17-.39-0.29-0.72-0.26-.55-0.34-0.83a0.56,0.56,0,0,0-.17-0.45,2.64,2.64,0,0,0-.46-0.11l0.46-.5a5,5,0,0,0,.51-0.95c0.11-.34.49-0.83,0.66-1.28a8.46,8.46,0,0,1,.51-1.56,5.14,5.14,0,0,0,.37-1.72,12.1,12.1,0,0,0,.14-1.84,5.22,5.22,0,0,0-.51-1.78,11.12,11.12,0,0,0-.51-1.05c0-.11-0.32-0.61-0.38-0.72a0.43,0.43,0,0,1,.2-0.39s0.23,0,0-.22a1.55,1.55,0,0,0-.54-0.62,4.12,4.12,0,0,1-.89-1.16,1.34,1.34,0,0,0-.55-0.45,6.65,6.65,0,0,1-.86-0.33,1.26,1.26,0,0,0-.69-0.34,12,12,0,0,1-1.2-.22,7,7,0,0,0-.8-0.22,1.44,1.44,0,0,1-.55.22,1.09,1.09,0,0,0-.6,0,2.44,2.44,0,0,1-.23.33,1.42,1.42,0,0,1-.69.06c-0.14,0-.57-0.11-0.69-0.11a1.75,1.75,0,0,0-.89.11,3.88,3.88,0,0,1-.91.45,3.15,3.15,0,0,0-.64.17,1.65,1.65,0,0,1-.54.34h-0.43a2.67,2.67,0,0,1-.46-0.17l-0.09.23-0.29.06a2.06,2.06,0,0,0,0,.27c0,0.17,0,.11-0.17.34s-0.32.39-.43,0.56a3,3,0,0,1-.46.55c-0.23.17-.43,0.34-0.43,0.34l0.49-.22a0.85,0.85,0,0,0-.23.45,1.18,1.18,0,0,0-.11.67c0.06,0.28.11,0.72,0.11,0.72l0.35,0.45a0.57,0.57,0,0,1,0-.61,0.6,0.6,0,0,1,.51-0.27,0.36,0.36,0,0,1,.2.38,4.14,4.14,0,0,0-.2.61,2.81,2.81,0,0,1-.09.72c-0.09.22-.11,0.5-0.2,0.67a4.18,4.18,0,0,1-.23.5,1.77,1.77,0,0,1-.17.44,0.93,0.93,0,0,0-.15.22,0.63,0.63,0,0,0,.17.33c0.06,0.17.11,0.33,0.14,0.45a3.74,3.74,0,0,1,.15.39s-0.35.39-.46,0.56a4.79,4.79,0,0,0-.34.5l-0.43.55a1.26,1.26,0,0,0-.29.62,0.74,0.74,0,0,0,.17.61,1.5,1.5,0,0,0,.66.33,2,2,0,0,1,.55.17,0.6,0.6,0,0,1,.11.34v0.33a0.55,0.55,0,0,0,.17.17,2,2,0,0,0,.23.17l-0.06.33a0.4,0.4,0,0,0,.12.06,0.75,0.75,0,0,1,.14.06,0.13,0.13,0,0,1,0,.11,1,1,0,0,1-.14.11,0.63,0.63,0,0,0-.37.33v0.5a5.07,5.07,0,0,1-.35.45c-0.09.17-.2,0.33-0.26,0.45l-0.2.38a2.13,2.13,0,0,0-.2.34,4.51,4.51,0,0,0-.26.56c-0.06.06-.15,0.28-0.23,0.38a3,3,0,0,1-.34.62l-0.32.39c-0.06.17-.34,0.61-0.46,0.84a11,11,0,0,0-.63,1.17c-0.09.22-.29,0.78-0.35,1s-0.14.78-.17,0.89a2.07,2.07,0,0,1-.14.45c-0.06.11-.32,0.67-0.37,0.83s-0.09.28-.11,0.39a2.65,2.65,0,0,0-.2.39,1.21,1.21,0,0,0-.06.22s-0.11.28-.14,0.34a2.28,2.28,0,0,0-.15.5l-0.06.5s-0.74.39-.89,0.5-0.37.33-.43,0.39a1.74,1.74,0,0,1-.14.17,0.41,0.41,0,0,1-.06.17,3.58,3.58,0,0,0-.66.72,8.83,8.83,0,0,0-.43,1.17,0.78,0.78,0,0,0,0,.28,1.08,1.08,0,0,0-.11.39,1.59,1.59,0,0,1,0,.22,0.77,0.77,0,0,0,0,.34,0.66,0.66,0,0,0,.06.28,1.06,1.06,0,0,0,0,.56,0.38,0.38,0,0,0,.2.27l0.09,0.11a0.17,0.17,0,0,1,.06.17,0.38,0.38,0,0,0,0,.28,0.6,0.6,0,0,0,.11.22s0,0.45-.06.56a1.79,1.79,0,0,0,0,.39c0,0.17,0,.44,0,0.44h-1l-0.17.06,0,1.61a0.71,0.71,0,0,1-.29-0.06l-0.29-.17c-0.09-.05-0.23-0.11-0.35-0.16l-0.25-.17a2.58,2.58,0,0,0-.29-0.17l-0.23-.11-0.12-.39a1.22,1.22,0,0,0-.11-0.34,0.18,0.18,0,0,0-.32-0.05,0.33,0.33,0,0,0-.14.22v0.11l0,0.11,0.06,0.5a0.49,0.49,0,0,0-.2.34,0.64,0.64,0,0,0,.14.55,2.61,2.61,0,0,1,.17.28l0.09,0.78-0.4.11a1.08,1.08,0,0,0-.43.11,1.17,1.17,0,0,1-.4.06,1.34,1.34,0,0,0-.6.11,1,1,0,0,0-.49.45,1.11,1.11,0,0,0-.06.61,0.36,0.36,0,0,0,.26.33,0.78,0.78,0,0,0,.46.11h0.43a1.64,1.64,0,0,0-.29.55,0.75,0.75,0,0,0,.23.62c0.14,0.16.31,0.39,0.31,0.39s-0.06.22-.09,0.39a1.07,1.07,0,0,0,.11.5,5.46,5.46,0,0,1,.4.44,0.33,0.33,0,0,1,.17.17,1.82,1.82,0,0,1,.29.34,2.11,2.11,0,0,0,.46.39c0.15,0.06.23,0.06,0.4,0.11a1.89,1.89,0,0,1,.43.23,0.37,0.37,0,0,0,.23.16h0.26a0.53,0.53,0,0,0,.06.45,0.58,0.58,0,0,0,.43.17h1.29s0,0.89.06,1.22a6.14,6.14,0,0,0,.09,1.06c0,0.22.17,0.61,0.17,0.72a0.33,0.33,0,0,0,.06.27,1,1,0,0,1,.2-0.06,3,3,0,0,0,.66.06,4.2,4.2,0,0,1,.15,1,1.35,1.35,0,0,0,0,.45,6.05,6.05,0,0,1,.11.78c0,0.16.06,1.33,0.14,2.5s0.11,2.17.2,3.23h0Z"/><path d="M161.33,25.24a2.2,2.2,0,0,1,1.56.55,1.86,1.86,0,0,1,.6,1.43,1.84,1.84,0,0,1-.61,1.43,2.29,2.29,0,0,1-1.6.55H160v2.86h-1.32V25.24h2.64ZM161,28.17a1.26,1.26,0,0,0,.82-0.24,0.87,0.87,0,0,0,.3-0.71,1,1,0,0,0-1.21-.94H160v1.9h1Z"/><path d="M165.54,27.5v2.82a0.94,0.94,0,0,0,.22.68,0.78,0.78,0,0,0,.59.23,1,1,0,0,0,.58-0.19,1.34,1.34,0,0,0,.45-0.52v-3h1.2v4.56h-1.2V31.45a1.89,1.89,0,0,1-1.41.71,1.54,1.54,0,0,1-1.18-.48,1.75,1.75,0,0,1-.45-1.25V27.5h1.2Z"/><path d="M173.7,27.5l-2.37,3.66h2.38v0.9h-4.38l2.38-3.65h-2.2V27.5h4.19Z"/><path d="M178.44,27.5l-2.37,3.66h2.38v0.9h-4.38l2.38-3.65h-2.2V27.5h4.19Z"/><path d="M180.5,25.24v6.82h-1.2V25.24h1.2Z"/><path d="M183.78,27.42a2,2,0,0,1,1.59.64,2.55,2.55,0,0,1,.59,1.78V30h-3.23a1.41,1.41,0,0,0,.46.94,1.57,1.57,0,0,0,1.05.33,2.34,2.34,0,0,0,.83-0.15,3.62,3.62,0,0,0,.82-0.45v0.89a3.28,3.28,0,0,1-1.94.57,2.45,2.45,0,0,1-1.76-.65,2.27,2.27,0,0,1-.68-1.73,2.35,2.35,0,0,1,.63-1.7A2.18,2.18,0,0,1,183.78,27.42Zm1,1.88a1.32,1.32,0,0,0-.3-0.78,0.9,0.9,0,0,0-.7-0.28,1,1,0,0,0-.73.27,1.33,1.33,0,0,0-.35.79h2.08Z"/><path d="M191.38,25.16a2.13,2.13,0,0,1,1.55.55,2,2,0,0,1,.57,1.48,3.33,3.33,0,0,1-.43,1.52,14.86,14.86,0,0,1-1.5,2.17h2.34v1.18h-4.42V31.92q0.77-1,1.33-1.71T191.67,29a5,5,0,0,0,.43-0.85,2.12,2.12,0,0,0,.13-0.73,1.11,1.11,0,0,0-.3-0.79,1,1,0,0,0-.73-0.32,2.31,2.31,0,0,0-1.6.88V25.81A3,3,0,0,1,191.38,25.16Z"/><path d="M195.59,30.65a0.73,0.73,0,0,1,.52.22,0.71,0.71,0,0,1,.23.53A0.75,0.75,0,1,1,195.59,30.65Z"/><path d="M199.47,25.16a1.87,1.87,0,0,1,1.64.93,4.63,4.63,0,0,1,.61,2.55,4.76,4.76,0,0,1-.6,2.57,1.85,1.85,0,0,1-1.64.94,1.9,1.9,0,0,1-1.67-.93,4.63,4.63,0,0,1-.61-2.56,4.66,4.66,0,0,1,.61-2.56A1.89,1.89,0,0,1,199.47,25.16Zm-1,3.54q0,2.34,1,2.34t1-2.46q0-2.3-1-2.3T198.47,28.7Z"/><path d="M208.49,25.24a4,4,0,0,1,1.89.43,3.15,3.15,0,0,1,1.29,1.22,3.44,3.44,0,0,1,.46,1.77,3.4,3.4,0,0,1-.46,1.77,3.1,3.1,0,0,1-1.31,1.2,4.3,4.3,0,0,1-1.95.42h-2.78V25.24h2.86ZM208.35,31a2.38,2.38,0,0,0,1.76-.66,2.59,2.59,0,0,0,0-3.46,2.49,2.49,0,0,0-1.79-.64h-1.36V31h1.4Z"/><path d="M215.25,27.42a2,2,0,0,1,1.59.64,2.55,2.55,0,0,1,.59,1.78V30H214.2a1.41,1.41,0,0,0,.46.94,1.57,1.57,0,0,0,1.05.33,2.34,2.34,0,0,0,.83-0.15,3.62,3.62,0,0,0,.82-0.45v0.89a3.28,3.28,0,0,1-1.94.57,2.45,2.45,0,0,1-1.76-.65,2.27,2.27,0,0,1-.68-1.73,2.35,2.35,0,0,1,.63-1.7A2.18,2.18,0,0,1,215.25,27.42Zm1,1.88a1.32,1.32,0,0,0-.3-0.78,0.9,0.9,0,0,0-.7-0.28,1,1,0,0,0-.73.27,1.33,1.33,0,0,0-.35.79h2.08Z"/><path d="M219.85,27.42a2.85,2.85,0,0,1,.71.08,3.65,3.65,0,0,1,.7.27v1a3.38,3.38,0,0,0-.73-0.35,2.2,2.2,0,0,0-.7-0.13,0.72,0.72,0,0,0-.41.1,0.31,0.31,0,0,0-.15.28,0.28,0.28,0,0,0,.12.21,4.58,4.58,0,0,0,.67.38,4.11,4.11,0,0,1,1.1.73,1.13,1.13,0,0,1,.31.8,1.28,1.28,0,0,1-.46,1,1.89,1.89,0,0,1-1.24.38,3.7,3.7,0,0,1-.91-0.11,3,3,0,0,1-.7-0.26v-1a3.22,3.22,0,0,0,1.48.49,1,1,0,0,0,.5-0.11,0.33,0.33,0,0,0,.19-0.29,0.31,0.31,0,0,0-.07-0.2,0.93,0.93,0,0,0-.21-0.18q-0.14-.09-0.85-0.44a2.44,2.44,0,0,1-.82-0.57,1.1,1.1,0,0,1-.26-0.74,1.16,1.16,0,0,1,.47-1A2,2,0,0,1,219.85,27.42Z"/><path d="M223.61,25.24v6.82h-1.2V25.24h1.2Zm3.31,2.26-1.85,2.25,2.08,2.31h-1.52l-2-2.31,1.88-2.25h1.41Z"/><path d="M234.1,25.16a4.92,4.92,0,0,1,1.14.13,5.73,5.73,0,0,1,1.2.45V27a5.65,5.65,0,0,0-1.16-.52,3.84,3.84,0,0,0-1.12-.16,2.85,2.85,0,0,0-1.31.3,2.2,2.2,0,0,0-.91.85,2.46,2.46,0,0,0,0,2.44,2.17,2.17,0,0,0,.91.84,2.9,2.9,0,0,0,1.32.29,3.54,3.54,0,0,0,1.07-.16,7.83,7.83,0,0,0,1.29-.58v1.24a6,6,0,0,1-1.22.49,5.13,5.13,0,0,1-1.3.15,4.22,4.22,0,0,1-1.93-.43,3.22,3.22,0,0,1-1.34-1.24,3.37,3.37,0,0,1-.49-1.77,3.48,3.48,0,0,1,.5-1.85,3.35,3.35,0,0,1,1.38-1.26A4.31,4.31,0,0,1,234.1,25.16Z"/><path d="M239.88,27.42a2.79,2.79,0,0,1,1.29.3,2.17,2.17,0,0,1,.9.83,2.34,2.34,0,0,1,.32,1.22,2.45,2.45,0,0,1-.31,1.24,2.14,2.14,0,0,1-.9.84,2.79,2.79,0,0,1-1.31.31,2.76,2.76,0,0,1-1.3-.31,2.15,2.15,0,0,1-.89-0.84,2.45,2.45,0,0,1-.31-1.24,2.32,2.32,0,0,1,.32-1.22,2.18,2.18,0,0,1,.9-0.83A2.76,2.76,0,0,1,239.88,27.42Zm-1.24,2.35a1.67,1.67,0,0,0,.33,1.09,1.1,1.1,0,0,0,.9.41,1.15,1.15,0,0,0,.92-0.39,1.66,1.66,0,0,0,.34-1.12,1.55,1.55,0,0,0-.34-1.07,1.17,1.17,0,0,0-.92-0.38,1.11,1.11,0,0,0-.89.4A1.58,1.58,0,0,0,238.64,29.77Z"/><path d="M244.59,25.24v6.82h-1.2V25.24h1.2Z"/><path d="M247.07,25.24v6.82h-1.2V25.24h1.2Z"/><path d="M250.35,27.42a2,2,0,0,1,1.59.64,2.55,2.55,0,0,1,.59,1.78V30H249.3a1.41,1.41,0,0,0,.46.94,1.57,1.57,0,0,0,1.05.33,2.34,2.34,0,0,0,.83-0.15,3.62,3.62,0,0,0,.82-0.45v0.89a3.28,3.28,0,0,1-1.94.57,2.45,2.45,0,0,1-1.76-.65,2.27,2.27,0,0,1-.68-1.73,2.35,2.35,0,0,1,.63-1.7A2.18,2.18,0,0,1,250.35,27.42Zm1,1.88a1.32,1.32,0,0,0-.3-0.78,0.9,0.9,0,0,0-.7-0.28,1,1,0,0,0-.73.27,1.33,1.33,0,0,0-.35.79h2.08Z"/><path d="M255.66,27.42a3.3,3.3,0,0,1,1.44.31v1a2.43,2.43,0,0,0-1.21-.37,1.33,1.33,0,0,0-1.4,1.42,1.39,1.39,0,0,0,.39,1,1.42,1.42,0,0,0,1,.39,3.39,3.39,0,0,0,1.25-.32v1a3.85,3.85,0,0,1-1.46.29,2.56,2.56,0,0,1-1.8-.63,2.18,2.18,0,0,1-.69-1.68,2.35,2.35,0,0,1,.68-1.75A2.39,2.39,0,0,1,255.66,27.42Z"/><path d="M259.33,26.29h0.1V27.5H261v0.91h-1.56v2.1a0.65,0.65,0,0,0,.69.69,2,2,0,0,0,1-.3v1a3,3,0,0,1-1.22.29,1.65,1.65,0,0,1-1.2-.42,1.51,1.51,0,0,1-.43-1.14V28.41h-0.71v-0.2Z"/><path d="M262.41,25.4a0.68,0.68,0,0,1,.68.68,0.67,0.67,0,0,1-.2.48,0.66,0.66,0,0,1-1,0,0.66,0.66,0,0,1-.2-0.48,0.64,0.64,0,0,1,.21-0.48A0.66,0.66,0,0,1,262.41,25.4ZM263,27.5v4.56h-1.2V27.5H263Z"/><path d="M266.51,27.42a2.79,2.79,0,0,1,1.29.3,2.17,2.17,0,0,1,.9.83,2.34,2.34,0,0,1,.32,1.22,2.45,2.45,0,0,1-.31,1.24,2.14,2.14,0,0,1-.9.84,2.79,2.79,0,0,1-1.31.31,2.76,2.76,0,0,1-1.3-.31,2.15,2.15,0,0,1-.89-0.84,2.45,2.45,0,0,1-.31-1.24,2.32,2.32,0,0,1,.32-1.22,2.18,2.18,0,0,1,.9-0.83A2.76,2.76,0,0,1,266.51,27.42Zm-1.24,2.35a1.67,1.67,0,0,0,.33,1.09,1.1,1.1,0,0,0,.9.41,1.15,1.15,0,0,0,.92-0.39,1.66,1.66,0,0,0,.34-1.12,1.55,1.55,0,0,0-.34-1.07,1.17,1.17,0,0,0-.92-0.38,1.11,1.11,0,0,0-.89.4A1.58,1.58,0,0,0,265.27,29.77Z"/><path d="M272.63,27.42a1.5,1.5,0,0,1,1.17.48,1.81,1.81,0,0,1,.44,1.27v2.9H273V29.29a1.07,1.07,0,0,0-.21-0.7,0.71,0.71,0,0,0-.58-0.26,0.93,0.93,0,0,0-.52.16,2.46,2.46,0,0,0-.54.54v3H270V27.5h1.2v0.64a2.13,2.13,0,0,1,.68-0.56A1.71,1.71,0,0,1,272.63,27.42Z"/><rect class="cls-2" x="161.6" y="202.64" width="99.23" height="2.29"/><line class="cls-2" x1="380.49" y1="253.52" x2="381.25" y2="253.54"/><line class="cls-2" x1="403.59" y1="226.07" x2="403.82" y2="253.52"/><rect class="cls-2" x="378.43" y="224.55" width="27.45" height="1.53"/><path class="cls-2" d="M44,114.83h96.59a0.76,0.76,0,0,0,.66-1.14L113.45,65.6a0.67,0.67,0,0,0-.66-0.38H71.73a0.67,0.67,0,0,0-.66.38L43.31,113.69A0.76,0.76,0,0,0,44,114.83Z"/><path class="cls-2" d="M160.63,114.83h96.59a0.76,0.76,0,0,0,.66-1.14L230.12,65.6a0.67,0.67,0,0,0-.66-0.38H188.4a0.67,0.67,0,0,0-.66.38L160,113.69A0.76,0.76,0,0,0,160.63,114.83Z"/><path class="cls-2" d="M353.41,113.69l-20-34.56a0.67,0.67,0,0,0-.66-0.38H303.17a0.67,0.67,0,0,0-.66.38l-20,34.56a0.76,0.76,0,0,0,.66,1.14h69.52A0.76,0.76,0,0,0,353.41,113.69Z"/><path class="cls-2" d="M405.22,113.69l-7-12.2a0.67,0.67,0,0,0-.66-0.38H386.79a0.67,0.67,0,0,0-.66.38l-7,12.2a0.76,0.76,0,0,0,.66,1.14h24.81A0.76,0.76,0,0,0,405.22,113.69Z"/><line class="cls-2" x1="381.48" y1="226.09" x2="381.25" y2="253.54"/><line class="cls-2" x1="402.83" y1="226.09" x2="403.06" y2="253.54"/><line class="cls-2" x1="403.06" y1="253.54" x2="403.82" y2="253.52"/><line class="cls-2" x1="380.72" y1="226.07" x2="380.49" y2="253.52"/><line class="cls-2" x1="387.29" y1="226.09" x2="387.07" y2="254.18"/><line class="cls-2" x1="386.53" y1="226.07" x2="386.3" y2="254.16"/><line class="cls-2" x1="387.07" y1="254.18" x2="386.3" y2="254.16"/><line class="cls-2" x1="397.24" y1="254.18" x2="398" y2="254.16"/><line class="cls-2" x1="397.78" y1="226.07" x2="398" y2="254.16"/><line class="cls-2" x1="397.01" y1="226.09" x2="397.24" y2="254.18"/><line class="cls-2" x1="229.76" y1="252.46" x2="231.94" y2="252.46"/><line class="cls-2" x1="232.13" y1="243.19" x2="229.56" y2="243.19"/><line class="cls-2" x1="229.76" y1="252.59" x2="231.94" y2="252.59"/><line class="cls-2" x1="231.94" y1="243.19" x2="231.94" y2="252.59"/><line class="cls-2" x1="229.76" y1="243.19" x2="229.76" y2="252.59"/><path class="cls-2" d="M233.39,254.69a1.93,1.93,0,1,0-3.85,0"/><circle class="cls-2" cx="231.47" cy="254.69" r="1.74"/><line class="cls-2" x1="233.21" y1="254.69" x2="233.39" y2="254.69"/><line class="cls-2" x1="229.73" y1="254.69" x2="229.54" y2="254.69"/><line class="cls-2" x1="230.8" y1="252.88" x2="230.8" y2="252.59"/><line class="cls-2" x1="230.34" y1="253.13" x2="230.34" y2="252.59"/><line class="cls-2" x1="232.13" y1="204.87" x2="232.13" y2="243.19"/><line class="cls-2" x1="229.56" y1="204.87" x2="229.56" y2="243.19"/><line class="cls-2" x1="191.97" y1="204.87" x2="191.97" y2="243.19"/><line class="cls-2" x1="189.4" y1="204.87" x2="189.4" y2="243.19"/><line class="cls-2" x1="191.19" y1="253.13" x2="191.19" y2="252.59"/><line class="cls-2" x1="190.73" y1="252.88" x2="190.73" y2="252.59"/><line class="cls-2" x1="191.8" y1="254.69" x2="191.99" y2="254.69"/><line class="cls-2" x1="188.32" y1="254.69" x2="188.14" y2="254.69"/><circle class="cls-2" cx="190.06" cy="254.69" r="1.74"/><path class="cls-2" d="M188.14,254.69a1.93,1.93,0,0,1,3.85,0"/><line class="cls-2" x1="191.77" y1="243.19" x2="191.77" y2="252.59"/><line class="cls-2" x1="189.6" y1="243.19" x2="189.6" y2="252.59"/><line class="cls-2" x1="191.77" y1="252.59" x2="189.6" y2="252.59"/><line class="cls-2" x1="189.4" y1="243.19" x2="191.97" y2="243.19"/><line class="cls-2" x1="191.77" y1="252.46" x2="189.6" y2="252.46"/><line class="cls-2" x1="255.49" y1="204.93" x2="255.49" y2="239.52"/><line class="cls-2" x1="258.54" y1="204.93" x2="258.54" y2="239.52"/><line class="cls-2" x1="163.89" y1="204.93" x2="163.89" y2="239.52"/><line class="cls-2" x1="166.94" y1="204.93" x2="166.94" y2="239.52"/><line class="cls-2" x1="258.31" y1="250.54" x2="255.72" y2="250.54"/><line class="cls-2" x1="166.71" y1="250.54" x2="164.12" y2="250.54"/><line class="cls-2" x1="255.49" y1="239.52" x2="258.54" y2="239.52"/><line class="cls-2" x1="258.31" y1="250.68" x2="255.72" y2="250.68"/><line class="cls-2" x1="255.72" y1="239.52" x2="255.72" y2="250.68"/><line class="cls-2" x1="258.31" y1="239.52" x2="258.31" y2="250.68"/><path class="cls-2" d="M254,253.18a2.29,2.29,0,0,1,4.58,0"/><circle class="cls-2" cx="256.28" cy="253.18" r="2.07"/><line class="cls-2" x1="254.21" y1="253.18" x2="253.99" y2="253.18"/><line class="cls-2" x1="258.35" y1="253.18" x2="258.57" y2="253.18"/><line class="cls-2" x1="257.07" y1="251.03" x2="257.07" y2="250.68"/><line class="cls-2" x1="257.62" y1="251.33" x2="257.62" y2="250.68"/><line class="cls-2" x1="163.89" y1="239.52" x2="166.94" y2="239.52"/><line class="cls-2" x1="166.71" y1="250.68" x2="164.12" y2="250.68"/><line class="cls-2" x1="164.12" y1="239.52" x2="164.12" y2="250.68"/><line class="cls-2" x1="166.71" y1="239.52" x2="166.71" y2="250.68"/><path class="cls-2" d="M162.39,253.18a2.29,2.29,0,0,1,4.58,0"/><circle class="cls-2" cx="164.68" cy="253.18" r="2.07"/><line class="cls-2" x1="162.61" y1="253.18" x2="162.39" y2="253.18"/><line class="cls-2" x1="166.74" y1="253.18" x2="166.96" y2="253.18"/><line class="cls-2" x1="165.47" y1="251.03" x2="165.47" y2="250.68"/><line class="cls-2" x1="166.02" y1="251.33" x2="166.02" y2="250.68"/><line class="cls-2" x1="112.72" y1="250.36" x2="112.72" y2="250.08"/><line class="cls-2" x1="38.28" y1="250.36" x2="38.28" y2="250.08"/><line class="cls-2" x1="37.83" y1="250.6" x2="37.83" y2="250.08"/><line class="cls-2" x1="113.17" y1="250.6" x2="113.17" y2="250.08"/><line class="cls-2" x1="37.08" y1="194.38" x2="37.08" y2="241.02"/><line class="cls-2" x1="39.56" y1="194.38" x2="39.56" y2="241.02"/><circle class="cls-2" cx="38.92" cy="252.11" r="1.68"/><line class="cls-2" x1="40.6" y1="252.11" x2="40.78" y2="252.11"/><line class="cls-2" x1="37.24" y1="252.11" x2="37.06" y2="252.11"/><line class="cls-2" x1="39.56" y1="241.02" x2="37.08" y2="241.02"/><line class="cls-2" x1="37.27" y1="241.02" x2="37.27" y2="250.08"/><path class="cls-2" d="M40.78,252.11a1.86,1.86,0,1,0-3.71,0"/><line class="cls-2" x1="37.27" y1="250.08" x2="39.37" y2="250.08"/><line class="cls-2" x1="39.37" y1="241.02" x2="39.37" y2="250.08"/><rect class="cls-2" x="35.23" y="192.52" width="80.54" height="1.86"/><line class="cls-2" x1="57.79" y1="194.38" x2="57.79" y2="243.94"/><line class="cls-2" x1="59.88" y1="194.38" x2="59.88" y2="243.94"/><line class="cls-2" x1="90.39" y1="194.38" x2="90.39" y2="243.94"/><line class="cls-2" x1="92.48" y1="194.38" x2="92.48" y2="243.94"/><line class="cls-2" x1="59.72" y1="251.46" x2="57.95" y2="251.46"/><line class="cls-2" x1="57.79" y1="243.94" x2="59.88" y2="243.94"/><line class="cls-2" x1="59.72" y1="251.56" x2="57.95" y2="251.56"/><line class="cls-2" x1="57.95" y1="243.94" x2="57.95" y2="251.56"/><line class="cls-2" x1="59.72" y1="243.94" x2="59.72" y2="251.56"/><path class="cls-2" d="M56.77,253.27a1.56,1.56,0,1,1,3.13,0"/><circle class="cls-2" cx="58.33" cy="253.27" r="1.41"/><line class="cls-2" x1="56.92" y1="253.27" x2="56.77" y2="253.27"/><line class="cls-2" x1="59.74" y1="253.27" x2="59.89" y2="253.27"/><line class="cls-2" x1="58.87" y1="251.81" x2="58.87" y2="251.56"/><line class="cls-2" x1="59.25" y1="252.01" x2="59.25" y2="251.56"/><line class="cls-2" x1="91.02" y1="252.01" x2="91.02" y2="251.56"/><line class="cls-2" x1="91.39" y1="251.81" x2="91.39" y2="251.56"/><line class="cls-2" x1="90.52" y1="253.27" x2="90.37" y2="253.27"/><line class="cls-2" x1="93.35" y1="253.27" x2="93.5" y2="253.27"/><circle class="cls-2" cx="91.94" cy="253.27" r="1.41"/><path class="cls-2" d="M93.5,253.27a1.56,1.56,0,1,0-3.13,0"/><line class="cls-2" x1="90.55" y1="243.94" x2="90.55" y2="251.56"/><line class="cls-2" x1="92.32" y1="243.94" x2="92.32" y2="251.56"/><line class="cls-2" x1="90.55" y1="251.56" x2="92.32" y2="251.56"/><line class="cls-2" x1="92.48" y1="243.94" x2="90.39" y2="243.94"/><line class="cls-2" x1="90.55" y1="251.46" x2="92.32" y2="251.46"/><line class="cls-2" x1="39.37" y1="249.96" x2="37.27" y2="249.96"/><line class="cls-2" x1="113.72" y1="249.96" x2="111.63" y2="249.96"/><line class="cls-2" x1="113.91" y1="194.38" x2="113.91" y2="241.02"/><line class="cls-2" x1="111.44" y1="194.38" x2="111.44" y2="241.02"/><line class="cls-2" x1="111.44" y1="241.02" x2="113.91" y2="241.02"/><line class="cls-2" x1="113.72" y1="250.08" x2="111.63" y2="250.08"/><line class="cls-2" x1="111.63" y1="241.02" x2="111.63" y2="250.08"/><line class="cls-2" x1="113.72" y1="241.02" x2="113.72" y2="250.08"/><path class="cls-2" d="M110.22,252.11a1.86,1.86,0,1,1,3.71,0"/><circle class="cls-2" cx="112.08" cy="252.11" r="1.68"/><line class="cls-2" x1="110.4" y1="252.11" x2="110.22" y2="252.11"/><line class="cls-2" x1="113.75" y1="252.11" x2="113.93" y2="252.11"/><line class="cls-2" x1="115.77" y1="194.38" x2="113.91" y2="194.38"/><rect class="cls-2" x="276.1" y="218" width="69.42" height="1.6"/><line class="cls-2" x1="323.79" y1="252.86" x2="325.31" y2="252.86"/><line class="cls-2" x1="325.45" y1="246.37" x2="323.65" y2="246.37"/><line class="cls-2" x1="323.79" y1="252.94" x2="325.31" y2="252.94"/><line class="cls-2" x1="325.31" y1="246.37" x2="325.31" y2="252.94"/><line class="cls-2" x1="323.79" y1="246.37" x2="323.79" y2="252.94"/><path class="cls-2" d="M326.33,254.41a1.35,1.35,0,1,0-2.7,0"/><circle class="cls-2" cx="324.99" cy="254.41" r="1.22"/><line class="cls-2" x1="326.2" y1="254.41" x2="326.33" y2="254.41"/><line class="cls-2" x1="323.77" y1="254.41" x2="323.64" y2="254.41"/><line class="cls-2" x1="324.52" y1="253.15" x2="324.52" y2="252.94"/><line class="cls-2" x1="324.19" y1="253.32" x2="324.19" y2="252.94"/><line class="cls-2" x1="325.45" y1="219.56" x2="325.45" y2="246.37"/><line class="cls-2" x1="323.65" y1="219.56" x2="323.65" y2="246.37"/><line class="cls-2" x1="297.35" y1="219.56" x2="297.35" y2="246.37"/><line class="cls-2" x1="295.55" y1="219.56" x2="295.55" y2="246.37"/><line class="cls-2" x1="296.81" y1="253.32" x2="296.81" y2="252.94"/><line class="cls-2" x1="296.49" y1="253.15" x2="296.49" y2="252.94"/><line class="cls-2" x1="297.23" y1="254.41" x2="297.37" y2="254.41"/><line class="cls-2" x1="294.8" y1="254.41" x2="294.67" y2="254.41"/><circle class="cls-2" cx="296.02" cy="254.41" r="1.22"/><path class="cls-2" d="M294.67,254.41a1.35,1.35,0,0,1,2.7,0"/><line class="cls-2" x1="297.21" y1="246.37" x2="297.21" y2="252.94"/><line class="cls-2" x1="295.69" y1="246.37" x2="295.69" y2="252.94"/><line class="cls-2" x1="297.21" y1="252.94" x2="295.69" y2="252.94"/><line class="cls-2" x1="295.55" y1="246.37" x2="297.35" y2="246.37"/><line class="cls-2" x1="297.21" y1="252.86" x2="295.69" y2="252.86"/><line class="cls-2" x1="341.79" y1="219.6" x2="341.79" y2="243.8"/><line class="cls-2" x1="343.93" y1="219.6" x2="343.93" y2="243.8"/><line class="cls-2" x1="277.71" y1="219.6" x2="277.71" y2="243.8"/><line class="cls-2" x1="279.84" y1="219.6" x2="279.84" y2="243.8"/><line class="cls-2" x1="343.76" y1="251.51" x2="341.96" y2="251.51"/><line class="cls-2" x1="279.68" y1="251.51" x2="277.87" y2="251.51"/><line class="cls-2" x1="341.79" y1="243.8" x2="343.93" y2="243.8"/><line class="cls-2" x1="343.76" y1="249.2" x2="341.96" y2="249.2"/><line class="cls-2" x1="343.76" y1="251.61" x2="341.96" y2="251.61"/><line class="cls-2" x1="341.96" y1="243.8" x2="341.96" y2="251.61"/><line class="cls-2" x1="343.76" y1="243.8" x2="343.76" y2="251.61"/><path class="cls-2" d="M340.74,253.36a1.6,1.6,0,1,1,3.2,0"/><circle class="cls-2" cx="342.34" cy="253.36" r="1.45"/><line class="cls-2" x1="340.9" y1="253.36" x2="340.74" y2="253.36"/><line class="cls-2" x1="343.79" y1="253.36" x2="343.94" y2="253.36"/><line class="cls-2" x1="342.9" y1="251.85" x2="342.9" y2="251.61"/><line class="cls-2" x1="343.28" y1="252.06" x2="343.28" y2="251.61"/><line class="cls-2" x1="277.71" y1="243.8" x2="279.84" y2="243.8"/><line class="cls-2" x1="279.68" y1="251.61" x2="277.87" y2="251.61"/><line class="cls-2" x1="277.87" y1="243.8" x2="277.87" y2="251.61"/><line class="cls-2" x1="279.68" y1="243.8" x2="279.68" y2="251.61"/><path class="cls-2" d="M276.66,253.36a1.6,1.6,0,1,1,3.2,0"/><circle class="cls-2" cx="278.26" cy="253.36" r="1.45"/><line class="cls-2" x1="276.81" y1="253.36" x2="276.66" y2="253.36"/><line class="cls-2" x1="279.7" y1="253.36" x2="279.86" y2="253.36"/><line class="cls-2" x1="278.81" y1="251.85" x2="278.81" y2="251.61"/><line class="cls-2" x1="279.2" y1="252.06" x2="279.2" y2="251.61"/><rect class="cls-2" x="391.51" y="222.72" width="7.65" height="2.31"/><rect class="cls-2" x="84.6" y="164.38" width="2.1" height="24.85" transform="translate(-43.13 28.44) rotate(-15.11)"/><rect class="cls-2" x="82.09" y="191.55" width="11.01" height="0.98"/><rect class="cls-2" x="216.37" y="170.46" width="39.38" height="24.02"/><rect class="cls-2" x="236.06" y="194.48" width="2.78" height="6.95"/><rect class="cls-2" x="232.93" y="201.43" width="9.04" height="1.39"/><g class="cls-1"><path d="M263.44,259.68c-0.69,0-1.39.13-1.1-1,0.61,0.1,1.21.25,1.82,0.29a16.76,16.76,0,0,0,3.88,0c0.32-.06.4-1.46,0.59-2.25,0-.1.12-0.18,0.14-0.28,0.56-2.69,1.57-5.39,1.55-8.08a23.2,23.2,0,0,1,1.21-7c1.44-4.83,4.42-9.25,3.5-14.68-0.44-2.58,1.55-4.3,2.73-6.3a2.21,2.21,0,0,1,2.58-1.14,12,12,0,0,0,3.16-.46,12.17,12.17,0,0,1,3.43-.43,6.34,6.34,0,0,0,6.17-2.52c1.71-2.56,1.77-9,0-11.47a4.18,4.18,0,0,1-.36-4.56c0.93-2.1,1.88-4.2,2.68-6.36s1.44-4.3,2-6.49a3.12,3.12,0,0,0-1.36-3.83,10.3,10.3,0,0,1-2-1.46,3.65,3.65,0,0,1-1-1.84c-0.34-2.35-.32-4.76-0.81-7.07a18.52,18.52,0,0,0-2-4.71c-1.07-2-3.2-2.57-5.12-3.37"/><path d="M285,164.76c1.92,0.8,4,1.37,5.12,3.37a18.52,18.52,0,0,1,2,4.71c0.49,2.31.47,4.72,0.81,7.07a3.65,3.65,0,0,0,1,1.84,10.3,10.3,0,0,0,2,1.46,3.12,3.12,0,0,1,1.36,3.83c-0.59,2.19-1.25,4.37-2,6.49s-1.75,4.26-2.68,6.36a4.18,4.18,0,0,0,.36,4.56c1.8,2.49,1.74,8.91,0,11.47a6.34,6.34,0,0,1-6.17,2.52,12.17,12.17,0,0,0-3.43.43,12,12,0,0,1-3.16.46,2.21,2.21,0,0,0-2.58,1.14c-1.18,2-3.16,3.72-2.73,6.3,0.92,5.43-2.06,9.85-3.5,14.68a23.2,23.2,0,0,0-1.21,7c0,2.69-1,5.39-1.55,8.08,0,0.1-.12.18-0.14,0.28-0.2.78-.28,2.19-0.59,2.25a16.76,16.76,0,0,1-3.88,0c-0.61,0-1.22-.19-1.82-0.29v-0.32c0.95-2.64,1.9-5.28,2.84-7.93a1.39,1.39,0,0,0,.06-0.78c-0.57-2.09,0-4,.74-6,0.46-1.21,0-1.82-1.26-1.81a1,1,0,0,1-1.06-1.45c0.31-1.16.76-2.29,1.08-3.44,0.4-1.45,1.19-3,1-4.38a11,11,0,0,1,2-7.52c1.93-2.92,2.11-6.29,3.33-9.37a24.29,24.29,0,0,1,2.77-5.16,8.39,8.39,0,0,0,1.82-4.66c-0.12-2.52,1.14-4.21,2.51-5.84a4.2,4.2,0,0,0,1-2.4c0.31-2.32-1-3.72-2.74-5.23-0.89,1-1.75,2-2.72,2.91a23,23,0,0,1-3.59,3c-1.28.78-2.08,0.3-2-1.21a8.07,8.07,0,0,1,1.16-3.64q3.53-5.49,7.39-10.76A6.35,6.35,0,0,1,279.5,181c1.34-.53,1.54-1,0.58-2.12a1.34,1.34,0,0,1,0-.57c-0.05-.44-0.12-0.88-0.22-1.58l-0.92,1c0-2.76-.12-5.32,0-7.86a4.13,4.13,0,0,1,2.87-3.78,14.45,14.45,0,0,0,2.27-1.34H285Z"/><path d="M284.09,164.76a14.45,14.45,0,0,1-2.27,1.34,4.13,4.13,0,0,0-2.87,3.78c-0.17,2.54,0,5.1,0,7.86l0.92-1c0.1,0.7.17,1.14,0.22,1.58a1.34,1.34,0,0,0,0,.57c1,1.12.75,1.59-.58,2.12a6.35,6.35,0,0,0-2.78,1.77q-3.86,5.26-7.39,10.76a8.07,8.07,0,0,0-1.16,3.64c-0.11,1.51.69,2,2,1.21a23,23,0,0,0,3.59-3c1-.91,1.82-1.94,2.72-2.91,1.78,1.51,3,2.92,2.74,5.23a4.2,4.2,0,0,1-1,2.4c-1.36,1.63-2.63,3.32-2.51,5.84a8.39,8.39,0,0,1-1.82,4.66,24.29,24.29,0,0,0-2.77,5.16c-1.22,3.07-1.39,6.45-3.33,9.37a11,11,0,0,0-2,7.52c0.18,1.39-.61,2.92-1,4.38-0.32,1.16-.77,2.28-1.08,3.44a1,1,0,0,0,1.06,1.45c1.28,0,1.72.59,1.26,1.81-0.72,1.92-1.31,3.86-.74,6a1.39,1.39,0,0,1-.06.78c-0.94,2.65-1.89,5.29-2.84,7.93"/></g><path d="M61.85,276.26l-0.59-.36a2.71,2.71,0,0,1-.79-0.67,1.27,1.27,0,0,1-.24-0.76,1.34,1.34,0,0,1,.45-1,1.67,1.67,0,0,1,1.16-.4,2.2,2.2,0,0,1,1.25.38v0.89a1.81,1.81,0,0,0-1.27-.57,1,1,0,0,0-.63.18,0.54,0.54,0,0,0-.25.45,0.7,0.7,0,0,0,.18.46,2.3,2.3,0,0,0,.58.45l0.6,0.35a1.75,1.75,0,0,1,1,1.52,1.39,1.39,0,0,1-.44,1.07,1.61,1.61,0,0,1-1.14.41,2.4,2.4,0,0,1-1.47-.5v-1a1.84,1.84,0,0,0,1.46.8,0.92,0.92,0,0,0,.61-0.2,0.64,0.64,0,0,0,.24-0.51A1.22,1.22,0,0,0,61.85,276.26Z"/><path d="M63.56,275.52l1.34-1.31V275H66v0.64H64.89v1.76a0.5,0.5,0,0,0,.51.62,1.59,1.59,0,0,0,.81-0.25v0.66a1.8,1.8,0,0,1-.89.23,1.18,1.18,0,0,1-.81-0.29,0.83,0.83,0,0,1-.17-0.19,1,1,0,0,1-.11-0.28,3.17,3.17,0,0,1,0-.66v-1.59H63.56v-0.07Z"/><path d="M69,276.38v1.53c0,0.12,0,.18.13,0.18a0.86,0.86,0,0,0,.4-0.19v0.43a2.33,2.33,0,0,1-.39.21,0.84,0.84,0,0,1-.31.06,0.48,0.48,0,0,1-.54-0.36,1.55,1.55,0,0,1-1,.35,0.85,0.85,0,0,1-.62-0.25,0.84,0.84,0,0,1-.25-0.62,0.88,0.88,0,0,1,.24-0.61,1.65,1.65,0,0,1,.69-0.42l0.91-.31v-0.19a0.57,0.57,0,0,0-.65-0.65,1.56,1.56,0,0,0-1.13.6v-0.78a1.48,1.48,0,0,1,1.19-.49,1.38,1.38,0,0,1,.93.3,1,1,0,0,1,.21.26,0.94,0.94,0,0,1,.12.32A4.77,4.77,0,0,1,69,276.38Zm-0.7,1.45v-1.07l-0.48.18a1.61,1.61,0,0,0-.51.29,0.53,0.53,0,0,0,0,.73,0.5,0.5,0,0,0,.37.14A0.9,0.9,0,0,0,68.28,277.83Z"/><path d="M70.85,275v0.46a1.43,1.43,0,0,1,1.08-.53,1.19,1.19,0,0,1,.63.17,1.13,1.13,0,0,1,.44.48,2.28,2.28,0,0,1,.15,1v2.05H72.44v-2a1.4,1.4,0,0,0-.17-0.79,0.64,0.64,0,0,0-.56-0.24,1,1,0,0,0-.86.5v2.57H70.12V275h0.73Z"/><path d="M76.54,273.09h0.71v5.46H75.73a1.66,1.66,0,0,1-1.27-.5,1.89,1.89,0,0,1-.47-1.35,1.79,1.79,0,0,1,.5-1.3,1.7,1.7,0,0,1,1.27-.51,2.31,2.31,0,0,1,.78.15v-1.94Zm0,4.85v-2.28a1.47,1.47,0,0,0-.67-0.17,1.09,1.09,0,0,0-.85.35,1.34,1.34,0,0,0-.31.94,1.23,1.23,0,0,0,.27.86,0.85,0.85,0,0,0,.35.24,2.33,2.33,0,0,0,.66.06h0.55Z"/><path d="M78.58,273.44a0.42,0.42,0,0,1,.3.12,0.4,0.4,0,0,1,.13.3,0.4,0.4,0,0,1-.12.3,0.41,0.41,0,0,1-.3.13,0.39,0.39,0,0,1-.29-0.13,0.41,0.41,0,0,1,0-.59A0.39,0.39,0,0,1,78.58,273.44ZM78.23,275h0.71v3.59H78.23V275Z"/><path d="M80.68,275v0.46a1.43,1.43,0,0,1,1.08-.53,1.19,1.19,0,0,1,.63.17,1.13,1.13,0,0,1,.44.48,2.28,2.28,0,0,1,.15,1v2.05H82.27v-2a1.4,1.4,0,0,0-.17-0.79,0.64,0.64,0,0,0-.56-0.24,1,1,0,0,0-.86.5v2.57H80V275h0.73Z"/><path d="M83.79,276.19a1.1,1.1,0,0,1,.42-0.91,1.79,1.79,0,0,1,1.15-.33h1.48v0.55H86.11a1.49,1.49,0,0,1,.29.39,0.94,0.94,0,0,1,.08.4,1.07,1.07,0,0,1-.16.55,1.13,1.13,0,0,1-.41.42,2.51,2.51,0,0,1-.83.23q-0.4.06-.4,0.28a0.24,0.24,0,0,0,.15.21,2.37,2.37,0,0,0,.54.17,6,6,0,0,1,.85.23,1.1,1.1,0,0,1,.34.23,0.88,0.88,0,0,1,.26.65,0.94,0.94,0,0,1-.46.82,2.16,2.16,0,0,1-1.22.3,2.18,2.18,0,0,1-1.23-.31,0.94,0.94,0,0,1-.46-0.82,1,1,0,0,1,.9-0.94,0.62,0.62,0,0,1-.36-0.46,0.42,0.42,0,0,1,.15-0.31,1,1,0,0,1,.42-0.21A1.18,1.18,0,0,1,83.79,276.19ZM85,278.71a1,1,0,0,0-.59.15,0.45,0.45,0,0,0-.23.39q0,0.56,1,.55a1.58,1.58,0,0,0,.73-0.14,0.43,0.43,0,0,0,.26-0.39,0.47,0.47,0,0,0-.33-0.41A2,2,0,0,0,85,278.71Zm0.17-3.14a0.68,0.68,0,0,0-.49.2,0.63,0.63,0,0,0-.2.47,0.59,0.59,0,0,0,.2.46,0.72,0.72,0,0,0,.5.18,0.71,0.71,0,0,0,.5-0.19,0.6,0.6,0,0,0,.2-0.46,0.61,0.61,0,0,0-.2-0.47A0.72,0.72,0,0,0,85.12,275.57Z"/><path d="M193.94,276.26l-0.59-.36a2.71,2.71,0,0,1-.79-0.67,1.27,1.27,0,0,1-.24-0.76,1.34,1.34,0,0,1,.45-1,1.67,1.67,0,0,1,1.16-.4,2.2,2.2,0,0,1,1.25.38v0.89a1.81,1.81,0,0,0-1.27-.57,1,1,0,0,0-.63.18,0.54,0.54,0,0,0-.25.45,0.7,0.7,0,0,0,.18.46,2.3,2.3,0,0,0,.58.45l0.6,0.35a1.75,1.75,0,0,1,1,1.52,1.39,1.39,0,0,1-.44,1.07,1.61,1.61,0,0,1-1.14.41,2.4,2.4,0,0,1-1.47-.5v-1a1.84,1.84,0,0,0,1.46.8,0.92,0.92,0,0,0,.61-0.2,0.64,0.64,0,0,0,.24-0.51A1.22,1.22,0,0,0,193.94,276.26Z"/><path d="M196.52,273.44a0.42,0.42,0,0,1,.3.12,0.4,0.4,0,0,1,.13.3,0.4,0.4,0,0,1-.12.3,0.41,0.41,0,0,1-.3.13,0.39,0.39,0,0,1-.29-0.13,0.41,0.41,0,0,1,0-.59A0.39,0.39,0,0,1,196.52,273.44Zm-0.35,1.51h0.71v3.59h-0.71v-3.59Z"/><path d="M197.41,275.52l1.34-1.31v0.74h1.14v0.64h-1.14v1.76a0.5,0.5,0,0,0,.51.62,1.59,1.59,0,0,0,.81-0.25v0.66a1.8,1.8,0,0,1-.89.23,1.18,1.18,0,0,1-.81-0.29,0.83,0.83,0,0,1-.17-0.19,1,1,0,0,1-.11-0.28,3.17,3.17,0,0,1,0-.66v-1.59h-0.62v-0.07Z"/><path d="M200.07,275.52l1.34-1.31v0.74h1.14v0.64h-1.14v1.76a0.5,0.5,0,0,0,.51.62,1.59,1.59,0,0,0,.81-0.25v0.66a1.8,1.8,0,0,1-.89.23,1.18,1.18,0,0,1-.81-0.29,0.83,0.83,0,0,1-.17-0.19,1,1,0,0,1-.11-0.28,3.17,3.17,0,0,1,0-.66v-1.59h-0.62v-0.07Z"/><path d="M203.61,273.44a0.42,0.42,0,0,1,.3.12,0.4,0.4,0,0,1,.13.3,0.4,0.4,0,0,1-.12.3,0.41,0.41,0,0,1-.3.13,0.39,0.39,0,0,1-.29-0.13,0.41,0.41,0,0,1,0-.59A0.39,0.39,0,0,1,203.61,273.44Zm-0.35,1.51H204v3.59h-0.71v-3.59Z"/><path d="M205.7,274.95v0.46a1.43,1.43,0,0,1,1.08-.53,1.19,1.19,0,0,1,.63.17,1.13,1.13,0,0,1,.44.48,2.28,2.28,0,0,1,.15,1v2.05h-0.71v-2a1.4,1.4,0,0,0-.17-0.79,0.64,0.64,0,0,0-.56-0.24,1,1,0,0,0-.86.5v2.57H205v-3.59h0.73Z"/><path d="M208.81,276.19a1.1,1.1,0,0,1,.42-0.91,1.79,1.79,0,0,1,1.15-.33h1.48v0.55h-0.73a1.49,1.49,0,0,1,.29.39,0.94,0.94,0,0,1,.08.4,1.07,1.07,0,0,1-.16.55,1.13,1.13,0,0,1-.41.42,2.51,2.51,0,0,1-.83.23q-0.4.06-.4,0.28a0.24,0.24,0,0,0,.15.21,2.37,2.37,0,0,0,.54.17,6,6,0,0,1,.85.23,1.1,1.1,0,0,1,.34.23,0.88,0.88,0,0,1,.26.65,0.94,0.94,0,0,1-.46.82,2.16,2.16,0,0,1-1.22.3,2.18,2.18,0,0,1-1.23-.31,0.94,0.94,0,0,1-.46-0.82,1,1,0,0,1,.9-0.94,0.62,0.62,0,0,1-.36-0.46,0.42,0.42,0,0,1,.15-0.31,1,1,0,0,1,.42-0.21A1.18,1.18,0,0,1,208.81,276.19Zm1.17,2.52a1,1,0,0,0-.59.15,0.45,0.45,0,0,0-.23.39q0,0.56,1,.55a1.58,1.58,0,0,0,.73-0.14,0.43,0.43,0,0,0,.26-0.39,0.47,0.47,0,0,0-.33-0.41A2,2,0,0,0,210,278.71Zm0.17-3.14a0.68,0.68,0,0,0-.49.2,0.63,0.63,0,0,0-.2.47,0.59,0.59,0,0,0,.2.46,0.72,0.72,0,0,0,.5.18,0.71,0.71,0,0,0,.5-0.19,0.6,0.6,0,0,0,.2-0.46,0.61,0.61,0,0,0-.2-0.47A0.72,0.72,0,0,0,210.15,275.57Z"/><path d="M388.9,273.09h0.78v4.75h2.46v0.71H388.9v-5.46Z"/><path d="M394.7,274.95h0.8l-2.55,5.43h-0.79l1.22-2.6L392,274.95h0.81l1,2Z"/><path d="M396.36,273.44a0.41,0.41,0,0,1,.3.12,0.4,0.4,0,0,1,.13.3,0.43,0.43,0,0,1-.43.42,0.39,0.39,0,0,1-.29-0.13,0.41,0.41,0,0,1,0-.59A0.39,0.39,0,0,1,396.36,273.44ZM396,274.95h0.71v3.59H396v-3.59Z"/><path d="M398.46,274.95v0.46a1.43,1.43,0,0,1,1.08-.53,1.19,1.19,0,0,1,.63.17,1.14,1.14,0,0,1,.44.48,2.27,2.27,0,0,1,.15,1v2.05H400v-2a1.4,1.4,0,0,0-.17-0.79,0.64,0.64,0,0,0-.56-0.24,1,1,0,0,0-.86.5v2.57h-0.73v-3.59h0.73Z"/><path d="M401.56,276.19a1.1,1.1,0,0,1,.42-0.91,1.79,1.79,0,0,1,1.15-.33h1.48v0.55h-0.73a1.49,1.49,0,0,1,.29.39,0.94,0.94,0,0,1,.08.4,1.08,1.08,0,0,1-.16.55,1.13,1.13,0,0,1-.41.42,2.51,2.51,0,0,1-.83.23q-0.4.06-.4,0.28a0.24,0.24,0,0,0,.15.21,2.39,2.39,0,0,0,.54.17,5.92,5.92,0,0,1,.85.23,1.1,1.1,0,0,1,.34.23,0.88,0.88,0,0,1,.26.65,0.94,0.94,0,0,1-.46.82,2.16,2.16,0,0,1-1.22.3,2.18,2.18,0,0,1-1.23-.31,0.94,0.94,0,0,1-.46-0.82,1,1,0,0,1,.9-0.94,0.62,0.62,0,0,1-.36-0.46,0.42,0.42,0,0,1,.15-0.31,1,1,0,0,1,.42-0.21A1.18,1.18,0,0,1,401.56,276.19Zm1.17,2.52a1,1,0,0,0-.59.15,0.45,0.45,0,0,0-.23.39q0,0.56,1,.55a1.57,1.57,0,0,0,.73-0.14,0.43,0.43,0,0,0,.26-0.39,0.47,0.47,0,0,0-.33-0.41A2,2,0,0,0,402.73,278.71Zm0.17-3.14a0.69,0.69,0,0,0-.49.2,0.63,0.63,0,0,0-.2.47,0.59,0.59,0,0,0,.2.46,0.72,0.72,0,0,0,.5.18,0.71,0.71,0,0,0,.5-0.19,0.64,0.64,0,0,0,0-.93A0.72,0.72,0,0,0,402.9,275.57Z"/><path class="cls-1" d="M422.45,236.43l-0.11.47a0.28,0.28,0,0,1-.24.24l-0.26-.24,0.35-.27a1,1,0,0,1,.26-0.2h0Zm-12.77-5.23a1.25,1.25,0,0,1,.54-0.27c0.23-.08,1-0.27,2.19-0.63a28,28,0,0,0,3.56-1.38,22.75,22.75,0,0,0,2.26-1.3,1.59,1.59,0,0,1,.91-0.39,2.63,2.63,0,0,1,1.19-.08,1.42,1.42,0,0,1,.72.24,0.52,0.52,0,0,0,.46.08,1.52,1.52,0,0,0,.17.39c0.09,0.2.16,0.39,0.3,0.67a2.85,2.85,0,0,1,.28.71,1.8,1.8,0,0,1,0,.75v0.83a6,6,0,0,1-.7.87c-0.42.43-.74,0.86-1,1.14a2.67,2.67,0,0,1-1.49.67,9.4,9.4,0,0,0-1.51.36s-0.82-.55-1.1-0.71-1.51-.9-2.21-1.26a7.51,7.51,0,0,0-2.73-.75,2.92,2.92,0,0,0-1.26.39l-0.56-.32h0Zm-13.61,6s-1.72,1-2.14,1.26l-3,2c-1.09.75-3.54,2.4-3.94,2.75a6.14,6.14,0,0,1-1,.67,0.18,0.18,0,0,0-.09.24,13.24,13.24,0,0,0,.82,1.22l0.7,0.95s-1.77.51-2.21,0.67a23.4,23.4,0,0,1-2.43.79,0.53,0.53,0,0,1-.58,0,7.83,7.83,0,0,0-1.19-.39,5.2,5.2,0,0,1-.93-0.32,4.29,4.29,0,0,0-.89-0.35c-0.25-.12-0.23-0.16-0.44,0a0.53,0.53,0,0,0-.21.35,4,4,0,0,0-1-.27,0.9,0.9,0,0,0-.56.43,1.39,1.39,0,0,0,.33.63c0.21,0.2.72,0.87,0.88,0.94a6.62,6.62,0,0,1,.73.75l0.49,0.47c0.21,0.12,1.75,1.3,2.27,1.61a13.69,13.69,0,0,0,2.56,1.34,13.34,13.34,0,0,0,2.89,0,10,10,0,0,1,1.09-.47,6.57,6.57,0,0,1,1.73-.63,4.43,4.43,0,0,1,.68.39c0.11,0.08-2.49,3.54-2.33,3.58l0.77,0.24a17.94,17.94,0,0,1,3.54-2.28l1.33-.87a4,4,0,0,1,.42-0.51c0.14-.15.37-0.23,0.39-0.31a1.87,1.87,0,0,0,.14-0.39l2.82,2.56,0.77-1.22s0.49-1.18.63-1.42,0.21-.43.33-0.71a3.33,3.33,0,0,0,.16-0.47,10.12,10.12,0,0,1,1.15-.79,28.19,28.19,0,0,0,2.35-1.61c0.68-.47,1.52-1.34,2.14-1.81s1.89-1.46,2.13-1.69,0.42-.43.51-0.59a3.19,3.19,0,0,1,.61-0.35,9.57,9.57,0,0,1,.86-0.63l0.59-.39a6.57,6.57,0,0,0,.81-0.67s1,1.1,1.68,1.77,2.45,2.64,3.21,3.42,2,2,2.24,2.2a1.62,1.62,0,0,0,.75.24c0.44,0.08,1.56.24,1.56,0.24a4.44,4.44,0,0,0,1.21,1,10,10,0,0,0,3.75.79,15.42,15.42,0,0,0,4-.12,8.68,8.68,0,0,0,3.52-1.38A8.41,8.41,0,0,0,433.8,249a0.81,0.81,0,0,0,.28-0.2,0.68,0.68,0,0,0,.3-0.35,0.42,0.42,0,0,1,.14-0.47,1.27,1.27,0,0,1,.52-0.2,3.14,3.14,0,0,0,1-.43,0.75,0.75,0,0,0,.26-0.67c0-.24-0.17-0.63-0.17-0.87a2,2,0,0,0,0-.47,7.3,7.3,0,0,1,.47-0.75,3.75,3.75,0,0,0,.25-0.9c0-.16.09-1,0.09-1.61a13.35,13.35,0,0,0,0-1.65,8.66,8.66,0,0,1,0-1.77c0.07-.51.28-1,0.28-1.34v-0.94c0-.16.33-0.83,0.33-1a2.16,2.16,0,0,1,.19-0.55,1.14,1.14,0,0,1,.6.23c0.33,0.24.63,0.44,0.63,0.44a0.56,0.56,0,0,0,.35-0.24,0.72,0.72,0,0,0,.21-0.63,2.34,2.34,0,0,1-.35-0.83,10.6,10.6,0,0,0,0-1.14,2,2,0,0,1,.12-0.63c0-.2-0.1-1.5-0.14-1.81s-0.23-1.57-.4-2.32a21.9,21.9,0,0,0-1.19-3.22,27.34,27.34,0,0,1-1.31-2.75c-0.28-.87-0.35-1.93-0.54-2.44a10.52,10.52,0,0,0-.18-1.53,12.34,12.34,0,0,1-.63-1.3,6.87,6.87,0,0,0-.23-1c-0.14-.27-1-2.72-1.19-3.15a9.09,9.09,0,0,0-.79-1.85,6.87,6.87,0,0,0-2.66-2.75,5.65,5.65,0,0,0-3.22-.51,9.2,9.2,0,0,0-2.37.86,14.36,14.36,0,0,0-2.21,1.5A14.44,14.44,0,0,0,420.8,212c-0.21.55-.14,1.77-0.28,2.36a17.87,17.87,0,0,0-.28,2.4,14.36,14.36,0,0,0,.26,1.65,8.08,8.08,0,0,0,.51,1.89,1.38,1.38,0,0,1,.09.94,2.89,2.89,0,0,0-.93.27,2.7,2.7,0,0,1-.84.28,7.29,7.29,0,0,0-1.68.67,14.56,14.56,0,0,0-2.89,1.89,16.75,16.75,0,0,1-3.87,2.44c-1.07.47-3.45,1.53-4.57,2a26.68,26.68,0,0,0-3.29,1.53,30.89,30.89,0,0,0-2.51,2.21c-0.3.35-1.66,1.1-1.87,1.34a4.48,4.48,0,0,0-.7.83,6.43,6.43,0,0,0-.75.87,1.68,1.68,0,0,1-.37.67,3.68,3.68,0,0,0-.42.24,0.4,0.4,0,0,0,0,.31,1.32,1.32,0,0,1-.14.2c0,0.08-.16.24-0.16,0.24h0Z"/><line class="cls-2" x1="85.4" y1="179.9" x2="82.87" y2="191.58"/><line class="cls-2" x1="84.83" y1="178.08" x2="81.95" y2="191.58"/></svg>