<svg id="Layer_1" data-name="Layer 1" xmlns="http://www.w3.org/2000/svg" viewBox="0 0 78.71 107.45"><defs><style>.cls-1,.cls-2,.cls-3,.cls-4,.cls-5,.cls-6{fill:none;stroke:#000;stroke-linecap:round;stroke-linejoin:round;}.cls-1{stroke-width:0.07px;}.cls-2{stroke-width:0.11px;}.cls-3{stroke-width:0.06px;}.cls-4{stroke-width:0.06px;}.cls-5{stroke-width:0.07px;}.cls-6{stroke-width:0.08px;}</style></defs><title>p_03</title><path class="cls-1" d="M71,62.41s0.07,0,0,.07a0.09,0.09,0,0,1-.09,0s-0.07,0,0-.07A0.09,0.09,0,0,1,71,62.41Z"/><path class="cls-1" d="M71.95,63c0,0.05,0,0-.08,0s-0.08,0-.07,0,0,0,.08,0S72,62.91,71.95,63Z"/><path class="cls-1" d="M71.22,63.62s0,0,0,0h0.07c0.05,0,0,.08,0,0.08"/><path class="cls-1" d="M70,63.52c-0.05,0,0-.07.08-0.07s0.08,0.06,0,.08"/><path class="cls-1" d="M69.8,62.75a0.1,0.1,0,0,1,.09,0s0.06,0,0,.07a0.1,0.1,0,0,1-.09,0S69.76,62.78,69.8,62.75Z"/><path class="cls-1" d="M71.27,63.32a1,1,0,0,1-.79.06C70.16,63.27,70,63,70.36,62.8a1,1,0,0,1,.79-0.06C71.47,62.86,71.59,63.13,71.27,63.32Z"/><path class="cls-2" d="M71.87,63.67c0.76-.44.47-1.09-0.29-1.35a2.38,2.38,0,0,0-1.84.13c-0.76.44-.47,1.09,0.29,1.35A2.38,2.38,0,0,0,71.87,63.67Z"/><path class="cls-1" d="M46.14,66.5s0.07,0,0,.07a0.09,0.09,0,0,1-.09,0s-0.07,0,0-.07A0.09,0.09,0,0,1,46.14,66.5Z"/><path class="cls-1" d="M47.08,67.06c0,0.05,0,0-.08,0s-0.08,0-.07,0,0,0,.08,0S47.08,67,47.08,67.06Z"/><path class="cls-1" d="M46.35,67.72s0,0,0,0h0.07c0.05,0,0,.08,0,0.08"/><path class="cls-1" d="M45.12,67.62c-0.05,0,0-.07.08-0.07s0.08,0.06,0,.08"/><path class="cls-1" d="M44.93,66.85a0.1,0.1,0,0,1,.09,0s0.06,0,0,.07a0.1,0.1,0,0,1-.09,0S44.89,66.87,44.93,66.85Z"/><path class="cls-2" d="M47,67.77c0.76-.44.47-1.09-0.29-1.35a2.38,2.38,0,0,0-1.84.13c-0.76.44-.47,1.09,0.29,1.35A2.38,2.38,0,0,0,47,67.77Z"/><path class="cls-1" d="M44.44,67.25a1.15,1.15,0,0,0,1.11.84A2.33,2.33,0,0,0,47,67.86"/><path class="cls-1" d="M47,67.86a0.77,0.77,0,0,0,.44-0.61"/><path class="cls-2" d="M48,101.89a0.59,0.59,0,0,1-.54,0c-0.22-.08-0.31-0.27-0.08-0.4a0.59,0.59,0,0,1,.54,0C48.15,101.56,48.23,101.76,48,101.89Z"/><path class="cls-3" d="M48.14,101.76a0.19,0.19,0,0,1-.13.18"/><path class="cls-3" d="M48,101.95a0.61,0.61,0,0,1-.43.07,0.34,0.34,0,0,1-.33-0.25"/><path class="cls-1" d="M46.4,67.42a1,1,0,0,1-.79.06c-0.32-.11-0.45-0.39-0.12-0.58a1,1,0,0,1,.79-0.06C46.6,67,46.72,67.23,46.4,67.42Z"/><path class="cls-1" d="M45.47,93.77a0.36,0.36,0,0,0,.35.26A0.65,0.65,0,0,0,46.28,94"/><path class="cls-1" d="M46.28,94a0.21,0.21,0,0,0,.14-0.19"/><path class="cls-1" d="M45.3,89.63a0.49,0.49,0,0,0,.47.36,0.88,0.88,0,0,0,.62-0.1"/><path class="cls-1" d="M46.4,89.9a0.28,0.28,0,0,0,.19-0.26"/><path class="cls-1" d="M46.58,67.2a0.79,0.79,0,0,0-1.28,0"/><line class="cls-1" x1="30.65" y1="81.17" x2="30.65" y2="59.58"/><line class="cls-1" x1="31.94" y1="59.58" x2="31.94" y2="81.17"/><line class="cls-1" x1="30.82" y1="85.31" x2="30.82" y2="81.43"/><line class="cls-1" x1="31.76" y1="81.43" x2="31.76" y2="85.31"/><line class="cls-1" x1="31.76" y1="93.42" x2="31.76" y2="93.37"/><line class="cls-1" x1="30.82" y1="93.42" x2="30.82" y2="93.37"/><line class="cls-1" x1="31.06" y1="93.84" x2="31.06" y2="93.65"/><line class="cls-1" x1="31.23" y1="93.69" x2="31.23" y2="93.84"/><line class="cls-1" x1="29.79" y1="58.79" x2="29.79" y2="58.72"/><line class="cls-1" x1="39.89" y1="44.43" x2="39.89" y2="44.36"/><line class="cls-1" x1="38.15" y1="79.48" x2="38.15" y2="79.29"/><line class="cls-1" x1="38.33" y1="79.33" x2="38.33" y2="79.48"/><line class="cls-1" x1="38.86" y1="79.06" x2="38.86" y2="79.01"/><line class="cls-1" x1="37.92" y1="79.06" x2="37.92" y2="79.01"/><line class="cls-1" x1="37.92" y1="70.95" x2="37.92" y2="67.07"/><line class="cls-1" x1="38.86" y1="67.07" x2="38.86" y2="70.95"/><line class="cls-1" x1="37.74" y1="66.82" x2="37.74" y2="45.22"/><line class="cls-1" x1="39.03" y1="45.22" x2="39.03" y2="66.82"/><line class="cls-1" x1="70.17" y1="85.54" x2="70.17" y2="63.94"/><line class="cls-1" x1="71.45" y1="63.94" x2="71.45" y2="85.54"/><line class="cls-1" x1="70.34" y1="89.67" x2="70.34" y2="85.79"/><line class="cls-1" x1="71.28" y1="85.79" x2="71.28" y2="89.67"/><line class="cls-1" x1="71.28" y1="97.78" x2="71.28" y2="97.73"/><line class="cls-1" x1="70.34" y1="97.78" x2="70.34" y2="97.73"/><line class="cls-1" x1="70.58" y1="98.2" x2="70.58" y2="98.01"/><line class="cls-1" x1="70.75" y1="98.05" x2="70.75" y2="98.2"/><line class="cls-1" x1="72.31" y1="63.16" x2="72.31" y2="63.08"/><line class="cls-1" x1="69.31" y1="63.16" x2="69.31" y2="63.08"/><line class="cls-1" x1="47.44" y1="67.25" x2="47.44" y2="67.18"/><line class="cls-1" x1="44.44" y1="67.25" x2="44.44" y2="67.18"/><line class="cls-3" x1="47.47" y1="102.16" x2="47.47" y2="101.99"/><line class="cls-3" x1="47.64" y1="102.02" x2="47.64" y2="102.16"/><line class="cls-3" x1="48.14" y1="101.76" x2="48.14" y2="101.72"/><line class="cls-3" x1="47.25" y1="101.76" x2="47.25" y2="101.72"/><line class="cls-1" x1="45.47" y1="93.77" x2="45.47" y2="89.89"/><line class="cls-1" x1="46.41" y1="89.89" x2="46.41" y2="93.77"/><line class="cls-1" x1="45.3" y1="89.63" x2="45.3" y2="68.03"/><line class="cls-1" x1="46.59" y1="68.03" x2="46.59" y2="89.63"/><path class="cls-1" d="M30.47,59.11s0,0,0,.06"/><path class="cls-1" d="M31.83,59.28s0,0,0-.06"/><path class="cls-1" d="M38.92,44.92s0,0,0-.06"/><path class="cls-1" d="M37.56,44.75s0,0,0,.06"/><path class="cls-1" d="M70.1,63.54a0.09,0.09,0,0,1-.11,0"/><path class="cls-1" d="M71.32,63.65s-0.07,0-.09,0"/><path class="cls-1" d="M46.45,67.75s-0.07,0-.09,0"/><path class="cls-1" d="M45.23,67.63a0.09,0.09,0,0,1-.11,0"/><path class="cls-1" d="M31.94,81.17c0,0.3-.43.37-0.64,0.37s-0.64-.07-0.64-0.37"/><path class="cls-1" d="M31.76,85.31c0,0.22-.31.27-0.47,0.27s-0.47,0-.47-0.27"/><path class="cls-2" d="M31,93.16c-0.24.14-.15,0.34,0.09,0.43a0.63,0.63,0,0,0,.58,0c0.24-.14.15-0.34-0.09-0.43A0.63,0.63,0,0,0,31,93.16Z"/><path class="cls-1" d="M30.82,93.42c0,0.22.31,0.27,0.47,0.27s0.47,0,.47-0.27"/><path class="cls-1" d="M31.93,58.75a0.56,0.56,0,0,0-.49-0.31,0.88,0.88,0,0,0-.6.1"/><path class="cls-1" d="M30.84,58.53a0.32,0.32,0,0,0-.18.22"/><path class="cls-1" d="M32.79,58.79a0.85,0.85,0,0,1-.58.68,2.42,2.42,0,0,1-1.84,0,0.85,0.85,0,0,1-.58-0.68"/><path class="cls-1" d="M32.42,58.51a0.08,0.08,0,0,0-.09,0s-0.08,0-.05.06a0.08,0.08,0,0,0,.09,0S32.45,58.56,32.42,58.51Z"/><path class="cls-1" d="M31.45,58s-0.08,0-.07,0,0,0,.08,0,0.08,0,.07,0S31.49,58,31.45,58Z"/><path class="cls-1" d="M30.26,58.41s0,0.05.06,0.05a0.07,0.07,0,0,0,.09,0s0-.05-0.06-0.05A0.07,0.07,0,0,0,30.26,58.41Z"/><path class="cls-1" d="M30.49,59.17h0.08s0.06,0,0-.05a0.1,0.1,0,0,0-.14,0"/><path class="cls-1" d="M31.84,59.22s-0.12,0-.14,0,0.08,0.06.13,0"/><path class="cls-1" d="M30.84,58.44c-0.33.19-.2,0.47,0.12,0.58A1,1,0,0,0,31.75,59c0.33-.19.2-0.47-0.12-0.58A1,1,0,0,0,30.84,58.44Z"/><path class="cls-2" d="M30.23,58.09A2.38,2.38,0,0,1,32.07,58c0.75,0.26,1,.91.28,1.35a2.38,2.38,0,0,1-1.84.13C29.76,59.18,29.47,58.52,30.23,58.09Z"/><path class="cls-1" d="M39.52,44.23a0.08,0.08,0,0,0-.09,0s-0.08,0-.05.06a0.08,0.08,0,0,0,.09,0S39.55,44.27,39.52,44.23Z"/><path class="cls-1" d="M38.55,43.68s-0.08,0-.07,0,0,0,.08,0,0.08,0,.07,0S38.59,43.68,38.55,43.68Z"/><path class="cls-1" d="M37.36,44s0,0.05.06,0.05a0.07,0.07,0,0,0,.09,0s0-.05-0.06-0.05A0.07,0.07,0,0,0,37.36,44Z"/><path class="cls-1" d="M37.59,44.81h0.08s0.06,0,0-.05a0.1,0.1,0,0,0-.14,0"/><path class="cls-1" d="M38.93,44.86s-0.12,0-.14,0,0.08,0.06.13,0"/><path class="cls-2" d="M37.33,43.73a2.38,2.38,0,0,1,1.84-.13c0.75,0.26,1,.91.28,1.35a2.38,2.38,0,0,1-1.84.13C36.86,44.82,36.57,44.17,37.33,43.73Z"/><path class="cls-1" d="M39.89,44.43a0.85,0.85,0,0,1-.58.68,2.42,2.42,0,0,1-1.84,0,0.85,0.85,0,0,1-.58-0.68"/><path class="cls-2" d="M38.05,78.8c-0.24.14-.15,0.34,0.09,0.43a0.63,0.63,0,0,0,.58,0c0.24-.14.15-0.34-0.09-0.43A0.63,0.63,0,0,0,38.05,78.8Z"/><path class="cls-1" d="M37.92,79.06c0,0.22.31,0.27,0.47,0.27s0.47,0,.47-0.27"/><path class="cls-1" d="M37.93,44.08c-0.33.19-.2,0.47,0.12,0.58a1,1,0,0,0,.79-0.06c0.33-.19.2-0.47-0.12-0.58A1,1,0,0,0,37.93,44.08Z"/><path class="cls-1" d="M38.86,71c0,0.22-.31.27-0.47,0.27s-0.47,0-.47-0.27"/><path class="cls-1" d="M39,66.82c0,0.3-.43.37-0.64,0.37s-0.64-.07-0.64-0.37"/><path class="cls-1" d="M37.75,44.39a0.32,0.32,0,0,1,.18-0.22"/><path class="cls-1" d="M37.93,44.17a0.88,0.88,0,0,1,.6-0.1,0.56,0.56,0,0,1,.49.31"/><path class="cls-1" d="M70.17,85.54a0.49,0.49,0,0,0,.47.36,0.88,0.88,0,0,0,.62-0.1"/><path class="cls-1" d="M71.27,85.8a0.28,0.28,0,0,0,.19-0.26"/><path class="cls-1" d="M70.34,89.67a0.36,0.36,0,0,0,.35.26,0.65,0.65,0,0,0,.46-0.07"/><path class="cls-1" d="M71.15,89.86a0.21,0.21,0,0,0,.14-0.19"/><path class="cls-2" d="M71.15,97.91a0.63,0.63,0,0,1-.58,0c-0.24-.08-0.33-0.29-0.09-0.43a0.63,0.63,0,0,1,.58,0C71.29,97.56,71.38,97.77,71.15,97.91Z"/><path class="cls-1" d="M71.28,97.78a0.21,0.21,0,0,1-.14.19"/><path class="cls-1" d="M71.15,98a0.65,0.65,0,0,1-.46.07,0.36,0.36,0,0,1-.35-0.26"/><path class="cls-1" d="M70.17,63.11a0.79,0.79,0,0,1,1.28,0"/><path class="cls-1" d="M69.31,63.16a1.15,1.15,0,0,0,1.11.84,2.33,2.33,0,0,0,1.45-.22"/><path class="cls-1" d="M71.87,63.77a0.77,0.77,0,0,0,.44-0.61"/><line class="cls-4" x1="45.19" y1="42.9" x2="76.3" y2="38.08"/><line class="cls-2" x1="28.52" y1="34.54" x2="28.52" y2="33.27"/><line class="cls-2" x1="36.86" y1="15.31" x2="28.52" y2="33.27"/><line class="cls-2" x1="28.52" y1="34.54" x2="45.19" y2="44.16"/><line class="cls-5" x1="45.19" y1="44.16" x2="45.19" y2="42.9"/><line class="cls-4" x1="28.52" y1="33.27" x2="45.19" y2="42.9"/><line class="cls-2" x1="45.19" y1="44.16" x2="76.3" y2="39.35"/><line class="cls-2" x1="76.3" y1="39.35" x2="76.3" y2="38.08"/><line class="cls-2" x1="76.3" y1="38.08" x2="36.86" y2="15.31"/><path class="cls-1" d="M31.74,93.5a1.3,1.3,0,0,1,.75.72,0.79,0.79,0,0,1-.07,1"/><line class="cls-3" x1="47.14" y1="103.8" x2="48.25" y2="103.16"/><line class="cls-3" x1="46.23" y1="102.21" x2="47.29" y2="101.6"/><line class="cls-1" x1="70.23" y1="99.93" x2="71.4" y2="99.26"/><line class="cls-1" x1="69.26" y1="98.25" x2="70.39" y2="97.6"/><line class="cls-1" x1="37.38" y1="79.85" x2="38.15" y2="79.4"/><line class="cls-1" x1="38.35" y1="81.53" x2="39.52" y2="80.85"/><line class="cls-1" x1="30.28" y1="94.2" x2="31.06" y2="93.76"/><path class="cls-3" d="M47.33,103.38c0,0.54-.43.58-0.8,0.26a1.45,1.45,0,0,1-.49-1c0-.54.43-0.58,0.8-0.26A1.45,1.45,0,0,1,47.33,103.38Z"/><line class="cls-1" x1="31.26" y1="95.89" x2="32.43" y2="95.21"/><path class="cls-3" d="M48.44,102.74a0.4,0.4,0,0,1-.19.42"/><path class="cls-3" d="M48.09,101.88a1.25,1.25,0,0,1,.34.86"/><path class="cls-1" d="M70.43,99.49c0,0.57-.46.62-0.85,0.28a1.54,1.54,0,0,1-.52-1.07c0-.57.46-0.62,0.85-0.28A1.54,1.54,0,0,1,70.43,99.49Z"/><path class="cls-1" d="M71.6,98.81a0.42,0.42,0,0,1-.2.44"/><path class="cls-1" d="M71.23,97.9a1.33,1.33,0,0,1,.37.91"/><path class="cls-1" d="M37.18,80.29c0-.57.46-0.62,0.85-0.28a1.54,1.54,0,0,1,.52,1.07c0,0.57-.46.62-0.85,0.28A1.54,1.54,0,0,1,37.18,80.29Z"/><path class="cls-1" d="M38.84,79.14a1.3,1.3,0,0,1,.75.72,0.79,0.79,0,0,1-.07,1"/><path class="cls-1" d="M30.08,94.65c0-.57.46-0.62,0.85-0.28a1.54,1.54,0,0,1,.52,1.07c0,0.57-.46.62-0.85,0.28A1.54,1.54,0,0,1,30.08,94.65Z"/><path d="M24.61,5.43a0.71,0.71,0,0,1,.5.18,0.6,0.6,0,0,1,.19.46,0.59,0.59,0,0,1-.2.46,0.74,0.74,0,0,1-.52.18H24.18V7.64H23.75V5.43h0.85Zm-0.11.95a0.41,0.41,0,0,0,.27-0.08,0.28,0.28,0,0,0,.1-0.23,0.31,0.31,0,0,0-.39-0.31H24.18V6.38H24.5Z"/><path d="M26.17,6.16V7.08a0.3,0.3,0,0,0,.07.22,0.25,0.25,0,0,0,.19.08,0.34,0.34,0,0,0,.19-0.06,0.44,0.44,0,0,0,.15-0.17v-1h0.39V7.64H26.76V7.44a0.62,0.62,0,0,1-.46.23,0.5,0.5,0,0,1-.38-0.15,0.57,0.57,0,0,1-.15-0.41V6.16h0.39Z"/><path d="M29,6.16L28.24,7.35H29V7.64H27.59l0.77-1.18H27.65V6.16H29Z"/><path d="M30.74,6.16L30,7.35h0.77V7.64H29.32l0.77-1.18H29.38V6.16h1.36Z"/><path d="M31.6,5.43V7.64H31.21V5.43H31.6Z"/><path d="M32.86,6.13a0.66,0.66,0,0,1,.52.21,0.83,0.83,0,0,1,.19.58V7h-1a0.45,0.45,0,0,0,.15.3,0.5,0.5,0,0,0,.34.11,0.75,0.75,0,0,0,.27,0,1.17,1.17,0,0,0,.27-0.15V7.49a1.06,1.06,0,0,1-.63.18,0.79,0.79,0,0,1-.57-0.21,0.73,0.73,0,0,1-.22-0.56,0.76,0.76,0,0,1,.21-0.55A0.71,0.71,0,0,1,32.86,6.13ZM33.2,6.74a0.43,0.43,0,0,0-.1-0.25,0.29,0.29,0,0,0-.23-0.09,0.33,0.33,0,0,0-.24.09,0.43,0.43,0,0,0-.11.26H33.2Z"/><path d="M35.71,5.4a0.69,0.69,0,0,1,.5.18,0.63,0.63,0,0,1,.19.48,1.07,1.07,0,0,1-.14.49,4.73,4.73,0,0,1-.49.7h0.76V7.64H35.1v0c0.17-.21.31-0.39,0.43-0.55s0.21-.3.28-0.41a1.61,1.61,0,0,0,.14-0.28,0.69,0.69,0,0,0,0-.24,0.36,0.36,0,0,0-.1-0.26,0.31,0.31,0,0,0-.24-0.1,0.74,0.74,0,0,0-.52.28V5.61A1,1,0,0,1,35.71,5.4Z"/><path d="M37.27,7.18a0.24,0.24,0,0,1,.17.07,0.23,0.23,0,0,1,.07.17,0.24,0.24,0,0,1-.42.17A0.23,0.23,0,0,1,37,7.43,0.24,0.24,0,0,1,37.27,7.18Z"/><path d="M38.72,5.4a0.61,0.61,0,0,1,.53.3,1.51,1.51,0,0,1,.2.83,1.54,1.54,0,0,1-.19.83,0.6,0.6,0,0,1-.53.31,0.61,0.61,0,0,1-.54-0.3A1.5,1.5,0,0,1,38,6.54a1.51,1.51,0,0,1,.2-0.83A0.61,0.61,0,0,1,38.72,5.4ZM38.39,6.55c0,0.51.11,0.76,0.32,0.76S39,7,39,6.51s-0.11-.75-0.32-0.75S38.39,6,38.39,6.55Z"/><path d="M42,5.43l1,2.21H42.55L42.32,7.1h-1l-0.21.54H40.68l0.91-2.21H42ZM41.47,6.78h0.71L41.81,5.9Z"/><path d="M43.89,6.13a0.91,0.91,0,0,1,.23,0l0.23,0.09V6.56a1.09,1.09,0,0,0-.24-0.11,0.71,0.71,0,0,0-.23,0,0.24,0.24,0,0,0-.13,0,0.1,0.1,0,0,0,0,.09,0.09,0.09,0,0,0,0,.07L44,6.71a1.33,1.33,0,0,1,.36.24,0.37,0.37,0,0,1,.1.26,0.41,0.41,0,0,1-.15.34,0.61,0.61,0,0,1-.4.12,1.19,1.19,0,0,1-.29,0,1,1,0,0,1-.23-0.08V7.23a1,1,0,0,0,.48.16,0.32,0.32,0,0,0,.16,0A0.11,0.11,0,0,0,44,7.25a0.1,0.1,0,0,0,0-.06L44,7.13,43.68,7a0.8,0.8,0,0,1-.26-0.19,0.36,0.36,0,0,1-.08-0.24,0.37,0.37,0,0,1,.15-0.31A0.65,0.65,0,0,1,43.89,6.13Z"/><path d="M45.39,6.13a0.91,0.91,0,0,1,.23,0l0.23,0.09V6.56a1.09,1.09,0,0,0-.24-0.11,0.71,0.71,0,0,0-.23,0,0.24,0.24,0,0,0-.13,0,0.1,0.1,0,0,0,0,.09,0.09,0.09,0,0,0,0,.07l0.22,0.12a1.33,1.33,0,0,1,.36.24,0.37,0.37,0,0,1,.1.26,0.41,0.41,0,0,1-.15.34,0.61,0.61,0,0,1-.4.12,1.19,1.19,0,0,1-.29,0,1,1,0,0,1-.23-0.08V7.23a1,1,0,0,0,.48.16,0.32,0.32,0,0,0,.16,0,0.11,0.11,0,0,0,.06-0.09,0.1,0.1,0,0,0,0-.06l-0.07-.06L45.18,7a0.8,0.8,0,0,1-.26-0.19,0.36,0.36,0,0,1-.08-0.24A0.37,0.37,0,0,1,45,6.25,0.65,0.65,0,0,1,45.39,6.13Z"/><path d="M47.07,6.13a0.66,0.66,0,0,1,.52.21,0.83,0.83,0,0,1,.19.58V7h-1a0.45,0.45,0,0,0,.15.3,0.5,0.5,0,0,0,.34.11,0.75,0.75,0,0,0,.27,0,1.17,1.17,0,0,0,.27-0.15V7.49a1.06,1.06,0,0,1-.63.18,0.79,0.79,0,0,1-.57-0.21,0.73,0.73,0,0,1-.22-0.56,0.76,0.76,0,0,1,.21-0.55A0.71,0.71,0,0,1,47.07,6.13Zm0.34,0.61a0.43,0.43,0,0,0-.1-0.25,0.29,0.29,0,0,0-.23-0.09,0.33,0.33,0,0,0-.24.09,0.43,0.43,0,0,0-.11.26h0.67Z"/><path d="M49.14,6.13a0.5,0.5,0,0,1,.29.08,0.49,0.49,0,0,1,.18.21,0.91,0.91,0,0,1,.25-0.22,0.55,0.55,0,0,1,.27-0.07,0.5,0.5,0,0,1,.38.15,0.57,0.57,0,0,1,.14.41V7.64H50.26V6.76a0.4,0.4,0,0,0-.07-0.24A0.22,0.22,0,0,0,50,6.43a0.45,0.45,0,0,0-.34.23v1H49.27V6.75a0.37,0.37,0,0,0-.07-0.24A0.23,0.23,0,0,0,49,6.43a0.3,0.3,0,0,0-.17.05,0.76,0.76,0,0,0-.17.17v1H48.28V6.16h0.39V6.37a0.78,0.78,0,0,1,.21-0.18A0.53,0.53,0,0,1,49.14,6.13Z"/><path d="M51.61,5.43V6.26A0.65,0.65,0,0,1,52,6.13a0.67,0.67,0,0,1,.35.1,0.64,0.64,0,0,1,.25.27,0.84,0.84,0,0,1,.09.39,0.76,0.76,0,0,1-.22.57,0.82,0.82,0,0,1-.59.21,1.79,1.79,0,0,1-.66-0.12V5.43h0.39Zm0,1.9a0.89,0.89,0,0,0,.29,0,0.35,0.35,0,0,0,.28-0.13,0.57,0.57,0,0,0,.1-0.36,0.5,0.5,0,0,0-.11-0.33,0.35,0.35,0,0,0-.28-0.12,0.36,0.36,0,0,0-.15,0l-0.15.09V7.33Z"/><path d="M53.59,5.43V7.64H53.2V5.43h0.39Z"/><path d="M54.42,6.16L54.77,7l0.35-.79h0.42l-1,2.22H54.1l0.47-1L54,6.16h0.42Z"/><path d="M8.8,21.41V19.94H9.3a1,1,0,0,1,.48.09,0.67,0.67,0,0,1,.28.27,0.73,0.73,0,0,1,.1.38,0.72,0.72,0,0,1-.06.28,0.71,0.71,0,0,1-.16.24,0.72,0.72,0,0,1-.25.16l-0.15,0H8.8Zm0.47-1.28H9v1.1H9.28l0.25,0,0.15-.05,0.11-.08a0.55,0.55,0,0,0,.16-0.4,0.5,0.5,0,0,0-.16-0.39,0.51,0.51,0,0,0-.13-0.09l-0.15,0H9.28Z"/><path d="M11.35,20.94H10.67a0.32,0.32,0,0,0,.09.22,0.31,0.31,0,0,0,.22.08,0.58,0.58,0,0,0,.35-0.12v0.19a0.65,0.65,0,0,1-.18.08l-0.2,0a0.46,0.46,0,0,1-.26-0.07,0.48,0.48,0,0,1-.16-0.18,0.54,0.54,0,0,1-.06-0.26,0.52,0.52,0,0,1,.13-0.36,0.42,0.42,0,0,1,.33-0.14,0.38,0.38,0,0,1,.31.13,0.54,0.54,0,0,1,.12.36v0Zm-0.68-.11h0.49a0.27,0.27,0,0,0-.07-0.18,0.22,0.22,0,0,0-.16-0.06,0.24,0.24,0,0,0-.17.06A0.3,0.3,0,0,0,10.67,20.83Z"/><path d="M11.64,21.34V21.14l0.17,0.09,0.14,0a0.18,0.18,0,0,0,.1,0,0.08,0.08,0,0,0,0-.07,0.09,0.09,0,0,0,0-.07L11.95,21a0.85,0.85,0,0,1-.24-0.18,0.26,0.26,0,0,1-.06-0.16,0.22,0.22,0,0,1,.09-0.18A0.34,0.34,0,0,1,12,20.42a0.62,0.62,0,0,1,.29.08v0.19a0.59,0.59,0,0,0-.28-0.1l-0.09,0a0.07,0.07,0,0,0,0,.06,0.09,0.09,0,0,0,0,.06L12,20.81l0.07,0a0.38,0.38,0,0,1,.24.3,0.24,0.24,0,0,1-.09.2,0.37,0.37,0,0,1-.24.08l-0.15,0Z"/><path d="M12.65,19.94h0.19v1.47H12.65V19.94Zm0.63,0.5h0.23l-0.41.47,0.5,0.5H13.33l-0.49-.5Z"/><path d="M13.68,20.6L14,20.24v0.2h0.31v0.17H14v0.48a0.14,0.14,0,0,0,.14.17,0.42,0.42,0,0,0,.22-0.07v0.18a0.48,0.48,0,0,1-.24.06,0.32,0.32,0,0,1-.22-0.08l0-.05a0.27,0.27,0,0,1,0-.08,0.88,0.88,0,0,1,0-.18V20.61H13.68v0Z"/><path d="M15.13,20.44a0.5,0.5,0,0,1,.37.14,0.48,0.48,0,0,1,.15.36,0.46,0.46,0,0,1-.15.35,0.53,0.53,0,0,1-.37.14,0.51,0.51,0,0,1-.37-0.14,0.47,0.47,0,0,1-.15-0.35,0.47,0.47,0,0,1,.15-0.35A0.52,0.52,0,0,1,15.13,20.44Zm0,0.17a0.3,0.3,0,0,0-.23.09,0.32,0.32,0,0,0-.09.23,0.3,0.3,0,0,0,.09.23,0.32,0.32,0,0,0,.23.09,0.31,0.31,0,0,0,.23-0.09,0.33,0.33,0,0,0,0-.46A0.33,0.33,0,0,0,15.12,20.61Z"/><path d="M16,21.91V20.44h0.34a0.58,0.58,0,0,1,.4.13,0.46,0.46,0,0,1,.14.36,0.5,0.5,0,0,1-.13.36,0.46,0.46,0,0,1-.34.14,0.61,0.61,0,0,1-.21,0v0.52H16Zm0.33-1.29H16.17v0.6a0.41,0.41,0,0,0,.19,0,0.29,0.29,0,0,0,.22-0.09,0.35,0.35,0,0,0,.09-0.24,0.34,0.34,0,0,0,0-.17,0.25,0.25,0,0,0-.11-0.11A0.5,0.5,0,0,0,16.3,20.62Z"/><path d="M9.51,47H9.66l0.66,1.48H10.11L9.91,48H9.28l-0.18.44H8.88Zm0.31,0.86-0.24-.53-0.22.53H9.82Z"/><path d="M11.23,47h0.19v1.47H11a0.45,0.45,0,0,1-.34-0.14A0.51,0.51,0,0,1,10.54,48a0.48,0.48,0,0,1,.13-0.35A0.46,0.46,0,0,1,11,47.48a0.62,0.62,0,0,1,.21,0V47Zm0,1.31V47.69a0.4,0.4,0,0,0-.18,0,0.29,0.29,0,0,0-.23.09,0.36,0.36,0,0,0-.08.25,0.33,0.33,0,0,0,.07.23,0.23,0.23,0,0,0,.09.06l0.18,0h0.15Z"/><path d="M11.81,47.5H12V48.6a0.37,0.37,0,0,1-.19.36l-0.14-.14a0.2,0.2,0,0,0,.11-0.08,0.23,0.23,0,0,0,0-.13V47.5Zm0.09-.41a0.11,0.11,0,0,1,.08,0,0.11,0.11,0,0,1,0,.08,0.11,0.11,0,0,1,0,.08,0.11,0.11,0,0,1-.08,0,0.11,0.11,0,0,1-.08,0A0.11,0.11,0,0,1,11.91,47.09Z"/><path d="M13,48.47V48.34a0.44,0.44,0,0,1-.14.1,0.36,0.36,0,0,1-.16,0,0.33,0.33,0,0,1-.17,0,0.3,0.3,0,0,1-.12-0.12,0.61,0.61,0,0,1,0-.26V47.5h0.19V48a0.38,0.38,0,0,0,0,.21,0.18,0.18,0,0,0,.15.06A0.28,0.28,0,0,0,13,48.19V47.5h0.19v1H13Z"/><path d="M13.58,48.4V48.19l0.17,0.09,0.14,0a0.18,0.18,0,0,0,.1,0,0.08,0.08,0,0,0,0-.07,0.09,0.09,0,0,0,0-.07l-0.12-.08a0.85,0.85,0,0,1-.24-0.18,0.26,0.26,0,0,1-.06-0.16,0.22,0.22,0,0,1,.09-0.18,0.34,0.34,0,0,1,.22-0.07,0.62,0.62,0,0,1,.29.08v0.19a0.59,0.59,0,0,0-.28-0.1l-0.09,0a0.07,0.07,0,0,0,0,.06,0.09,0.09,0,0,0,0,.06l0.11,0.07,0.07,0a0.38,0.38,0,0,1,.24.3,0.24,0.24,0,0,1-.09.2,0.37,0.37,0,0,1-.24.08l-0.15,0Z"/><path d="M14.45,47.65l0.36-.35v0.2h0.31v0.17H14.81v0.48a0.14,0.14,0,0,0,.14.17,0.42,0.42,0,0,0,.22-0.07v0.18a0.48,0.48,0,0,1-.24.06,0.32,0.32,0,0,1-.22-0.08l0-.05a0.27,0.27,0,0,1,0-.08,0.88,0.88,0,0,1,0-.18V47.67H14.45v0Z"/><path d="M16,47.88V48.3s0,0,0,0a0.23,0.23,0,0,0,.11-0.05v0.12l-0.1.06-0.08,0a0.13,0.13,0,0,1-.15-0.1,0.42,0.42,0,0,1-.26.09,0.23,0.23,0,0,1-.17-0.07,0.22,0.22,0,0,1-.07-0.17,0.24,0.24,0,0,1,.07-0.16A0.45,0.45,0,0,1,15.61,48l0.25-.08V47.83a0.15,0.15,0,0,0-.17-0.18,0.42,0.42,0,0,0-.31.16V47.61a0.4,0.4,0,0,1,.32-0.13,0.37,0.37,0,0,1,.25.08L16,47.63a0.27,0.27,0,0,1,0,.09A1.44,1.44,0,0,1,16,47.88Zm-0.19.39V48l-0.13,0a0.45,0.45,0,0,0-.14.08,0.13,0.13,0,0,0,0,.1,0.13,0.13,0,0,0,0,.1,0.14,0.14,0,0,0,.1,0A0.24,0.24,0,0,0,15.86,48.27Z"/><path d="M16.48,47h0.19v0.57a0.45,0.45,0,0,1,.27-0.09,0.38,0.38,0,0,1,.3.14,0.54,0.54,0,0,1,.12.36,0.48,0.48,0,0,1-.51.51l-0.2,0-0.17-.05V47Zm0.19,0.76v0.53a0.7,0.7,0,0,0,.2,0,0.27,0.27,0,0,0,.21-0.09A0.34,0.34,0,0,0,17.16,48a0.35,0.35,0,0,0-.08-0.23,0.24,0.24,0,0,0-.2-0.09A0.34,0.34,0,0,0,16.67,47.75Z"/><path d="M17.7,47H17.9v1.47H17.7V47Z"/><path d="M19.13,48H18.45a0.32,0.32,0,0,0,.09.22,0.31,0.31,0,0,0,.22.08,0.58,0.58,0,0,0,.35-0.12v0.19a0.65,0.65,0,0,1-.18.08l-0.2,0a0.46,0.46,0,0,1-.26-0.07,0.48,0.48,0,0,1-.16-0.18A0.54,0.54,0,0,1,18.26,48a0.52,0.52,0,0,1,.13-0.36,0.42,0.42,0,0,1,.33-0.14,0.38,0.38,0,0,1,.31.13,0.54,0.54,0,0,1,.12.36v0Zm-0.68-.11h0.49a0.27,0.27,0,0,0-.07-0.18,0.22,0.22,0,0,0-.16-0.06,0.24,0.24,0,0,0-.17.06A0.3,0.3,0,0,0,18.45,47.88Z"/><path d="M20.22,47h0.21v1.28H21.1v0.19H20.22V47Z"/><path d="M22.21,48H21.53a0.32,0.32,0,0,0,.09.22,0.31,0.31,0,0,0,.22.08,0.58,0.58,0,0,0,.35-0.12v0.19a0.65,0.65,0,0,1-.18.08l-0.2,0a0.46,0.46,0,0,1-.26-0.07,0.48,0.48,0,0,1-.16-0.18A0.54,0.54,0,0,1,21.34,48a0.52,0.52,0,0,1,.13-0.36,0.42,0.42,0,0,1,.33-0.14,0.38,0.38,0,0,1,.31.13,0.54,0.54,0,0,1,.12.36v0Zm-0.68-.11H22A0.27,0.27,0,0,0,22,47.71a0.22,0.22,0,0,0-.16-0.06,0.24,0.24,0,0,0-.17.06A0.3,0.3,0,0,0,21.54,47.88Z"/><path d="M22.5,47.83a0.3,0.3,0,0,1,.11-0.25,0.48,0.48,0,0,1,.31-0.09h0.4v0.15h-0.2a0.39,0.39,0,0,1,.08.11,0.25,0.25,0,0,1,0,.11,0.29,0.29,0,0,1,0,.15,0.3,0.3,0,0,1-.11.11,0.69,0.69,0,0,1-.22.06q-0.11,0-.11.07a0.06,0.06,0,0,0,0,.06l0.15,0,0.23,0.06,0.09,0.06a0.24,0.24,0,0,1,.07.17,0.25,0.25,0,0,1-.12.22,0.7,0.7,0,0,1-.66,0,0.25,0.25,0,0,1-.12-0.22,0.26,0.26,0,0,1,.24-0.25,0.17,0.17,0,0,1-.1-0.12,0.11,0.11,0,0,1,0-.08,0.26,0.26,0,0,1,.11-0.06A0.32,0.32,0,0,1,22.5,47.83Zm0.31,0.68a0.28,0.28,0,0,0-.16,0,0.12,0.12,0,0,0-.06.11q0,0.15.27,0.15a0.43,0.43,0,0,0,.2,0,0.12,0.12,0,0,0,.07-0.11A0.13,0.13,0,0,0,23,48.55,0.53,0.53,0,0,0,22.82,48.51Zm0-.85a0.18,0.18,0,0,0-.13.05,0.17,0.17,0,0,0-.05.13,0.16,0.16,0,0,0,.05.12A0.21,0.21,0,0,0,23,48a0.17,0.17,0,0,0,0-.25A0.19,0.19,0,0,0,22.86,47.66Z"/><path d="M10.46,93.77h0.21l-0.6,1.48h0L9.55,94l-0.49,1.2H9L8.43,93.77H8.64l0.41,1,0.41-1h0.2l0.41,1Z"/><path d="M10.94,93.77h0.19V94.4a0.37,0.37,0,0,1,.3-0.15,0.32,0.32,0,0,1,.17,0,0.29,0.29,0,0,1,.12.13,0.67,0.67,0,0,1,0,.25v0.55H11.56v-0.6a0.26,0.26,0,0,0-.05-0.17,0.17,0.17,0,0,0-.14-0.06,0.23,0.23,0,0,0-.12,0,0.53,0.53,0,0,0-.12.11v0.7H10.94V93.77Z"/><path d="M13,94.77H12.3a0.31,0.31,0,0,0,.09.22,0.31,0.31,0,0,0,.22.08A0.58,0.58,0,0,0,13,95v0.19a0.65,0.65,0,0,1-.18.08l-0.2,0a0.46,0.46,0,0,1-.26-0.07A0.48,0.48,0,0,1,12.16,95a0.54,0.54,0,0,1-.06-0.26,0.52,0.52,0,0,1,.13-0.36,0.42,0.42,0,0,1,.33-0.14,0.38,0.38,0,0,1,.31.13,0.54,0.54,0,0,1,.12.36v0Zm-0.68-.11h0.49a0.27,0.27,0,0,0-.07-0.18,0.22,0.22,0,0,0-.16-0.06,0.24,0.24,0,0,0-.17.06A0.31,0.31,0,0,0,12.3,94.66Z"/><path d="M14.14,94.77H13.46a0.31,0.31,0,0,0,.09.22,0.31,0.31,0,0,0,.22.08A0.58,0.58,0,0,0,14.13,95v0.19a0.65,0.65,0,0,1-.18.08l-0.2,0a0.46,0.46,0,0,1-.26-0.07A0.48,0.48,0,0,1,13.33,95a0.54,0.54,0,0,1-.06-0.26,0.52,0.52,0,0,1,.13-0.36,0.42,0.42,0,0,1,.33-0.14,0.38,0.38,0,0,1,.31.13,0.54,0.54,0,0,1,.12.36v0Zm-0.68-.11H14a0.27,0.27,0,0,0-.07-0.18,0.22,0.22,0,0,0-.16-0.06,0.24,0.24,0,0,0-.17.06A0.31,0.31,0,0,0,13.46,94.66Z"/><path d="M14.48,93.77h0.19v1.47H14.48V93.77Z"/><line class="cls-6" x1="33.86" y1="21.83" x2="8.8" y2="21.83"/><line class="cls-6" x1="37.71" y1="48.94" x2="8.8" y2="48.94"/><line class="cls-6" x1="30.6" y1="95.72" x2="8.8" y2="95.72"/></svg>