<svg id="Layer_1" data-name="Layer 1" xmlns="http://www.w3.org/2000/svg" viewBox="0 0 597.96 777.48"><defs><style>.cls-1{font-size:12px;}.cls-1,.cls-42{fill:#010101;}.cls-1,.cls-2,.cls-41,.cls-48,.cls-49,.cls-5,.cls-6{font-family:Gill Sans;}.cls-1,.cls-19,.cls-41{font-weight:700;}.cls-2,.cls-4,.cls-41,.cls-42,.cls-48,.cls-49,.cls-6{font-size:8px;}.cls-2{fill:#e71f20;}.cls-3{white-space:pre;}.cls-4,.cls-41,.cls-48,.cls-49,.cls-6{fill:#231916;}.cls-4,.cls-42{font-family:Myriad Pro;}.cls-12,.cls-13,.cls-14,.cls-15,.cls-17,.cls-20,.cls-21,.cls-22,.cls-23,.cls-24,.cls-25,.cls-26,.cls-27,.cls-29,.cls-30,.cls-31,.cls-32,.cls-33,.cls-34,.cls-35,.cls-36,.cls-37,.cls-43,.cls-51,.cls-60,.cls-61,.cls-63,.cls-64,.cls-66,.cls-7,.cls-8{fill:none;}.cls-12,.cls-13,.cls-14,.cls-15,.cls-21,.cls-22,.cls-23,.cls-24,.cls-25,.cls-26,.cls-27,.cls-29,.cls-30,.cls-31,.cls-32,.cls-33,.cls-34,.cls-35,.cls-36,.cls-51,.cls-7,.cls-8{stroke:#96b8b4;}.cls-12,.cls-13,.cls-14,.cls-15,.cls-17,.cls-20,.cls-21,.cls-22,.cls-23,.cls-24,.cls-25,.cls-26,.cls-27,.cls-29,.cls-30,.cls-31,.cls-32,.cls-33,.cls-34,.cls-35,.cls-36,.cls-37,.cls-43,.cls-51,.cls-63,.cls-64,.cls-7,.cls-8{stroke-miterlimit:10;}.cls-7{stroke-width:1.73px;}.cls-8{stroke-width:0.87px;}.cls-65,.cls-9{fill:#96b8b4;}.cls-10{fill:#c9e7e6;}.cls-11{fill:#c4e1ec;}.cls-12{stroke-width:0.58px;}.cls-13{stroke-width:1.26px;}.cls-14{stroke-width:0.63px;}.cls-15{stroke-width:0.42px;}.cls-16{opacity:0.65;}.cls-17,.cls-37{stroke:#f4b0af;}.cls-17{stroke-width:0.92px;}.cls-18{fill:#f4b0af;}.cls-20,.cls-60,.cls-61,.cls-66{stroke:#010101;}.cls-20{stroke-width:0.26px;}.cls-21{stroke-width:1.52px;}.cls-22{stroke-width:0.76px;}.cls-23{stroke-width:0.51px;}.cls-24{stroke-width:1.72px;}.cls-25{stroke-width:0.86px;}.cls-26{stroke-width:2.16px;}.cls-27{stroke-width:0.57px;}.cls-28{fill:#fae8cf;}.cls-29{stroke-width:1.22px;}.cls-30{stroke-width:0.61px;}.cls-31{stroke-width:0.41px;}.cls-32{stroke-width:1.67px;}.cls-33{stroke-width:0.84px;}.cls-34{stroke-width:2.11px;}.cls-35{stroke-width:0.56px;}.cls-36{stroke-width:1.16px;}.cls-37{stroke-width:1px;}.cls-38{fill:#cceaf6;}.cls-39{fill:#d3e8c8;}.cls-40{fill:#f9f8c9;}.cls-43{stroke:#afafaf;stroke-width:0.47px;}.cls-44{fill:#d7ebd3;}.cls-45{fill:#e4f0cd;}.cls-46{fill:#edf3cf;}.cls-47{fill:#e6f4f3;}.cls-48{letter-spacing:2px;}.cls-49{letter-spacing:1px;}.cls-50{fill:#d0e9f1;}.cls-51{stroke-width:1.25px;}.cls-52{fill:#e3efcc;}.cls-53{fill:#d1e7c7;}.cls-54{fill:#d5ead2;}.cls-55{fill:#cae9f5;}.cls-56{fill:#c2dfea;}.cls-57{fill:#faf8c7;}.cls-58{fill:#c7e6e5;}.cls-59{fill:#e5f3f1;}.cls-60,.cls-61,.cls-66{stroke-linecap:round;stroke-linejoin:round;}.cls-60{stroke-width:0.1px;}.cls-61{stroke-width:0.05px;}.cls-62{fill:#b0c9cf;}.cls-63,.cls-64{stroke:#b0c9cf;}.cls-63{stroke-width:0.49px;}.cls-64{stroke-width:0.85px;}.cls-65{opacity:0.7;}.cls-66{stroke-width:0.12px;}</style></defs><title>sp_02</title><text class="cls-1" transform="translate(23.57 23.51)">Neu<tspan x="25.65" y="0">r</tspan><tspan x="31.05" y="0">on Anatomy</tspan></text><text class="cls-2" transform="matrix(0, 1, -1, 0, 294.27, 56.43)">Di<tspan x="9.03" y="0">r</tspan><tspan x="12.68" y="0">ection Message</tspan><tspan class="cls-3" x="70.93" y="0"> T</tspan><tspan x="77.26" y="0">r</tspan><tspan x="81.07" y="0">a</tspan><tspan x="84.84" y="0">v</tspan><tspan x="88.83" y="0">el</tspan></text><text class="cls-4" transform="translate(25.94 70.94)">A<tspan x="5.06" y="0">x</tspan><tspan x="8.8" y="0">on</tspan><tspan class="cls-5"><tspan x="0" y="9.6">In</tspan><tspan x="5.59" y="9.6">f</tspan><tspan x="7.43" y="9.6">o</tspan><tspan x="11.77" y="9.6">r</tspan><tspan x="14.63" y="9.6">mation receptor</tspan></tspan></text><text class="cls-6" transform="translate(226.73 135.22)">Recepti<tspan x="26.66" y="0">v</tspan><tspan x="30.32" y="0">e Zone</tspan></text><text class="cls-6" transform="translate(236.38 90.59)">T<tspan x="4.15" y="0">rigger Zone</tspan></text><text class="cls-6" transform="translate(220.4 65.65)">Conducting Zone</text><text class="cls-6" transform="translate(235.37 40.11)">Output Zone</text><path class="cls-7" d="M189.07,69.24s-0.54-20.61-8.3-20.92"/><path class="cls-8" d="M181.12,48.38s-8.83-.46-10.53,1.51"/><path class="cls-7" d="M190.92,111.06s-1.16-10.25.5-14l1.66-3.78"/><path class="cls-9" d="M167.08,136.74c12.35-.51,20,10.56,20,10.56,2-9.17,14.24-7.14,14.24-7.14-4.48-7.75,5.31-15.64,5.31-15.64C195.31,120.62,190.29,107,190.29,107c4,10.58-24.46,3.53-24.46,3.53s13.72,9.13,9.17,14.75A101,101,0,0,0,167.08,136.74Z"/><circle class="cls-10" cx="187.44" cy="126.03" r="6.43" transform="translate(-9.4 236.82) rotate(-63.29)"/><rect class="cls-11" x="190.57" y="86.03" width="5.03" height="9.11" rx="2.28" ry="2.28" transform="translate(398.08 149.49) rotate(170.9)"/><rect class="cls-11" x="189.1" y="76.82" width="5.03" height="9.11" rx="2.28" ry="2.28" transform="translate(393.69 131.42) rotate(170.9)"/><rect class="cls-11" x="187.62" y="67.61" width="5.03" height="9.11" rx="2.28" ry="2.28" transform="translate(389.3 113.35) rotate(170.9)"/><path class="cls-8" d="M171.46,112.78s-10.33-5.65-13.93-4.3"/><path class="cls-8" d="M168.66,135.4s-2.15,1.2-4.28,2.51a24.67,24.67,0,0,0-3.89,2.75"/><path class="cls-8" d="M187.48,143.76s-2.31,14.23,1.24,16.31"/><path class="cls-8" d="M198.05,139c0.44,0.11,9.71,2.21,9.72,7.35"/><path class="cls-8" d="M203.39,124s7.46,3.62,8.52-5.89"/><path class="cls-12" d="M186.87,149.27s-2.87,9.18-9,6.16"/><path class="cls-12" d="M186.84,155.18s2.4,5.39,8.17,3.91"/><path class="cls-12" d="M161.95,139.5s-8.56-2.13-12.3.81"/><path class="cls-12" d="M165,137.32s-2.61,9,2.62,9.42"/><path class="cls-12" d="M161.28,108.59s-9-5.64-6.74-9"/><path class="cls-12" d="M163.71,109.31s-9.84,4.33-10.72,8.43"/><path class="cls-12" d="M205.07,141.94s2.62-.38,4.25-3.76"/><path class="cls-12" d="M209.15,123.95s-4.64-8.71-2.06-12.24"/><path class="cls-8" d="M180.82,37.79s-0.49,8.83,1.47,10.53"/><path class="cls-8" d="M190.13,41.39s-7.69,4.36-8.07,6.94"/><ellipse class="cls-9" cx="180.23" cy="36.88" rx="2.87" ry="1.29"/><ellipse class="cls-9" cx="191.62" cy="41.39" rx="2.84" ry="1.28"/><ellipse class="cls-9" cx="168.66" cy="49.88" rx="2.84" ry="1.28"/><text class="cls-6" transform="translate(24.69 45.14)">Syn<tspan x="11.65" y="0">a</tspan><tspan x="15.14" y="0">pse</tspan><tspan x="0" y="9.6">Junction bet</tspan><tspan x="37.57" y="9.6">w</tspan><tspan x="43.11" y="9.6">een t</tspan><tspan x="59.33" y="9.6">w</tspan><tspan x="64.88" y="9.6">o ne</tspan><tspan x="79.19" y="9.6">r</tspan><tspan x="82.41" y="9.6">v</tspan><tspan x="85.7" y="9.6">e cells</tspan></text><path class="cls-13" d="M54.79,238.2s-14.93.39-15.15,6"/><path class="cls-14" d="M39.68,244s-0.33,6.39,1.09,7.63"/><path class="cls-13" d="M85.08,236.86s-7.42.84-10.16-.36l-2.74-1.2"/><path class="cls-9" d="M103.68,254.13c-0.37-8.94,7.65-14.48,7.65-14.48-6.64-1.48-5.17-10.32-5.17-10.32-5.61,3.24-11.32-3.84-11.32-3.84-2.83,8.19-12.7,11.83-12.7,11.83,7.66-2.9,2.56,17.72,2.56,17.72s6.61-9.94,10.69-6.64A73.12,73.12,0,0,0,103.68,254.13Z"/><circle class="cls-10" cx="95.92" cy="239.38" r="4.66" transform="translate(-161.03 217.47) rotate(-63.29)"/><rect class="cls-11" x="68.43" y="231.99" width="3.65" height="6.6" rx="1.55" ry="1.55" transform="translate(291.46 128.7) rotate(80.9)"/><rect class="cls-11" x="61.76" y="233.06" width="3.65" height="6.6" rx="1.55" ry="1.55" transform="translate(286.9 136.19) rotate(80.9)"/><rect class="cls-11" x="55.09" y="234.13" width="3.65" height="6.6" rx="1.55" ry="1.55" transform="translate(282.34 143.67) rotate(80.9)"/><path class="cls-14" d="M86.32,251s-4.1,7.48-3.11,10.09"/><path class="cls-14" d="M102.71,253s0.87,1.56,1.82,3.1a17.86,17.86,0,0,0,2,2.82"/><path class="cls-14" d="M108.76,239.35s10.31,1.68,11.81-.89"/><path class="cls-14" d="M105.28,231.7c0.08-.32,1.6-7,5.32-7"/><path class="cls-14" d="M94.47,227.83s2.62-5.4-4.27-6.17"/><path class="cls-15" d="M112.75,239.8s6.65,2.08,4.46,6.51"/><path class="cls-15" d="M117,239.81a5.11,5.11,0,0,0,2.83-5.92"/><path class="cls-15" d="M105.67,257.84s-1.54,6.2.59,8.9"/><path class="cls-15" d="M104.09,255.61s6.53,1.89,6.82-1.89"/><path class="cls-15" d="M83.29,258.33s-4.08,6.54-6.5,4.88"/><path class="cls-15" d="M83.81,256.57s3.14,7.12,6.11,7.76"/><path class="cls-15" d="M107.44,226.61a4.53,4.53,0,0,0-2.72-3.08"/><path class="cls-15" d="M94.41,223.66s-6.31,3.36-8.87,1.49"/><path class="cls-14" d="M32,244.18s6.39,0.35,7.63-1.07"/><path class="cls-14" d="M34.62,237.43s3.16,5.57,5,5.84"/><ellipse class="cls-9" cx="31.09" cy="244.25" rx="0.93" ry="2.06"/><ellipse class="cls-9" cx="34.62" cy="236.36" rx="0.93" ry="2.06"/><ellipse class="cls-9" cx="40.77" cy="253.64" rx="0.93" ry="2.06"/><g class="cls-16"><line class="cls-17" x1="291.2" y1="156.64" x2="291.2" y2="37.76"/><polygon class="cls-18" points="294.96 40.8 294.29 41.43 291.21 38.11 288.12 41.43 287.45 40.8 291.21 36.76 294.96 40.8"/></g><text class="cls-6" transform="translate(27.46 205.3)"><tspan class="cls-19">Motor Neu<tspan x="42.1" y="0">r</tspan><tspan x="45.6" y="0">on</tspan></tspan><tspan x="0" y="9.6">M</tspan><tspan x="6.25" y="9.6">o</tspan><tspan x="10.42" y="9.6">ving </tspan><tspan x="24.9" y="9.6">a</tspan><tspan x="28.19" y="9.6">w</tspan><tspan x="33.86" y="9.6">a</tspan><tspan x="37.15" y="9.6">y cente</tspan><tspan x="60.04" y="9.6">r</tspan><tspan x="62.91" y="9.6">al o</tspan><tspan x="74.38" y="9.6">r</tspan><tspan x="77.25" y="9.6">gan</tspan></text><text class="cls-6" transform="translate(201.16 205.12)"><tspan class="cls-19">Sensory Nerves</tspan><tspan x="0" y="9.6">M</tspan><tspan x="6.25" y="9.6">o</tspan><tspan x="10.42" y="9.6">ving t</tspan><tspan x="27.31" y="9.6">o</tspan><tspan x="31.53" y="9.6">wards cent</tspan><tspan x="65.91" y="9.6">r</tspan><tspan x="68.77" y="9.6">al o</tspan><tspan x="80.25" y="9.6">r</tspan><tspan x="83.11" y="9.6">gan</tspan></text><line class="cls-20" x1="47.72" y1="68.75" x2="188.34" y2="68.75"/><line class="cls-20" x1="56.91" y1="108.23" x2="157.6" y2="108.23"/><circle class="cls-9" cx="244.11" cy="245.33" r="7.6"/><path class="cls-21" d="M238,255.45s-18,.48-18.3,7.27"/><path class="cls-22" d="M219.76,262.41s-0.4,7.72,1.32,9.21"/><path class="cls-21" d="M274.61,253.83s-9,1-12.27-.44L259,251.93"/><circle class="cls-10" cx="244.17" cy="248.18" r="3.54" transform="translate(-87.28 354.74) rotate(-63.29)"/><rect class="cls-11" x="254.49" y="247.95" width="4.4" height="7.97" rx="1.87" ry="1.87" transform="translate(464.84 -41.39) rotate(80.9)"/><rect class="cls-11" x="246.44" y="249.24" width="4.4" height="7.97" rx="1.87" ry="1.87" transform="translate(459.34 -32.34) rotate(80.9)"/><rect class="cls-11" x="238.38" y="250.53" width="4.4" height="7.97" rx="1.87" ry="1.87" transform="translate(453.83 -23.3) rotate(80.9)"/><path class="cls-22" d="M274,254s-0.61,10.29,1.81,12.62"/><path class="cls-22" d="M274.13,253.33c0.1-.39,1.94-8.5,6.43-8.5"/><path class="cls-22" d="M273.77,254s3.48,6.36,9.06.13"/><path class="cls-23" d="M278.47,245.33s4.72-2.1,3.42-7.15"/><path class="cls-23" d="M274.47,263.64s-1.09,9.25-4.58,8.69"/><path class="cls-23" d="M274.13,261.45s7.11,6.16,10.68,5.33"/><path class="cls-23" d="M276.74,247.19a5.47,5.47,0,0,0-3.29-3.71"/><path class="cls-23" d="M277.92,256.82s1.12-8.56,4.75-9.77"/><path class="cls-22" d="M210.5,262.67s7.72,0.43,9.22-1.29"/><path class="cls-22" d="M213.65,254.52s3.82,6.73,6.07,7.06"/><ellipse class="cls-9" cx="209.38" cy="262.76" rx="1.12" ry="2.49"/><ellipse class="cls-9" cx="213.65" cy="253.22" rx="1.12" ry="2.49"/><ellipse class="cls-9" cx="221.08" cy="274.1" rx="1.12" ry="2.49"/><text class="cls-1" transform="translate(23.57 186.38)">Neu<tspan x="25.65" y="0">r</tspan><tspan x="31.05" y="0">on </tspan><tspan x="49.93" y="0">T</tspan><tspan x="58.8" y="0">ype</tspan></text><ellipse class="cls-9" cx="449.62" cy="253.7" rx="9.76" ry="7.6"/><path class="cls-24" d="M441.72,255.13s-23.16.48-23.5,7.27"/><path class="cls-25" d="M418.28,262.09s-0.52,7.72,1.69,9.21"/><path class="cls-26" d="M488.7,253.51s-18,.19-24.8-1.6l-6.84-1.79"/><path class="cls-10" d="M453.75,258.14c-1.13,1.75-3.86,2.45-6.1,1.57s-3.14-3-2-4.75,3.86-2.45,6.1-1.57S454.88,256.39,453.75,258.14Z"/><path class="cls-25" d="M487.89,253.7s-0.78,10.29,2.32,12.62"/><path class="cls-25" d="M488.09,253c0.12-.39,2.49-8.5,8.25-8.5"/><path class="cls-25" d="M487.63,253.64s4.46,6.36,11.64.13"/><path class="cls-27" d="M493.66,245s6.06-2.1,4.4-7.15"/><path class="cls-27" d="M488.53,263.32s-1.39,9.25-5.88,8.69"/><path class="cls-27" d="M488.09,261.13s9.13,6.16,13.72,5.33"/><path class="cls-27" d="M491.45,246.87s-0.43-2.29-4.22-3.71"/><path class="cls-27" d="M493,256.5s1.43-8.56,6.1-9.77"/><path class="cls-25" d="M406.38,262.35s9.92,0.43,11.84-1.29"/><path class="cls-25" d="M410.42,254.21s4.9,6.73,7.79,7.06"/><ellipse class="cls-9" cx="404.94" cy="262.44" rx="1.44" ry="2.49"/><ellipse class="cls-9" cx="410.42" cy="252.9" rx="1.44" ry="2.49"/><ellipse class="cls-9" cx="419.97" cy="273.78" rx="1.44" ry="2.49"/><text class="cls-6" transform="translate(356.47 205.45)"><tspan class="cls-19">Interneu<tspan x="32.4" y="0">r</tspan><tspan x="35.9" y="0">ons</tspan></tspan><tspan x="0" y="9.6">Rel</tspan><tspan x="9.92" y="9.6">a</tspan><tspan x="13.21" y="9.6">y messages from senso</tspan><tspan x="85.22" y="9.6">r</tspan><tspan x="88.44" y="9.6">y neuronto Motor Neuron</tspan></text><ellipse class="cls-28" cx="514.38" cy="67.68" rx="6.17" ry="26.57"/><path class="cls-29" d="M456.15,121.62s-16.53.94-16.48,5.75"/><path class="cls-30" d="M439.71,127.15s0,5.47,1.61,6.46"/><path class="cls-29" d="M489.66,119.24s-8.18,1-11.28.1l-3.1-.92"/><path class="cls-9" d="M511.2,133.22c-0.89-7.62,7.71-12.67,7.71-12.67-7.44-1-6.28-8.59-6.28-8.59-6.05,3-12.76-2.82-12.76-2.82-2.7,7.11-13.46,10.61-13.46,10.61,8.34-2.78,3.77,15,3.77,15s6.8-8.75,11.49-6.1A88.41,88.41,0,0,0,511.2,133.22Z"/><path class="cls-10" d="M499.72,124.59c-2.61-.89-3.78-3.25-2.62-5.26s4.22-2.91,6.83-2,3.78,3.25,2.62,5.26S502.33,125.48,499.72,124.59Z"/><path class="cls-11" d="M469.44,118.67l0.23,0.83a1.52,1.52,0,0,0,1.74.88l4.29-.69a1.18,1.18,0,0,0,1.14-1.34l-0.23-.83a1.52,1.52,0,0,0-1.74-.88l-4.29.69A1.18,1.18,0,0,0,469.44,118.67Z"/><path class="cls-11" d="M462.1,119.85l0.23,0.83a1.52,1.52,0,0,0,1.74.88l4.29-.69a1.18,1.18,0,0,0,1.14-1.34l-0.23-.83a1.52,1.52,0,0,0-1.74-.88l-4.29.69A1.18,1.18,0,0,0,462.1,119.85Z"/><path class="cls-11" d="M454.77,121l0.23,0.83a1.52,1.52,0,0,0,1.74.88L461,122a1.18,1.18,0,0,0,1.14-1.34l-0.23-.83a1.52,1.52,0,0,0-1.74-.88l-4.29.69A1.18,1.18,0,0,0,454.77,121Z"/><path class="cls-30" d="M491.79,131.22s-4.14,6.55-2.92,8.73"/><path class="cls-30" d="M510.06,132.28s1,1.29,2.18,2.57a16.7,16.7,0,0,0,2.36,2.32"/><path class="cls-30" d="M516.05,120.4s11.51,1,13-1.24"/><path class="cls-30" d="M511.79,114c0.07-.28,1.41-6.07,5.53-6.22"/><path class="cls-30" d="M499.6,111.15s2.62-4.72-5.06-5.09"/><path class="cls-31" d="M520.5,120.62s7.48,1.5,5.29,5.38"/><path class="cls-31" d="M525.24,120.46s4.24-1.64,2.83-5.16"/><path class="cls-31" d="M513.6,136.31s-1.38,5.35,1.12,7.58"/><path class="cls-31" d="M511.74,134.47s7.34,1.34,7.46-1.89"/><path class="cls-31" d="M488.82,137.63s-4.18,5.74-7,4.43"/><path class="cls-31" d="M489.3,136.11s3.86,6,7.18,6.38"/><path class="cls-31" d="M513.91,109.58s-0.41-1.61-3.18-2.51"/><path class="cls-31" d="M499.31,107.59s-6.82,3.12-9.75,1.64"/><path class="cls-30" d="M431.22,127.65s7.11,0,8.4-1.22"/><path class="cls-30" d="M433.75,121.79s3.8,4.62,5.88,4.78"/><path class="cls-9" d="M430.09,126c0.57,0,1.07.75,1.13,1.72s-0.35,1.77-.92,1.79-1.07-.75-1.13-1.72S429.52,126,430.09,126Z"/><path class="cls-9" d="M433.59,119.11c0.57,0,1.07.75,1.13,1.72s-0.35,1.77-.92,1.79-1.07-.75-1.13-1.72S433,119.13,433.59,119.11Z"/><path class="cls-9" d="M441.32,133.61c0.57,0,1.07.75,1.13,1.72s-0.35,1.77-.92,1.79-1.07-.75-1.13-1.72S440.75,133.63,441.32,133.61Z"/><path class="cls-9" d="M477.5,97.18c-3.72-.79-5.89-3.75-4.86-6.62s4.88-4.54,8.59-3.74,5.89,3.75,4.86,6.62S481.21,98,477.5,97.18Z"/><path class="cls-29" d="M487.24,86.25s16.09,3.08,18-1.49"/><path class="cls-30" d="M505.11,85s2.25-5.19,1.09-6.53"/><path class="cls-29" d="M447.73,90.27s6.52-4.06,9.83-4.27c20.41-1.3,3.29-.34,3.29-0.34"/><path class="cls-10" d="M477.6,88.37a4,4,0,0,1,4.59-.17,2.12,2.12,0,0,1,.22,3.53,4,4,0,0,1-4.59.17A2.12,2.12,0,0,1,477.6,88.37Z"/><path class="cls-11" d="M473.42,85.86l0.12-.84a1.25,1.25,0,0,0-1.3-1.25l-4.35-.38a1.44,1.44,0,0,0-1.63,1l-0.12.84a1.25,1.25,0,0,0,1.3,1.25l4.35,0.38A1.44,1.44,0,0,0,473.42,85.86Z"/><path class="cls-11" d="M480.87,86.5l0.12-.84a1.25,1.25,0,0,0-1.3-1.25L475.34,84a1.44,1.44,0,0,0-1.63,1l-0.12.84a1.25,1.25,0,0,0,1.3,1.25l4.35,0.38A1.44,1.44,0,0,0,480.87,86.5Z"/><path class="cls-11" d="M488.32,87.14l0.12-.84a1.25,1.25,0,0,0-1.3-1.25l-4.35-.38a1.44,1.44,0,0,0-1.63,1l-0.12.84a1.25,1.25,0,0,0,1.3,1.25l4.35,0.38A1.44,1.44,0,0,0,488.32,87.14Z"/><path class="cls-30" d="M448.13,89.92s-4.46-6.43-7.47-6.94"/><path class="cls-30" d="M448.34,90.39c0.11,0.27,2.56,5.84-1,7.5"/><path class="cls-30" d="M448.33,89.88s-5.78-2.55-7.16,3.27"/><path class="cls-31" d="M448.78,96.82a3.64,3.64,0,0,0,.75,5.58"/><path class="cls-31" d="M443.13,84.3s-3.59-6-.58-6.93"/><path class="cls-31" d="M444.45,85.5s-8.52-1.09-10.92.73"/><path class="cls-31" d="M449.24,95.06s1.36,1.26,4.36,1"/><path class="cls-31" d="M443.7,89.69s3.23,5.58,1,7.65"/><path class="cls-30" d="M513.37,86.53s-6.73-1.75-8.48-.86"/><path class="cls-30" d="M508.59,91.49s-1.73-5.31-3.64-6"/><path class="cls-9" d="M513.77,88.38c-0.55-.12-0.72-1-0.38-1.9s1.05-1.6,1.6-1.48,0.72,1,.38,1.9S514.32,88.49,513.77,88.38Z"/><path class="cls-9" d="M507.66,94.07c-0.55-.12-0.72-1-0.38-1.9s1.05-1.6,1.6-1.48,0.72,1,.38,1.9S508.2,94.19,507.66,94.07Z"/><path class="cls-9" d="M503.71,78.21c-0.17-.42.67-1,1.87-1.28s2.32-.19,2.49.23-0.67,1-1.87,1.28S503.88,78.62,503.71,78.21Z"/><path class="cls-9" d="M401.32,108.39c-3.25,3.87-9.06,5.42-13,3.47s-4.45-6.66-1.2-10.53,9.06-5.42,13-3.47S404.57,104.52,401.32,108.39Z"/><path class="cls-32" d="M397.77,102.1S422,95.48,420,89.88"/><path class="cls-33" d="M420,90.15s-2.15-6.4-5-7"/><path class="cls-34" d="M420.54,123.09s-18.55-5.6-24.85-9.21l-6.3-3.61"/><path class="cls-10" d="M387.61,105.77c-0.95-1.62,0-3.91,2.22-5.11s4.7-.86,5.64.76,0,3.91-2.22,5.11S388.56,107.39,387.61,105.77Z"/><path class="cls-33" d="M419.63,123s-5.09,7.9-2.86,10.74"/><path class="cls-33" d="M420.12,122.5c0.29-.27,6.1-5.93,12-4.09"/><path class="cls-33" d="M419.38,122.85s1.95,6.47,11.92,3.83"/><path class="cls-35" d="M429.18,117.95s7.11,0.28,7.5-4.25"/><path class="cls-35" d="M416.28,130.81s-5.28,6.88-9.67,5"/><path class="cls-35" d="M416.74,128.93s6.83,7.8,11.9,8.61"/><path class="cls-35" d="M426.12,118.71s0.51-2-2.8-4.3"/><path class="cls-35" d="M423.67,126.82s5-6.32,10.34-5.79"/><path class="cls-33" d="M432.48,86.73s-10.6,2.32-12,4.23"/><path class="cls-33" d="M431.07,94.43s-7.51-4.14-10.68-3.63"/><path class="cls-9" d="M434.83,88.29a2.36,2.36,0,0,1-2.38-1.63c-0.48-1.11-.19-2.19.64-2.4a2.36,2.36,0,0,1,2.38,1.63C436,87,435.66,88.08,434.83,88.29Z"/><path class="cls-9" d="M432.39,97.5A2.36,2.36,0,0,1,430,95.87c-0.48-1.11-.19-2.19.64-2.4A2.36,2.36,0,0,1,433,95.1C433.51,96.21,433.22,97.29,432.39,97.5Z"/><path class="cls-9" d="M415,83.13a2.36,2.36,0,0,1-2.38-1.63c-0.48-1.11-.19-2.19.64-2.4a2.36,2.36,0,0,1,2.38,1.63C416.16,81.85,415.87,82.92,415,83.13Z"/><text class="cls-1" transform="translate(379.8 23.75)">Neu<tspan x="25.65" y="0">r</tspan><tspan x="31.05" y="0">on Histo</tspan><tspan x="83.34" y="0">l</tspan><tspan x="86.84" y="0">o</tspan><tspan x="94.52" y="0">g</tspan><tspan x="101.45" y="0">y</tspan></text><g class="cls-16"><line class="cls-17" x1="496.11" y1="71.25" x2="381.53" y2="71.25"/><polygon class="cls-18" points="384.57 67.49 385.2 68.16 381.88 71.25 385.2 74.33 384.57 75 380.53 71.25 384.57 67.49"/></g><text class="cls-2" transform="translate(389.91 68.6) rotate(0.1)">Di<tspan x="9.03" y="0">r</tspan><tspan x="12.68" y="0">ection Message</tspan><tspan class="cls-3" x="70.93" y="0"> T</tspan><tspan x="77.26" y="0">r</tspan><tspan x="81.07" y="0">a</tspan><tspan x="84.84" y="0">v</tspan><tspan x="88.83" y="0">el </tspan></text><text class="cls-6" transform="translate(501.21 56.43)">Receptor/ Sense Organ</text><text class="cls-6" transform="translate(514.54 130.38)">Ef<tspan x="6.64" y="0">f</tspan><tspan x="8.88" y="0">e</tspan><tspan x="13.03" y="0">r</tspan><tspan x="16.36" y="0">ent</tspan></text><text class="cls-1" transform="translate(23.57 316.23)">Neu<tspan x="25.65" y="0">r</tspan><tspan x="31.05" y="0">on </tspan><tspan x="49.93" y="0">J</tspan><tspan x="55.01" y="0">unction </tspan></text><rect class="cls-11" x="77.41" y="339.01" width="6.54" height="63.32" transform="translate(-289.99 451.35) rotate(-90)"/><polygon class="cls-9" points="32.52 370.67 39.59 360.95 51.02 364.66 51.02 376.69 39.59 380.4 32.52 370.67"/><line class="cls-36" x1="33.78" y1="371.22" x2="19.56" y2="371.22"/><line class="cls-36" x1="41.95" y1="363.03" x2="31.89" y2="352.98"/><line class="cls-36" x1="32.34" y1="387.11" x2="42.4" y2="377.05"/><line class="cls-36" x1="58.45" y1="383.07" x2="48.4" y2="373.01"/><line class="cls-36" x1="49.9" y1="365.98" x2="59.96" y2="355.92"/><polygon class="cls-9" points="126.61 371.21 119.79 380.6 108.75 377.02 108.75 365.41 119.79 361.83 126.61 371.21"/><line class="cls-36" x1="125.21" y1="370.67" x2="139.43" y2="370.67"/><line class="cls-36" x1="116.06" y1="377.05" x2="126.11" y2="387.11"/><line class="cls-36" x1="126.67" y1="355.44" x2="116.62" y2="365.49"/><line class="cls-36" x1="101.26" y1="358.13" x2="111.31" y2="368.18"/><line class="cls-36" x1="110.6" y1="375.23" x2="100.54" y2="385.28"/><text/><g class="cls-16"><line class="cls-37" x1="122.75" y1="341.59" x2="49.18" y2="341.59"/><polygon class="cls-18" points="52.51 337.48 53.2 338.21 49.57 341.58 53.2 344.96 52.51 345.69 48.09 341.58 52.51 337.48"/></g><text class="cls-2" transform="translate(70.25 333.03)">Ci<tspan x="8.7" y="0">r</tspan><tspan x="12.31" y="0">culation</tspan></text><text class="cls-6" transform="translate(74.3 373.18)">LAB</text><polygon class="cls-9" points="56.59 354.49 60.41 349.24 66.59 351.24 66.59 357.74 60.41 359.75 56.59 354.49"/><polygon class="cls-9" points="26.36 352.98 30.18 347.72 36.36 349.73 36.36 356.23 30.18 358.24 26.36 352.98"/><polygon class="cls-9" points="14.03 372.3 17.85 367.04 24.04 369.05 24.04 375.55 17.85 377.56 14.03 372.3"/><polygon class="cls-9" points="27.34 388.14 31.16 382.88 37.34 384.89 37.34 391.39 31.16 393.4 27.34 388.14"/><polygon class="cls-9" points="53.45 383.07 57.27 377.81 63.45 379.82 63.45 386.32 57.27 388.33 53.45 383.07"/><polygon class="cls-9" points="95.01 358 98.83 352.75 105.02 354.75 105.02 361.25 98.83 363.26 95.01 358"/><polygon class="cls-9" points="121.64 352.98 125.46 347.72 131.65 349.73 131.65 356.23 125.46 358.24 121.64 352.98"/><polygon class="cls-9" points="135.16 369.64 138.98 364.38 145.16 366.39 145.16 372.89 138.98 374.9 135.16 369.64"/><polygon class="cls-9" points="119.68 388.14 123.5 382.88 129.69 384.89 129.69 391.39 123.5 393.4 119.68 388.14"/><polygon class="cls-9" points="94.56 387.11 98.38 381.85 104.56 383.86 104.56 390.36 98.38 392.37 94.56 387.11"/><text class="cls-4" transform="translate(24.44 110.94)">D<tspan x="5.52" y="0">end</tspan><tspan x="18.96" y="0">r</tspan><tspan x="21.77" y="0">i</tspan><tspan x="23.8" y="0">t</tspan><tspan x="26.56" y="0">e</tspan><tspan class="cls-5"><tspan x="0" y="9.6">In</tspan><tspan x="5.59" y="9.6">f</tspan><tspan x="7.43" y="9.6">o</tspan><tspan x="11.77" y="9.6">r</tspan><tspan x="14.63" y="9.6">mation ef</tspan><tspan x="44.36" y="9.6">f</tspan><tspan x="46.16" y="9.6">ector</tspan></tspan></text><line class="cls-20" x1="183.1" y1="36.88" x2="233.31" y2="36.88"/><line class="cls-20" x1="188.78" y1="63.65" x2="218.54" y2="63.65"/><line class="cls-20" x1="195.22" y1="87.95" x2="236.12" y2="88.54"/><line class="cls-20" x1="191.43" y1="133.11" x2="224.78" y2="133.11"/><line class="cls-20" x1="53.75" y1="43.06" x2="181.08" y2="43.06"/><g class="cls-16"><line class="cls-17" x1="381.83" y1="147.94" x2="496.41" y2="147.94"/><polygon class="cls-18" points="493.37 151.7 492.74 151.03 496.06 147.94 492.74 144.86 493.37 144.19 497.41 147.94 493.37 151.7"/></g><text class="cls-2" transform="translate(488.04 150.59) rotate(-179.9)">Di<tspan x="9.03" y="0">r</tspan><tspan x="12.68" y="0">ection Message</tspan><tspan class="cls-3" x="70.93" y="0"> T</tspan><tspan x="77.26" y="0">r</tspan><tspan x="81.07" y="0">a</tspan><tspan x="84.84" y="0">v</tspan><tspan x="88.83" y="0">el </tspan></text><rect class="cls-38" x="21.31" y="711.9" width="22.76" height="10.69"/><rect class="cls-39" x="21.31" y="730.08" width="22.76" height="10.69"/><rect class="cls-40" x="21.31" y="748.26" width="22.76" height="10.69"/><text class="cls-41" transform="translate(47.66 720.6)">Private</text><text class="cls-41" transform="translate(47.66 738.77)">Semi- Public</text><text class="cls-41" transform="translate(47.66 756.34)">Public</text><text class="cls-42" transform="translate(18.41 467.54)">0</text><text class="cls-42" transform="translate(33.06 467.54)">1</text><text class="cls-42" transform="translate(47.72 467.54)">2</text><text class="cls-42" transform="translate(62.37 467.54)">3</text><text class="cls-42" transform="translate(77.5 467.54)">4</text><text class="cls-42" transform="translate(91.68 467.54)">5</text><text class="cls-42" transform="translate(106.33 467.54)">6</text><text class="cls-42" transform="translate(120.99 467.54)">7</text><text class="cls-42" transform="translate(135.64 467.54)">8</text><text class="cls-42" transform="translate(150.29 467.54)">9</text><text class="cls-42" transform="translate(164.95 467.54)">10</text><text class="cls-42" transform="translate(179.6 467.54)">11</text><text class="cls-42" transform="translate(194.26 467.54)">12</text><text class="cls-42" transform="translate(208.91 467.54)">13</text><text class="cls-42" transform="translate(223.56 467.54)">14</text><text class="cls-42" transform="translate(238.22 467.54)">15</text><text class="cls-42" transform="translate(252.87 467.54)">16</text><text class="cls-42" transform="translate(267.53 467.54)">17</text><text class="cls-42" transform="translate(282.18 467.54)">18</text><text class="cls-42" transform="translate(296.83 467.54)">19</text><text class="cls-42" transform="translate(311.49 467.54)">20</text><text class="cls-42" transform="translate(326.14 467.54)">21</text><text class="cls-42" transform="translate(340.8 467.54)">22</text><text class="cls-42" transform="translate(355.45 467.54)">23</text><text class="cls-1" transform="translate(24.41 447.13)">P<tspan x="8.39" y="0">r</tspan><tspan x="13.79" y="0">o</tspan><tspan x="21.47" y="0">g</tspan><tspan x="28.75" y="0">r</tspan><tspan x="34.49" y="0">a</tspan><tspan x="41.51" y="0">m </tspan><tspan x="56.96" y="0">T</tspan><tspan x="65.83" y="0">ypo</tspan><tspan x="88.15" y="0">l</tspan><tspan x="91.66" y="0">o</tspan><tspan x="99.34" y="0">g</tspan><tspan x="106.27" y="0">y </tspan></text><line class="cls-43" x1="19.83" y1="469.91" x2="19.83" y2="758.19"/><line class="cls-43" x1="34.48" y1="469.91" x2="34.48" y2="758.19"/><line class="cls-43" x1="49.14" y1="469.91" x2="49.14" y2="758.19"/><line class="cls-43" x1="63.79" y1="469.91" x2="63.79" y2="758.19"/><line class="cls-43" x1="78.45" y1="469.91" x2="78.45" y2="758.19"/><line class="cls-43" x1="93.1" y1="469.91" x2="93.1" y2="758.19"/><line class="cls-43" x1="107.75" y1="469.91" x2="107.75" y2="758.19"/><line class="cls-43" x1="122.41" y1="469.91" x2="122.41" y2="758.19"/><line class="cls-43" x1="137.06" y1="469.91" x2="137.06" y2="758.19"/><line class="cls-43" x1="151.72" y1="469.91" x2="151.72" y2="758.19"/><line class="cls-43" x1="166.37" y1="469.91" x2="166.37" y2="758.19"/><line class="cls-43" x1="181.02" y1="469.91" x2="181.02" y2="758.19"/><line class="cls-43" x1="195.68" y1="469.91" x2="195.68" y2="758.19"/><line class="cls-43" x1="210.33" y1="469.91" x2="210.33" y2="758.19"/><line class="cls-43" x1="224.99" y1="469.91" x2="224.99" y2="758.19"/><line class="cls-43" x1="239.64" y1="469.91" x2="239.64" y2="758.19"/><line class="cls-43" x1="254.29" y1="469.91" x2="254.29" y2="758.19"/><line class="cls-43" x1="268.95" y1="469.91" x2="268.95" y2="758.19"/><line class="cls-43" x1="283.6" y1="469.91" x2="283.6" y2="758.19"/><line class="cls-43" x1="298.26" y1="469.91" x2="298.26" y2="758.19"/><line class="cls-43" x1="312.91" y1="469.91" x2="312.91" y2="758.19"/><line class="cls-43" x1="327.57" y1="469.91" x2="327.57" y2="758.19"/><line class="cls-43" x1="342.22" y1="469.91" x2="342.22" y2="758.19"/><line class="cls-43" x1="356.87" y1="469.91" x2="356.87" y2="758.19"/><polygon class="cls-44" points="172.97 621.29 152.56 606.46 160.35 582.47 185.58 582.47 193.38 606.46 172.97 621.29"/><polygon class="cls-44" points="215.77 621.09 195.36 606.26 203.16 582.26 228.38 582.26 236.18 606.26 215.77 621.09"/><polygon class="cls-44" points="259.89 621.1 239.48 606.27 247.28 582.28 272.5 582.28 280.3 606.27 259.89 621.1"/><polygon class="cls-44" points="299.41 621.1 279 606.27 286.8 582.28 312.03 582.28 319.82 606.27 299.41 621.1"/><rect class="cls-40" x="166.56" y="726.4" width="102.39" height="11.4"/><text class="cls-6" transform="translate(205.78 735.43)">Retail</text><polygon class="cls-40" points="311.71 669.51 339.53 689.72 328.9 722.42 294.52 722.42 283.89 689.72 311.71 669.51"/><polygon class="cls-39" points="155.5 636.21 143.46 647.58 119.4 647.58 107.36 636.21 119.4 624.84 143.46 624.84 155.5 636.21"/><polygon class="cls-39" points="305.01 635.22 293.59 646.01 270.77 646.01 259.35 635.22 270.77 624.43 293.59 624.43 305.01 635.22"/><polygon class="cls-39" points="357.64 635.22 346.09 646.14 322.99 646.14 311.44 635.22 322.99 624.3 346.09 624.3 357.64 635.22"/><rect class="cls-39" x="149.93" y="632.99" width="146.65" height="8.96"/><rect class="cls-39" x="17.22" y="635.73" width="131.38" height="3.47"/><rect class="cls-39" x="296.62" y="630.38" width="32.57" height="8.82"/><rect class="cls-44" x="184.58" y="587.49" width="23.71" height="18.77"/><rect class="cls-44" x="229.62" y="587.49" width="61.42" height="18.97"/><rect class="cls-11" x="213.75" y="543.42" width="84.5" height="8.03"/><rect class="cls-44" x="136.7" y="602.64" width="23.81" height="4.64"/><rect class="cls-38" x="181.26" y="517.6" width="49.03" height="2.95"/><rect class="cls-38" x="241.51" y="517.6" width="81.9" height="2.95"/><rect class="cls-44" x="315.62" y="600.32" width="41.26" height="4.64"/><text class="cls-6" transform="translate(287.32 695.64)">P<tspan x="4.52" y="0">er</tspan><tspan x="12.8" y="0">f</tspan><tspan x="15.36" y="0">ormance</tspan></text><polygon class="cls-40" points="166.17 707.68 195.63 699.31 254.54 699.31 284 707.68 254.54 716.05 195.63 716.05 166.17 707.68"/><polygon class="cls-45" points="180.13 660.73 202.08 648.72 245.99 648.72 267.95 660.73 245.99 672.73 202.08 672.73 180.13 660.73"/><text class="cls-6" transform="translate(201.16 663.5)">Restaurant</text><polygon class="cls-46" points="151.45 684.42 173.4 675.44 217.32 675.44 239.27 684.42 217.32 693.39 173.4 693.39 151.45 684.42"/><text class="cls-6" transform="translate(169.18 686.73)">Farmer<tspan x="24.46" y="0">’</tspan><tspan x="25.74" y="0">s Mar</tspan><tspan x="44.67" y="0">k</tspan><tspan x="48.42" y="0">et</tspan></text><polygon class="cls-11" points="254.29 548.06 267.01 533.19 292.45 533.19 305.17 548.06 292.45 562.94 267.01 562.94 254.29 548.06"/><polygon class="cls-11" points="166.56 547.43 179.28 533.19 204.72 533.19 217.44 547.43 204.72 561.68 179.28 561.68 166.56 547.43"/><polygon class="cls-45" points="122.83 661.34 133.22 653.15 154.01 653.15 164.4 661.34 154.01 669.53 133.22 669.53 122.83 661.34"/><text class="cls-6" transform="translate(135.64 663.5)">Ca<tspan x="10.36" y="0">f</tspan><tspan x="12.92" y="0">e</tspan></text><polygon class="cls-45" points="302.21 660.8 315.7 652.93 342.69 652.93 356.19 660.8 342.69 668.67 315.7 668.67 302.21 660.8"/><text class="cls-6" transform="translate(327.57 663.02)">Bar</text><rect class="cls-10" x="151.72" y="560.99" width="161.19" height="21.57"/><rect class="cls-10" x="312.84" y="569.39" width="43.96" height="9.3"/><rect class="cls-10" x="19.83" y="568.37" width="153.62" height="6.81"/><rect class="cls-47" x="151.38" y="565.56" width="136.55" height="12.44"/><text class="cls-6" transform="translate(192 575.04)">Resou<tspan x="24.96" y="0">r</tspan><tspan x="28.88" y="0">ce Center</tspan></text><text class="cls-48" transform="translate(205.78 600.64)">Class<tspan x="28.99" y="0">r</tspan><tspan x="34.36" y="0">oom</tspan></text><text class="cls-6" transform="translate(291.05 576.18)">Lab</text><text class="cls-6" transform="translate(115.84 574.51)">Lab</text><polygon class="cls-38" points="244.59 519.5 238.36 525.39 225.89 525.39 219.66 519.5 225.89 513.61 238.36 513.61 244.59 519.5"/><polygon class="cls-38" points="308.53 519.5 302.3 525.39 289.84 525.39 283.6 519.5 289.84 513.61 302.3 513.61 308.53 519.5"/><polygon class="cls-38" points="189.32 518.08 183.09 523.97 170.62 523.97 164.39 518.08 170.62 512.18 183.09 512.18 189.32 518.08"/><text class="cls-6" transform="translate(169.18 520.5)">Units</text><text class="cls-49" transform="translate(178.86 549)">Office</text><polygon class="cls-50" points="242.65 535.56 233.34 545.15 214.73 545.15 205.43 535.56 214.73 525.97 233.34 525.97 242.65 535.56"/><text class="cls-6" transform="translate(212.33 533.87)">Meeting<tspan x="0" y="9.6">Space</tspan></text><text class="cls-6" transform="translate(274.44 637.21)">Gym</text><text class="cls-6" transform="translate(188.32 709.61)">Com<tspan x="18.17" y="0">m</tspan><tspan x="24.9" y="0">unity Center</tspan></text><text class="cls-6" transform="translate(197.44 337.53)">Public/ Private Relationship</text><polygon class="cls-9" points="188.09 371.36 195.74 360.83 208.12 364.86 208.12 377.87 195.74 381.89 188.09 371.36"/><line class="cls-51" x1="189.46" y1="371.95" x2="174.07" y2="371.95"/><line class="cls-51" x1="198.3" y1="363.09" x2="187.41" y2="352.21"/><line class="cls-51" x1="187.9" y1="389.15" x2="198.78" y2="378.27"/><line class="cls-51" x1="216.16" y1="384.78" x2="205.28" y2="373.89"/><line class="cls-51" x1="206.91" y1="366.28" x2="217.79" y2="355.39"/><polygon class="cls-9" points="289.92 371.95 282.54 382.11 270.6 378.23 270.6 365.67 282.54 361.79 289.92 371.95"/><line class="cls-51" x1="288.41" y1="371.36" x2="303.8" y2="371.36"/><line class="cls-51" x1="278.5" y1="378.27" x2="289.39" y2="389.15"/><line class="cls-51" x1="289.99" y1="354.87" x2="279.11" y2="365.75"/><line class="cls-51" x1="262.49" y1="357.78" x2="273.37" y2="368.66"/><line class="cls-51" x1="272.6" y1="376.29" x2="261.71" y2="387.17"/><rect class="cls-9" x="236.68" y="337.09" width="7.08" height="68.53" transform="translate(-131.14 611.58) rotate(-90)"/><text class="cls-6" transform="translate(233.31 374.01)">LAB</text><polygon class="cls-38" points="214.14 353.85 218.28 348.16 224.97 350.33 224.97 357.37 218.28 359.54 214.14 353.85"/><polygon class="cls-38" points="181.43 352.21 185.56 346.52 192.25 348.69 192.25 355.73 185.56 357.9 181.43 352.21"/><polygon class="cls-38" points="168.09 373.12 172.22 367.43 178.91 369.6 178.91 376.64 172.22 378.81 168.09 373.12"/><polygon class="cls-38" points="182.49 390.27 186.62 384.57 193.31 386.75 193.31 393.78 186.62 395.96 182.49 390.27"/><polygon class="cls-38" points="210.75 384.78 214.88 379.08 221.57 381.26 221.57 388.29 214.88 390.47 210.75 384.78"/><polygon class="cls-40" points="255.73 357.65 259.86 351.96 266.55 354.13 266.55 361.17 259.86 363.34 255.73 357.65"/><polygon class="cls-40" points="284.55 352.21 288.68 346.52 295.37 348.69 295.37 355.73 288.68 357.9 284.55 352.21"/><polygon class="cls-40" points="299.18 370.24 303.31 364.55 310 366.73 310 373.76 303.31 375.93 299.18 370.24"/><polygon class="cls-40" points="282.43 390.27 286.56 384.57 293.25 386.75 293.25 393.78 286.56 395.96 282.43 390.27"/><polygon class="cls-40" points="255.24 389.15 259.38 383.46 266.06 385.63 266.06 392.67 259.38 394.84 255.24 389.15"/><text class="cls-6" transform="translate(181.77 405.76)">Private</text><text class="cls-6" transform="translate(283.95 405.76)">Public</text><polygon class="cls-52" points="537.57 697.1 537.57 702.26 534.08 705.91 534.07 700.72 537.57 697.1"/><polygon class="cls-52" points="537.57 697.1 534.07 700.72 528.46 699.56 528.54 695.23 534.14 693.72 537.57 697.1"/><polygon class="cls-52" points="537.61 678.49 537.62 683.57 534.2 687.04 534.19 681.95 537.61 678.49"/><polygon class="cls-52" points="537.61 678.49 534.19 681.95 528.72 680.84 528.8 676.71 534.27 675.28 537.61 678.49"/><polygon class="cls-52" points="534.07 700.72 534.08 705.91 528.48 704.74 528.46 699.56 534.07 700.72"/><polygon class="cls-52" points="534.19 681.95 534.2 687.04 528.74 685.92 528.72 680.84 534.19 681.95"/><polygon class="cls-52" points="528.86 669.64 528.88 674.67 525.91 677.63 525.95 675.17 525.94 672.53 528.86 669.64"/><polygon class="cls-52" points="528.86 669.64 525.94 672.53 525.93 670.1 520.13 668.95 520.16 667.91 525.59 666.5 528.86 669.64"/><polygon class="cls-52" points="527.24 707.62 527.26 712.85 523.67 716.6 523.64 711.35 527.24 707.62"/><polygon class="cls-52" points="527.24 707.62 523.64 711.35 517.97 710.16 518.11 705.71 523.81 704.16 527.24 707.62"/><polygon class="cls-53" points="525.8 677.48 525.82 682.59 515.85 685.25 515.81 680.13 525.8 677.48"/><polygon class="cls-53" points="525.47 696.2 525.49 701.4 515.27 704.2 515.23 698.98 525.47 696.2"/><polygon class="cls-53" points="525.93 670.1 525.8 677.48 515.81 680.13 515.31 679.63 515.29 677.26 511.09 673.14 516.18 668.17 520.13 668.95 525.93 670.1"/><polygon class="cls-53" points="525.6 688.45 525.47 696.2 515.23 698.98 509.17 692.87 515.62 686.43 525.6 688.45"/><polygon class="cls-52" points="523.64 711.35 523.67 716.6 518.01 715.4 517.97 710.16 523.64 711.35"/><polygon class="cls-53" points="515.81 680.13 515.85 685.25 514.16 683.58 515.33 682.42 515.31 679.63 515.81 680.13"/><polygon class="cls-53" points="515.23 698.98 515.27 704.2 509.22 698.06 509.17 692.87 515.23 698.98"/><polygon class="cls-54" points="515.31 679.63 515.33 682.42 514.16 683.58 504.74 692.94 504.69 687.73 515.29 677.26 515.31 679.63"/><polygon class="cls-55" points="515.99 631.49 516.03 636.54 512.58 639.74 512.54 634.68 515.99 631.49"/><polygon class="cls-54" points="515.29 677.26 504.69 687.73 488.26 684.39 489.08 672.02 505.57 667.74 511.09 673.14 515.29 677.26"/><polygon class="cls-55" points="515.99 631.49 512.54 634.68 507.19 633.65 507.38 629.84 512.8 628.52 515.99 631.49"/><polygon class="cls-55" points="512.54 634.68 512.58 639.74 507.24 638.71 507.19 633.65 512.54 634.68"/><polygon class="cls-55" points="507.63 623.72 507.68 628.73 504.23 631.86 504.18 626.84 507.63 623.72"/><polygon class="cls-55" points="507.63 623.72 504.18 626.84 498.9 625.83 499.13 622.11 504.5 620.82 507.63 623.72"/><polygon class="cls-54" points="504.69 687.73 504.74 692.94 488.34 689.59 488.26 684.39 504.69 687.73"/><polygon class="cls-56" points="504.67 633.95 504.72 638.97 504.4 644.86 504.35 639.81 504.67 633.95"/><polygon class="cls-57" points="503.43 716.3 503.05 724.55 492.44 727.51 486.39 721 493.22 714.15 503.43 716.3"/><polygon class="cls-56" points="504.67 633.95 504.35 639.81 495.97 641.88 491.18 637.25 496.58 632.39 504.67 633.95"/><polygon class="cls-57" points="503.05 724.55 503.11 729.86 492.51 732.84 492.44 727.51 503.05 724.55"/><polygon class="cls-56" points="504.35 639.81 504.4 644.86 496.03 646.94 495.97 641.88 504.35 639.81"/><polygon class="cls-55" points="504.18 626.84 504.23 631.86 498.96 630.85 498.9 625.83 504.18 626.84"/><polygon class="cls-54" points="495.89 650.34 495.95 655.41 485.3 665.29 485.23 660.17 495.89 650.34"/><polygon class="cls-56" points="495.97 641.88 496.03 646.94 491.25 642.29 491.18 637.25 495.97 641.88"/><polygon class="cls-54" points="495.89 650.34 485.23 660.17 484.56 660.03 484.37 647.72 471.16 645.15 486.69 641.34 495.89 650.34"/><polygon class="cls-54" points="492.96 705.49 493.03 710.75 481.81 721.96 481.73 716.64 492.96 705.49"/><polygon class="cls-54" points="492.96 705.49 481.73 716.64 464.95 713.09 465.52 706.91 466.18 699.9 483.27 695.34 483.81 695.91 484.3 696.42 492.96 705.49"/><polygon class="cls-57" points="492.44 727.51 492.51 732.84 486.47 726.3 486.39 721 492.44 727.51"/><polygon class="cls-58" points="484.64 665.16 484.97 686.95 484.3 696.42 483.81 695.91 483.28 662.14 484.37 647.72 484.56 660.03 484.64 665.16"/><polygon class="cls-54" points="485.23 660.17 485.3 665.29 484.64 665.16 484.56 660.03 485.23 660.17"/><polygon class="cls-55" points="485.58 619.53 485.65 624.51 482.12 627.61 482.04 622.61 485.58 619.53"/><polygon class="cls-55" points="485.58 619.53 482.04 622.61 476.82 621.6 477.16 617.92 482.56 616.65 485.58 619.53"/><polygon class="cls-58" points="483.28 662.14 483.81 695.91 483.27 695.34 466.18 699.9 465.52 706.91 463.64 707.42 462.8 667.36 483.28 662.14"/><path class="cls-58" d="M484.37,647.72l-1.09,14.41-20.48,5.22-11.06-11.48,6.54-5.78,6.91-6.11,6,1.17h0Zm-8.94,10.53L476,652l-8.36-1.64-5.8,5.19,4.81,4.93Z"/><polygon class="cls-54" points="481.73 716.64 481.81 721.96 465.06 718.39 464.95 713.09 481.73 716.64"/><polygon class="cls-56" points="482.49 629.67 482.57 634.67 482.08 640.49 482 635.46 482.49 629.67"/><polygon class="cls-56" points="482.49 629.67 482 635.46 473.59 637.5 468.97 632.93 474.49 628.13 482.49 629.67"/><polygon class="cls-56" points="482 635.46 482.08 640.49 473.68 642.55 473.59 637.5 482 635.46"/><polygon class="cls-55" points="482.04 622.61 482.12 627.61 476.9 626.6 476.82 621.6 482.04 622.61"/><polygon class="cls-57" points="477.42 723.48 477.51 728.79 476.87 737.24 476.77 731.88 477.42 723.48"/><polygon class="cls-57" points="477.42 723.48 476.77 731.88 465.96 734.9 460.06 728.27 467.18 721.29 477.42 723.48"/><polygon class="cls-57" points="476.77 731.88 476.87 737.24 466.07 740.27 465.96 734.9 476.77 731.88"/><polygon class="cls-59" points="475.98 652.01 475.44 658.25 466.62 660.48 461.81 655.55 467.61 650.36 475.98 652.01"/><polygon class="cls-56" points="473.59 637.5 473.68 642.55 469.07 637.95 468.97 632.93 473.59 637.5"/><polygon class="cls-55" points="471.3 622.92 471.39 627.92 467.78 631.05 467.68 626.03 471.3 622.92"/><polygon class="cls-55" points="471.3 622.92 467.68 626.03 462.45 625.02 462.87 621.3 468.31 620.01 471.3 622.92"/><polygon class="cls-57" points="465.96 734.9 466.07 740.27 460.18 733.61 460.06 728.27 465.96 734.9"/><polygon class="cls-55" points="467.68 626.03 467.78 631.05 462.55 630.03 462.45 625.02 467.68 626.03"/><polygon class="cls-58" points="452.01 667.32 451.89 662.13 451.74 655.87 462.8 667.36 463.64 707.42 452.69 695.46 452.01 667.32"/><polygon class="cls-54" points="458.81 703.99 458.93 709.2 447.4 720.31 447.26 715.04 458.81 703.99"/><polygon class="cls-54" points="458.81 703.99 447.26 715.04 430.76 711.58 432.47 698.54 449.58 693.99 458.81 703.99"/><polygon class="cls-54" points="458.27 650.09 451.74 655.87 451.89 662.13 450.35 663.5 434.32 660.29 436 648.42 452.64 644.34 458.27 650.09"/><polygon class="cls-54" points="451.89 662.13 452.01 667.32 450.48 668.69 450.35 663.5 451.89 662.13"/><polygon class="cls-55" points="451.93 622.2 452.05 627.24 448.33 630.4 448.2 625.34 451.93 622.2"/><polygon class="cls-55" points="451.93 622.2 448.2 625.34 442.95 624.33 443.46 620.58 448.99 619.28 451.93 622.2"/><polygon class="cls-54" points="450.35 663.5 450.48 668.69 434.47 665.46 434.32 660.29 450.35 663.5"/><polygon class="cls-56" points="448.62 632.5 448.74 637.56 448 643.49 447.87 638.39 448.62 632.5"/><polygon class="cls-54" points="447.26 715.04 447.4 720.31 442.92 719.36 442.83 716.09 432.74 713.97 430.88 715.72 430.76 711.58 447.26 715.04"/><polygon class="cls-56" points="439.14 640.38 434.76 635.84 440.57 630.95 448.62 632.5 447.87 638.39 439.25 640.49 439.14 640.38"/><polygon class="cls-55" points="448.2 625.34 448.33 630.4 443.08 629.39 442.95 624.33 448.2 625.34"/><polygon class="cls-56" points="447.87 638.39 448 643.49 439.39 645.59 439.26 645.46 439.28 645.42 439.14 640.38 439.25 640.49 447.87 638.39"/><polygon class="cls-57" points="442.92 719.36 442.97 721.37 442.02 729.66 441.87 724.34 442.83 716.09 442.92 719.36"/><polygon class="cls-57" points="442.83 716.09 441.87 724.34 431.02 727.34 425.42 720.85 430.88 715.72 430.88 715.72 432.74 713.97 442.83 716.09"/><polygon class="cls-57" points="441.87 724.34 442.02 729.66 431.19 732.67 431.02 727.34 441.87 724.34"/><polygon class="cls-56" points="439.14 640.38 439.28 645.42 439.26 645.46 434.9 640.92 434.76 635.84 439.14 640.38"/><polygon class="cls-55" points="437.29 625.67 437.43 630.74 433.63 633.93 433.48 628.85 437.29 625.67"/><polygon class="cls-55" points="437.29 625.67 433.48 628.85 428.22 627.83 428.81 624.05 434.39 622.73 437.29 625.67"/><polygon class="cls-55" points="433.48 628.85 433.63 633.93 428.37 632.91 428.22 627.83 433.48 628.85"/><polygon class="cls-56" points="432.55 646.19 432.7 651.33 431.85 657.23 431.82 657.22 431.67 652.2 432.55 646.19"/><polygon class="cls-56" points="431.67 652.2 431.66 652.31 422.82 654.49 419.34 650.73 419.3 649.71 418.86 649.23 424.38 644.58 432.55 646.19 431.67 652.2"/><polygon class="cls-57" points="431.02 727.34 431.19 732.67 425.59 726.15 425.42 720.85 431.02 727.34"/><polygon class="cls-56" points="431.85 657.23 431.81 657.49 422.98 659.68 422.82 654.49 431.66 652.31 431.67 652.2 431.82 657.22 431.85 657.23"/><polygon class="cls-57" points="429.13 700.79 429.29 705.99 428.22 713.98 428.06 708.74 429.13 700.79"/><polygon class="cls-57" points="429.13 700.79 428.06 708.74 417.37 711.62 411.97 705.37 419.27 698.75 429.13 700.79"/><polygon class="cls-57" points="428.06 708.74 428.22 713.98 417.54 716.87 417.37 711.62 428.06 708.74"/><polygon class="cls-56" points="422.82 654.49 422.98 659.68 418.98 655.33 419.47 654.91 419.34 650.73 422.82 654.49"/><polygon class="cls-55" points="421.02 639.22 421.19 644.37 417.34 647.59 417.06 642.51 421.02 639.22"/><polygon class="cls-55" points="421.02 639.22 417.06 642.51 411.73 641.46 412.42 637.53 418.14 636.16 421.02 639.22"/><polygon class="cls-55" points="419.34 650.73 419.47 654.91 418.98 655.33 415.46 658.32 415.28 653.1 419.3 649.71 419.34 650.73"/><polygon class="cls-55" points="419.3 649.71 415.28 653.1 409.86 652.01 410.58 647.97 414.23 647.08 416.39 646.56 417.34 647.59 418.86 649.23 419.3 649.71"/><polygon class="cls-57" points="417.37 711.62 417.54 716.87 412.15 710.59 411.97 705.37 417.37 711.62"/><polygon class="cls-55" points="417.06 642.51 417.34 647.59 416.39 646.56 414.23 647.08 411.9 646.62 411.73 641.46 417.06 642.51"/><polygon class="cls-55" points="415.28 653.1 415.46 658.32 410.05 657.23 409.86 652.01 415.28 653.1"/><line class="cls-60" x1="468.31" y1="620.01" x2="462.87" y2="621.3"/><line class="cls-60" x1="495.89" y1="650.34" x2="486.69" y2="641.34"/><line class="cls-60" x1="495.95" y1="655.41" x2="495.89" y2="650.34"/><line class="cls-60" x1="484.64" y1="665.16" x2="485.3" y2="665.29"/><line class="cls-61" x1="485.3" y1="665.29" x2="485.23" y2="660.17"/><line class="cls-60" x1="484.56" y1="660.03" x2="485.23" y2="660.17"/><line class="cls-60" x1="485.3" y1="665.29" x2="495.95" y2="655.41"/><line class="cls-60" x1="485.23" y1="660.17" x2="495.89" y2="650.34"/><line class="cls-60" x1="518.11" y1="705.71" x2="517.97" y2="710.16"/><line class="cls-60" x1="523.81" y1="704.16" x2="518.11" y2="705.71"/><line class="cls-60" x1="518.01" y1="715.4" x2="517.97" y2="710.16"/><line class="cls-60" x1="518.01" y1="715.4" x2="523.67" y2="716.59"/><line class="cls-61" x1="523.67" y1="716.59" x2="523.64" y2="711.35"/><line class="cls-60" x1="517.97" y1="710.16" x2="523.64" y2="711.35"/><line class="cls-60" x1="523.67" y1="716.59" x2="527.26" y2="712.85"/><line class="cls-60" x1="527.26" y1="712.85" x2="527.24" y2="707.62"/><line class="cls-60" x1="523.64" y1="711.35" x2="527.24" y2="707.62"/><line class="cls-60" x1="527.24" y1="707.62" x2="523.81" y2="704.16"/><line class="cls-60" x1="528.54" y1="695.23" x2="528.46" y2="699.56"/><line class="cls-60" x1="534.14" y1="693.72" x2="528.54" y2="695.23"/><line class="cls-60" x1="528.48" y1="704.74" x2="528.46" y2="699.56"/><line class="cls-60" x1="528.48" y1="704.74" x2="534.08" y2="705.91"/><line class="cls-61" x1="534.08" y1="705.91" x2="534.07" y2="700.72"/><line class="cls-60" x1="528.46" y1="699.56" x2="534.07" y2="700.72"/><line class="cls-60" x1="534.08" y1="705.91" x2="537.57" y2="702.26"/><line class="cls-60" x1="537.57" y1="702.26" x2="537.57" y2="697.1"/><line class="cls-60" x1="534.07" y1="700.72" x2="537.57" y2="697.1"/><line class="cls-60" x1="537.57" y1="697.1" x2="534.14" y2="693.72"/><line class="cls-60" x1="515.62" y1="686.43" x2="509.17" y2="692.87"/><line class="cls-60" x1="525.6" y1="688.45" x2="515.62" y2="686.43"/><line class="cls-60" x1="525.63" y1="693.62" x2="525.6" y2="688.45"/><line class="cls-60" x1="509.22" y1="698.06" x2="509.17" y2="692.87"/><line class="cls-60" x1="509.22" y1="698.06" x2="515.27" y2="704.2"/><line class="cls-61" x1="515.27" y1="704.2" x2="515.23" y2="698.98"/><line class="cls-60" x1="509.17" y1="692.87" x2="515.23" y2="698.98"/><line class="cls-60" x1="515.27" y1="704.2" x2="525.49" y2="701.4"/><line class="cls-60" x1="525.49" y1="701.4" x2="525.47" y2="696.2"/><line class="cls-60" x1="467.61" y1="650.36" x2="461.81" y2="655.55"/><line class="cls-60" x1="475.43" y1="658.25" x2="475.98" y2="652.01"/><line class="cls-60" x1="466.62" y1="660.48" x2="475.43" y2="658.25"/><line class="cls-60" x1="461.81" y1="655.55" x2="466.62" y2="660.48"/><line class="cls-60" x1="475.98" y1="652.01" x2="467.61" y2="650.36"/><polyline class="cls-60" points="465.19 643.98 458.27 650.09 451.74 655.87"/><line class="cls-60" x1="483.28" y1="662.14" x2="484.37" y2="647.72"/><polyline class="cls-60" points="484.97 686.95 484.64 665.16 484.56 660.03 484.37 647.72"/><line class="cls-60" x1="484.3" y1="696.42" x2="484.97" y2="686.95"/><line class="cls-60" x1="462.8" y1="667.36" x2="483.28" y2="662.14"/><line class="cls-61" x1="483.81" y1="695.91" x2="483.28" y2="662.14"/><line class="cls-60" x1="463.64" y1="707.42" x2="465.52" y2="706.91"/><polyline class="cls-60" points="452.69 695.46 452.01 667.32 451.89 662.13 451.74 655.87"/><line class="cls-60" x1="451.74" y1="655.87" x2="462.8" y2="667.36"/><line class="cls-61" x1="463.64" y1="707.42" x2="462.8" y2="667.36"/><line class="cls-60" x1="525.47" y1="696.2" x2="525.6" y2="688.45"/><line class="cls-61" x1="525.49" y1="701.4" x2="525.63" y2="693.62"/><line class="cls-60" x1="515.23" y1="698.98" x2="525.47" y2="696.2"/><line class="cls-60" x1="528.8" y1="676.71" x2="528.72" y2="680.84"/><line class="cls-60" x1="534.27" y1="675.28" x2="528.8" y2="676.71"/><line class="cls-60" x1="528.74" y1="685.93" x2="528.72" y2="680.84"/><line class="cls-60" x1="528.74" y1="685.93" x2="534.2" y2="687.04"/><line class="cls-61" x1="534.2" y1="687.04" x2="534.19" y2="681.95"/><line class="cls-60" x1="528.72" y1="680.84" x2="534.19" y2="681.95"/><line class="cls-60" x1="534.2" y1="687.04" x2="537.62" y2="683.57"/><line class="cls-60" x1="537.62" y1="683.57" x2="537.61" y2="678.49"/><line class="cls-60" x1="534.19" y1="681.95" x2="537.61" y2="678.49"/><line class="cls-60" x1="537.61" y1="678.49" x2="534.27" y2="675.28"/><line class="cls-60" x1="528.86" y1="669.64" x2="525.59" y2="666.5"/><line class="cls-60" x1="528.88" y1="674.67" x2="528.86" y2="669.64"/><line class="cls-60" x1="525.59" y1="666.5" x2="520.16" y2="667.91"/><line class="cls-60" x1="520.16" y1="667.91" x2="520.13" y2="668.95"/><line class="cls-60" x1="525.91" y1="677.63" x2="528.88" y2="674.67"/><line class="cls-60" x1="525.94" y1="672.53" x2="528.86" y2="669.64"/><line class="cls-60" x1="417.34" y1="647.59" x2="421.19" y2="644.37"/><line class="cls-60" x1="417.07" y1="642.52" x2="421.03" y2="639.22"/><line class="cls-60" x1="411.9" y1="646.62" x2="414.23" y2="647.08"/><line class="cls-60" x1="411.73" y1="641.46" x2="417.07" y2="642.52"/><line class="cls-60" x1="411.9" y1="646.62" x2="411.73" y2="641.46"/><line class="cls-60" x1="421.19" y1="644.37" x2="421.03" y2="639.22"/><line class="cls-60" x1="421.03" y1="639.22" x2="418.15" y2="636.16"/><line class="cls-60" x1="418.15" y1="636.16" x2="412.42" y2="637.53"/><line class="cls-60" x1="412.42" y1="637.53" x2="411.73" y2="641.46"/><polyline class="cls-60" points="419.3 649.71 418.86 649.23 417.34 647.59 416.39 646.56"/><line class="cls-60" x1="410.05" y1="657.23" x2="409.86" y2="652.01"/><line class="cls-60" x1="410.58" y1="647.97" x2="409.86" y2="652.01"/><line class="cls-60" x1="410.05" y1="657.23" x2="415.46" y2="658.32"/><line class="cls-60" x1="409.86" y1="652.01" x2="415.28" y2="653.1"/><polyline class="cls-60" points="419.47 654.91 418.98 655.33 415.46 658.32"/><polyline class="cls-60" points="419.47 654.91 419.34 650.73 419.3 649.71"/><line class="cls-60" x1="419.3" y1="649.71" x2="415.28" y2="653.1"/><polyline class="cls-60" points="416.39 646.56 414.23 647.08 410.58 647.97"/><line class="cls-60" x1="443.08" y1="629.39" x2="448.33" y2="630.4"/><line class="cls-60" x1="442.95" y1="624.33" x2="448.21" y2="625.34"/><line class="cls-60" x1="443.08" y1="629.39" x2="442.95" y2="624.33"/><line class="cls-60" x1="443.46" y1="620.58" x2="442.95" y2="624.33"/><line class="cls-61" x1="448.33" y1="630.4" x2="448.21" y2="625.34"/><line class="cls-60" x1="448.33" y1="630.4" x2="452.05" y2="627.24"/><line class="cls-60" x1="452.05" y1="627.24" x2="451.93" y2="622.2"/><line class="cls-60" x1="448.21" y1="625.34" x2="451.93" y2="622.2"/><line class="cls-60" x1="451.93" y1="622.2" x2="448.99" y2="619.28"/><line class="cls-60" x1="448.99" y1="619.28" x2="443.46" y2="620.58"/><line class="cls-60" x1="433.63" y1="633.93" x2="437.43" y2="630.74"/><line class="cls-60" x1="433.48" y1="628.84" x2="437.29" y2="625.67"/><line class="cls-60" x1="434.39" y1="622.73" x2="428.81" y2="624.05"/><line class="cls-60" x1="428.37" y1="632.91" x2="428.22" y2="627.83"/><line class="cls-60" x1="428.81" y1="624.05" x2="428.22" y2="627.83"/><line class="cls-60" x1="428.37" y1="632.91" x2="433.63" y2="633.93"/><line class="cls-61" x1="433.63" y1="633.93" x2="433.48" y2="628.84"/><line class="cls-60" x1="428.22" y1="627.83" x2="433.48" y2="628.84"/><line class="cls-60" x1="437.43" y1="630.74" x2="437.29" y2="625.67"/><line class="cls-60" x1="437.29" y1="625.67" x2="434.39" y2="622.73"/><line class="cls-60" x1="439.39" y1="645.59" x2="448" y2="643.49"/><line class="cls-60" x1="439.25" y1="640.49" x2="447.87" y2="638.39"/><polyline class="cls-60" points="434.9 640.92 439.26 645.46 439.39 645.59"/><polyline class="cls-61" points="439.28 645.42 439.14 640.38 439.14 640.31"/><polyline class="cls-60" points="434.76 635.84 439.14 640.38 439.25 640.49"/><line class="cls-60" x1="434.91" y1="640.92" x2="434.76" y2="635.84"/><line class="cls-61" x1="448" y1="643.49" x2="447.87" y2="638.39"/><line class="cls-60" x1="448" y1="643.49" x2="448.74" y2="637.56"/><line class="cls-60" x1="448.74" y1="637.56" x2="448.62" y2="632.5"/><line class="cls-60" x1="447.87" y1="638.39" x2="448.62" y2="632.5"/><line class="cls-60" x1="448.62" y1="632.5" x2="440.57" y2="630.95"/><line class="cls-60" x1="440.57" y1="630.95" x2="434.76" y2="635.84"/><line class="cls-60" x1="422.98" y1="659.68" x2="431.81" y2="657.49"/><line class="cls-60" x1="422.82" y1="654.49" x2="431.66" y2="652.31"/><line class="cls-60" x1="424.39" y1="644.58" x2="418.86" y2="649.23"/><polyline class="cls-61" points="419.34 650.73 419.34 650.73 422.82 654.49 422.98 659.68 418.98 655.33"/><polyline class="cls-61" points="431.82 657.22 431.67 652.2 431.67 652.04"/><polyline class="cls-60" points="431.81 657.49 431.85 657.23 432.7 651.33"/><line class="cls-60" x1="432.7" y1="651.33" x2="432.55" y2="646.19"/><polyline class="cls-60" points="431.66 652.31 431.67 652.2 432.55 646.19"/><line class="cls-60" x1="432.55" y1="646.19" x2="424.39" y2="644.58"/><line class="cls-60" x1="452.64" y1="644.34" x2="436" y2="648.42"/><line class="cls-60" x1="434.47" y1="665.46" x2="450.48" y2="668.69"/><line class="cls-61" x1="450.48" y1="668.69" x2="450.35" y2="663.5"/><line class="cls-60" x1="434.32" y1="660.29" x2="450.35" y2="663.5"/><line class="cls-60" x1="434.47" y1="665.46" x2="434.32" y2="660.29"/><polyline class="cls-60" points="450.48 668.69 452.01 667.32 452.01 667.32"/><line class="cls-60" x1="450.35" y1="663.5" x2="451.89" y2="662.13"/><line class="cls-60" x1="458.27" y1="650.09" x2="452.64" y2="644.34"/><line class="cls-60" x1="436" y1="648.42" x2="434.32" y2="660.29"/><line class="cls-60" x1="507.38" y1="629.84" x2="507.19" y2="633.65"/><line class="cls-60" x1="512.8" y1="628.52" x2="507.38" y2="629.84"/><line class="cls-60" x1="507.24" y1="638.71" x2="507.19" y2="633.65"/><line class="cls-60" x1="507.24" y1="638.71" x2="512.58" y2="639.74"/><line class="cls-61" x1="512.58" y1="639.74" x2="512.54" y2="634.68"/><line class="cls-60" x1="507.19" y1="633.65" x2="512.54" y2="634.68"/><line class="cls-60" x1="512.58" y1="639.74" x2="516.03" y2="636.54"/><line class="cls-60" x1="516.03" y1="636.54" x2="515.99" y2="631.49"/><line class="cls-60" x1="512.54" y1="634.68" x2="515.99" y2="631.49"/><line class="cls-60" x1="515.99" y1="631.49" x2="512.8" y2="628.52"/><line class="cls-60" x1="498.96" y1="630.85" x2="504.23" y2="631.86"/><line class="cls-60" x1="498.9" y1="625.83" x2="504.18" y2="626.84"/><line class="cls-60" x1="507.63" y1="623.72" x2="504.5" y2="620.82"/><line class="cls-60" x1="507.68" y1="628.73" x2="507.63" y2="623.72"/><line class="cls-60" x1="504.5" y1="620.82" x2="499.13" y2="622.11"/><line class="cls-60" x1="498.96" y1="630.85" x2="498.9" y2="625.83"/><line class="cls-60" x1="499.13" y1="622.11" x2="498.9" y2="625.83"/><line class="cls-61" x1="504.23" y1="631.86" x2="504.18" y2="626.84"/><line class="cls-60" x1="504.23" y1="631.86" x2="507.68" y2="628.73"/><line class="cls-60" x1="504.18" y1="626.84" x2="507.63" y2="623.72"/><line class="cls-60" x1="476.9" y1="626.6" x2="482.12" y2="627.6"/><line class="cls-60" x1="476.82" y1="621.6" x2="482.04" y2="622.61"/><line class="cls-60" x1="476.9" y1="626.6" x2="476.82" y2="621.6"/><line class="cls-60" x1="477.16" y1="617.92" x2="476.82" y2="621.6"/><line class="cls-61" x1="482.12" y1="627.6" x2="482.04" y2="622.61"/><line class="cls-60" x1="482.12" y1="627.6" x2="485.65" y2="624.51"/><line class="cls-60" x1="485.65" y1="624.51" x2="485.58" y2="619.53"/><line class="cls-60" x1="482.04" y1="622.61" x2="485.58" y2="619.53"/><line class="cls-60" x1="485.58" y1="619.53" x2="482.55" y2="616.65"/><line class="cls-60" x1="482.55" y1="616.65" x2="477.16" y2="617.92"/><line class="cls-60" x1="467.78" y1="631.05" x2="471.39" y2="627.92"/><line class="cls-60" x1="467.68" y1="626.03" x2="471.29" y2="622.92"/><line class="cls-60" x1="486.69" y1="641.34" x2="471.16" y2="645.15"/><line class="cls-60" x1="462.55" y1="630.03" x2="462.45" y2="625.02"/><line class="cls-60" x1="462.87" y1="621.3" x2="462.45" y2="625.02"/><line class="cls-60" x1="462.55" y1="630.03" x2="467.78" y2="631.05"/><line class="cls-61" x1="467.78" y1="631.05" x2="467.68" y2="626.03"/><line class="cls-60" x1="462.45" y1="625.02" x2="467.68" y2="626.03"/><line class="cls-60" x1="471.39" y1="627.92" x2="471.29" y2="622.92"/><line class="cls-60" x1="471.29" y1="622.92" x2="468.31" y2="620.01"/><line class="cls-60" x1="473.68" y1="642.55" x2="482.08" y2="640.49"/><line class="cls-60" x1="473.59" y1="637.5" x2="482" y2="635.46"/><line class="cls-60" x1="482.49" y1="629.67" x2="474.49" y2="628.13"/><line class="cls-60" x1="482.57" y1="634.67" x2="482.49" y2="629.67"/><line class="cls-60" x1="469.07" y1="637.95" x2="468.97" y2="632.93"/><line class="cls-60" x1="474.49" y1="628.13" x2="468.97" y2="632.93"/><line class="cls-60" x1="469.07" y1="637.95" x2="473.68" y2="642.55"/><line class="cls-61" x1="473.68" y1="642.55" x2="473.59" y2="637.5"/><line class="cls-60" x1="468.97" y1="632.93" x2="473.59" y2="637.5"/><line class="cls-61" x1="482.08" y1="640.49" x2="482" y2="635.46"/><line class="cls-60" x1="482.08" y1="640.49" x2="482.57" y2="634.67"/><line class="cls-60" x1="482" y1="635.46" x2="482.49" y2="629.67"/><line class="cls-60" x1="491.25" y1="642.29" x2="496.03" y2="646.94"/><line class="cls-60" x1="491.18" y1="637.25" x2="495.97" y2="641.88"/><line class="cls-60" x1="491.25" y1="642.29" x2="491.18" y2="637.25"/><line class="cls-60" x1="496.58" y1="632.39" x2="491.18" y2="637.25"/><line class="cls-61" x1="496.03" y1="646.94" x2="495.97" y2="641.88"/><line class="cls-60" x1="496.03" y1="646.94" x2="504.4" y2="644.86"/><line class="cls-60" x1="504.4" y1="644.86" x2="504.35" y2="639.81"/><line class="cls-60" x1="495.97" y1="641.88" x2="504.35" y2="639.81"/><line class="cls-61" x1="504.4" y1="644.86" x2="504.72" y2="638.97"/><line class="cls-60" x1="504.72" y1="638.97" x2="504.67" y2="633.95"/><line class="cls-60" x1="504.35" y1="639.81" x2="504.67" y2="633.95"/><line class="cls-60" x1="504.67" y1="633.95" x2="496.58" y2="632.39"/><polyline class="cls-60" points="504.74 692.94 514.16 683.58 515.33 682.42"/><line class="cls-60" x1="504.69" y1="687.73" x2="515.29" y2="677.26"/><line class="cls-60" x1="505.57" y1="667.74" x2="489.08" y2="672.02"/><line class="cls-60" x1="488.34" y1="689.59" x2="488.26" y2="684.39"/><line class="cls-60" x1="489.08" y1="672.02" x2="488.26" y2="684.39"/><line class="cls-60" x1="488.34" y1="689.59" x2="504.74" y2="692.94"/><line class="cls-61" x1="504.74" y1="692.94" x2="504.69" y2="687.73"/><line class="cls-60" x1="488.26" y1="684.39" x2="504.69" y2="687.73"/><polyline class="cls-60" points="515.33 682.42 515.31 679.63 515.29 677.26"/><polyline class="cls-60" points="515.29 677.26 511.09 673.14 505.57 667.74"/><line class="cls-60" x1="514.16" y1="683.58" x2="515.85" y2="685.25"/><line class="cls-60" x1="515.31" y1="679.63" x2="515.81" y2="680.12"/><polyline class="cls-60" points="525.82 682.59 525.91 677.63 525.95 675.17"/><polyline class="cls-60" points="525.95 675.17 525.94 672.53 525.93 670.1"/><line class="cls-60" x1="525.8" y1="677.48" x2="525.93" y2="670.1"/><line class="cls-61" x1="525.82" y1="682.59" x2="525.8" y2="677.48"/><polyline class="cls-60" points="525.93 670.1 520.13 668.95 516.18 668.17"/><line class="cls-60" x1="516.18" y1="668.17" x2="511.09" y2="673.14"/><line class="cls-61" x1="515.85" y1="685.25" x2="515.81" y2="680.12"/><line class="cls-60" x1="515.85" y1="685.25" x2="525.82" y2="682.59"/><line class="cls-60" x1="515.81" y1="680.12" x2="525.8" y2="677.48"/><line class="cls-60" x1="447.4" y1="720.31" x2="458.93" y2="709.2"/><line class="cls-60" x1="458.93" y1="709.2" x2="458.81" y2="703.99"/><line class="cls-60" x1="447.26" y1="715.04" x2="458.81" y2="703.99"/><line class="cls-61" x1="447.4" y1="720.31" x2="447.26" y2="715.04"/><line class="cls-60" x1="458.81" y1="703.99" x2="449.58" y2="693.99"/><line class="cls-60" x1="449.58" y1="693.99" x2="432.47" y2="698.54"/><line class="cls-60" x1="430.88" y1="715.72" x2="430.76" y2="711.58"/><line class="cls-60" x1="432.47" y1="698.54" x2="430.76" y2="711.58"/><line class="cls-60" x1="442.91" y1="719.36" x2="447.4" y2="720.31"/><line class="cls-60" x1="430.76" y1="711.58" x2="447.26" y2="715.04"/><line class="cls-60" x1="477.42" y1="723.48" x2="467.18" y2="721.29"/><line class="cls-60" x1="476.87" y1="737.24" x2="477.51" y2="728.79"/><line class="cls-60" x1="477.51" y1="728.79" x2="477.42" y2="723.48"/><line class="cls-60" x1="476.77" y1="731.88" x2="477.42" y2="723.48"/><line class="cls-61" x1="476.87" y1="737.24" x2="476.77" y2="731.88"/><line class="cls-60" x1="460.18" y1="733.61" x2="460.07" y2="728.27"/><line class="cls-60" x1="467.18" y1="721.29" x2="460.07" y2="728.27"/><line class="cls-60" x1="460.18" y1="733.61" x2="466.07" y2="740.27"/><line class="cls-61" x1="466.07" y1="740.27" x2="465.96" y2="734.9"/><line class="cls-60" x1="460.07" y1="728.27" x2="465.96" y2="734.9"/><line class="cls-60" x1="466.07" y1="740.27" x2="476.87" y2="737.24"/><line class="cls-60" x1="465.96" y1="734.9" x2="476.77" y2="731.88"/><line class="cls-60" x1="493.22" y1="714.15" x2="486.39" y2="721"/><line class="cls-60" x1="492.51" y1="732.84" x2="503.11" y2="729.86"/><line class="cls-61" x1="503.11" y1="729.86" x2="503.05" y2="724.55"/><line class="cls-60" x1="492.44" y1="727.51" x2="503.05" y2="724.55"/><line class="cls-61" x1="492.51" y1="732.84" x2="492.44" y2="727.51"/><line class="cls-60" x1="503.11" y1="729.86" x2="503.48" y2="721.57"/><line class="cls-60" x1="503.48" y1="721.57" x2="503.43" y2="716.3"/><line class="cls-60" x1="503.05" y1="724.55" x2="503.43" y2="716.3"/><line class="cls-60" x1="503.43" y1="716.3" x2="493.22" y2="714.15"/><line class="cls-60" x1="486.47" y1="726.3" x2="486.39" y2="721"/><line class="cls-60" x1="486.47" y1="726.3" x2="492.51" y2="732.84"/><line class="cls-60" x1="486.39" y1="721" x2="492.44" y2="727.51"/><line class="cls-60" x1="425.59" y1="726.15" x2="431.19" y2="732.67"/><line class="cls-61" x1="431.19" y1="732.67" x2="431.03" y2="727.34"/><line class="cls-60" x1="425.42" y1="720.85" x2="431.03" y2="727.34"/><line class="cls-60" x1="425.59" y1="726.15" x2="425.42" y2="720.85"/><line class="cls-60" x1="431.19" y1="732.67" x2="442.02" y2="729.66"/><line class="cls-61" x1="442.02" y1="729.66" x2="441.87" y2="724.34"/><line class="cls-60" x1="431.03" y1="727.34" x2="441.87" y2="724.34"/><line class="cls-60" x1="442.02" y1="729.66" x2="442.97" y2="721.37"/><polyline class="cls-60" points="442.97 721.37 442.92 719.36 442.83 716.09"/><line class="cls-60" x1="441.87" y1="724.34" x2="442.83" y2="716.09"/><line class="cls-60" x1="442.83" y1="716.09" x2="432.74" y2="713.97"/><polyline class="cls-60" points="432.74 713.97 430.88 715.72 430.88 715.72 425.42 720.85"/><line class="cls-60" x1="417.54" y1="716.87" x2="428.22" y2="713.98"/><line class="cls-60" x1="428.22" y1="713.98" x2="428.06" y2="708.74"/><line class="cls-60" x1="417.37" y1="711.62" x2="428.06" y2="708.74"/><line class="cls-61" x1="417.54" y1="716.87" x2="417.37" y2="711.62"/><line class="cls-60" x1="428.22" y1="713.98" x2="429.29" y2="705.99"/><line class="cls-60" x1="429.29" y1="705.99" x2="429.14" y2="700.79"/><line class="cls-60" x1="428.06" y1="708.74" x2="429.14" y2="700.79"/><line class="cls-60" x1="429.14" y1="700.79" x2="419.27" y2="698.75"/><line class="cls-60" x1="412.15" y1="710.59" x2="411.97" y2="705.37"/><line class="cls-60" x1="419.27" y1="698.75" x2="411.97" y2="705.37"/><line class="cls-60" x1="412.15" y1="710.59" x2="417.54" y2="716.87"/><line class="cls-60" x1="411.97" y1="705.37" x2="417.37" y2="711.62"/><line class="cls-60" x1="481.81" y1="721.96" x2="493.03" y2="710.75"/><line class="cls-60" x1="481.73" y1="716.64" x2="492.96" y2="705.49"/><line class="cls-60" x1="465.06" y1="718.39" x2="481.81" y2="721.96"/><line class="cls-61" x1="481.81" y1="721.96" x2="481.73" y2="716.64"/><line class="cls-60" x1="464.95" y1="713.08" x2="481.73" y2="716.64"/><line class="cls-60" x1="465.06" y1="718.39" x2="464.95" y2="713.08"/><line class="cls-60" x1="493.03" y1="710.75" x2="492.96" y2="705.49"/><polyline class="cls-60" points="492.96 705.49 484.3 696.42 483.81 695.91 483.27 695.34"/><line class="cls-60" x1="483.27" y1="695.34" x2="466.18" y2="699.9"/><polyline class="cls-60" points="466.18 699.9 465.52 706.91 464.95 713.09"/><polyline class="cls-60" points="484.37 647.72 471.16 645.15 471.16 645.15 465.19 643.98"/><line class="cls-60" x1="452.69" y1="695.46" x2="463.64" y2="707.42"/><line class="cls-61" x1="417.07" y1="642.52" x2="417.34" y2="647.59"/><line class="cls-61" x1="415.28" y1="653.1" x2="415.46" y2="658.32"/><circle class="cls-62" cx="448.83" cy="374.89" r="2.04" transform="translate(-117.23 521.76) rotate(-54.42)"/><circle class="cls-62" cx="449.53" cy="382.27" r="2.04" transform="translate(-122.93 525.41) rotate(-54.42)"/><circle class="cls-62" cx="451.41" cy="389.67" r="2.04" transform="translate(-128.17 530.03) rotate(-54.42)"/><circle class="cls-62" cx="455.18" cy="396.1" r="2.04" transform="translate(-131.83 535.79) rotate(-54.42)"/><circle class="cls-62" cx="458.73" cy="402.83" r="2.04" transform="translate(-135.81 541.49) rotate(-54.42)"/><circle class="cls-62" cx="461.82" cy="408.95" r="2.04" transform="translate(-139.5 546.56) rotate(-54.42)"/><circle class="cls-62" cx="465.96" cy="414.45" r="2.04" transform="translate(-142.24 552.22) rotate(-54.42)"/><circle class="cls-62" cx="449.32" cy="367.19" r="2.04" transform="translate(-110.76 518.94) rotate(-54.42)"/><circle class="cls-62" cx="452.43" cy="359.34" r="2.04" transform="translate(-103.07 518.18) rotate(-54.42)"/><circle class="cls-62" cx="455.42" cy="353.48" r="2.04" transform="translate(-97.06 518.17) rotate(-54.42)"/><circle class="cls-62" cx="459.62" cy="347.62" r="2.04" transform="translate(-90.54 519.13) rotate(-54.42)"/><circle class="cls-62" cx="464.6" cy="342.32" r="2.04" transform="translate(-84.15 520.97) rotate(-54.42)"/><circle class="cls-62" cx="467.14" cy="337.11" r="2.04" transform="translate(-78.85 520.85) rotate(-54.42)"/><circle class="cls-62" cx="470.46" cy="332.46" r="2.04" transform="translate(-73.68 521.61) rotate(-54.42)"/><circle class="cls-62" cx="468.32" cy="370.71" r="2.04" transform="translate(-105.68 535.86) rotate(-54.42)"/><circle class="cls-62" cx="469.72" cy="375.77" r="2.04" transform="translate(-90.16 595.72) rotate(-60.11)"/><circle class="cls-62" cx="468.97" cy="380.04" r="1.87" transform="translate(-113 540.29) rotate(-54.42)"/><circle class="cls-62" cx="466.69" cy="385.15" r="2.04" transform="translate(-99.81 597.8) rotate(-60.11)"/><circle class="cls-62" cx="462.32" cy="390.46" r="2.04" transform="translate(-106.6 596.68) rotate(-60.11)"/><circle class="cls-62" cx="458.8" cy="397.47" r="2.04" transform="translate(-114.45 597.14) rotate(-60.11)"/><circle class="cls-62" cx="453.76" cy="403.22" r="2.04" transform="translate(-121.96 595.65) rotate(-60.11)"/><circle class="cls-62" cx="450.67" cy="410.59" r="2.04" transform="translate(-129.9 596.67) rotate(-60.11)"/><circle class="cls-62" cx="447.64" cy="417.96" r="2.04" transform="translate(-137.8 597.74) rotate(-60.11)"/><circle class="cls-62" cx="466.57" cy="365.82" r="2.04" transform="translate(-83.11 587.99) rotate(-60.11)"/><circle class="cls-62" cx="463.32" cy="360.11" r="2.04" transform="translate(-79.78 582.32) rotate(-60.11)"/><circle class="cls-62" cx="460.63" cy="354.89" r="2.04" transform="translate(-76.61 577.37) rotate(-60.11)"/><circle class="cls-62" cx="455.2" cy="349.2" r="1.47" transform="translate(-74.41 569.8) rotate(-60.11)"/><circle class="cls-62" cx="453.06" cy="342.93" r="2.04" transform="translate(-70.04 564.8) rotate(-60.11)"/><circle class="cls-62" cx="451.12" cy="335.19" r="2.04" transform="translate(-64.3 559.24) rotate(-60.11)"/><line class="cls-63" x1="451.62" y1="389.37" x2="466.69" y2="385.15"/><line class="cls-63" x1="449.53" y1="382.27" x2="468.97" y2="380.04"/><line class="cls-63" x1="449.32" y1="367.19" x2="468.32" y2="370.71"/><line class="cls-63" x1="448.83" y1="374.89" x2="469.72" y2="375.77"/><line class="cls-63" x1="452" y1="359.93" x2="466.57" y2="365.82"/><line class="cls-63" x1="460.41" y1="348.19" x2="460.33" y2="352.87"/><line class="cls-63" x1="453.06" y1="342.93" x2="466.8" y2="337.58"/><path class="cls-64" d="M470.46,332.46l-19.34,2.72s5.8,23.06,5.09,18.86"/><path class="cls-63" d="M453.76,403.22c2-.08,8.06,5.74,8.06,5.74"/><line class="cls-63" x1="450.67" y1="410.59" x2="465.96" y2="414.45"/><path class="cls-64" d="M466.9,420.15l-19.67-2.26,7.94-21.8"/><circle class="cls-62" cx="466.9" cy="420.15" r="2.04" transform="translate(-146.48 555.38) rotate(-54.42)"/><path class="cls-64" d="M471.25,333s-15.66,19.92-17,22.12-11.89,17.93.42,41.23q0.81,1.54,1.76,3.12s9.69,13.38,12.14,21.84"/><path class="cls-64" d="M456,352.65s30.33,22.92-.2,42.65"/><rect class="cls-65" x="455.34" y="327.67" width="6.36" height="97.21"/><text class="cls-1" transform="translate(379.8 315.56)">L<tspan x="7.42" y="0">AB + D</tspan><tspan x="51.4" y="0">N</tspan><tspan x="62.09" y="0">A </tspan><tspan x="75.64" y="0">F</tspan><tspan x="82.94" y="0">orm</tspan></text><text class="cls-1" transform="translate(380.53 442.06)">Spatial Ar<tspan x="61.14" y="0">r</tspan><tspan x="66.89" y="0">a</tspan><tspan x="73.91" y="0">ngment</tspan></text><polygon class="cls-38" points="520.11 523.78 521.32 527.77 517.9 530.16 514.57 527.65 515.93 523.7 520.11 523.78"/><polygon class="cls-38" points="512.79 527.06 511.41 531 507.23 530.91 506.04 526.91 509.47 524.53 512.79 527.06"/><polygon class="cls-38" points="509.14 537.44 507.76 541.38 503.59 541.28 502.39 537.28 505.82 534.9 509.14 537.44"/><polygon class="cls-38" points="507.76 510.23 506.38 514.17 502.2 514.06 501.01 510.07 504.45 507.69 507.76 510.23"/><polygon class="cls-11" points="503.73 526.44 505.55 532.56 500.3 536.19 495.22 532.32 497.34 526.29 503.73 526.44"/><polygon class="cls-11" points="498.7 509.6 500.52 515.72 495.27 519.35 490.2 515.47 492.32 509.45 498.7 509.6"/><polygon class="cls-39" points="497.17 548.41 499.34 555.6 493.18 559.89 487.2 555.35 489.66 548.26 497.17 548.41"/><polygon class="cls-38" points="499.03 503.56 497.64 507.49 493.47 507.39 492.28 503.39 495.71 501.02 499.03 503.56"/><polygon class="cls-38" points="498.16 537.18 496.77 541.11 492.6 541.01 491.4 537.01 494.84 534.64 498.16 537.18"/><polygon class="cls-11" points="496.36 522.8 492.27 534.42 479.96 534.12 476.44 522.32 486.58 515.32 496.36 522.8"/><polygon class="cls-38" points="488.77 495.76 487.4 499.7 483.23 499.61 482.02 495.61 485.45 493.23 488.77 495.76"/><polygon class="cls-44" points="488.49 545.3 484.44 556.94 472.13 556.69 468.56 544.9 478.67 537.86 488.49 545.3"/><polygon class="cls-39" points="482 558.97 484.17 566.16 478.01 570.45 472.03 565.91 474.49 558.82 482 558.97"/><polygon class="cls-11" points="479.71 495.16 481.55 501.27 476.31 504.91 471.22 501.05 473.32 495.02 479.71 495.16"/><polygon class="cls-38" points="480.02 489.11 478.65 493.05 474.48 492.96 473.27 488.97 476.69 486.58 480.02 489.11"/><path class="cls-10" d="M474.44,521.74l4.25,14.07-12.07,8.38-11.7-8.89,4.84-13.88ZM472,533.48l-1.84-6.09-6.36-.14-2.1,6,5.07,3.85Z"/><polygon class="cls-11" points="477.41 508.36 473.36 519.99 461.04 519.73 457.48 507.94 467.6 500.91 477.41 508.36"/><polygon class="cls-47" points="470.16 527.39 472 533.48 466.77 537.11 461.7 533.26 463.8 527.25 470.16 527.39"/><polygon class="cls-44" points="464.41 545.14 460.36 556.77 448.04 556.51 444.49 544.71 454.6 537.69 464.41 545.14"/><polygon class="cls-11" points="462.13 494.78 463.98 500.9 458.73 504.54 453.64 500.68 455.75 494.64 462.13 494.78"/><polygon class="cls-38" points="462.45 488.74 461.07 492.68 456.9 492.59 455.7 488.59 459.13 486.21 462.45 488.74"/><polygon class="cls-45" points="457.91 558.8 460.08 565.99 453.91 570.27 447.94 565.73 450.4 558.64 457.91 558.8"/><polygon class="cls-44" points="457.71 521.98 453.71 533.62 441.39 533.41 437.79 521.63 447.88 514.57 457.71 521.98"/><polygon class="cls-38" points="456.59 505.53 455.21 509.47 451.04 509.38 449.84 505.38 453.27 503 456.59 505.53"/><polygon class="cls-38" points="453.42 495 452.04 498.94 447.87 498.85 446.67 494.86 450.1 492.48 453.42 495"/><polygon class="cls-45" points="443.19 547.62 445.36 554.8 439.19 559.09 433.21 554.55 435.68 547.46 443.19 547.62"/><polygon class="cls-40" points="442.45 507.11 444.65 514.28 438.5 518.59 432.51 514.07 434.95 506.98 442.45 507.11"/><polygon class="cls-40" points="436.5 524.54 438.7 531.72 432.55 536.03 426.55 531.51 429 524.41 436.5 524.54"/><polygon class="cls-66" points="453.27 503 449.84 505.38 451.04 509.38 455.21 509.47 456.59 505.53 453.27 503"/><polygon class="cls-66" points="498.16 537.18 496.77 541.11 492.6 541.01 491.4 537.01 494.84 534.64 498.16 537.18"/><polygon class="cls-66" points="509.14 537.44 507.76 541.38 503.59 541.28 502.39 537.28 505.82 534.9 509.14 537.44"/><polygon class="cls-66" points="511.41 531 512.79 527.06 509.47 524.53 506.04 526.91 507.23 530.91 511.41 531"/><polygon class="cls-66" points="450.1 492.48 446.67 494.86 447.87 498.85 452.04 498.94 453.42 495 450.1 492.48"/><polygon class="cls-66" points="455.7 488.59 459.13 486.21 462.45 488.74 461.07 492.68 456.9 492.59 455.7 488.59"/><polygon class="cls-66" points="459.75 521.43 454.92 535.31 466.62 544.2 478.69 535.81 474.44 521.74 459.75 521.43"/><polygon class="cls-66" points="473.32 495.02 479.71 495.16 481.55 501.27 476.31 504.91 471.22 501.05 473.32 495.02"/><polygon class="cls-66" points="457.48 507.94 461.04 519.73 473.36 519.99 477.41 508.36 467.6 500.91 457.48 507.94"/><polygon class="cls-66" points="492.27 534.42 479.96 534.12 476.44 522.32 486.58 515.32 496.36 522.8 492.27 534.42"/><polygon class="cls-66" points="503.73 526.44 505.55 532.56 500.3 536.19 495.22 532.32 497.34 526.29 503.73 526.44"/><polygon class="cls-66" points="500.52 515.72 498.7 509.6 492.32 509.45 490.2 515.47 495.27 519.35 500.52 515.72"/><polygon class="cls-66" points="462.13 494.78 455.75 494.64 453.64 500.68 458.73 504.54 463.98 500.9 462.13 494.78"/><polygon class="cls-66" points="463.8 527.25 461.7 533.26 466.77 537.11 472 533.48 470.16 527.39 463.8 527.25"/><polygon class="cls-66" points="488.49 545.3 478.67 537.86 468.56 544.9 472.13 556.69 484.44 556.94 488.49 545.3"/><polygon class="cls-66" points="441.39 533.41 453.71 533.62 457.71 521.98 447.88 514.57 437.79 521.63 441.39 533.41"/><polygon class="cls-66" points="444.49 544.71 454.6 537.69 464.41 545.14 460.36 556.77 448.04 556.51 444.49 544.71"/><polygon class="cls-66" points="493.18 559.89 499.34 555.6 497.17 548.41 489.66 548.26 487.2 555.35 493.18 559.89"/><line class="cls-66" x1="445.36" y1="554.8" x2="439.19" y2="559.09"/><line class="cls-66" x1="443.19" y1="547.62" x2="445.36" y2="554.8"/><line class="cls-66" x1="435.68" y1="547.46" x2="443.19" y2="547.62"/><line class="cls-66" x1="433.21" y1="554.55" x2="435.68" y2="547.46"/><line class="cls-66" x1="439.19" y1="559.09" x2="433.21" y2="554.55"/><line class="cls-66" x1="434.95" y1="506.98" x2="442.45" y2="507.11"/><line class="cls-66" x1="442.45" y1="507.11" x2="444.65" y2="514.28"/><line class="cls-66" x1="444.65" y1="514.28" x2="438.5" y2="518.59"/><line class="cls-66" x1="438.5" y1="518.59" x2="432.51" y2="514.07"/><line class="cls-66" x1="429" y1="524.41" x2="436.5" y2="524.54"/><line class="cls-66" x1="436.5" y1="524.54" x2="438.7" y2="531.72"/><line class="cls-66" x1="438.7" y1="531.72" x2="432.55" y2="536.03"/><line class="cls-66" x1="432.55" y1="536.03" x2="426.55" y2="531.51"/><line class="cls-66" x1="426.55" y1="531.51" x2="429" y2="524.41"/><line class="cls-66" x1="432.51" y1="514.07" x2="434.95" y2="506.98"/><line class="cls-66" x1="453.91" y1="570.27" x2="447.93" y2="565.73"/><line class="cls-66" x1="460.08" y1="565.98" x2="453.91" y2="570.27"/><line class="cls-66" x1="457.91" y1="558.8" x2="460.08" y2="565.98"/><line class="cls-66" x1="450.41" y1="558.64" x2="457.91" y2="558.8"/><line class="cls-66" x1="447.93" y1="565.73" x2="450.41" y2="558.64"/><line class="cls-66" x1="484.17" y1="566.16" x2="478.01" y2="570.45"/><line class="cls-66" x1="481.99" y1="558.97" x2="484.17" y2="566.16"/><line class="cls-66" x1="474.49" y1="558.82" x2="481.99" y2="558.97"/><line class="cls-66" x1="472.03" y1="565.91" x2="474.49" y2="558.82"/><line class="cls-66" x1="478.01" y1="570.45" x2="472.03" y2="565.91"/><polygon class="cls-66" points="480.02 489.11 476.69 486.58 473.27 488.97 474.48 492.96 478.65 493.05 480.02 489.11"/><polygon class="cls-66" points="485.45 493.23 488.77 495.76 487.4 499.7 483.23 499.61 482.02 495.61 485.45 493.23"/><polygon class="cls-66" points="499.03 503.56 495.71 501.02 492.28 503.39 493.47 507.39 497.64 507.49 499.03 503.56"/><polygon class="cls-66" points="504.45 507.69 507.76 510.23 506.38 514.17 502.2 514.06 501.01 510.07 504.45 507.69"/><polygon class="cls-66" points="515.93 523.7 514.57 527.65 517.9 530.16 521.32 527.77 520.11 523.78 515.93 523.7"/><text class="cls-6" transform="translate(455.92 368.66) rotate(90)">LAB</text></svg>